<?xml version="1.0" encoding="UTF-8" standalone="no" ?>
<!DOCTYPE svg PUBLIC "-//W3C//DTD SVG 1.1//EN" "http://www.w3.org/Graphics/SVG/1.1/DTD/svg11.dtd">
<svg xmlns="http://www.w3.org/2000/svg" xmlns:xlink="http://www.w3.org/1999/xlink" version="1.1" width="500" height="500" viewBox="0 0 640 640" xml:space="preserve">
<desc>Created with Fabric.js 4.6.0</desc>
<defs>
</defs>
<g transform="matrix(1 0 0 1 320 320)" id="zk1zHFLkL7Bb589y-DnGz"  >
<g style="" vector-effect="non-scaling-stroke"   >
		<g transform="matrix(1 0 0 1 54.9 -35.89)" id="jerq0H6GAkwpNbISz4_zi"  >
<path style="stroke: none; stroke-width: 1; stroke-dasharray: none; stroke-linecap: butt; stroke-dashoffset: 0; stroke-linejoin: miter; stroke-miterlimit: 4; fill: rgb(0,0,0); fill-rule: nonzero; opacity: 1;" vector-effect="non-scaling-stroke"  transform=" translate(-310.9, -220.11)" d="M 335.004 211.97 C 332.259 208.567 327.274 208.032 323.87100000000004 210.777 C 318.74500000000006 214.91 313.088 215.356 310.89500000000004 215.356 C 304.31100000000004 215.356 299.62600000000003 212.152 297.91800000000006 210.775 C 294.5130000000001 208.031 289.5300000000001 208.568 286.7850000000001 211.97 C 284.04100000000005 215.375 284.57700000000006 220.359 287.9800000000001 223.103 C 291.7270000000001 226.12300000000002 299.6860000000001 231.191 310.8950000000001 231.191 C 315.7080000000001 231.191 325.0830000000001 230.14000000000001 333.8120000000001 223.102 C 337.215 220.358 337.749 215.374 335.004 211.97 z" stroke-linecap="round" />
</g>
		<g transform="matrix(1 0 0 1 100.82 -72.84)" id="xcg9eKPi4HtkzMvYrP3om"  >
<path style="stroke: none; stroke-width: 1; stroke-dasharray: none; stroke-linecap: butt; stroke-dashoffset: 0; stroke-linejoin: miter; stroke-miterlimit: 4; fill: rgb(0,0,0); fill-rule: nonzero; opacity: 1;" vector-effect="non-scaling-stroke"  transform=" translate(-356.82, -183.16)" d="M 359.456 175.241 L 354.178 175.241 C 349.805 175.241 346.261 178.786 346.261 183.15800000000002 C 346.261 187.531 349.80600000000004 191.07600000000002 354.178 191.07600000000002 L 359.456 191.07600000000002 C 363.829 191.07600000000002 367.374 187.53100000000003 367.374 183.15800000000002 C 367.373 178.786 363.828 175.241 359.456 175.241 z" stroke-linecap="round" />
</g>
		<g transform="matrix(1 0 0 1 8.97 -72.84)" id="3g5RDgLqEbmbyx4NxP-GY"  >
<path style="stroke: none; stroke-width: 1; stroke-dasharray: none; stroke-linecap: butt; stroke-dashoffset: 0; stroke-linejoin: miter; stroke-miterlimit: 4; fill: rgb(0,0,0); fill-rule: nonzero; opacity: 1;" vector-effect="non-scaling-stroke"  transform=" translate(-264.97, -183.16)" d="M 267.612 175.241 L 262.334 175.241 C 257.961 175.241 254.416 178.786 254.416 183.15800000000002 C 254.416 187.531 257.961 191.07600000000002 262.334 191.07600000000002 L 267.612 191.07600000000002 C 271.985 191.07600000000002 275.53000000000003 187.53100000000003 275.53000000000003 183.15800000000002 C 275.53 178.786 271.985 175.241 267.612 175.241 z" stroke-linecap="round" />
</g>
		<g transform="matrix(1 0 0 1 0 0)" id="HEPSET8CsJn1LDjBCk_xr"  >
<path style="stroke: none; stroke-width: 1; stroke-dasharray: none; stroke-linecap: butt; stroke-dashoffset: 0; stroke-linejoin: miter; stroke-miterlimit: 4; fill: rgb(0,0,0); fill-rule: nonzero; opacity: 1;" vector-effect="non-scaling-stroke"  transform=" translate(-256, -256)" d="M 491.942 338.293 L 491.942 257.05600000000004 C 491.942 239.88400000000004 477.971 225.91400000000004 460.8 225.91400000000004 L 414.351 225.91400000000004 C 409.464 225.91400000000004 405.662 230.50200000000004 406.572 235.30600000000004 L 412.799 268.14000000000004 L 345.784 268.14000000000004 C 357.426 264.52000000000004 368.484 259.06300000000005 378.455 252.04800000000006 C 388.322 245.10500000000005 397.116 236.65300000000005 404.445 227.06900000000007 C 409.164 220.89600000000007 413.279 214.25000000000009 416.695 207.26700000000008 C 420.551 209.10400000000007 424.76099999999997 210.0790000000001 429.131 210.0790000000001 C 445.13899999999995 210.0790000000001 458.162 197.0560000000001 458.162 181.0480000000001 C 458.162 165.04000000000008 445.13899999999995 152.01600000000008 429.131 152.01600000000008 C 428.93399999999997 152.01600000000008 428.736 152.02700000000007 428.539 152.03100000000006 C 428.52799999999996 151.67400000000006 428.515 151.31700000000006 428.501 150.96100000000007 L 441.799 150.96100000000007 C 446.17199999999997 150.96100000000007 449.71599999999995 147.41600000000008 449.71599999999995 143.04300000000006 L 449.71599999999995 121.93 C 449.71599999999995 117.557 446.17099999999994 114.012 441.799 114.012 L 426.78499999999997 114.012 C 418.777 68.73599999999999 384.40999999999997 31.811000000000007 339.92699999999996 20.504999999999995 L 339.92699999999996 7.918 C 339.92699999999996 3.545 336.38199999999995 0 332.00899999999996 0 L 289.782 0 C 285.409 0 281.865 3.545 281.865 7.918 L 281.865 20.506 C 237.381 31.811999999999998 203.01500000000001 68.738 195.007 114.013 L 179.993 114.013 C 175.62 114.013 172.075 117.558 172.075 121.93100000000001 L 172.075 143.044 C 172.075 147.417 175.61999999999998 150.96200000000002 179.993 150.96200000000002 L 193.291 150.96200000000002 C 193.277 151.31900000000002 193.264 151.67600000000002 193.253 152.032 C 193.05599999999998 152.02800000000002 192.85799999999998 152.01700000000002 192.66099999999997 152.01700000000002 C 176.65299999999996 152.01700000000002 163.62999999999997 165.04000000000002 163.62999999999997 181.04800000000003 C 163.62999999999997 197.05600000000004 176.65299999999996 210.07900000000004 192.66099999999997 210.07900000000004 C 197.02999999999997 210.07900000000004 201.23999999999998 209.10400000000004 205.09699999999998 207.26700000000002 C 210.83799999999997 219.00100000000003 218.53499999999997 229.74500000000003 227.778 238.973 C 236.33499999999998 247.514 246.196 254.741 256.932 260.303 C 263.043 263.46999999999997 269.434 266.098 276.007 268.141 L 215.886 268.141 C 199.446 268.141 184.779 278.385 178.952 293.47700000000003 L 45.922 293.47700000000003 C 32.824 293.47700000000003 22.168999999999997 304.132 22.168999999999997 317.23 L 22.168999999999997 402.73900000000003 C 22.168999999999997 407.112 25.714 410.65700000000004 30.086999999999996 410.65700000000004 C 34.459999999999994 410.65700000000004 38.004999999999995 407.112 38.004999999999995 402.73900000000003 L 38.004999999999995 338.519 L 237.527 338.519 L 237.527 462.384 L 38.004 462.384 L 38.004 444.96500000000003 C 38.004 440.59200000000004 34.458999999999996 437.047 30.086 437.047 C 25.712999999999997 437.047 22.168 440.59200000000004 22.168 444.96500000000003 L 22.168 462.384 L 8.973 462.384 C 4.6000000000000005 462.384 1.0550000000000006 465.92900000000003 1.0550000000000006 470.301 L 1.0550000000000006 488.247 C 1.056 501.345 11.711 512 24.808 512 L 250.721 512 C 250.95600000000002 512 251.19 511.989 251.423 511.982 C 251.541 511.987 251.657 512 251.77700000000002 512 L 357.344 512 C 361.717 512 365.26099999999997 508.455 365.26099999999997 504.083 C 365.26099999999997 499.71000000000004 361.71599999999995 496.165 357.344 496.165 L 273.11199999999997 496.165 C 273.991 493.687 274.474 491.023 274.474 488.247 L 274.474 470.301 C 274.474 465.928 270.929 462.384 266.556 462.384 L 253.35999999999999 462.384 L 253.35999999999999 317.229 C 253.35999999999999 304.131 242.70499999999998 293.476 229.60699999999997 293.476 L 196.90399999999997 293.476 C 201.30099999999996 287.645 208.26899999999998 283.975 215.88299999999998 283.975 L 273.106 283.975 L 283.889 325.309 L 273.444 450.641 C 273.223 453.29400000000004 274.35 455.88 276.442 457.52500000000003 L 306.00100000000003 480.75000000000006 C 308.83900000000006 482.9800000000001 312.946 482.9800000000001 315.785 480.75000000000006 L 345.34400000000005 457.52500000000003 C 347.43600000000004 455.88000000000005 348.5640000000001 453.29400000000004 348.34200000000004 450.641 L 337.89700000000005 325.309 L 348.6820000000001 283.975 L 415.8020000000001 283.975 L 426.16600000000005 338.62100000000004 C 416.03200000000004 341.331 408.5450000000001 350.58900000000006 408.5450000000001 361.56700000000006 L 408.5450000000001 420.68500000000006 C 408.5450000000001 432.89000000000004 417.7990000000001 442.9700000000001 429.6580000000001 444.28800000000007 L 429.6580000000001 496.16600000000005 L 399.5710000000001 496.16600000000005 C 395.1980000000001 496.16600000000005 391.6530000000001 499.71100000000007 391.6530000000001 504.08400000000006 C 391.6530000000001 508.45700000000005 395.1980000000001 512.0010000000001 399.5710000000001 512.0010000000001 L 437.5750000000001 512.0010000000001 C 441.9480000000001 512.0010000000001 445.4930000000001 508.4560000000001 445.4930000000001 504.0840000000001 L 445.4930000000001 491.1390000000001 C 450.0140000000001 493.6730000000001 455.2360000000001 495.1100000000001 460.8000000000001 495.1100000000001 C 476.54000000000013 495.1100000000001 489.55900000000014 483.65000000000015 491.6490000000001 468.22200000000015 C 491.8400000000001 467.54000000000013 491.9420000000001 466.82100000000014 491.9420000000001 466.0790000000002 L 491.9420000000001 443.96000000000015 C 502.77100000000013 441.75400000000013 510.94400000000013 432.15700000000015 510.94400000000013 420.68600000000015 L 510.94400000000013 361.56800000000015 C 510.944 350.096 502.771 340.499 491.942 338.293 z M 258.639 478.219 L 258.639 488.248 C 258.639 492.614 255.08800000000002 496.166 250.722 496.166 L 24.808 496.166 C 20.442 496.166 16.891 492.615 16.891 488.248 L 16.891 478.219 L 258.639 478.219 z M 229.608 309.311 C 230.154 309.311 230.687 309.36699999999996 231.202 309.47299999999996 C 234.807 310.21299999999997 237.525 313.40999999999997 237.525 317.2289999999999 L 237.525 322.6839999999999 L 38.004 322.6839999999999 L 38.004 317.2289999999999 C 38.004 313.4099999999999 40.723 310.21199999999993 44.327 309.47299999999996 C 44.842 309.36699999999996 45.375 309.311 45.921 309.311 L 229.608 309.311 z M 407.489 188.095 L 407.489 156.183 C 409.23999999999995 155.503 410.989 154.81 412.729 154.093 C 412.73699999999997 154.63199999999998 412.767 155.173 412.767 155.71099999999998 C 412.767 167.027 410.91 177.917 407.489 188.095 z M 429.129 167.852 C 436.40700000000004 167.852 442.326 173.77100000000002 442.326 181.048 C 442.326 188.325 436.40700000000004 194.244 429.13 194.244 C 426.84 194.244 424.646 193.66 422.688 192.559 C 425.293 184.674 427.091 176.426 427.972 167.909 C 428.356 167.876 428.741 167.852 429.129 167.852 z M 339.926 36.925 C 375.632 47.547999999999995 403.135 77.416 410.671 114.012 L 339.926 114.012 L 339.926 36.925 z M 297.699 15.835 L 324.091 15.835 L 324.091 114.012 L 297.699 114.012 L 297.699 15.835 z M 192.66 194.243 C 185.383 194.243 179.464 188.32399999999998 179.464 181.047 C 179.464 173.77 185.383 167.851 192.66 167.851 C 193.047 167.851 193.433 167.875 193.817 167.908 C 194.697 176.42499999999998 196.495 184.673 199.101 192.558 C 197.144 193.66 194.95 194.243 192.66 194.243 z M 214.301 188.095 C 210.88 177.917 209.023 167.027 209.023 155.711 C 209.023 155.173 209.054 154.632 209.061 154.09300000000002 C 210.80200000000002 154.811 212.549 155.50400000000002 214.30100000000002 156.18400000000003 L 214.30100000000002 188.095 z M 187.909 135.126 L 187.909 129.848 L 230.664 129.848 C 235.03699999999998 129.848 238.582 126.30300000000001 238.582 121.93100000000001 C 238.582 117.558 235.037 114.013 230.664 114.013 L 211.11899999999997 114.013 C 218.65399999999997 77.417 246.15799999999996 47.54900000000001 281.864 36.926 L 281.864 114.013 L 264.445 114.013 C 260.072 114.013 256.527 117.558 256.527 121.93100000000001 C 256.527 126.30400000000002 260.072 129.848 264.445 129.848 L 433.88 129.848 L 433.88 135.126 L 187.909 135.126 z M 371.653 150.961 C 351.91700000000003 155.86 331.603 158.351 310.89500000000004 158.351 C 290.18800000000005 158.351 269.87300000000005 155.861 250.13700000000003 150.961 L 371.653 150.961 z M 310.895 464.455 L 289.58099999999996 447.70799999999997 L 299.17799999999994 332.53599999999994 L 322.61199999999997 332.53599999999994 L 332.20899999999995 447.70799999999997 L 310.895 464.455 z M 323.78 316.701 L 298.01 316.701 L 289.473 283.975 L 332.317 283.975 L 323.78 316.701 z M 310.895 257.583 C 278.043 257.583 248.777 241.94600000000003 230.13599999999997 217.73000000000002 L 230.13599999999997 161.78 C 256.12899999999996 170.02 283.188 174.185 310.895 174.185 C 338.602 174.185 365.661 170.019 391.654 161.78 L 391.654 217.731 C 373.013 241.947 343.747 257.583 310.895 257.583 z M 460.8 241.748 C 469.24 241.748 476.107 248.61499999999998 476.107 257.055 C 476.107 265.495 469.24 272.362 460.8 272.362 C 452.36 272.362 445.493 265.495 445.493 257.055 C 445.493 248.615 452.36 241.748 460.8 241.748 z M 445.493 284.16 C 450.018 286.725 455.239 288.19800000000004 460.8 288.19800000000004 C 466.361 288.19800000000004 471.583 286.725 476.107 284.16 L 476.107 337.814 L 445.49300000000005 337.814 L 445.49300000000005 284.16 z M 423.911 241.748 L 433.696 241.748 C 431.13100000000003 246.273 429.658 251.494 429.658 257.055 L 429.658 272.05 L 423.911 241.748 z M 476.107 464.823 C 476.07800000000003 465.001 476.055 465.183 476.03900000000004 465.368 C 475.32400000000007 473.296 468.773 479.274 460.79900000000004 479.274 C 452.826 479.274 446.27400000000006 473.296 445.559 465.368 C 445.54200000000003 465.185 445.52000000000004 465.005 445.49100000000004 464.826 L 445.49100000000004 444.437 L 476.105 444.437 L 476.105 464.823 z M 495.109 420.685 C 495.109 425.051 491.558 428.602 487.191 428.602 L 432.296 428.602 C 428.108 428.602 424.678 425.332 424.405 421.212 L 441.79699999999997 421.212 C 446.16999999999996 421.212 449.71399999999994 417.667 449.71399999999994 413.294 C 449.71399999999994 408.921 446.1689999999999 405.376 441.79699999999997 405.376 L 424.378 405.376 L 424.378 400.09799999999996 L 441.79699999999997 400.09799999999996 C 446.16999999999996 400.09799999999996 449.71399999999994 396.55299999999994 449.71399999999994 392.17999999999995 C 449.71399999999994 387.80699999999996 446.1689999999999 384.26199999999994 441.79699999999997 384.26199999999994 L 424.378 384.26199999999994 L 424.378 378.9839999999999 L 441.79699999999997 378.9839999999999 C 446.16999999999996 378.9839999999999 449.71399999999994 375.4389999999999 449.71399999999994 371.0659999999999 C 449.71399999999994 366.6929999999999 446.1689999999999 363.1479999999999 441.79699999999997 363.1479999999999 L 424.378 363.1479999999999 L 424.378 361.5649999999999 C 424.378 357.1989999999999 427.929 353.6469999999999 432.296 353.6469999999999 L 487.191 353.6469999999999 C 491.55699999999996 353.6469999999999 495.109 357.19799999999987 495.109 361.5649999999999 L 495.109 420.685 z" stroke-linecap="round" />
</g>
		<g transform="matrix(1 0 0 1 -122.46 144.63)" id="o4fpZntru2PBXKAqKF8rG"  >
<path style="stroke: none; stroke-width: 1; stroke-dasharray: none; stroke-linecap: butt; stroke-dashoffset: 0; stroke-linejoin: miter; stroke-miterlimit: 4; fill: rgb(0,0,0); fill-rule: nonzero; opacity: 1;" vector-effect="non-scaling-stroke"  transform=" translate(-133.54, -400.63)" d="M 198.994 432.825 L 76.008 432.825 L 76.008 360.512 C 76.008 356.139 72.463 352.594 68.08999999999999 352.594 C 63.71699999999999 352.594 60.17299999999999 356.139 60.17299999999999 360.512 L 60.17299999999999 440.743 C 60.17299999999999 445.116 63.71799999999999 448.65999999999997 68.08999999999999 448.65999999999997 L 198.993 448.65999999999997 C 203.36599999999999 448.65999999999997 206.911 445.11499999999995 206.911 440.743 C 206.911 436.37 203.366 432.825 198.994 432.825 z" stroke-linecap="round" />
</g>
		<g transform="matrix(1 0 0 1 -115.06 135.13)" id="aRZHIAqQKjGDM8VnGBkvl"  >
<path style="stroke: none; stroke-width: 1; stroke-dasharray: none; stroke-linecap: butt; stroke-dashoffset: 0; stroke-linejoin: miter; stroke-miterlimit: 4; fill: rgb(0,0,0); fill-rule: nonzero; opacity: 1;" vector-effect="non-scaling-stroke"  transform=" translate(-140.94, -391.13)" d="M 195.874 365.208 C 192.638 362.26700000000005 187.63 362.50500000000005 184.689 365.74100000000004 L 167.60999999999999 384.528 L 151.862 376.654 C 148.953 375.198 145.445 375.67199999999997 143.025 377.85 L 128.025 391.35 L 112.177 372.332 C 108.47300000000001 367.888 101.15700000000001 368.935 98.84100000000001 374.227 L 84.06200000000001 408.008 C 81.81700000000001 413.143 85.68700000000001 419.103 91.311 419.103 C 94.361 419.103 97.268 417.33 98.569 414.357 L 108.214 392.31300000000005 L 121.126 407.807 C 123.95700000000001 411.20500000000004 129.213 411.58500000000004 132.505 408.623 L 149.608 393.23 L 165.895 401.37300000000005 C 169.067 402.95900000000006 172.90900000000002 402.2420000000001 175.29500000000002 399.6170000000001 L 196.40800000000002 376.39200000000005 C 199.349 373.157 199.11 368.15 195.874 365.208 z" stroke-linecap="round" />
</g>
</g>
</g>
</svg>