<?xml version="1.0" encoding="UTF-8" standalone="no" ?>
<!DOCTYPE svg PUBLIC "-//W3C//DTD SVG 1.1//EN" "http://www.w3.org/Graphics/SVG/1.1/DTD/svg11.dtd">
<svg xmlns="http://www.w3.org/2000/svg" xmlns:xlink="http://www.w3.org/1999/xlink" version="1.1" width="500" height="500" viewBox="0 0 640 640" xml:space="preserve">
<desc>Created with Fabric.js 4.6.0</desc>
<defs>
</defs>
<g transform="matrix(1.02 0 0 1.02 320 320)" id="2NiL7B56zg6xQlPK25ub_"  >
<g style="" vector-effect="non-scaling-stroke"   >
		<g transform="matrix(1 0 0 1 -70.92 -72.22)" id="C-JrCn20M0GFTuCZPZ37Z"  >
<path style="stroke: none; stroke-width: 1; stroke-dasharray: none; stroke-linecap: butt; stroke-dashoffset: 0; stroke-linejoin: miter; stroke-miterlimit: 4; fill: rgb(0,0,0); fill-rule: nonzero; opacity: 1;" vector-effect="non-scaling-stroke"  transform=" translate(-169.05, -167.75)" d="M 322.6 143.1 L 301 143 C 297.7 125.3 290.7 108.1 280.2 92.6 L 295.59999999999997 77.3 C 301.09999999999997 71.8 301.2 62.8 295.7 57.3 L 280.3 41.8 C 274.8 36.3 265.8 36.199999999999996 260.3 41.699999999999996 L 244.8 57 C 229.4 46.4 212.20000000000002 39.4 194.5 35.9 L 194.6 14.299999999999997 C 194.6 6.499999999999997 188.29999999999998 0.09999999999999787 180.5 0.09999999999999787 L 158.6 0 C 150.79999999999998 0 144.4 6.3 144.4 14.1 L 144.3 35.6 C 126.50000000000001 38.9 109.20000000000002 45.8 93.60000000000001 56.2 L 78.60000000000001 41.1 C 73.10000000000001 35.6 64.10000000000001 35.5 58.60000000000001 41 L 43 56.6 C 37.5 62.1 37.4 71.1 42.9 76.6 L 57.8 91.6 C 47.099999999999994 107.1 39.9 124.39999999999999 36.5 142.3 L 15.5 142.20000000000002 C 7.7 142.20000000000002 1.3000000000000007 148.50000000000003 1.3000000000000007 156.3 L 1.2000000000000006 178.20000000000002 C 1.2000000000000006 186.00000000000003 7.5 192.4 15.3 192.4 L 36.1 192.5 C 39.4 210.5 46.400000000000006 227.9 57 243.6 L 42.3 258.2 C 36.8 263.7 36.699999999999996 272.7 42.199999999999996 278.2 L 57.599999999999994 293.7 C 63.099999999999994 299.2 72.1 299.3 77.6 293.8 L 92.3 279.2 C 107.89999999999999 289.9 125.3 297 143.2 300.4 L 143.1 321.2 C 143.1 329 149.4 335.4 157.2 335.4 L 179.1 335.5 C 186.9 335.5 193.29999999999998 329.2 193.29999999999998 321.4 L 193.39999999999998 300.4 C 211.29999999999998 297 228.59999999999997 290 244.2 279.29999999999995 L 259.09999999999997 294.29999999999995 C 264.59999999999997 299.79999999999995 273.59999999999997 299.9 279.09999999999997 294.4 L 295.09999999999997 279 C 300.59999999999997 273.5 300.7 264.5 295.2 259 L 280.2 243.9 C 290.8 228.4 297.8 211.10000000000002 301.09999999999997 193.3 L 322.59999999999997 193.4 C 330.4 193.4 336.79999999999995 187.1 336.79999999999995 179.3 L 336.9 157.4 C 336.8 149.5 330.5 143.1 322.6 143.1 z M 169.1 262.3 C 116.89999999999999 262.3 74.6 220 74.6 167.8 C 74.6 115.60000000000002 116.89999999999999 73.30000000000001 169.1 73.30000000000001 C 221.3 73.30000000000001 263.6 115.60000000000001 263.6 167.8 C 263.6 220 221.2 262.3 169.1 262.3 z" stroke-linecap="round" />
</g>
		<g transform="matrix(1 0 0 1 -70.87 -72.17)" id="GFtqvMTCDx-xHG4gIu73V"  >
<path style="stroke: none; stroke-width: 1; stroke-dasharray: none; stroke-linecap: butt; stroke-dashoffset: 0; stroke-linejoin: miter; stroke-miterlimit: 4; fill: rgb(0,0,0); fill-rule: nonzero; opacity: 1;" vector-effect="non-scaling-stroke"  transform=" translate(-169.1, -167.8)" d="M 169.1 107.2 C 135.6 107.2 108.5 134.3 108.5 167.8 C 108.5 201.3 135.6 228.4 169.1 228.4 C 202.6 228.4 229.7 201.3 229.7 167.8 C 229.7 134.3 202.5 107.2 169.1 107.2 z M 169.1 148.1 C 158.2 148.1 149.4 157 149.4 167.79999999999998 C 149.4 172.79999999999998 145.4 176.79999999999998 140.4 176.79999999999998 C 135.4 176.79999999999998 131.4 172.79999999999998 131.4 167.79999999999998 C 131.4 146.89999999999998 148.4 130 169.2 130 C 174.2 130 178.2 134 178.2 139 C 178.2 144 174.1 148.1 169.1 148.1 z" stroke-linecap="round" />
</g>
		<g transform="matrix(1 0 0 1 114.23 115.33)" id="Y7DW4OZ5kdQHsLn5pZ_b1"  >
<path style="stroke: none; stroke-width: 1; stroke-dasharray: none; stroke-linecap: butt; stroke-dashoffset: 0; stroke-linejoin: miter; stroke-miterlimit: 4; fill: rgb(0,0,0); fill-rule: nonzero; opacity: 1;" vector-effect="non-scaling-stroke"  transform=" translate(-354.2, -355.3)" d="M 367.9 333 C 348.09999999999997 333 331.9 349.1 331.9 369 C 331.9 373.8 335.79999999999995 377.6 340.5 377.6 C 345.20000000000005 377.6 349.1 373.70000000000005 349.1 369 C 349.1 358.6 357.5 350.2 367.90000000000003 350.2 C 372.70000000000005 350.2 376.50000000000006 346.3 376.50000000000006 341.59999999999997 C 376.5 336.8 372.6 333 367.9 333 z" stroke-linecap="round" />
</g>
		<g transform="matrix(1 0 0 1 127.83 129.03)" id="V2PPFvmCO8VkfWczTkrYi"  >
<path style="stroke: none; stroke-width: 1; stroke-dasharray: none; stroke-linecap: butt; stroke-dashoffset: 0; stroke-linejoin: miter; stroke-miterlimit: 4; fill: rgb(0,0,0); fill-rule: nonzero; opacity: 1;" vector-effect="non-scaling-stroke"  transform=" translate(-367.8, -369)" d="M 472.1 394.7 L 458.8 389 C 461.5 376.7 461.7 363.8 459.1 351 L 472.6 345.6 C 477.6 343.6 480.1 337.90000000000003 478 332.90000000000003 L 472.4 318.90000000000003 C 470.4 313.90000000000003 464.7 311.40000000000003 459.7 313.50000000000006 L 446.09999999999997 319.00000000000006 C 439.09999999999997 308.1000000000001 429.99999999999994 299.00000000000006 419.59999999999997 292.1000000000001 L 425.4 278.50000000000006 C 427.5 273.50000000000006 425.2 267.80000000000007 420.29999999999995 265.70000000000005 L 406.4 259.70000000000005 C 401.4 257.6 395.7 259.90000000000003 393.59999999999997 264.80000000000007 L 387.7 278.50000000000006 C 375.5 275.80000000000007 362.7 275.6000000000001 350.09999999999997 278.1000000000001 L 344.49999999999994 264.2000000000001 C 342.49999999999994 259.2000000000001 336.79999999999995 256.7000000000001 331.79999999999995 258.8000000000001 L 317.79999999999995 264.40000000000015 C 312.79999999999995 266.40000000000015 310.29999999999995 272.10000000000014 312.4 277.10000000000014 L 318 291 C 307.1 297.9 298 306.9 291 317.3 L 277.3 311.40000000000003 C 272.3 309.3 266.6 311.6 264.5 316.50000000000006 L 258.5 330.40000000000003 C 256.4 335.40000000000003 258.7 341.1 263.6 343.20000000000005 L 277.20000000000005 349.00000000000006 C 274.50000000000006 361.20000000000005 274.20000000000005 374.00000000000006 276.6 386.80000000000007 L 263 392.30000000000007 C 258 394.30000000000007 255.5 400.00000000000006 257.6 405.00000000000006 L 263.20000000000005 419.00000000000006 C 265.20000000000005 424.00000000000006 270.90000000000003 426.50000000000006 275.90000000000003 424.40000000000003 L 289.40000000000003 419.00000000000006 C 296.40000000000003 430.00000000000006 305.40000000000003 439.20000000000005 315.8 446.20000000000005 L 310.1 459.50000000000006 C 308 464.50000000000006 310.3 470.20000000000005 315.20000000000005 472.30000000000007 L 329.1 478.30000000000007 C 334.1 480.4000000000001 339.8 478.1000000000001 341.90000000000003 473.20000000000005 L 347.6 460.00000000000006 C 359.90000000000003 462.80000000000007 372.8 463.00000000000006 385.70000000000005 460.50000000000006 L 391.00000000000006 473.80000000000007 C 393.00000000000006 478.80000000000007 398.70000000000005 481.30000000000007 403.70000000000005 479.20000000000005 L 417.70000000000005 473.6 C 422.70000000000005 471.6 425.20000000000005 465.90000000000003 423.1 460.90000000000003 L 417.8 447.6 C 428.8 440.6 438 431.40000000000003 445 421 L 458.2 426.7 C 463.2 428.8 468.9 426.5 471 421.59999999999997 L 477 407.7 C 479.4 402.6 477.1 396.9 472.1 394.7 z M 367.9 426.6 C 336.09999999999997 426.6 310.2 400.8 310.2 368.90000000000003 C 310.2 337.1 336 311.20000000000005 367.9 311.20000000000005 C 399.79999999999995 311.20000000000005 425.59999999999997 337.00000000000006 425.59999999999997 368.90000000000003 C 425.5 400.8 399.7 426.6 367.9 426.6 z" stroke-linecap="round" />
</g>
</g>
</g>
</svg>