<?xml version="1.0" encoding="UTF-8" standalone="no" ?>
<!DOCTYPE svg PUBLIC "-//W3C//DTD SVG 1.1//EN" "http://www.w3.org/Graphics/SVG/1.1/DTD/svg11.dtd">
<svg xmlns="http://www.w3.org/2000/svg" xmlns:xlink="http://www.w3.org/1999/xlink" version="1.1" width="500" height="500" viewBox="0 0 500 500" xml:space="preserve">
<desc>Created with Fabric.js 4.6.0</desc>
<defs>
</defs>
<g transform="matrix(1 0 0 1 250 250)" id="fwbZO_9RgQWWd6oQH_Zbn"  >
<g style="" vector-effect="non-scaling-stroke"   >
		<g transform="matrix(1 0 0 1 -191.89 127.39)" id="AgA6JWumZJaBATVm6O3Te"  >
<path style="stroke: none; stroke-width: 1; stroke-dasharray: none; stroke-linecap: butt; stroke-dashoffset: 0; stroke-linejoin: miter; stroke-miterlimit: 4; fill: rgb(0,0,0); fill-rule: nonzero; opacity: 1;" vector-effect="non-scaling-stroke"  transform=" translate(-29.08, -348.37)" d="M 55.237 336.353 C 59.142 332.44800000000004 59.142 326.116 55.237 322.21000000000004 C 51.332 318.30600000000004 45 318.30600000000004 41.094 322.21000000000004 L 2.929 360.377 C -0.976 364.282 -0.976 370.61400000000003 2.929 374.52 C 4.881 376.472 7.440999999999999 377.44899999999996 10 377.44899999999996 C 12.559000000000001 377.44899999999996 15.119 376.472 17.070999999999998 374.52 L 55.237 336.353 z" stroke-linecap="round" />
</g>
		<g transform="matrix(1 0 0 1 119.14 -119.14)" id="8F6z8rzgQr3W3tEwdrFR8"  >
<path style="stroke: none; stroke-width: 1; stroke-dasharray: none; stroke-linecap: butt; stroke-dashoffset: 0; stroke-linejoin: miter; stroke-miterlimit: 4; fill: rgb(0,0,0); fill-rule: nonzero; opacity: 1;" vector-effect="non-scaling-stroke"  transform=" translate(-340.12, -101.83)" d="M 306.916 68.629 C 298.048 77.498 293.164 89.289 293.164 101.83000000000001 C 293.164 114.37200000000001 298.048 126.16300000000001 306.916 135.031 C 316.069 144.184 328.093 148.76 340.117 148.76 C 352.141 148.76 364.16400000000004 144.184 373.317 135.031 C 382.18600000000004 126.16300000000001 387.069 114.37200000000001 387.069 101.83000000000001 C 387.069 89.28900000000002 382.185 77.49800000000002 373.317 68.62900000000002 C 355.011 50.323 325.224 50.323 306.916 68.629 z M 359.175 120.889 C 348.666 131.4 331.568 131.399 321.058 120.889 C 315.967 115.798 313.164 109.03099999999999 313.164 101.83 C 313.164 94.631 315.96799999999996 87.862 321.058 82.771 C 326.313 77.516 333.214 74.889 340.117 74.889 C 347.01800000000003 74.889 353.922 77.517 359.175 82.771 C 364.266 87.862 367.07 94.63 367.07 101.83 C 367.07 109.031 364.266 115.798 359.175 120.889 z" stroke-linecap="round" />
</g>
		<g transform="matrix(1 0 0 1 -168.04 166.61)" id="iYOklcc3myuyJfhYp5Hha"  >
<path style="stroke: none; stroke-width: 1; stroke-dasharray: none; stroke-linecap: butt; stroke-dashoffset: 0; stroke-linejoin: miter; stroke-miterlimit: 4; fill: rgb(0,0,0); fill-rule: nonzero; opacity: 1;" vector-effect="non-scaling-stroke"  transform=" translate(-52.94, -387.59)" d="M 86.775 353.748 C 82.87 349.844 76.53800000000001 349.844 72.63300000000001 353.748 L 19.09700000000001 407.28499999999997 C 15.192000000000009 411.18999999999994 15.192000000000009 417.522 19.09700000000001 421.428 C 21.050000000000008 423.38 23.60900000000001 424.35699999999997 26.168000000000006 424.35699999999997 C 28.727000000000004 424.35699999999997 31.287000000000006 423.38 33.239000000000004 421.428 L 86.775 367.891 C 90.68 363.985 90.68 357.653 86.775 353.748 z" stroke-linecap="round" />
</g>
		<g transform="matrix(1 0 0 1 5.57 -5.57)" id="givob1VRsSf1drJUFTn42"  >
<path style="stroke: none; stroke-width: 1; stroke-dasharray: none; stroke-linecap: butt; stroke-dashoffset: 0; stroke-linejoin: miter; stroke-miterlimit: 4; fill: rgb(0,0,0); fill-rule: nonzero; opacity: 1;" vector-effect="non-scaling-stroke"  transform=" translate(-226.54, -215.41)" d="M 435.581 13.329 C 434.64300000000003 9.947000000000001 432 7.306000000000001 428.62 6.367000000000001 C 392.175 -3.7479999999999993 352.699 -1.7799999999999994 314.459 12.055 C 284.828 22.776 256.01 40.748000000000005 235.394 61.365 L 204.298 92.461 L 91.644 110.058 C 89.55000000000001 110.385 87.61500000000001 111.369 86.116 112.867 L 14.064999999999998 184.918 C 11.258999999999997 187.725 10.376999999999997 191.924 11.817999999999998 195.621 C 13.258999999999999 199.318 16.750999999999998 201.81300000000002 20.714999999999996 201.98000000000002 L 91.78799999999998 204.96900000000002 L 73.97499999999998 222.782 C 70.06999999999998 226.687 70.06999999999998 233.019 73.97499999999998 236.925 L 84.37199999999999 247.32100000000003 L 53.319 294.92 C 50.735 298.88100000000003 51.278000000000006 304.11 54.623000000000005 307.45500000000004 L 134.494 387.32500000000005 C 137.839 390.66900000000004 143.068 391.21500000000003 147.03 388.629 L 194.627 357.57500000000005 L 205.024 367.97200000000004 C 208.929 371.87600000000003 215.261 371.87600000000003 219.167 367.97200000000004 L 236.98 350.15900000000005 L 239.969 421.23 C 240.136 425.195 242.631 428.68600000000004 246.328 430.127 C 247.508 430.587 248.738 430.81 249.958 430.81 C 252.562 430.81 255.12 429.791 257.031 427.88100000000003 L 329.082 355.83000000000004 C 330.581 354.331 331.564 352.39500000000004 331.892 350.302 L 349.49 237.649 L 380.58500000000004 206.553 C 401.201 185.937 419.17400000000004 157.119 429.89500000000004 127.489 C 443.728 89.25 445.695 49.773 435.581 13.329 z M 142.898 367.444 L 74.504 299.05 L 98.825 261.772 L 132.429 295.376 L 128.477 299.328 C 124.571 303.23299999999995 124.571 309.565 128.477 313.471 C 132.382 317.375 138.714 317.375 142.62 313.471 L 146.572 309.519 L 180.176 343.123 L 142.898 367.444 z M 366.441 192.412 L 333.03999999999996 225.81400000000002 C 333.03599999999994 225.818 333.032 225.82200000000003 333.02799999999996 225.82600000000002 L 298.27399999999994 260.58000000000004 C 294.36899999999997 264.485 294.36899999999997 270.81700000000006 298.27399999999994 274.72300000000007 C 302.1789999999999 278.62700000000007 308.51099999999997 278.62700000000007 312.4169999999999 274.72300000000007 L 325.4989999999999 261.6410000000001 L 312.6339999999999 343.99500000000006 L 258.9939999999999 397.6360000000001 L 256.18999999999994 330.95000000000005 L 284.1329999999999 303.00700000000006 C 288.0379999999999 299.1020000000001 288.0379999999999 292.77000000000004 284.1329999999999 288.86400000000003 C 280.22799999999995 284.96000000000004 273.8959999999999 284.96000000000004 269.9899999999999 288.86400000000003 L 238.96899999999988 319.88500000000005 C 238.95199999999988 319.90200000000004 238.9359999999999 319.91800000000006 238.91899999999987 319.93500000000006 L 212.09499999999986 346.75800000000004 L 203.17799999999986 337.84100000000007 C 203.07599999999985 337.73600000000005 202.97399999999985 337.63300000000004 202.86799999999985 337.53200000000004 L 160.71299999999985 295.37600000000003 L 281.65799999999984 174.43200000000002 C 285.5629999999998 170.52700000000002 285.56399999999985 164.19500000000002 281.65799999999984 160.28900000000002 C 277.75399999999985 156.38600000000002 271.42199999999985 156.38500000000002 267.51599999999985 160.28900000000002 L 146.571 281.235 L 104.414 239.07800000000003 C 104.31400000000001 238.97400000000002 104.212 238.87200000000004 104.107 238.77100000000004 L 95.19 229.85300000000004 L 122.014 203.02900000000002 C 122.03099999999999 203.01300000000003 122.047 202.997 122.063 202.98000000000002 L 153.084 171.959 C 156.99 168.054 156.99 161.722 153.084 157.816 C 149.18 153.912 142.847 153.912 138.942 157.816 L 110.99900000000001 185.75900000000001 L 44.313 182.954 L 97.953 129.31400000000002 L 180.30700000000002 116.45000000000002 L 167.22500000000002 129.531 L 181.36700000000002 143.674 L 216.01600000000002 109.025 C 216.091 108.95200000000001 216.16600000000003 108.878 216.23900000000003 108.802 L 249.53500000000003 75.506 C 277.363 47.679 343.439 6.447999999999993 417.73800000000006 24.209000000000003 C 435.499 98.509 394.268 164.586 366.441 192.412 z" stroke-linecap="round" />
</g>
		<g transform="matrix(1 0 0 1 -127.39 191.89)" id="5V6igmJ5kfBL-G_huixr5"  >
<path style="stroke: none; stroke-width: 1; stroke-dasharray: none; stroke-linecap: butt; stroke-dashoffset: 0; stroke-linejoin: miter; stroke-miterlimit: 4; fill: rgb(0,0,0); fill-rule: nonzero; opacity: 1;" vector-effect="non-scaling-stroke"  transform=" translate(-93.58, -412.87)" d="M 105.595 386.711 L 67.429 424.877 C 63.524 428.782 63.524 435.11400000000003 67.429 439.02 C 69.382 440.972 71.941 441.94899999999996 74.5 441.94899999999996 C 77.059 441.94899999999996 79.619 440.972 81.571 439.02 L 119.737 400.854 C 123.642 396.949 123.642 390.61699999999996 119.737 386.711 C 115.833 382.806 109.501 382.806 105.595 386.711 z" stroke-linecap="round" />
</g>
</g>
</g>
</svg>