<?xml version="1.0" encoding="UTF-8" standalone="no" ?>
<!DOCTYPE svg PUBLIC "-//W3C//DTD SVG 1.1//EN" "http://www.w3.org/Graphics/SVG/1.1/DTD/svg11.dtd">
<svg xmlns="http://www.w3.org/2000/svg" xmlns:xlink="http://www.w3.org/1999/xlink" version="1.1" width="500" height="500" viewBox="0 0 640 640" xml:space="preserve">
<desc>Created with Fabric.js 4.6.0</desc>
<defs>
</defs>
<g transform="matrix(1.62 0 0 1.62 320 320)" id="UgJ9ykQOZ8LkOn4aUHOid"  >
<g style="" vector-effect="non-scaling-stroke"   >
		<g transform="matrix(1 0 0 1 77.16 -109.66)" id="fZ3ecrozcon6yF-JBKlEL"  >
<path style="stroke: none; stroke-width: 1; stroke-dasharray: none; stroke-linecap: butt; stroke-dashoffset: 0; stroke-linejoin: miter; stroke-miterlimit: 4; fill: rgb(0,0,0); fill-rule: nonzero; opacity: 1;" vector-effect="non-scaling-stroke"  transform=" translate(-225.66, -38.84)" d="M 225.656 77.674 C 247.07 77.674 264.493 60.25200000000001 264.493 38.837 C 264.493 17.421999999999997 247.07 0 225.656 0 C 204.24200000000002 0 186.82 17.422 186.82 38.837 C 186.82 60.25200000000001 204.241 77.674 225.656 77.674 z M 225.656 16.819 C 237.796 16.819 247.674 26.697 247.674 38.837 C 247.674 50.977000000000004 237.796 60.855000000000004 225.656 60.855000000000004 C 213.51600000000002 60.855000000000004 203.639 50.977000000000004 203.639 38.837 C 203.639 26.697000000000003 213.515 16.819 225.656 16.819 z" stroke-linecap="round" />
</g>
		<g transform="matrix(1 0 0 1 77.12 43.1)" id="v6fJXOvWUgI8QhhBFCjW5"  >
<path style="stroke: none; stroke-width: 1; stroke-dasharray: none; stroke-linecap: butt; stroke-dashoffset: 0; stroke-linejoin: miter; stroke-miterlimit: 4; fill: rgb(0,0,0); fill-rule: nonzero; opacity: 1;" vector-effect="non-scaling-stroke"  transform=" translate(-225.62, -191.6)" d="M 270.577 194.311 C 256.956 226.15 226.236 248.506 190.027 250.75 L 204.726 236.05 C 208.01 232.76500000000001 208.01 227.441 204.726 224.157 C 201.441 220.87400000000002 196.118 220.87400000000002 192.833 224.157 L 163.59 253.401 C 160.306 256.68600000000004 160.306 262.01 163.59 265.294 L 192.833 294.537 C 194.475 296.178 196.627 297 198.78 297 C 200.933 297 203.084 296.179 204.727 294.537 C 208.011 291.253 208.011 285.928 204.727 282.644 L 189.70000000000002 267.618 C 242.94100000000003 264.98199999999997 290.718 224.968 294.42600000000004 172.70299999999997 C 295.24500000000006 161.16099999999997 294.641 126.41999999999997 294.641 126.41999999999997 C 294.641 109.83999999999997 284.353 95.17899999999997 268.624 89.93699999999998 C 268.56 89.91599999999998 257.696 86.58199999999998 257.696 86.58199999999998 C 253.41700000000003 85.26599999999998 248.86100000000002 87.53799999999998 247.32800000000003 91.74099999999999 L 233.29700000000003 130.237 C 233.29700000000003 130.237 229.75000000000003 108.26299999999999 229.45600000000002 107.77799999999999 C 229.473 107.749 229.495 107.72399999999999 229.51200000000003 107.695 L 236.96500000000003 94.78599999999999 C 237.76000000000002 93.40799999999999 237.76000000000002 91.71199999999999 236.96500000000003 90.33399999999999 C 236.17000000000004 88.95599999999999 234.69900000000004 88.10799999999999 233.10900000000004 88.10799999999999 L 218.20300000000003 88.10799999999999 C 216.61300000000003 88.10799999999999 215.14200000000002 88.95599999999999 214.34700000000004 90.33399999999999 C 213.55200000000005 91.71199999999999 213.55200000000005 93.40799999999999 214.34700000000004 94.78599999999999 L 221.80000000000004 107.695 C 221.81700000000004 107.72399999999999 221.83800000000005 107.75 221.85600000000005 107.77799999999999 C 221.56200000000004 108.26299999999999 218.01500000000004 130.237 218.01500000000004 130.237 L 203.98500000000004 91.74099999999999 C 202.45300000000003 87.53699999999999 197.89400000000003 85.26399999999998 193.61700000000005 86.58199999999998 C 193.61700000000005 86.58199999999998 182.75300000000004 89.91599999999998 182.68900000000005 89.93699999999998 C 166.96000000000004 95.17899999999999 156.39300000000006 109.83999999999997 156.39300000000006 126.41999999999999 L 156.39300000000006 185.902 C 156.39300000000006 190.546 160.15800000000004 194.31099999999998 164.80200000000005 194.31099999999998 L 270.57700000000006 194.31099999999998 z M 173.211 177.493 L 173.211 126.41999999999999 C 173.211 117.12199999999999 179.11700000000002 108.89599999999999 187.918 105.92099999999999 L 190.916 105.00099999999999 L 217.337 177.492 L 173.21099999999998 177.492 z M 277.722 168.34699999999998 C 277.722 173.61899999999997 270.83 177.493 265.263 177.493 L 233.974 177.493 L 260.396 105.002 L 263.394 105.922 C 272.196 108.89699999999999 277.722 117.122 277.722 126.42099999999999 C 277.722 126.42099999999998 277.722 157.161 277.722 168.34699999999998 z" stroke-linecap="round" />
</g>
		<g transform="matrix(1 0 0 1 -76.8 44.82)" id="HyyZMwbuesT1LsHHki_-1"  >
<path style="stroke: none; stroke-width: 1; stroke-dasharray: none; stroke-linecap: butt; stroke-dashoffset: 0; stroke-linejoin: miter; stroke-miterlimit: 4; fill: rgb(0,0,0); fill-rule: nonzero; opacity: 1;" vector-effect="non-scaling-stroke"  transform=" translate(-71.7, -193.32)" d="M 71.7 219.894 C 86.354 219.894 98.27600000000001 207.972 98.27600000000001 193.318 C 98.27600000000001 178.66500000000002 86.35400000000001 166.74200000000002 71.70000000000002 166.74200000000002 C 57.04700000000002 166.74200000000002 45.12400000000002 178.66400000000002 45.12400000000002 193.318 C 45.125000000000014 207.971 57.04700000000002 219.894 71.70000000000002 219.894 z M 71.7 183.561 C 77.08 183.561 81.458 187.93800000000002 81.458 193.318 C 81.458 198.698 77.08 203.07500000000002 71.7 203.07500000000002 C 66.32000000000001 203.07500000000002 61.943000000000005 198.698 61.943000000000005 193.318 C 61.943000000000005 187.93800000000002 66.32000000000001 183.561 71.7 183.561 z" stroke-linecap="round" />
</g>
		<g transform="matrix(1 0 0 1 -73.76 -9.54)" id="aEiq8Yh339a-aSK5APKDP"  >
<path style="stroke: none; stroke-width: 1; stroke-dasharray: none; stroke-linecap: butt; stroke-dashoffset: 0; stroke-linejoin: miter; stroke-miterlimit: 4; fill: rgb(0,0,0); fill-rule: nonzero; opacity: 1;" vector-effect="non-scaling-stroke"  transform=" translate(-74.74, -138.96)" d="M 115.635 19.452 C 112.35000000000001 16.169 107.027 16.169 103.742 19.452 C 100.458 22.737000000000002 100.458 28.061 103.742 31.345000000000002 L 118.765 46.367000000000004 C 60.585 49.17400000000001 14.081000000000003 95.965 13.561999999999998 158.77800000000002 L 3.2719999999999985 176.60100000000003 C 2.1569999999999983 178.53200000000004 1.8549999999999984 180.82800000000003 2.4319999999999986 182.98200000000003 C 3.0089999999999986 185.13600000000002 4.417999999999998 186.97300000000004 6.349999999999999 188.08800000000002 L 15.407999999999998 193.318 L 6.349999999999998 198.548 C 4.418999999999998 199.663 3.0089999999999977 201.5 2.4319999999999977 203.654 C 1.8539999999999979 205.808 2.156999999999998 208.10399999999998 3.2719999999999976 210.035 L 23.008999999999997 244.22 C 25.330999999999996 248.243 30.473 249.618 34.495999999999995 247.298 L 43.553999999999995 242.068 L 43.553999999999995 252.52700000000002 C 43.553999999999995 257.171 47.318999999999996 260.93600000000004 51.962999999999994 260.93600000000004 L 91.43599999999999 260.93600000000004 C 96.08 260.93600000000004 99.845 257.17100000000005 99.845 252.52700000000004 L 99.845 242.06800000000004 L 108.90299999999999 247.29800000000003 C 110.83399999999999 248.41300000000004 113.13 248.71500000000003 115.28399999999999 248.13800000000003 C 117.43799999999999 247.56100000000004 119.27499999999999 246.15200000000004 120.38999999999999 244.22000000000003 L 140.12599999999998 210.03500000000003 C 142.44799999999998 206.01300000000003 141.06999999999996 200.87000000000003 137.04799999999997 198.54800000000003 L 127.98899999999998 193.31800000000004 L 137.04799999999997 188.08800000000005 C 141.06999999999996 185.76500000000004 142.44799999999998 180.62300000000005 140.12599999999998 176.60100000000006 L 120.38999999999997 142.41600000000005 C 119.27499999999998 140.48500000000004 117.43799999999997 139.07500000000005 115.28399999999998 138.49800000000005 C 113.12999999999998 137.91800000000003 110.83399999999997 138.22300000000004 108.90299999999998 139.33800000000005 L 99.84499999999997 144.56800000000004 L 99.84499999999997 134.10800000000003 C 99.84499999999997 129.46400000000003 96.07999999999997 125.69900000000003 91.43599999999996 125.69900000000003 L 51.96399999999996 125.69900000000003 C 47.319999999999965 125.69900000000003 43.554999999999964 129.46400000000003 43.554999999999964 134.10800000000003 L 43.554999999999964 144.56800000000004 L 34.496999999999964 139.33800000000005 C 33.764999999999965 138.91600000000005 32.99599999999997 138.61900000000006 32.212999999999965 138.43600000000006 C 40.477999999999966 97.35600000000007 75.62199999999996 65.89300000000006 118.44199999999996 63.240000000000066 L 103.74199999999996 77.93900000000006 C 100.45799999999996 81.22300000000007 100.45799999999996 86.54800000000006 103.74199999999996 89.83200000000006 C 105.38399999999996 91.47300000000007 107.53599999999996 92.29500000000006 109.68899999999996 92.29500000000006 C 111.84199999999997 92.29500000000006 113.99299999999997 91.47400000000006 115.63599999999997 89.83200000000006 L 144.87999999999997 60.588000000000065 C 146.45699999999997 59.01000000000006 147.34299999999996 56.871000000000066 147.34299999999996 54.64100000000006 C 147.34299999999996 52.41000000000006 146.45699999999997 50.27200000000006 144.87999999999997 48.69400000000006 L 115.63499999999996 19.45200000000006 z M 47.759 166.416 C 50.362 167.917 53.565 167.917 56.168 166.416 C 58.769999999999996 164.914 60.373 162.138 60.373 159.133 L 60.373 142.51600000000002 L 83.02799999999999 142.51600000000002 L 83.02799999999999 159.133 C 83.02799999999999 162.138 84.63099999999999 164.913 87.23299999999999 166.416 C 89.83599999999998 167.917 93.041 167.917 95.642 166.416 L 110.032 158.108 L 121.359 177.727 L 106.969 186.035 C 104.36699999999999 187.537 102.764 190.313 102.764 193.31799999999998 C 102.764 196.32299999999998 104.36699999999999 199.09799999999998 106.969 200.60099999999997 L 121.359 208.90899999999996 L 110.032 228.52799999999996 L 95.642 220.21999999999997 C 93.039 218.71899999999997 89.834 218.71899999999997 87.23299999999999 220.21999999999997 C 84.63099999999999 221.72199999999998 83.02799999999999 224.49799999999996 83.02799999999999 227.50299999999996 L 83.02799999999999 244.11899999999997 L 60.37299999999999 244.11899999999997 L 60.37299999999999 227.503 C 60.37299999999999 224.498 58.76999999999999 221.72299999999998 56.16799999999999 220.22 C 53.56499999999999 218.719 50.361999999999995 218.719 47.75899999999999 220.22 L 33.36899999999999 228.528 L 22.040999999999993 208.909 L 36.431 200.601 C 39.032999999999994 199.099 40.635999999999996 196.323 40.635999999999996 193.318 C 40.635999999999996 190.31300000000002 39.032999999999994 187.538 36.431 186.03500000000003 L 22.040999999999997 177.72700000000003 L 33.369 158.10800000000003 L 47.759 166.41600000000003 z" stroke-linecap="round" />
</g>
</g>
</g>
</svg>