<?xml version="1.0" encoding="UTF-8" standalone="no" ?>
<!DOCTYPE svg PUBLIC "-//W3C//DTD SVG 1.1//EN" "http://www.w3.org/Graphics/SVG/1.1/DTD/svg11.dtd">
<svg xmlns="http://www.w3.org/2000/svg" xmlns:xlink="http://www.w3.org/1999/xlink" version="1.1" width="500" height="500" viewBox="0 0 500 500" xml:space="preserve">
<desc>Created with Fabric.js 4.6.0</desc>
<defs>
</defs>
<g transform="matrix(0.57 0 0 0.57 431.31 185.88)" id="WqSo9ykNZ7zo6FXLDRI7h"  >
<path style="stroke: none; stroke-width: 1; stroke-dasharray: none; stroke-linecap: butt; stroke-dashoffset: 0; stroke-linejoin: miter; stroke-miterlimit: 4; fill: rgb(237,218,64); fill-rule: nonzero; opacity: 1;" vector-effect="non-scaling-stroke"  transform=" translate(-47, -47)" d="M 0 47 C 0 21.04262 21.04262 0 47 0 C 72.95738 0 94 21.04262 94 47 C 94 72.95738 72.95738 94 47 94 C 21.04262 94 0 72.95738 0 47 z" stroke-linecap="round" />
</g>
<g transform="matrix(0.57 0 0 0.57 116.99 250)" id="yOuu9KIR2EVOp5iIJSXaa"  >
<path style="stroke: none; stroke-width: 1; stroke-dasharray: none; stroke-linecap: butt; stroke-dashoffset: 0; stroke-linejoin: miter; stroke-miterlimit: 4; fill: rgb(196,196,196); fill-opacity: 0.18; fill-rule: nonzero; opacity: 1;" vector-effect="non-scaling-stroke"  transform=" translate(-204.45, -233.49)" d="M 408.89902 313.4105 C 408.89902 437.5793 329.3958 466.98646 218.32083 466.98646 C 107.24586 466.98646 74.96555000000001 464.05791000000005 74.96555000000001 339.88911 C 74.96555000000001 215.72030999999998 -68.99681 0 42.07816 0 C 153.15312999999998 0 408.89902 189.2417 408.89902 313.4105 Z" stroke-linecap="round" />
</g>
<g transform="matrix(0.57 0 0 0.57 258.95 274.05)" id="O7O5adJlv2wkhXfliPJTX"  >
<path style="stroke: none; stroke-width: 1; stroke-dasharray: none; stroke-linecap: butt; stroke-dashoffset: 0; stroke-linejoin: miter; stroke-miterlimit: 4; fill: rgb(63,61,86); fill-rule: nonzero; opacity: 1;" vector-effect="non-scaling-stroke"  transform=" translate(-453.51, -275.69)" d="M 742.37156 441.69039 L 164.64695 441.69039 C 149.95896 441.69039 138.00925 429.74068 138.00925 415.05269 L 138.00925 136.32809 C 138.00925 121.6401 149.95896000000002 109.69039000000001 164.64695 109.69039000000001 L 742.37156 109.69039000000001 C 757.0595500000001 109.69039000000001 769.00926 121.6401 769.00926 136.32809 L 769.00926 415.0527 C 769.00926 429.74069000000003 757.0595500000001 441.6904 742.37156 441.6904 Z M 164.64695 111.69039 C 151.0615 111.69039 140.00925 122.74264 140.00925 136.32809 L 140.00925 415.0527 C 140.00925 428.63815 151.06150000000002 439.6904 164.64695 439.6904 L 742.37156 439.6904 C 755.9570100000001 439.6904 767.00926 428.63815 767.00926 415.0527 L 767.00926 136.32809 C 767.00926 122.74264000000001 755.9570100000001 111.69039000000001 742.37156 111.69039000000001 L 164.64695 111.69039000000001 Z" stroke-linecap="round" />
</g>
<g transform="matrix(0.57 0 0 0.57 157.29 356.95)" id="o-7jFWDdJYpme73TU2ilF"  >
<path style="stroke: none; stroke-width: 1; stroke-dasharray: none; stroke-linecap: butt; stroke-dashoffset: 0; stroke-linejoin: miter; stroke-miterlimit: 4; fill: rgb(230,230,230); fill-rule: nonzero; opacity: 1;" vector-effect="non-scaling-stroke"  transform=" translate(-7.56, -1.23)" d="M 0 1.22626 C 0 0.54902 3.38323 0 7.55666 0 C 11.73009 0 15.11332 0.54902 15.11332 1.22626 C 15.11332 1.9034999999999997 11.73009 2.45252 7.55666 2.45252 C 3.38323 2.45252 0 1.9034999999999997 0 1.22626 z" stroke-linecap="round" />
</g>
<g transform="matrix(0.57 0 0 0.57 184.58 354.68)" id="5NnUaDnuxci5MCtvxRpOp"  >
<path style="stroke: none; stroke-width: 1; stroke-dasharray: none; stroke-linecap: butt; stroke-dashoffset: 0; stroke-linejoin: miter; stroke-miterlimit: 4; fill: rgb(63,61,86); fill-rule: nonzero; opacity: 1;" vector-effect="non-scaling-stroke"  transform=" translate(-7.56, -1.23)" d="M 0 1.22626 C 0 0.54902 3.38323 0 7.55666 0 C 11.73009 0 15.11332 0.54902 15.11332 1.22626 C 15.11332 1.9034999999999997 11.73009 2.45252 7.55666 2.45252 C 3.38323 2.45252 0 1.9034999999999997 0 1.22626 z" stroke-linecap="round" />
</g>
<g transform="matrix(0.57 0 0 0.57 146.3 352.26)" id="EquLYGbYgfHgV_LfglMUx"  >
<path style="stroke: none; stroke-width: 1; stroke-dasharray: none; stroke-linecap: butt; stroke-dashoffset: 0; stroke-linejoin: miter; stroke-miterlimit: 4; fill: rgb(237,218,64); fill-rule: nonzero; opacity: 1;" vector-effect="non-scaling-stroke"  transform=" translate(-7.56, -1.23)" d="M 0 1.22626 C 0 0.54902 3.38323 0 7.55666 0 C 11.73009 0 15.11332 0.54902 15.11332 1.22626 C 15.11332 1.9034999999999997 11.73009 2.45252 7.55666 2.45252 C 3.38323 2.45252 0 1.9034999999999997 0 1.22626 z" stroke-linecap="round" />
</g>
<g transform="matrix(0.57 0 0 0.57 135.3 350.86)" id="KOLXsPSps6V5i0ttpqiYj"  >
<path style="stroke: none; stroke-width: 1; stroke-dasharray: none; stroke-linecap: butt; stroke-dashoffset: 0; stroke-linejoin: miter; stroke-miterlimit: 4; fill: rgb(230,230,230); fill-rule: nonzero; opacity: 1;" vector-effect="non-scaling-stroke"  transform=" translate(-1.1, -3.36)" d="M 0 3.35719 C 0 1.5030700000000001 0.4936 0 1.10248 0 C 1.71136 0 2.20496 1.50307 2.20496 3.35719 C 2.20496 5.21131 1.7113599999999998 6.71438 1.10248 6.71438 C 0.4935999999999999 6.71438 0 5.21131 0 3.35719 z" stroke-linecap="round" />
</g>
<g transform="matrix(0.57 0 0 0.57 128.63 347.17)" id="hhdcos6FYRKlm2KBZ2FAl"  >
<path style="stroke: none; stroke-width: 1; stroke-dasharray: none; stroke-linecap: butt; stroke-dashoffset: 0; stroke-linejoin: miter; stroke-miterlimit: 4; fill: rgb(63,61,86); fill-rule: nonzero; opacity: 1;" vector-effect="non-scaling-stroke"  transform=" translate(-1.1, -3.36)" d="M 0 3.35719 C 0 1.5030700000000001 0.4936 0 1.10248 0 C 1.71136 0 2.20496 1.50307 2.20496 3.35719 C 2.20496 5.21131 1.7113599999999998 6.71438 1.10248 6.71438 C 0.4935999999999999 6.71438 0 5.21131 0 3.35719 z" stroke-linecap="round" />
</g>
<g transform="matrix(0.57 0 0 0.57 164.94 352.2)" id="GV2NajSX4--LcdVrgCagD"  >
<path style="stroke: none; stroke-width: 1; stroke-dasharray: none; stroke-linecap: butt; stroke-dashoffset: 0; stroke-linejoin: miter; stroke-miterlimit: 4; fill: rgb(230,230,230); fill-rule: nonzero; opacity: 1;" vector-effect="non-scaling-stroke"  transform=" translate(-1.1, -3.36)" d="M 0 3.35719 C 0 1.5030700000000001 0.4936 0 1.10248 0 C 1.71136 0 2.20496 1.50307 2.20496 3.35719 C 2.20496 5.21131 1.7113599999999998 6.71438 1.10248 6.71438 C 0.4935999999999999 6.71438 0 5.21131 0 3.35719 z" stroke-linecap="round" />
</g>
<g transform="matrix(0.57 0 0 0.57 152.56 354.53)" id="c515j9DeiYXzoWiGByYIZ"  >
<path style="stroke: none; stroke-width: 1; stroke-dasharray: none; stroke-linecap: butt; stroke-dashoffset: 0; stroke-linejoin: miter; stroke-miterlimit: 4; fill: rgb(237,218,64); fill-rule: nonzero; opacity: 1;" vector-effect="non-scaling-stroke"  transform=" translate(-1.1, -3.36)" d="M 0 3.35719 C 0 1.5030700000000001 0.4936 0 1.10248 0 C 1.71136 0 2.20496 1.50307 2.20496 3.35719 C 2.20496 5.21131 1.7113599999999998 6.71438 1.10248 6.71438 C 0.4935999999999999 6.71438 0 5.21131 0 3.35719 z" stroke-linecap="round" />
</g>
<g transform="matrix(0.57 0 0 0.57 173.07 356.26)" id="0cU72m_U3v0WJfagGgljO"  >
<path style="stroke: none; stroke-width: 1; stroke-dasharray: none; stroke-linecap: butt; stroke-dashoffset: 0; stroke-linejoin: miter; stroke-miterlimit: 4; fill: rgb(63,61,86); fill-rule: nonzero; opacity: 1;" vector-effect="non-scaling-stroke"  transform=" translate(-1.1, -3.36)" d="M 0 3.35719 C 0 1.5030700000000001 0.4936 0 1.10248 0 C 1.71136 0 2.20496 1.50307 2.20496 3.35719 C 2.20496 5.21131 1.7113599999999998 6.71438 1.10248 6.71438 C 0.4935999999999999 6.71438 0 5.21131 0 3.35719 z" stroke-linecap="round" />
</g>
<g transform="matrix(0.57 0 0 0.57 362.49 355.81)" id="7u0D7wibCYhNXwgMe0E4T"  >
<path style="stroke: none; stroke-width: 1; stroke-dasharray: none; stroke-linecap: butt; stroke-dashoffset: 0; stroke-linejoin: miter; stroke-miterlimit: 4; fill: rgb(230,230,230); fill-rule: nonzero; opacity: 1;" vector-effect="non-scaling-stroke"  transform=" translate(-7.56, -1.23)" d="M 0 1.22626 C 0 0.54902 3.38323 0 7.55666 0 C 11.73009 0 15.11332 0.54902 15.11332 1.22626 C 15.11332 1.9034999999999997 11.73009 2.45252 7.55666 2.45252 C 3.38323 2.45252 0 1.9034999999999997 0 1.22626 z" stroke-linecap="round" />
</g>
<g transform="matrix(0.57 0 0 0.57 389.78 353.54)" id="6HCoYhajdPNPbuKMtq2Ld"  >
<path style="stroke: none; stroke-width: 1; stroke-dasharray: none; stroke-linecap: butt; stroke-dashoffset: 0; stroke-linejoin: miter; stroke-miterlimit: 4; fill: rgb(63,61,86); fill-rule: nonzero; opacity: 1;" vector-effect="non-scaling-stroke"  transform=" translate(-7.56, -1.23)" d="M 0 1.22626 C 0 0.54902 3.38323 0 7.55666 0 C 11.73009 0 15.11332 0.54902 15.11332 1.22626 C 15.11332 1.9034999999999997 11.73009 2.45252 7.55666 2.45252 C 3.38323 2.45252 0 1.9034999999999997 0 1.22626 z" stroke-linecap="round" />
</g>
<g transform="matrix(0.57 0 0 0.57 351.83 351.14)" id="JYJteMENIdTiLzfoQpEYM"  >
<path style="stroke: none; stroke-width: 1; stroke-dasharray: none; stroke-linecap: butt; stroke-dashoffset: 0; stroke-linejoin: miter; stroke-miterlimit: 4; fill: rgb(237,218,64); fill-rule: nonzero; opacity: 1;" vector-effect="non-scaling-stroke"  transform=" translate(-7.56, -1.23)" d="M 0 1.22626 C 0 0.54902 3.38323 0 7.55666 0 C 11.73009 0 15.11332 0.54902 15.11332 1.22626 C 15.11332 1.9034999999999997 11.73009 2.45252 7.55666 2.45252 C 3.38323 2.45252 0 1.9034999999999997 0 1.22626 z" stroke-linecap="round" />
</g>
<g transform="matrix(0.57 0 0 0.57 340.5 349.72)" id="VTfwnULWIyHDN443ePXsM"  >
<path style="stroke: none; stroke-width: 1; stroke-dasharray: none; stroke-linecap: butt; stroke-dashoffset: 0; stroke-linejoin: miter; stroke-miterlimit: 4; fill: rgb(230,230,230); fill-rule: nonzero; opacity: 1;" vector-effect="non-scaling-stroke"  transform=" translate(-1.1, -3.36)" d="M 0 3.35719 C 0 1.5030700000000001 0.4936 0 1.10248 0 C 1.71136 0 2.20496 1.50307 2.20496 3.35719 C 2.20496 5.21131 1.7113599999999998 6.71438 1.10248 6.71438 C 0.4935999999999999 6.71438 0 5.21131 0 3.35719 z" stroke-linecap="round" />
</g>
<g transform="matrix(0.57 0 0 0.57 333.83 346.03)" id="X-uSvjZS6k15gGupOQHqf"  >
<path style="stroke: none; stroke-width: 1; stroke-dasharray: none; stroke-linecap: butt; stroke-dashoffset: 0; stroke-linejoin: miter; stroke-miterlimit: 4; fill: rgb(63,61,86); fill-rule: nonzero; opacity: 1;" vector-effect="non-scaling-stroke"  transform=" translate(-1.1, -3.36)" d="M 0 3.35719 C 0 1.5030700000000001 0.4936 0 1.10248 0 C 1.71136 0 2.20496 1.50307 2.20496 3.35719 C 2.20496 5.21131 1.7113599999999998 6.71438 1.10248 6.71438 C 0.4935999999999999 6.71438 0 5.21131 0 3.35719 z" stroke-linecap="round" />
</g>
<g transform="matrix(0.57 0 0 0.57 370.14 351.06)" id="cC1J5Fl0pz0zmuPOYNuYM"  >
<path style="stroke: none; stroke-width: 1; stroke-dasharray: none; stroke-linecap: butt; stroke-dashoffset: 0; stroke-linejoin: miter; stroke-miterlimit: 4; fill: rgb(230,230,230); fill-rule: nonzero; opacity: 1;" vector-effect="non-scaling-stroke"  transform=" translate(-1.1, -3.36)" d="M 0 3.35719 C 0 1.5030700000000001 0.4936 0 1.10248 0 C 1.71136 0 2.20496 1.50307 2.20496 3.35719 C 2.20496 5.21131 1.7113599999999998 6.71438 1.10248 6.71438 C 0.4935999999999999 6.71438 0 5.21131 0 3.35719 z" stroke-linecap="round" />
</g>
<g transform="matrix(0.57 0 0 0.57 357.76 353.39)" id="k3CJoaXGYIWBqtscNqDfR"  >
<path style="stroke: none; stroke-width: 1; stroke-dasharray: none; stroke-linecap: butt; stroke-dashoffset: 0; stroke-linejoin: miter; stroke-miterlimit: 4; fill: rgb(237,218,64); fill-rule: nonzero; opacity: 1;" vector-effect="non-scaling-stroke"  transform=" translate(-1.1, -3.36)" d="M 0 3.35719 C 0 1.5030700000000001 0.4936 0 1.10248 0 C 1.71136 0 2.20496 1.50307 2.20496 3.35719 C 2.20496 5.21131 1.7113599999999998 6.71438 1.10248 6.71438 C 0.4935999999999999 6.71438 0 5.21131 0 3.35719 z" stroke-linecap="round" />
</g>
<g transform="matrix(0.57 0 0 0.57 378.27 355.12)" id="6vRwawoSs2hgdWt1EZ4nk"  >
<path style="stroke: none; stroke-width: 1; stroke-dasharray: none; stroke-linecap: butt; stroke-dashoffset: 0; stroke-linejoin: miter; stroke-miterlimit: 4; fill: rgb(63,61,86); fill-rule: nonzero; opacity: 1;" vector-effect="non-scaling-stroke"  transform=" translate(-1.1, -3.36)" d="M 0 3.35719 C 0 1.5030700000000001 0.4936 0 1.10248 0 C 1.71136 0 2.20496 1.50307 2.20496 3.35719 C 2.20496 5.21131 1.7113599999999998 6.71438 1.10248 6.71438 C 0.4935999999999999 6.71438 0 5.21131 0 3.35719 z" stroke-linecap="round" />
</g>
<g transform="matrix(0.57 0 0 0.57 266.73 357.52)" id="KEuV2FLu6OcHJl1X-AUNg"  >
<path style="stroke: none; stroke-width: 1; stroke-dasharray: none; stroke-linecap: butt; stroke-dashoffset: 0; stroke-linejoin: miter; stroke-miterlimit: 4; fill: rgb(230,230,230); fill-rule: nonzero; opacity: 1;" vector-effect="non-scaling-stroke"  transform=" translate(-7.56, -1.23)" d="M 0 1.22626 C 0 0.54902 3.38323 0 7.55666 0 C 11.73009 0 15.11332 0.54902 15.11332 1.22626 C 15.11332 1.9034999999999997 11.73009 2.45252 7.55666 2.45252 C 3.38323 2.45252 0 1.9034999999999997 0 1.22626 z" stroke-linecap="round" />
</g>
<g transform="matrix(0.57 0 0 0.57 294.02 355.25)" id="IadqPw_HfHACci6Wix_L7"  >
<path style="stroke: none; stroke-width: 1; stroke-dasharray: none; stroke-linecap: butt; stroke-dashoffset: 0; stroke-linejoin: miter; stroke-miterlimit: 4; fill: rgb(63,61,86); fill-rule: nonzero; opacity: 1;" vector-effect="non-scaling-stroke"  transform=" translate(-7.56, -1.23)" d="M 0 1.22626 C 0 0.54902 3.38323 0 7.55666 0 C 11.73009 0 15.11332 0.54902 15.11332 1.22626 C 15.11332 1.9034999999999997 11.73009 2.45252 7.55666 2.45252 C 3.38323 2.45252 0 1.9034999999999997 0 1.22626 z" stroke-linecap="round" />
</g>
<g transform="matrix(0.57 0 0 0.57 255.74 352.83)" id="K5z832O97F7nS7kbYK5UT"  >
<path style="stroke: none; stroke-width: 1; stroke-dasharray: none; stroke-linecap: butt; stroke-dashoffset: 0; stroke-linejoin: miter; stroke-miterlimit: 4; fill: rgb(237,218,64); fill-rule: nonzero; opacity: 1;" vector-effect="non-scaling-stroke"  transform=" translate(-7.56, -1.23)" d="M 0 1.22626 C 0 0.54902 3.38323 0 7.55666 0 C 11.73009 0 15.11332 0.54902 15.11332 1.22626 C 15.11332 1.9034999999999997 11.73009 2.45252 7.55666 2.45252 C 3.38323 2.45252 0 1.9034999999999997 0 1.22626 z" stroke-linecap="round" />
</g>
<g transform="matrix(0.57 0 0 0.57 244.74 351.43)" id="o1nHn67vd6vDLJ6NbvA5k"  >
<path style="stroke: none; stroke-width: 1; stroke-dasharray: none; stroke-linecap: butt; stroke-dashoffset: 0; stroke-linejoin: miter; stroke-miterlimit: 4; fill: rgb(230,230,230); fill-rule: nonzero; opacity: 1;" vector-effect="non-scaling-stroke"  transform=" translate(-1.1, -3.36)" d="M 0 3.35719 C 0 1.5030700000000001 0.4936 0 1.10248 0 C 1.71136 0 2.20496 1.50307 2.20496 3.35719 C 2.20496 5.21131 1.7113599999999998 6.71438 1.10248 6.71438 C 0.4935999999999999 6.71438 0 5.21131 0 3.35719 z" stroke-linecap="round" />
</g>
<g transform="matrix(0.57 0 0 0.57 238.07 347.74)" id="F8JD4E1j4kD3rz7IIyQBh"  >
<path style="stroke: none; stroke-width: 1; stroke-dasharray: none; stroke-linecap: butt; stroke-dashoffset: 0; stroke-linejoin: miter; stroke-miterlimit: 4; fill: rgb(63,61,86); fill-rule: nonzero; opacity: 1;" vector-effect="non-scaling-stroke"  transform=" translate(-1.1, -3.36)" d="M 0 3.35719 C 0 1.5030700000000001 0.4936 0 1.10248 0 C 1.71136 0 2.20496 1.50307 2.20496 3.35719 C 2.20496 5.21131 1.7113599999999998 6.71438 1.10248 6.71438 C 0.4935999999999999 6.71438 0 5.21131 0 3.35719 z" stroke-linecap="round" />
</g>
<g transform="matrix(0.57 0 0 0.57 274.38 352.77)" id="PJBbPvvQCENr26hjXM2Lj"  >
<path style="stroke: none; stroke-width: 1; stroke-dasharray: none; stroke-linecap: butt; stroke-dashoffset: 0; stroke-linejoin: miter; stroke-miterlimit: 4; fill: rgb(230,230,230); fill-rule: nonzero; opacity: 1;" vector-effect="non-scaling-stroke"  transform=" translate(-1.1, -3.36)" d="M 0 3.35719 C 0 1.5030700000000001 0.4936 0 1.10248 0 C 1.71136 0 2.20496 1.50307 2.20496 3.35719 C 2.20496 5.21131 1.7113599999999998 6.71438 1.10248 6.71438 C 0.4935999999999999 6.71438 0 5.21131 0 3.35719 z" stroke-linecap="round" />
</g>
<g transform="matrix(0.57 0 0 0.57 262 355.1)" id="81O6lsoYqtmWoWtBGq-bH"  >
<path style="stroke: none; stroke-width: 1; stroke-dasharray: none; stroke-linecap: butt; stroke-dashoffset: 0; stroke-linejoin: miter; stroke-miterlimit: 4; fill: rgb(237,218,64); fill-rule: nonzero; opacity: 1;" vector-effect="non-scaling-stroke"  transform=" translate(-1.1, -3.36)" d="M 0 3.35719 C 0 1.5030700000000001 0.4936 0 1.10248 0 C 1.71136 0 2.20496 1.50307 2.20496 3.35719 C 2.20496 5.21131 1.7113599999999998 6.71438 1.10248 6.71438 C 0.4935999999999999 6.71438 0 5.21131 0 3.35719 z" stroke-linecap="round" />
</g>
<g transform="matrix(0.57 0 0 0.57 282.51 356.83)" id="xT4egs6NclRM8L4MrW0KB"  >
<path style="stroke: none; stroke-width: 1; stroke-dasharray: none; stroke-linecap: butt; stroke-dashoffset: 0; stroke-linejoin: miter; stroke-miterlimit: 4; fill: rgb(63,61,86); fill-rule: nonzero; opacity: 1;" vector-effect="non-scaling-stroke"  transform=" translate(-1.1, -3.36)" d="M 0 3.35719 C 0 1.5030700000000001 0.4936 0 1.10248 0 C 1.71136 0 2.20496 1.50307 2.20496 3.35719 C 2.20496 5.21131 1.7113599999999998 6.71438 1.10248 6.71438 C 0.4935999999999999 6.71438 0 5.21131 0 3.35719 z" stroke-linecap="round" />
</g>
<g transform="matrix(0.57 0 0 0.57 110.21 301.25)" id="1JeEn80JPUiIrG2RvhRS6"  >
<path style="stroke: none; stroke-width: 1; stroke-dasharray: none; stroke-linecap: butt; stroke-dashoffset: 0; stroke-linejoin: miter; stroke-miterlimit: 4; fill: rgb(14,20,30); fill-rule: nonzero; opacity: 1;" vector-effect="non-scaling-stroke"  transform=" translate(-192.57, -323.42)" d="M 225.16031 365.06778 C 222.60455000000002 365.22782 221.19209 362.05251000000004 223.12567 360.20185000000004 L 223.31803000000002 359.43709 C 223.29270000000002 359.37584000000004 223.26725000000002 359.31466 223.24160000000003 359.25351 C 220.65699000000004 353.09052 211.89748000000003 353.13304 209.33486000000005 359.30518 C 207.06034000000005 364.78328 204.16449000000006 370.27071 203.45146000000005 376.06289 C 203.13181000000006 378.61973 203.27564000000007 381.22452999999996 203.84298000000007 383.7335 C 198.51346000000007 372.09165 195.70885000000007 359.37916 195.70885000000007 346.59476 C 195.70885000000007 343.3826 195.88467000000006 340.17048 196.24420000000006 336.96646 C 196.53986000000006 334.34560999999997 196.94735000000006 331.74082 197.47475000000006 329.15993 C 200.32720000000006 315.20889 206.50376000000006 301.92111 215.41287000000005 290.82262 C 219.69567000000006 288.48143 223.26731000000007 284.82187999999996 225.42467000000005 280.43526999999995 C 226.19971000000004 278.85312999999996 226.80700000000004 277.15122999999994 227.09465000000006 275.41736999999995 C 226.60726000000005 275.4813 225.25686000000005 268.05826999999994 225.62447000000006 267.60284999999993 C 224.94523000000007 266.57213999999993 223.72951000000006 266.05977999999993 222.98767000000007 265.0539999999999 C 219.29823000000007 260.05189999999993 214.21513000000007 260.92527999999993 211.56154000000006 267.72275999999994 C 205.89284000000006 270.5837599999999 205.83797000000007 275.32852999999994 209.31626000000006 279.8919199999999 C 211.52916000000005 282.7951699999999 211.83321000000007 286.7235999999999 213.77488000000005 289.8317599999999 C 213.57508000000004 290.0874799999999 213.36732000000006 290.33519999999993 213.16758000000004 290.5909199999999 C 209.50445000000005 295.28928999999994 206.33621000000005 300.3392999999999 203.66535000000005 305.6447099999999 C 204.42019000000005 299.7484299999999 203.30576000000005 292.6449799999999 201.40590000000006 288.0660099999999 C 199.24321000000006 282.8487599999999 195.18958000000006 278.4547799999999 191.61987000000005 273.9444799999999 C 187.33207000000004 268.5269099999999 178.53953000000004 270.89123999999987 177.78412000000006 277.7588699999999 C 177.77681000000007 277.8253699999999 177.76969000000005 277.8917899999999 177.76270000000005 277.95828999999986 C 178.29292000000007 278.25739999999985 178.81237000000004 278.5751999999999 179.31976000000006 278.91075999999987 C 182.21395000000007 280.8248399999999 181.21372000000005 285.3113499999999 177.78444000000005 285.84067999999985 L 177.70679000000004 285.85264999999987 C 177.89858000000004 287.7623199999999 178.22617000000005 289.65603999999985 178.70555000000004 291.51779999999985 C 174.12606000000005 309.22788999999983 184.01285000000004 315.6782699999998 198.12987000000004 315.9680299999998 C 198.44151000000005 316.1278199999998 198.74518000000003 316.2875999999998 199.05682000000004 316.4394699999998 C 197.62652000000006 320.4665399999998 196.48388000000006 324.5974999999998 195.63696000000004 328.7843999999998 C 194.87789000000004 332.4838699999998 194.35049000000004 336.22329999999977 194.05489000000006 339.9787799999998 C 193.68728000000004 344.7169599999998 193.71928000000005 349.4792199999998 194.11882000000006 354.2094399999998 L 194.09484000000006 354.0416599999998 C 193.08012000000005 348.83203999999984 190.25153000000006 343.9659299999998 186.14448000000007 340.5940299999998 C 180.02626000000006 335.5681299999998 171.38237000000007 333.7173699999998 164.78189000000006 329.6775299999998 C 161.60461000000006 327.73285999999985 157.53315000000006 330.2459099999998 158.08767000000006 333.92954999999984 C 158.09652000000006 333.9883399999998 158.10550000000006 334.04717999999986 158.11466000000007 334.10596999999984 C 159.09745000000007 334.50541999999984 160.05626000000007 334.9689099999998 160.98314000000008 335.48821999999984 C 161.5133600000001 335.7873999999998 162.03280000000007 336.10512999999986 162.54020000000008 336.44068999999985 C 165.4343800000001 338.35483999999985 164.43415000000007 342.84134999999986 161.0048700000001 343.37068999999985 L 160.9271600000001 343.38261999999986 C 160.8712500000001 343.39060999999987 160.8232800000001 343.3986399999999 160.7674400000001 343.40666999999985 C 162.4533800000001 347.4096999999999 164.8024700000001 351.12521999999984 167.7428900000001 354.3293199999998 C 170.6063300000001 369.78952999999984 182.9048500000001 371.2563599999998 196.0604200000001 366.7541999999998 L 196.0684400000001 366.7541999999998 C 197.5066900000001 373.01861999999977 199.6081400000001 379.1391599999998 202.3088700000001 384.9720099999998 L 224.6016700000001 384.9720099999998 C 224.6816300000001 384.7243199999998 224.7535100000001 384.4685999999998 224.8254500000001 384.2208799999998 C 222.7639400000001 384.3488099999998 220.6864700000001 384.2289099999998 218.6569000000001 383.8534299999998 C 220.3109100000001 381.8238599999998 221.9648600000001 379.7782999999998 223.6188800000001 377.7487999999998 C 223.6588300000001 377.7088399999998 223.6908300000001 377.6688899999998 223.7227600000001 377.6289299999998 C 224.5617300000001 376.5902599999998 225.4087100000001 375.5594699999998 226.2476700000001 374.5207699999998 L 226.2481200000001 374.5194999999998 C 226.3006400000001 371.3308099999998 225.9184100000001 368.1526099999998 225.16101000000012 365.06823999999983 L 225.16030000000012 365.06780999999984 Z" stroke-linecap="round" />
</g>
<g transform="matrix(0.57 0 0 0.57 399.58 301.25)" id="HroeaCoBcRvv8sObvH0jV"  >
<path style="stroke: none; stroke-width: 1; stroke-dasharray: none; stroke-linecap: butt; stroke-dashoffset: 0; stroke-linejoin: miter; stroke-miterlimit: 4; fill: rgb(14,20,30); fill-rule: nonzero; opacity: 1;" vector-effect="non-scaling-stroke"  transform=" translate(-700.23, -323.42)" d="M 667.63772 365.06778 C 670.1934799999999 365.22782 671.6059399999999 362.05251000000004 669.6723599999999 360.20185000000004 L 669.4799999999999 359.43709 C 669.50533 359.37584000000004 669.5307799999999 359.31466 669.5564299999999 359.25351 C 672.1410399999999 353.09052 680.9005499999998 353.13304 683.4631699999999 359.30518 C 685.7376899999999 364.78328 688.6335399999999 370.27071 689.3465699999999 376.06289 C 689.66622 378.61973 689.52239 381.22452999999996 688.9550499999999 383.7335 C 694.2845699999999 372.09165 697.0891799999999 359.37916 697.0891799999999 346.59476 C 697.0891799999999 343.3826 696.9133599999999 340.17048 696.55383 336.96646 C 696.25817 334.34560999999997 695.8506799999999 331.74082 695.32328 329.15993 C 692.47083 315.20889 686.29427 301.92111 677.3851599999999 290.82262 C 673.10236 288.48143 669.53072 284.82187999999996 667.3733599999999 280.43526999999995 C 666.59832 278.85312999999996 665.9910299999999 277.15122999999994 665.7033799999999 275.41736999999995 C 666.1907699999999 275.4813 667.54117 268.05826999999994 667.17356 267.60284999999993 C 667.8528 266.57213999999993 669.0685199999999 266.05977999999993 669.81036 265.0539999999999 C 673.4997999999999 260.05189999999993 678.5829 260.92527999999993 681.23649 267.72275999999994 C 686.90519 270.5837599999999 686.96006 275.32852999999994 683.48177 279.8919199999999 C 681.26887 282.7951699999999 680.96482 286.7235999999999 679.02315 289.8317599999999 C 679.22295 290.0874799999999 679.43071 290.33519999999993 679.63045 290.5909199999999 C 683.29358 295.28928999999994 686.46182 300.3392999999999 689.13268 305.6447099999999 C 688.3778400000001 299.7484299999999 689.4922700000001 292.6449799999999 691.3921300000001 288.0660099999999 C 693.5548200000001 282.8487599999999 697.6084500000001 278.4547799999999 701.17816 273.9444799999999 C 705.46596 268.5269099999999 714.2585 270.89123999999987 715.01391 277.7588699999999 C 715.02122 277.8253699999999 715.02834 277.8917899999999 715.03533 277.95828999999986 C 714.5051100000001 278.25739999999985 713.98566 278.5751999999999 713.4782700000001 278.91075999999987 C 710.5840800000001 280.8248399999999 711.5843100000001 285.3113499999999 715.01359 285.84067999999985 L 715.09124 285.85264999999987 C 714.89945 287.7623199999999 714.57186 289.65603999999985 714.09248 291.51779999999985 C 718.67197 309.22788999999983 708.78518 315.6782699999998 694.6681600000001 315.9680299999998 C 694.35652 316.1278199999998 694.05285 316.2875999999998 693.74121 316.4394699999998 C 695.17151 320.4665399999998 696.31415 324.5974999999998 697.16107 328.7843999999998 C 697.92014 332.4838699999998 698.44754 336.22329999999977 698.74314 339.9787799999998 C 699.11075 344.7169599999998 699.07875 349.4792199999998 698.67921 354.2094399999998 L 698.7031900000001 354.0416599999998 C 699.7179100000001 348.83203999999984 702.5465 343.9659299999998 706.6535500000001 340.5940299999998 C 712.7717700000001 335.5681299999998 721.4156600000001 333.7173699999998 728.0161400000001 329.6775299999998 C 731.1934200000001 327.73285999999985 735.2648800000001 330.2459099999998 734.71036 333.92954999999984 C 734.70151 333.9883399999998 734.69253 334.04717999999986 734.6833700000001 334.10596999999984 C 733.7005800000001 334.50541999999984 732.7417700000001 334.9689099999998 731.8148900000001 335.48821999999984 C 731.2846700000001 335.7873999999998 730.7652300000001 336.10512999999986 730.2578300000001 336.44068999999985 C 727.3636500000001 338.35483999999985 728.3638800000001 342.84134999999986 731.7931600000002 343.37068999999985 L 731.8708700000002 343.38261999999986 C 731.9267800000002 343.39060999999987 731.9747500000002 343.3986399999999 732.0305900000002 343.40666999999985 C 730.3446500000002 347.4096999999999 727.9955600000002 351.12521999999984 725.0551400000002 354.3293199999998 C 722.1917000000002 369.78952999999984 709.8931800000001 371.2563599999998 696.7376100000001 366.7541999999998 L 696.7295900000001 366.7541999999998 C 695.2913400000001 373.01861999999977 693.1898900000001 379.1391599999998 690.4891600000002 384.9720099999998 L 668.1963600000001 384.9720099999998 C 668.1164000000001 384.7243199999998 668.0445200000001 384.4685999999998 667.9725800000001 384.2208799999998 C 670.0340900000001 384.3488099999998 672.11156 384.2289099999998 674.1411300000001 383.8534299999998 C 672.4871200000001 381.8238599999998 670.8331700000001 379.7782999999998 669.17915 377.7487999999998 C 669.1392000000001 377.7088399999998 669.1072 377.6688899999998 669.07527 377.6289299999998 C 668.2363 376.5902599999998 667.38932 375.5594699999998 666.5503600000001 374.5207699999998 L 666.5499100000001 374.5194999999998 C 666.4973900000001 371.3308099999998 666.87962 368.1526099999998 667.6370200000001 365.06823999999983 L 667.6377300000001 365.06780999999984 Z" stroke-linecap="round" />
</g>
<g transform="matrix(0.57 0 0 0.57 257.47 336.41)" id="Qd__JIbNPIHtq-DEgSabd"  >
<path style="stroke: none; stroke-width: 1; stroke-dasharray: none; stroke-linecap: butt; stroke-dashoffset: 0; stroke-linejoin: miter; stroke-miterlimit: 4; fill: rgb(63,61,86); fill-rule: nonzero; opacity: 1;" vector-effect="non-scaling-stroke"  transform=" translate(-450.91, -385.09)" d="M 27.57187 385.09211 C 27.57187 385.75214 28.1019 386.28211 28.76193 386.28211 L 873.05191 386.28211 C 873.7118800000001 386.28211 874.2419100000001 385.75214 874.2419100000001 385.09211 C 874.2419100000001 384.43214 873.7118800000001 383.90211 873.05191 383.90211 L 28.76193 383.90211 C 28.1019 383.90211 27.57187 384.43214 27.57187 385.09211 Z" stroke-linecap="round" />
</g>
<g transform="matrix(0.57 0 0 0.57 225.48 206.67)" id="H6bmBosWI7mmXMu_qNgU9"  >
<path style="stroke: none; stroke-width: 1; stroke-dasharray: none; stroke-linecap: butt; stroke-dashoffset: 0; stroke-linejoin: miter; stroke-miterlimit: 4; fill: rgb(255,182,182); fill-rule: nonzero; opacity: 1;" vector-effect="non-scaling-stroke"  transform=" translate(-394.78, -157.48)" d="M 398.80934 195.292 C 402.13875 193.06687 403.03430000000003 188.56415 400.80942000000005 185.23466 C 400.58544000000006 184.89952 400.33295000000004 184.59597 400.06648000000007 184.31096 L 401.5472500000001 118.45304 L 388.5343900000001 120.47743 L 389.4519700000001 184.35548 C 387.2334200000001 186.76089 386.85343000000006 190.45111 388.7519900000001 193.29201 C 390.9768700000001 196.6215 395.4796800000001 197.5169 398.8093400000001 195.292 Z" stroke-linecap="round" />
</g>
<g transform="matrix(0.57 0 0 0.57 224.96 184.51)" id="D6RsxGushHsiLkWamgn2L"  >
<path style="stroke: none; stroke-width: 1; stroke-dasharray: none; stroke-linecap: butt; stroke-dashoffset: 0; stroke-linejoin: miter; stroke-miterlimit: 4; fill: rgb(230,230,230); fill-rule: nonzero; opacity: 1;" vector-effect="non-scaling-stroke"  transform=" translate(-393.88, -118.59)" d="M 399.37656 84.31574 C 399.37656 84.31574 398.51326 84.96820000000001 402.93987999999996 91.71307 C 406.04360999999994 96.44226 405.61071 129.87018 406.25485999999995 129.43509 C 406.8990099999999 129 405.2991999999999 131.24892 406.09910999999994 131.62446 C 406.89901999999995 132 405.41596999999996 133.86304 405.79821999999996 134.82868 C 406.26392999999996 136.00519 405.68504999999993 137.30311 405.31926 138.48414 C 404.26306 141.89436 404.03553999999997 144.82265 403.11708 146.44258 C 405.30803 147.70003 406.46267 150.31683999999998 405.75683 152.86332 L 387.41603999999995 149.54738999999998 C 385.17990999999995 145.96516999999997 385.50299999999993 142.20553999999998 387.02671 141.55033999999998 L 386.57300999999995 129.89345999999998 L 381.3495 91.58568999999997 L 396.65817999999996 84.75071999999997 L 399.37654999999995 84.31575999999997 Z" stroke-linecap="round" />
</g>
<g transform="matrix(0.57 0 0 0.57 213.99 337.31)" id="JkQsWiGcMz56VW2IU9ESx"  >
<path style="stroke: none; stroke-width: 1; stroke-dasharray: none; stroke-linecap: butt; stroke-dashoffset: 0; stroke-linejoin: miter; stroke-miterlimit: 4; fill: rgb(255,182,182); fill-rule: nonzero; opacity: 1;" vector-effect="non-scaling-stroke"  transform=" translate(-374.63, -386.67)" d="M 369.10009 402.18893 L 376.94924000000003 402.12276 L 380.42386000000005 371.14129 L 368.83925000000005 371.23895000000005 z" stroke-linecap="round" />
</g>
<g transform="matrix(0.57 0 0 0.57 216.98 349.5)" id="NgUNCWxLDRIw_fyytI1al"  >
<path style="stroke: none; stroke-width: 1; stroke-dasharray: none; stroke-linecap: butt; stroke-dashoffset: 0; stroke-linejoin: miter; stroke-miterlimit: 4; fill: rgb(47,46,65); fill-rule: nonzero; opacity: 1;" vector-effect="non-scaling-stroke"  transform=" translate(-379.89, -408.06)" d="M 365.52953 418.4277 L 371.42202000000003 418.37646 L 371.47326000000004 418.06898 L 372.42117 412.80844 L 375.01733 418.06898 L 375.15395 418.34226 L 390.75633 418.21419000000003 C 391.09789 418.21419000000003 391.42241 418.16295 391.72989 418.06897000000004 C 393.19018 417.63343000000003 394.25766 416.26707000000005 394.24062000000004 414.67011 C 394.23207 413.52574000000004 393.65137000000004 412.44976 392.70340000000004 411.80072 L 380.16686000000004 403.29498 L 380.11562000000004 397.68427 L 377.42559000000006 397.86363 L 369.06501000000003 398.43579 L 367.01547000000005 398.57246 L 365.5551300000001 418.06897 L 365.52954000000005 418.42767999999995 Z" stroke-linecap="round" />
</g>
<g transform="matrix(0.57 0 0 0.57 157.52 318.87)" id="edgp6YtaRBfxx1mP2MkoU"  >
<path style="stroke: none; stroke-width: 1; stroke-dasharray: none; stroke-linecap: butt; stroke-dashoffset: 0; stroke-linejoin: miter; stroke-miterlimit: 4; fill: rgb(255,182,182); fill-rule: nonzero; opacity: 1;" vector-effect="non-scaling-stroke"  transform=" translate(-275.55, -354.32)" d="M 260.36854 362.20153 L 265.80217 367.86626 L 290.72471 349.13683000000003 L 282.70518000000004 340.77623000000006 z" stroke-linecap="round" />
</g>
<g transform="matrix(0.57 0 0 0.57 147.89 330.15)" id="eNSGJaaNXHPQgsc6YLoGj"  >
<path style="stroke: none; stroke-width: 1; stroke-dasharray: none; stroke-linecap: butt; stroke-dashoffset: 0; stroke-linejoin: miter; stroke-miterlimit: 4; fill: rgb(47,46,65); fill-rule: nonzero; opacity: 1;" vector-effect="non-scaling-stroke"  transform=" translate(-258.66, -374.12)" d="M 246.11204 370.74401 L 250.18588 374.99622 L 254.92578 371.90746 L 252.76889 377.69514000000004 L 263.09096999999997 388.45605000000006 L 263.57329 388.9591500000001 C 263.82185 389.2148800000001 264.0954 389.4258200000001 264.39383 389.59197000000006 C 264.8639 389.85368000000005 265.38140999999996 389.99516000000006 265.90394999999995 390.02216000000004 C 266.83786 390.08275000000003 267.80031999999994 389.75846000000007 268.53506999999996 389.05325000000005 C 269.36936999999995 388.25689000000006 269.75694999999996 387.10426000000007 269.57054999999997 385.9644200000001 L 267.15293999999994 371.01276000000007 L 271.20590999999996 367.1212700000001 L 269.23427 365.2905100000001 L 269.22679999999997 365.2863500000001 L 263.07565 359.6038500000001 L 261.56646 358.2065400000001 L 246.11204 370.74401000000006 Z" stroke-linecap="round" />
</g>
<g transform="matrix(0.57 0 0 0.57 193.37 265.05)" id="yoYCWQYzSm_-TuKsp5c11"  >
<path style="stroke: none; stroke-width: 1; stroke-dasharray: none; stroke-linecap: butt; stroke-dashoffset: 0; stroke-linejoin: miter; stroke-miterlimit: 4; fill: rgb(47,46,65); fill-rule: nonzero; opacity: 1;" vector-effect="non-scaling-stroke"  transform=" translate(-338.46, -259.9)" d="M 384.88845 141.67749 L 399.86753 185.20857 L 400.36217 188.69196 C 404.13644 192.27559 399.39511 193.45619 401.17289 194.40124 C 402.95067 195.34629 399.32218 198.21045 401.75052999999997 198.46887 C 406.92929999999996 199.01996 396.26682999999997 370.17276000000004 381.44212 375.32355 C 377.73954 376.60999000000004 369.97330999999997 378.63257 365.89903 378 C 359.71013 377.03912 358.36613 352.28964 365.0695 328.77444 C 365.80168000000003 326.20596 362.13318 323.28853000000004 364.52874 320.69743000000005 C 366.9243 318.10633000000007 364.23362000000003 316.40127000000007 364.08313000000004 314.25093000000004 C 363.41592 304.71713000000005 369.22092000000004 302.78363 368.89903000000004 290.99999 C 368.18417000000005 264.8306 361.89903000000004 228.99999000000003 361.89903000000004 228.99999000000003 C 361.89903000000004 228.99999000000003 351.02249000000006 314.22154 346.89903000000004 309.99999 C 342.77557 305.77844000000005 340.95884000000007 312.71241000000003 339.69879000000003 315.8183 C 338.64579000000003 318.41384000000005 339.13857 320.51191 332.53572 320.5901 C 325.93287000000004 320.66829 290.47212 355.0599 288.89903000000004 354.99999 C 285.78247000000005 354.88115000000005 274.48557000000005 351.27888 273.89903000000004 345.99999 C 272.89903000000004 336.99999 285.89903000000004 318.99999 310.13090000000005 297.44591 C 312.2723700000001 295.54109000000005 315.02335000000005 294.61797 312.36523000000005 289.28239 C 309.7071000000001 283.9468 322.93287000000004 249.42323000000002 321.79793000000006 247.82654000000002 C 318.78549000000004 243.5885 317.63837000000007 241.74632000000003 320.60922000000005 241.46876000000003 C 323.58007000000003 241.19120000000004 324.45782 242.82090000000002 324.61827000000005 238.70977000000002 C 324.7787200000001 234.59864000000002 325.29155000000003 224.46093000000002 325.29155000000003 224.46093000000002 C 326.00230000000005 177.87313 327.58818 174.87206000000003 342.51299000000006 162.21587000000002 L 343.79814000000005 149.05434000000002 L 384.88847000000004 141.67748000000003 Z" stroke-linecap="round" />
</g>
<g transform="matrix(0.57 0 0 0.57 211.57 187.88)" id="KqHahu9MEEmKky2j9ZDJ3"  >
<path style="stroke: none; stroke-width: 1; stroke-dasharray: none; stroke-linecap: butt; stroke-dashoffset: 0; stroke-linejoin: miter; stroke-miterlimit: 4; fill: rgb(230,230,230); fill-rule: nonzero; opacity: 1;" vector-effect="non-scaling-stroke"  transform=" translate(-370.38, -124.51)" d="M 396.11095 139.93755 C 396.55247 140.00043 398.25295 140.33601 395.99954 140.86775999999998 C 393.75297 141.40017999999998 395.85259 142.10005999999998 395.85259 142.10005999999998 C 395.11717000000004 142.58943 394.37561 143.09383 393.63404 143.60438 C 385.87936 148.95186999999999 402.86502 169.54899 394.87249 174.77003 C 383.62527 182.10505 351.68693 168.71961 344.01632 163.2327 C 343.61034 162.94564 343.21871 162.63056 342.83323 162.28745999999998 L 342.83323 162.28062999999997 C 342.61657 162.09130999999996 342.39923 161.88831999999996 342.18256 161.67165999999997 C 342.18256 161.67165999999997 339.40096 154.40006999999997 340.64999 155.20003999999997 C 341.89902 156.00000999999997 341.88369 154.13699999999997 340.89135 152.56849999999997 C 339.89901 150.99999999999997 339.48377999999997 148.47202999999996 341.19139 149.73601999999997 C 342.89900000000006 151.00000999999997 344.63716 139.43443999999997 345.78345 138.06142999999997 C 346.55304 137.14488999999998 346.81891 136.60562999999996 346.81891 136.30490999999998 C 346.81891 135.63988999999998 345.51006 136.12310999999997 345.51006 136.12310999999997 C 345.51006 136.12310999999997 343.76037 135.75881999999996 345.30707 134.73018999999996 C 346.86129 133.70155999999997 342.78096 117.03030999999996 342.78096 117.03030999999996 L 340.7654 102.85782999999995 C 338.55368 96.25821999999995 336.26473 87.76128999999995 340.28219 83.78621999999996 L 360.85881 72.81238999999997 L 381.85508 72.11250999999997 L 398.37187 80.98670999999997 C 404.77532 84.24823999999997 402.84383 99.16980999999997 400.23365 105.87398999999998 C 400.23365 105.87398999999998 396.69941 139.27254999999997 396.27908 138.58633999999998 C 395.85259 137.90081999999998 395.67762000000005 139.87399999999997 396.11095 139.93756 Z" stroke-linecap="round" />
</g>
<g transform="matrix(0.57 0 0 0.57 215.57 145.56)" id="iR_DsJue1dI5wnJWWdvZZ"  >
<path style="stroke: none; stroke-width: 1; stroke-dasharray: none; stroke-linecap: butt; stroke-dashoffset: 0; stroke-linejoin: miter; stroke-miterlimit: 4; fill: rgb(47,46,65); fill-rule: nonzero; opacity: 1;" vector-effect="non-scaling-stroke"  transform=" translate(-377.4, -50.26)" d="M 391.23645 43.51426 C 391.03726 45.90486 390.84708 48.295410000000004 390.65695999999997 50.68601 C 390.43057999999996 53.47505 390.20419999999996 56.29122 389.48879999999997 58.99873 C 389.29866999999996 59.74127 389.05416999999994 60.50193 388.53801 61.07242 C 387.68681 62.04134 389.26241999999996 67.70989 388.09431 68.25323 C 386.80848000000003 68.85992 385.54978 69.18589 384.32735 69.31268 C 384.27302000000003 68.91425 384.20056 68.51581 384.11904000000004 68.12644 C 384.10998000000006 68.08117 384.10097 68.04492 384.09190000000007 67.99965 C 383.72060000000005 66.24293 383.0414600000001 64.54053 382.07254000000006 63.01926 C 382.3079900000001 64.82125 382.09067000000005 66.66856 381.4839800000001 68.38001 C 381.3843900000001 68.66072 381.2666600000001 68.94143 381.13988000000006 69.22214 C 376.00556000000006 68.46146999999999 371.55940000000004 64.99329 368.05502000000007 65.02955 C 365.9270600000001 57.894 364.4238500000001 50.56827 363.57266000000004 43.1792 C 363.34628000000004 41.20516 363.21955 39.01375 364.43292 37.44721 C 365.51050000000004 36.05272 367.34874 35.545629999999996 369.06921 35.17433 C 374.68348 33.96096 380.44261 33.408539999999995 386.18367 33.535329999999995 L 376.23195 31.217189999999995 C 379.02999 31.199059999999996 381.87336 31.190049999999996 384.54467 32.00498999999999 C 387.21598 32.810919999999996 389.74237999999997 34.57670999999999 390.77469 37.17555999999999 C 391.56249 39.15865999999999 391.39951 41.38621999999999 391.23646 43.51423999999999 Z" stroke-linecap="round" />
</g>
<g transform="matrix(0.57 0 0 0.57 210.86 142.53)" id="Bp2KSMZgIL7tw-lS64VRT"  >
<path style="stroke: none; stroke-width: 1; stroke-dasharray: none; stroke-linecap: butt; stroke-dashoffset: 0; stroke-linejoin: miter; stroke-miterlimit: 4; fill: rgb(255,182,182); fill-rule: nonzero; opacity: 1;" vector-effect="non-scaling-stroke"  transform=" translate(-20.27, -20.27)" d="M 0 20.2656 C 0 9.07322 9.07322 0 20.2656 0 C 31.45798 0 40.5312 9.07322 40.5312 20.2656 C 40.5312 31.45798 31.45798 40.5312 20.2656 40.5312 C 9.07322 40.5312 0 31.45798 0 20.2656 z" stroke-linecap="round" />
</g>
<g transform="matrix(0.57 0 0 0.57 210.09 145.48)" id="_wrtFzvUzaTVi1TG_gLz1"  >
<path style="stroke: none; stroke-width: 1; stroke-dasharray: none; stroke-linecap: butt; stroke-dashoffset: 0; stroke-linejoin: miter; stroke-miterlimit: 4; fill: rgb(47,46,65); fill-rule: nonzero; opacity: 1;" vector-effect="non-scaling-stroke"  transform=" translate(-367.79, -50.13)" d="M 389.68804 77.0846 C 382.0454 70.28859999999999 395.07593 50.877269999999996 384.89777 37.922639999999994 L 383.67533 37.007639999999995 C 382.96905 38.70403999999999 381.14892999999995 40.10229999999999 379.43748 40.924859999999995 C 379.04811 39.14612999999999 378.41423 37.42914999999999 377.54491 35.87665 C 377.77129 37.830149999999996 377.58117000000004 39.835029999999996 377.02881 41.70626 C 376.45832 41.77817 376.05083 41.69597 375.90591 41.43893 C 376.08703 43.01195 371.27869 43.79335 372.28381 41.34637 C 372.29287 41.31556 372.30194 41.29498 372.31100000000004 41.27439 C 371.07043000000004 43.772769999999994 368.51684000000006 44.934569999999994 366.29829 46.322599999999994 C 364.07974 47.70027999999999 361.82499 50.003299999999996 362.04231 52.86156999999999 C 362.22343 55.17488999999999 363.98921 56.902159999999995 365.76406 58.05367999999999 C 367.53886 59.215489999999996 369.53101999999996 60.120259999999995 370.81685999999996 61.91949999999999 C 372.98107999999996 64.94224 372.47398999999996 69.37352999999999 371.37827999999996 73.0543 C 371.04323999999997 74.19552 370.02905999999996 75.00773 368.69795999999997 75.46012 C 368.32665999999995 73.46552 367.64752 71.53261 366.67859999999996 69.80534 C 366.91405 71.85133 366.69672999999995 73.94878 366.09004 75.89199 C 363.50926 75.94338 360.62063 75.04891 358.90015999999997 73.17768000000001 L 360.26750999999996 79.24368000000001 C 358.06708999999995 78.78107000000001 355.84853999999996 79.30537000000001 353.61186 79.70636000000002 C 353.55753 79.02781000000002 353.45793999999995 78.33891000000001 353.33115 77.66037000000001 C 352.96896999999996 75.61438000000001 352.28076 73.63007000000002 351.28465 71.86163000000002 C 351.57442 74.37030000000001 351.18506 76.94065000000002 350.2252 79.23345000000002 C 350.11654 79.50071000000001 349.99881999999997 79.76804000000001 349.87203 80.02508000000002 C 346.43104 79.77834000000001 342.99912 77.77345000000001 343.65107 72.56076000000002 C 343.86839 70.83349000000001 344.71958 69.33244000000002 345.67944 67.97529000000002 C 347.45429 65.48714000000001 338.4081 62.82429000000002 338.96045 59.822130000000016 C 339.78450999999995 55.370260000000016 348.03384 51.43246000000001 347.38183 46.93948000000002 C 346.80233999999996 42.86801000000002 346.91591 33.67745000000002 349.15668 30.509800000000016 C 352.39389 25.933510000000016 348.80288 16.466380000000015 371.81296 21.842560000000017 C 380.37303999999995 23.842580000000016 383.34029 15.445610000000016 396.24402999999995 41.08747000000002 C 398.45633999999995 45.48369000000002 390.41249999999997 43.97239000000002 395.13930999999997 53.39624000000002 C 399.86612999999994 62.82009000000002 386.32849999999996 70.28861000000002 389.68802999999997 77.08461000000003 Z" stroke-linecap="round" />
</g>
<g transform="matrix(0.57 0 0 0.57 201.32 130.74)" id="TpW_ulUhZzs_Ev-IUgcXJ"  >
<path style="stroke: none; stroke-width: 1; stroke-dasharray: none; stroke-linecap: butt; stroke-dashoffset: 0; stroke-linejoin: miter; stroke-miterlimit: 4; fill: rgb(47,46,65); fill-rule: nonzero; opacity: 1;" vector-effect="non-scaling-stroke"  transform=" translate(-352.4, -24.26)" d="M 349.65016 32.91987 C 349.69568000000004 32.937090000000005 349.7355 32.95425 349.78103000000004 32.971470000000004 C 349.86633000000006 33.01155000000001 349.95738000000006 33.04025 350.04841000000005 33.068940000000005 C 350.62302000000005 33.281090000000006 351.22629000000006 33.419270000000004 351.85254000000003 33.483520000000006 C 352.10869 33.51263000000001 352.37632 33.524680000000004 352.64394000000004 33.52535 C 352.98563000000007 33.526210000000006 353.32734000000005 33.504310000000004 353.65774000000005 33.45958 C 354.03367000000003 33.415 354.40403000000003 33.33621 354.76304000000005 33.23462 C 354.93398 33.18949 355.10495000000003 33.13299 355.27027000000004 33.07074 C 357.55577000000005 32.26221 359.34854 30.41034 360.07762 28.08886 L 360.07762 28.08316 C 360.11777 27.97506 360.14654 27.855539999999998 360.17529 27.74175 C 360.34200000000004 27.115759999999998 360.4291 26.45543 360.43082000000004 25.77779 L 360.43085 25.76639 C 360.43236 25.168480000000002 360.3655 24.58746 360.23597 24.023390000000003 C 360.00503000000003 23.014870000000002 359.58032000000003 22.074230000000004 358.99017000000003 21.258430000000004 C 358.42276000000004 20.454050000000006 357.76731 20.319630000000004 358.13500000000005 19.399860000000004 C 359.30791000000005 16.465840000000004 354.50922 14.067420000000004 351.6763 15.357520000000005 C 351.57383000000004 15.345860000000005 351.47134 15.345600000000005 351.36881000000005 15.345340000000004 C 349.46118000000007 15.340510000000004 348.75365000000005 18.157500000000002 347.61644000000007 19.743380000000002 L 347.64936000000006 19.75411 C 348.96805000000006 20.186420000000002 348.95025000000004 22.09354 347.63076000000007 22.523400000000002 C 346.8735500000001 22.770080000000004 346.1076300000001 22.987980000000004 345.33562000000006 23.177110000000003 C 342.7865500000001 26.18766 345.70876000000004 34.99521 349.65017000000006 32.919880000000006 Z" stroke-linecap="round" />
</g>
<g transform="matrix(0.57 0 0 0.57 202.33 132.09)" id="MgiZA8XiM5X2CDGIWobTE"  >
<path style="stroke: none; stroke-width: 1; stroke-dasharray: none; stroke-linecap: butt; stroke-dashoffset: 0; stroke-linejoin: miter; stroke-miterlimit: 4; fill: rgb(14,20,30); fill-rule: nonzero; opacity: 1;" vector-effect="non-scaling-stroke"  transform=" translate(-354.17, -26.64)" d="M 358.76709 20.49748 C 359.04724 25.90159 355.80084 31.28031 350.86582 33.5162 C 349.87172 33.96659 349.00617 32.492509999999996 350.00732 32.03892 C 354.43712 30.031929999999996 357.31086 25.356399999999997 357.05875 20.493159999999996 C 357.00178999999997 19.394449999999996 358.71029999999996 19.402099999999997 358.76709 20.497479999999996 L 358.76709 20.497479999999996 Z" stroke-linecap="round" />
</g>
<g transform="matrix(0.57 0 0 0.57 222.31 178.13)" id="VDI0lju8NIhKSp-Ec5O0H"  >
<path style="stroke: none; stroke-width: 1; stroke-dasharray: none; stroke-linecap: butt; stroke-dashoffset: 0; stroke-linejoin: miter; stroke-miterlimit: 4; fill: rgb(14,20,30); fill-rule: nonzero; opacity: 1;" vector-effect="non-scaling-stroke"  transform=" translate(-389.23, -107.42)" d="M 370.66754 131.14031 C 372.12321999999995 131.23146 372.92771 129.42291 371.8264 128.36884 L 371.71684 127.93325 L 371.76036999999997 127.82869 C 373.23247999999995 124.31845 378.22160999999994 124.34267 379.68118999999996 127.85812 C 380.97667999999993 130.97827 382.62606999999997 134.10373 383.03218 137.40277 C 383.21423999999996 138.85907 383.13232 140.34267 382.80917999999997 141.7717 C 385.8447 135.14088 387.44212 127.90026 387.44212 120.61868000000001 C 387.44212 118.78914000000002 387.34198 116.95962000000002 387.1372 115.13472000000002 C 386.9688 113.64197000000001 386.73671 112.15837000000002 386.43632 110.68838000000001 C 384.81166 102.74232 381.29369 95.17404 376.21935 88.85270000000001 C 373.78000000000003 87.51923000000001 371.74572 85.43487000000002 370.51695 82.93641000000001 C 370.07551 82.03527000000001 369.72962 81.06593000000001 369.56578 80.07837 C 369.84338 80.11478000000001 370.61252 75.88687 370.40315000000004 75.62747 C 370.79002 75.04041000000001 371.48246000000006 74.74859000000001 371.90499000000005 74.17573 C 374.00637000000006 71.3267 376.90154000000007 71.82415 378.41294000000005 75.69577 C 381.64164000000005 77.3253 381.6729 80.02776999999999 379.69178000000005 82.62693 C 378.43138000000005 84.28053 378.25820000000004 86.51803 377.1523 88.28834 C 377.26610000000005 88.43399000000001 377.38443 88.57508 377.4982 88.72073 C 379.5846 91.39677 381.38913 94.27309 382.91035999999997 97.29488 C 382.48042999999996 93.93655000000001 383.11517 89.89066000000001 384.19726999999995 87.28262000000001 C 385.42906999999997 84.31104 387.73787999999996 81.80838000000001 389.77106999999995 79.23946000000001 C 392.21325999999993 76.15379000000001 397.22119999999995 77.50044000000001 397.65145999999993 81.41201000000001 L 397.66365999999994 81.52559000000001 C 397.3616599999999 81.69595000000001 397.0657999999999 81.87696000000001 396.77680999999995 82.06808000000001 C 395.12837999999994 83.15828 395.69807 85.71365000000002 397.65127999999993 86.01514 L 397.69550999999996 86.02196 C 397.58626999999996 87.10965 397.39968999999996 88.18825000000001 397.12665 89.24865000000001 C 399.73498 99.33574000000002 394.10378 103.00967000000001 386.06318999999996 103.17470000000002 C 385.88568999999995 103.26571000000001 385.71272999999997 103.35672000000001 385.53522999999996 103.44322000000001 C 386.3498799999999 105.73691000000001 387.00069999999994 108.08977000000002 387.48306999999994 110.47449000000002 C 387.91540999999995 112.58159000000002 388.21579999999994 114.71145000000001 388.3841699999999 116.85045000000002 C 388.59354999999994 119.54916000000003 388.5753199999999 122.26159000000003 388.34775999999994 124.95577000000003 L 388.36141999999995 124.86021000000002 C 388.93936999999994 121.89298000000002 390.55044999999996 119.12140000000002 392.88969 117.20087000000002 C 396.37442999999996 114.33828000000003 401.29771 113.28415000000003 405.05712 110.98319000000002 C 406.8668 109.87557000000002 409.18577 111.30692000000002 408.86993 113.40500000000002 L 408.85456 113.50548000000002 C 408.29479 113.73299000000002 407.74869 113.99698000000002 407.22077 114.29277000000002 C 406.91877 114.46317000000002 406.62292 114.64414000000002 406.33392000000003 114.83526000000002 C 404.68549 115.92550000000001 405.25519 118.48087000000002 407.20840000000004 118.78236000000003 L 407.25266000000005 118.78916000000002 C 407.28451000000007 118.79371000000002 407.31182000000007 118.79828000000002 407.3436300000001 118.80286000000002 C 406.38337000000007 121.08285000000002 405.04541000000006 123.19910000000003 403.3706400000001 125.02404000000003 C 401.7397200000001 133.82967000000002 394.7348800000001 134.66513000000003 387.24189000000007 132.10084000000003 L 387.23732000000007 132.10084000000003 C 386.41814000000005 135.66885000000002 385.2212200000001 139.15491000000003 383.68297000000007 142.47711000000004 L 370.9857200000001 142.47711000000004 C 370.94018000000005 142.33603000000005 370.8992400000001 142.19039000000004 370.8582600000001 142.04929000000004 C 372.0324300000001 142.12216000000004 373.2156900000001 142.05386000000004 374.3716700000001 141.84000000000003 C 373.4296000000001 140.68402000000003 372.4875600000001 139.51894000000004 371.5454900000001 138.36300000000003 C 371.5227400000001 138.34024000000002 371.5045100000001 138.31748000000002 371.4863200000001 138.29473000000002 C 371.0084700000001 137.70314000000002 370.5260600000001 137.11603000000002 370.0482100000001 136.52442000000002 L 370.0479600000001 136.52370000000002 C 370.01805000000013 134.70753000000002 370.2357500000001 132.89733 370.6671400000001 131.14057000000003 L 370.6675400000001 131.14032000000003 Z" stroke-linecap="round" />
</g>
<g transform="matrix(0.57 0 0 0.57 207.17 180.84)" id="OT5au1s3iU1MX-P4WDWwz"  >
<path style="stroke: none; stroke-width: 1; stroke-dasharray: none; stroke-linecap: butt; stroke-dashoffset: 0; stroke-linejoin: miter; stroke-miterlimit: 4; fill: rgb(255,182,182); fill-rule: nonzero; opacity: 1;" vector-effect="non-scaling-stroke"  transform=" translate(-362.67, -112.15)" d="M 358.08694 98.27969 C 358.08694 98.27969 342.76930000000004 82.00146000000001 341.9898 89.88118 C 341.48255 95.00885 336.3936 121.72970000000001 339.31227 130.88767 C 340.76574 135.44824000000003 345.81273 137.78307 350.23337000000004 135.94750000000002 L 386.9202 120.71411000000002 L 382.09198000000004 110.81906000000002 L 353.0339 122.84399000000002 L 358.08693 98.27968000000001 Z" stroke-linecap="round" />
</g>
<g transform="matrix(0.57 0 0 0.57 221.32 181.3)" id="S9eTmXiXEHgiDMALZ7pbj"  >
<path style="stroke: none; stroke-width: 1; stroke-dasharray: none; stroke-linecap: butt; stroke-dashoffset: 0; stroke-linejoin: miter; stroke-miterlimit: 4; fill: rgb(255,182,182); fill-rule: nonzero; opacity: 1;" vector-effect="non-scaling-stroke"  transform=" translate(-7.7, -7.7)" d="M 0 7.69863 C 0 3.44679 3.44679 0 7.69863 0 C 11.95047 0 15.39726 3.44679 15.39726 7.69863 C 15.39726 11.95047 11.95047 15.39726 7.69863 15.39726 C 3.44679 15.39726 0 11.95047 0 7.69863 z" stroke-linecap="round" />
</g>
<g transform="matrix(0.57 0 0 0.57 198.7 180.64)" id="hpKQ0HoKn0CLrZ4PM1Gzi"  >
<path style="stroke: none; stroke-width: 1; stroke-dasharray: none; stroke-linecap: butt; stroke-dashoffset: 0; stroke-linejoin: miter; stroke-miterlimit: 4; fill: rgb(230,230,230); fill-rule: nonzero; opacity: 1;" vector-effect="non-scaling-stroke"  transform=" translate(-347.8, -111.82)" d="M 351.14609 87.72753 L 340.2822 83.78619 C 335.53424 96.27264000000001 331.2784 121.82298 333.58871 121.41149000000001 C 335.89902 121.00000000000003 334.50813 124.02789000000001 333.70358 124.51394000000002 C 332.89903 124.99999000000003 334.95877 127.48739000000002 333.9289 127.74369000000002 C 332.89903 127.99999000000001 334.16562 130.21116 334.31922 131.44567 C 334.31922 131.44567 339.91821999999996 139.8442 345.51723 139.8442 C 351.11624 139.8442 356.594 136.57593 356.594 136.57593 L 362.66741 137.18246 L 360.82632 112.97729 L 355.00688 119.10034999999999 L 360.28430000000003 96.62333999999998 L 351.14609 87.72751999999998 Z" stroke-linecap="round" />
</g>
</svg>