<?xml version="1.0" encoding="UTF-8" standalone="no" ?>
<!DOCTYPE svg PUBLIC "-//W3C//DTD SVG 1.1//EN" "http://www.w3.org/Graphics/SVG/1.1/DTD/svg11.dtd">
<svg xmlns="http://www.w3.org/2000/svg" xmlns:xlink="http://www.w3.org/1999/xlink" version="1.1" width="500" height="500" viewBox="0 0 500 500" xml:space="preserve">
<desc>Created with Fabric.js 4.6.0</desc>
<defs>
</defs>
<g transform="matrix(0.88 0 0 0.88 430.46 416.32)" id="WOvZm-KS9q8X2OWWHOI9q"  >
<path style="stroke: none; stroke-width: 1; stroke-dasharray: none; stroke-linecap: butt; stroke-dashoffset: 0; stroke-linejoin: miter; stroke-miterlimit: 4; fill: rgb(255,182,182); fill-rule: nonzero; opacity: 1;" vector-effect="non-scaling-stroke"  transform=" translate(-487.48, -413.97)" d="M 496.1376 436.61569 L 484.39597000000003 436.61456 L 478.81042 391.32495 L 496.13998000000004 391.32614 z" stroke-linecap="round" />
</g>
<g transform="matrix(0.88 0 0 0.88 422.56 438.44)" id="zOWkUdIZ4BELXl41IDpo5"  >
<path style="stroke: none; stroke-width: 1; stroke-dasharray: none; stroke-linecap: butt; stroke-dashoffset: 0; stroke-linejoin: miter; stroke-miterlimit: 4; fill: rgb(47,46,65); fill-rule: nonzero; opacity: 1;" vector-effect="non-scaling-stroke"  transform=" translate(-478.5, -439.11)" d="M 496.5509 448.86453 L 460.44372 448.86316 L 460.44372 448.40659 C 460.44424 440.64508 466.73614 434.35330999999996 474.49764 434.35287999999997 L 474.49853 434.35287999999997 L 481.09396000000004 429.34927999999996 L 493.39956000000006 434.35366999999997 L 496.5514800000001 434.35373 L 496.55090000000007 448.86453 Z" stroke-linecap="round" />
</g>
<g transform="matrix(0.88 0 0 0.88 384.66 416.32)" id="dGabYf6pFp_WbdYA30Xb6"  >
<path style="stroke: none; stroke-width: 1; stroke-dasharray: none; stroke-linecap: butt; stroke-dashoffset: 0; stroke-linejoin: miter; stroke-miterlimit: 4; fill: rgb(255,182,182); fill-rule: nonzero; opacity: 1;" vector-effect="non-scaling-stroke"  transform=" translate(-435.42, -413.97)" d="M 444.08279 436.61569 L 432.34119 436.61456 L 426.75561999999996 391.32495 L 444.08520999999996 391.32614 z" stroke-linecap="round" />
</g>
<g transform="matrix(0.88 0 0 0.88 376.76 438.44)" id="Y28oUX75iUMaUJe8nPXph"  >
<path style="stroke: none; stroke-width: 1; stroke-dasharray: none; stroke-linecap: butt; stroke-dashoffset: 0; stroke-linejoin: miter; stroke-miterlimit: 4; fill: rgb(47,46,65); fill-rule: nonzero; opacity: 1;" vector-effect="non-scaling-stroke"  transform=" translate(-426.44, -439.11)" d="M 444.49609 448.86453 L 408.38891 448.86316 L 408.38891 448.40659 C 408.38943 440.64508 414.68133 434.35330999999996 422.44283 434.35287999999997 L 422.44372000000004 434.35287999999997 L 429.03915000000006 429.34927999999996 L 441.3447500000001 434.35366999999997 L 444.4966700000001 434.35373 L 444.4960900000001 448.86453 Z" stroke-linecap="round" />
</g>
<g transform="matrix(0.88 0 0 0.88 411.34 314.7)" id="gSJ8zYkx5wC9H9CNK_7Xz"  >
<path style="stroke: none; stroke-width: 1; stroke-dasharray: none; stroke-linecap: butt; stroke-dashoffset: 0; stroke-linejoin: miter; stroke-miterlimit: 4; fill: rgb(47,46,65); fill-rule: nonzero; opacity: 1;" vector-effect="non-scaling-stroke"  transform=" translate(-465.74, -298.49)" d="M 438.48767 183.86459 L 506.23022 185.29075 C 506.23022 185.29075 518.4087499999999 205.25697 509.11062 233.42361 L 510.15218 241.26748 L 505.87370999999996 253.38982000000001 L 503.73445999999996 290.46996 L 505.87370999999996 296.17458 L 504.44755999999995 306.87077999999997 C 504.44755999999995 306.87077999999997 510.15217999999993 377.46563 495.8906099999999 413.11958999999996 L 478.7767199999999 412.40651999999994 L 472.3589999999999 319.3833599999999 L 475.92439999999993 312.5754099999999 L 475.2113299999999 309.7230799999999 L 466.65437999999995 266.9383199999999 L 458.0974299999999 289.04378999999994 L 458.0974299999999 301.32616999999993 L 450.25355999999994 310.43618999999995 C 450.25355999999994 310.43618999999995 453.10588999999993 394.57953 445.2620099999999 411.69345 L 426.10151999999994 411.69345 L 418.8780699999999 297.60077 L 426.00886999999994 231.28439000000003 L 424.58271999999994 227.00592000000003 L 426.72196999999994 224.86668000000003 L 425.29581999999994 217.73590000000004 L 438.48777999999993 183.86462000000006 L 438.48765999999995 183.86459000000005 Z" stroke-linecap="round" />
</g>
<g transform="matrix(0.88 0 0 0.88 421.57 162.93)" id="LEeqPvz1Lm0JsuoBFUueN"  >
<path style="stroke: none; stroke-width: 1; stroke-dasharray: none; stroke-linecap: butt; stroke-dashoffset: 0; stroke-linejoin: miter; stroke-miterlimit: 4; fill: rgb(63,61,86); fill-rule: nonzero; opacity: 1;" vector-effect="non-scaling-stroke"  transform=" translate(-477.38, -126.03)" d="M 467.36737 53.72761 L 488.04666 48.73605 L 493.75127999999995 62.28456 C 493.75127999999995 62.28456 523.26599 77.97231 524.6922 99.36469 C 524.6922 99.36469 528.6922 116.47859 525.12677 124.32247 C 521.56134 132.16633 506.58669999999995 157.12411 506.58669999999995 157.12411 C 506.58669999999995 157.12411 520.13519 200.62194 516.5698199999999 202.76119 C 513.0044499999999 204.90044 428.14797999999996 200.62195 428.14797999999996 196.34348 C 428.14797999999996 192.06501 442.27031999999997 147.14101 442.27031999999997 147.14101 L 445.26187 70.12844 L 464.51500999999996 62.99765 L 467.36733999999996 53.72762 L 467.36736999999994 53.7276 Z" stroke-linecap="round" />
</g>
<g transform="matrix(0.88 0 0 0.88 460.43 213.75)" id="6y6pZGOYVjByrgI7VNSPk"  >
<path style="stroke: none; stroke-width: 1; stroke-dasharray: none; stroke-linecap: butt; stroke-dashoffset: 0; stroke-linejoin: miter; stroke-miterlimit: 4; fill: rgb(255,182,182); fill-rule: nonzero; opacity: 1;" vector-effect="non-scaling-stroke"  transform=" translate(-521.54, -183.78)" d="M 522.49719 229.26281 C 518.16907 227.08166 516.42816 221.80508 518.60901 217.47692 C 518.8285500000001 217.04124000000002 519.08704 216.63930000000002 519.36499 216.25759 L 507.85815 137.36471999999998 L 523.78881 137.87433 L 532.12218 214.74314999999999 C 535.1424999999999 217.30492999999998 536.14409 221.68167 534.28307 225.37473 C 532.10222 229.7029 526.8255499999999 231.44362 522.49712 229.26281 L 522.49718 229.26281 Z" stroke-linecap="round" />
</g>
<g transform="matrix(0.88 0 0 0.88 355.42 189.2)" id="1NdbCRVJ8hbM3L2_b6q0Z"  >
<path style="stroke: none; stroke-width: 1; stroke-dasharray: none; stroke-linecap: butt; stroke-dashoffset: 0; stroke-linejoin: miter; stroke-miterlimit: 4; fill: rgb(255,182,182); fill-rule: nonzero; opacity: 1;" vector-effect="non-scaling-stroke"  transform=" translate(-402.21, -155.88)" d="M 371.33841 192.02793 C 369.59604 187.5053 371.84943 182.42638 376.37183 180.68377 C 376.82705999999996 180.50835 377.28852 180.38410000000002 377.75083 180.28796 L 422.20304 114.10267999999999 L 433.66517 125.17815999999999 L 388.22068 187.7326 C 388.73838 191.65904999999998 386.54145 195.57471999999999 382.6825 197.06149 C 378.16007 198.8041 373.08118 196.55049 371.33841 192.02794 Z" stroke-linecap="round" />
</g>
<g transform="matrix(0.88 0 0 0.88 453.06 179.96)" id="Ss9H3Ujb61bG0cLYW0ssK"  >
<path style="stroke: none; stroke-width: 1; stroke-dasharray: none; stroke-linecap: butt; stroke-dashoffset: 0; stroke-linejoin: miter; stroke-miterlimit: 4; fill: rgb(63,61,86); fill-rule: nonzero; opacity: 1;" vector-effect="non-scaling-stroke"  transform=" translate(-513.16, -145.38)" d="M 493.46826 117.46573 C 488.96722 102.00218 496.44299 86.2255 512.54809 86.3017 C 517.20306 86.32373 520.81951 87.6745 521.82183 91.41347999999999 C 525.3299499999999 104.49994 527.24285 124.25407999999999 527.24285 124.25407999999999 L 531.40441 145.28618 L 528.88378 149.65317 L 534.13866 163.74787999999998 L 531.58965 170.41595999999998 L 531.03856 204.46788999999998 L 518.2031099999999 203.75482 L 504.06089999999995 177.79561 L 498.65311999999994 174.58008 C 498.65311999999994 174.58008 502.99515999999994 132.60808 494.35819999999995 120.52327000000001 L 493.46822 117.46575000000001 L 493.46824999999995 117.46575000000001 Z" stroke-linecap="round" />
</g>
<g transform="matrix(0.88 0 0 0.88 381.71 159.18)" id="Pr8A0ohuc_KUosbsJQwrF"  >
<path style="stroke: none; stroke-width: 1; stroke-dasharray: none; stroke-linecap: butt; stroke-dashoffset: 0; stroke-linejoin: miter; stroke-miterlimit: 4; fill: rgb(63,61,86); fill-rule: nonzero; opacity: 1;" vector-effect="non-scaling-stroke"  transform=" translate(-432.07, -121.77)" d="M 435.97525 79.40956 C 443.48062000000004 65.15999 462.69531 61.78466 474.22644 73.02807 C 477.55936 76.27783 479.22220000000004 79.76185 477.34558000000004 83.14755 C 470.77740000000006 94.99749 455.55258000000003 107.75628 455.55258000000003 107.75628 L 436.80362 137.89768 L 431.95676000000003 139.28762 L 425.94458000000003 153.07632 L 413.06094 168.22399000000001 L 395.99658 177.22318 L 386.01346 167.24007 L 388.13333 154.40715 L 413.82358 120.17683 C 413.82358 120.17683 432.30808 96.91968 434.49127 82.22703999999999 L 435.97524999999996 79.40955999999998 L 435.97524999999996 79.40953999999998 Z" stroke-linecap="round" />
</g>
<g transform="matrix(0.88 0 0 0.88 418.39 77.97)" id="h20g_F30Yz2obJ5RctSLg"  >
<path style="stroke: none; stroke-width: 1; stroke-dasharray: none; stroke-linecap: butt; stroke-dashoffset: 0; stroke-linejoin: miter; stroke-miterlimit: 4; fill: rgb(255,182,182); fill-rule: nonzero; opacity: 1;" vector-effect="non-scaling-stroke"  transform=" translate(-473.76, -29.48)" d="M 471.29678 49.55995 C 471.76907 49.61671 472.23986 49.65932 472.70831000000004 49.68069 C 474.16565 49.76061 475.60544000000004 49.67752 476.99298000000005 49.44225 C 481.20911000000007 48.76652 485.03931000000006 46.76962 487.99478000000005 43.8412 C 491.11935000000005 40.7512 493.25769 36.6269 493.83572000000004 31.93167 C 495.18991000000005 20.84888 487.29809000000006 10.753230000000002 476.2153 9.39904 C 465.29156 8.056429999999999 455.3338 15.696769999999999 453.74429000000003 26.52515 C 453.71930000000003 26.69278 453.69354000000004 26.85335 453.67559000000006 27.02022 C 452.32217 38.1101 460.20617000000004 48.19942 471.29678000000007 49.55994 L 471.29678000000007 49.55996 Z" stroke-linecap="round" />
</g>
<g transform="matrix(0.88 0 0 0.88 417.57 72.13)" id="WNW4jY2HchKXWycL6SE2M"  >
<path style="stroke: none; stroke-width: 1; stroke-dasharray: none; stroke-linecap: butt; stroke-dashoffset: 0; stroke-linejoin: miter; stroke-miterlimit: 4; fill: rgb(47,46,65); fill-rule: nonzero; opacity: 1;" vector-effect="non-scaling-stroke"  transform=" translate(-472.83, -22.85)" d="M 449.18701 25.78329 C 452.05786 27.203010000000003 456.74881 22.73965 458.54541 25.307650000000002 C 458.83719 24.75269 459.15955 24.215980000000002 459.47794 23.708420000000004 C 459.76615 23.254260000000002 460.17829 22.284780000000005 460.65531 22.118750000000006 C 460.0517 23.575010000000006 460.18487999999996 25.547280000000004 460.81125 27.237050000000004 C 463.64322 28.295180000000002 467.35019 25.952930000000002 469.97125 23.182440000000003 C 474.08693999999997 18.838320000000003 480.80728 29.977940000000004 479.21826 35.742900000000006 C 481.24054 33.27344000000001 485.62894 34.666230000000006 487.11593 37.48982000000001 C 488.6022 40.30635000000001 486.09084 42.56305000000001 485.55374 45.70472000000001 L 489.60785 45.18986000000001 C 492.16568 42.69865000000001 491.98679 38.50081000000001 494.09319999999997 35.61349000000001 C 497.61136 30.78142000000001 498.97454999999997 25.851130000000012 496.32971 20.864220000000014 C 493.98366999999996 16.454770000000014 493.76439999999997 10.748000000000014 489.46042 8.205820000000013 C 491.34097 7.286400000000014 484.65344 8.722760000000013 486.43976 5.726460000000014 C 488.23395 2.736450000000014 478.67059 2.3735400000000135 478.04679 3.975420000000014 C 475.31399999999996 0.7048400000000141 472.55762 -1.4515199999999862 469.19611 1.169150000000014 C 465.89459999999997 3.747470000000014 466.23627 6.457580000000014 462.3588 6.214710000000014 C 460.5394 6.101980000000014 460.7392 9.494330000000014 459.65754 10.973330000000015 C 458.58218999999997 12.444430000000015 454.40211 13.388820000000015 454.19871 13.231390000000015 C 453.09461 12.367580000000014 449.33839 19.721100000000014 449.33839 19.721100000000014 C 449.33839 19.721100000000014 446.29267 24.344600000000014 449.18705 25.783290000000015 L 449.18702 25.783290000000015 Z" stroke-linecap="round" />
</g>
<g transform="matrix(0.88 0 0 0.88 170.08 295.9)" id="ubxCJiMQo_prPmYoxiEiW"  >
<path style="stroke: none; stroke-width: 1; stroke-dasharray: none; stroke-linecap: butt; stroke-dashoffset: 0; stroke-linejoin: miter; stroke-miterlimit: 4; fill: rgb(140,142,145); fill-opacity: 0.17; fill-rule: nonzero; opacity: 1;" vector-effect="non-scaling-stroke"  transform=" translate(0, 0)" d="M 4.56764 -123 C 72.49866 -123 127.56766 -67.93102999999999 127.56766 0 C 127.56766 67.93103 72.49866 123 4.567639999999997 123 C -63.36338000000001 123 -157.3773 55.648700000000005 -118.43236 0 C -79.48742 -55.6487 -63.36338 -123 4.567639999999997 -123 z" stroke-linecap="round" />
</g>
<g transform="matrix(0.88 0 0 0.88 318.97 222.73)" id="ynrRMsS6s72S6N2ZlDhrC"  >
<path style="stroke: none; stroke-width: 1; stroke-dasharray: none; stroke-linecap: butt; stroke-dashoffset: 0; stroke-linejoin: miter; stroke-miterlimit: 4; fill: rgb(63,61,86); fill-rule: nonzero; opacity: 1;" vector-effect="non-scaling-stroke"  transform=" translate(-360.78, -193.98)" d="M 360.7818 159.98167 C 359.67877 159.98167 358.7818 160.87864000000002 358.7818 161.98167 L 358.7818 225.98167 C 358.7818 227.0847 359.67877 227.98167 360.7818 227.98167 C 361.88482999999997 227.98167 362.7818 227.0847 362.7818 225.98167 L 362.7818 161.98167 C 362.7818 160.87864000000002 361.88482999999997 159.98167 360.7818 159.98167 Z" stroke-linecap="round" />
</g>
<g transform="matrix(0.88 0 0 0.88 23.29 159.37)" id="kUjtvVzepcNqolZiwqcOS"  >
<path style="stroke: none; stroke-width: 1; stroke-dasharray: none; stroke-linecap: butt; stroke-dashoffset: 0; stroke-linejoin: miter; stroke-miterlimit: 4; fill: rgb(63,61,86); fill-rule: nonzero; opacity: 1;" vector-effect="non-scaling-stroke"  transform=" translate(-24.78, -121.98)" d="M 24.7818 111.98166 C 23.67877 111.98166 22.7818 112.87863 22.7818 113.98166 L 22.7818 129.98165 C 22.7818 131.08468 23.67877 131.98165 24.7818 131.98165 C 25.88483 131.98165 26.7818 131.08468 26.7818 129.98165 L 26.7818 113.98165 C 26.7818 112.87862 25.88483 111.98165 24.7818 111.98166 Z" stroke-linecap="round" />
</g>
<g transform="matrix(0.88 0 0 0.88 23.29 208.21)" id="EXVpkDR8AYbdClka6DmyO"  >
<path style="stroke: none; stroke-width: 1; stroke-dasharray: none; stroke-linecap: butt; stroke-dashoffset: 0; stroke-linejoin: miter; stroke-miterlimit: 4; fill: rgb(63,61,86); fill-rule: nonzero; opacity: 1;" vector-effect="non-scaling-stroke"  transform=" translate(-24.78, -177.48)" d="M 24.7818 159.98167 C 23.67877 159.98167 22.7818 160.87864000000002 22.7818 161.98167 L 22.7818 192.98167 C 22.7818 194.0847 23.67877 194.98167 24.7818 194.98167 C 25.88483 194.98167 26.7818 194.0847 26.7818 192.98167 L 26.7818 161.98167 C 26.7818 160.87864000000002 25.88483 159.98167 24.7818 159.98167 Z" stroke-linecap="round" />
</g>
<g transform="matrix(0.88 0 0 0.88 23.29 246.93)" id="IxTNgefUGxOfaG_rsnrS5"  >
<path style="stroke: none; stroke-width: 1; stroke-dasharray: none; stroke-linecap: butt; stroke-dashoffset: 0; stroke-linejoin: miter; stroke-miterlimit: 4; fill: rgb(63,61,86); fill-rule: nonzero; opacity: 1;" vector-effect="non-scaling-stroke"  transform=" translate(-24.78, -221.48)" d="M 24.7818 203.98167 C 23.67877 203.98167 22.7818 204.87864000000002 22.7818 205.98167 L 22.7818 236.98167 C 22.7818 238.0847 23.67877 238.98167 24.7818 238.98167 C 25.88483 238.98167 26.7818 238.0847 26.7818 236.98167 L 26.7818 205.98167 C 26.7818 204.87864000000002 25.88483 203.98167 24.7818 203.98167 Z" stroke-linecap="round" />
</g>
<g transform="matrix(0.88 0 0 0.88 181.14 110.53)" id="cHsd6-QfmTSpRvQODd0Zw"  >
<path style="stroke: none; stroke-width: 1; stroke-dasharray: none; stroke-linecap: butt; stroke-dashoffset: 0; stroke-linejoin: miter; stroke-miterlimit: 4; fill: rgb(63,61,86); fill-rule: nonzero; opacity: 1;" vector-effect="non-scaling-stroke"  transform=" translate(-204.16, -66.48)" d="M 204.15526 48.98167 C 203.05223 48.98167 202.15526 49.878640000000004 202.15526 50.98167 L 202.15526 81.98167000000001 C 202.15526 83.08470000000001 203.05223 83.98167000000001 204.15526 83.98167000000001 C 205.25829 83.98167000000001 206.15526 83.08470000000001 206.15526 81.98167000000001 L 206.15526 50.98167000000001 C 206.15526 49.87864000000001 205.25829 48.98167000000001 204.15526 48.98167000000001 Z" stroke-linecap="round" />
</g>
<g transform="matrix(0.88 0 0 0.88 473.95 403.09)" id="GsoLBi4nm0jB5dyb2tl3O"  >
<path style="stroke: none; stroke-width: 1; stroke-dasharray: none; stroke-linecap: butt; stroke-dashoffset: 0; stroke-linejoin: miter; stroke-miterlimit: 4; fill: rgb(140,142,145); fill-rule: nonzero; opacity: 1;" vector-effect="non-scaling-stroke"  transform=" translate(-536.9, -398.94)" d="M 510.55136 432.60781 C 512.61731 432.73717 513.7590299999999 430.17042999999995 512.19604 428.67449 L 512.04052 428.05629999999996 C 512.06097 428.00679999999994 512.0816 427.95732999999996 512.10229 427.90792 C 514.1915200000001 422.92611 521.2722100000001 422.96049999999997 523.3436800000001 427.9497 C 525.1822400000001 432.37786 527.5231200000001 436.81359000000003 528.0994800000001 441.49563 C 528.3578400000001 443.56243 528.2416300000001 445.66799000000003 527.7830100000001 447.6961 C 532.0910500000001 438.28552 534.35814 428.00949 534.35814 417.67532 C 534.35814 415.07879 534.21599 412.4823 533.9254000000001 409.89236 C 533.6863900000001 407.77383 533.3569800000001 405.66827 532.9307100000001 403.58203 C 530.62498 392.30483999999996 525.63219 381.56377999999995 518.43059 372.59241 C 514.96861 370.69991999999996 512.08153 367.74176 510.33763000000005 364.1959 C 509.71113 362.917 509.2202300000001 361.54127 508.98772 360.13972 C 509.3817 360.19139 510.47329 354.19105 510.17614000000003 353.82292 C 510.72521 352.98976 511.70791 352.57558 512.3076100000001 351.76259 C 515.2899100000001 347.71918999999997 519.3988 348.42519 521.5438200000001 353.91985 C 526.1260300000001 356.2325 526.1704100000001 360.06792 523.3587600000001 363.75667 C 521.57 366.1035 521.3242100000001 369.27900999999997 519.7547000000001 371.79146 C 519.9162000000001 371.99816 520.0841700000001 372.19840999999997 520.24561 372.40511 C 523.20667 376.20299 525.7677000000001 380.28511 527.92664 384.57369 C 527.31647 379.80749 528.21729 374.06548 529.75306 370.3641 C 531.50123 366.14678000000004 534.77796 362.59493000000003 537.66352 358.94909 C 541.12952 354.56985000000003 548.2368799999999 356.48104 548.84754 362.0324 C 548.8534599999999 362.08614 548.8592 362.13984999999997 548.86487 362.19359 C 548.43628 362.43537999999995 548.01636 362.69224999999994 547.6062 362.96351999999996 C 545.26672 364.51075999999995 546.07526 368.13737999999995 548.8472899999999 368.56526999999994 L 548.9100299999999 368.57493999999997 C 548.7549999999999 370.11861 548.4901699999999 371.64937 548.1027199999999 373.15432 C 551.8044999999998 387.47012 543.8126199999998 392.68422999999996 532.4012399999999 392.91845 C 532.1493499999999 393.0476 531.9038599999999 393.17678 531.6519699999999 393.29955 C 532.8081599999999 396.5548 533.7317999999999 399.89403 534.4163699999999 403.27846 C 535.02996 406.26887999999997 535.45629 409.29164 535.6952399999999 412.32735 C 535.9924199999999 416.15740000000005 535.9665399999999 420.00695 535.6435399999999 423.83058 L 535.6629499999999 423.69496 C 536.4831999999999 419.48381 538.7696399999999 415.55034 542.0895199999999 412.82469 C 547.0351399999998 408.76203999999996 554.0223199999999 407.26599999999996 559.3577699999998 404.00043999999997 C 561.9261299999998 402.42848 565.2172099999998 404.45987999999994 564.7689599999999 407.43751 L 564.7471699999999 407.58011999999997 C 563.9527399999998 407.90299999999996 563.1777099999998 408.27765999999997 562.4284399999999 408.69746 C 561.9998499999999 408.93931 561.57999 409.19611999999995 561.1697699999999 409.46738999999997 C 558.8302899999999 411.01469 559.6388299999999 414.64131 562.4108599999998 415.06919999999997 L 562.4736699999999 415.07883999999996 C 562.5188999999998 415.08530999999994 562.5576499999999 415.09177999999997 562.6027599999999 415.09827999999993 C 561.2399699999999 418.33408999999995 559.3410999999999 421.33750999999995 556.9642099999999 423.92749999999995 C 554.6495699999998 436.42463 544.7081699999999 437.61033 534.0740099999998 433.97104999999993 L 534.0675399999998 433.97104999999993 C 532.9049399999998 439.03482999999994 531.2062699999998 443.9823099999999 529.0231699999998 448.69724999999994 L 511.00296999999983 448.69724999999994 C 510.93832999999984 448.49701999999996 510.8802299999998 448.2903299999999 510.82208999999983 448.0900699999999 C 512.4884999999998 448.19348999999994 514.1678199999998 448.09656999999993 515.8083899999998 447.7930399999999 C 514.4713499999998 446.15244999999993 513.1344399999998 444.4989399999999 511.7974299999998 442.8584099999999 C 511.7651399999998 442.8261199999999 511.7392599999998 442.79379999999986 511.7134499999998 442.7615199999999 C 511.0352899999998 441.9219199999999 510.3506299999998 441.0886999999999 509.6724599999998 440.2490699999999 L 509.6720899999998 440.2480599999999 C 509.6296399999998 437.6705099999999 509.9385999999998 435.1014499999999 510.5508399999998 432.6082299999999 L 510.55141999999984 432.6078899999999 L 510.55132999999984 432.60782999999986 Z" stroke-linecap="round" />
</g>
<g transform="matrix(0.88 0 0 0.88 249.94 446.93)" id="MYvz9F9bljp6tjOmBphbm"  >
<path style="stroke: none; stroke-width: 1; stroke-dasharray: none; stroke-linecap: butt; stroke-dashoffset: 0; stroke-linejoin: miter; stroke-miterlimit: 4; fill: rgb(140,142,145); fill-rule: nonzero; opacity: 1;" vector-effect="non-scaling-stroke"  transform=" translate(-282.34, -448.75)" d="M 0 448.75076 C 0 449.41079 0.53003 449.94076 1.19006 449.94076 L 563.48004 449.94076 C 564.1400100000001 449.94076 564.6700400000001 449.41079 564.6700400000001 448.75076 C 564.6700400000001 448.09079 564.1400100000001 447.56076 563.48004 447.56076 L 1.19006 447.56076 C 0.5300299999999999 447.56076 0 448.09079 0 448.75076 Z" stroke-linecap="round" />
</g>
<g transform="matrix(0.88 0 0 0.88 101.99 262.33)" id="5LtBGMxln1zyacaSGTr_l"  >
<path style="stroke: none; stroke-width: 1; stroke-dasharray: none; stroke-linecap: butt; stroke-dashoffset: 0; stroke-linejoin: miter; stroke-miterlimit: 4; fill: rgb(14,20,30); fill-rule: nonzero; opacity: 1;" vector-effect="non-scaling-stroke"  transform=" translate(-114.22, -238.98)" d="M 142.37598 268.83935 L 73.15526 268.83935 L 73.15526 266.83935 L 142.37596 266.83935 C 148.38914 266.83935 153.28123 261.94677 153.28123 255.93310000000002 L 153.28123 209.13037000000003 L 155.28123 209.13037000000003 L 155.28123 255.93310000000002 C 155.28123 263.04931000000005 149.49217 268.83935 142.37596 268.83935 L 142.37598 268.83935 Z" stroke-linecap="round" />
</g>
<g transform="matrix(0.88 0 0 0.88 173.73 378.76)" id="3iHjuqVbQIHteqKfg1pB8"  >
<path style="stroke: none; stroke-width: 1; stroke-dasharray: none; stroke-linecap: butt; stroke-dashoffset: 0; stroke-linejoin: miter; stroke-miterlimit: 4; fill: rgb(14,20,30); fill-rule: nonzero; opacity: 1;" vector-effect="non-scaling-stroke"  transform=" translate(-78.72, -1)" d="M 0 2 L 0 0 L 157.43605 0 L 157.43605 2 z" stroke-linecap="round" />
</g>
<g transform="matrix(0.88 0 0 0.88 293.9 233.04)" id="hENS2KEL5cQ0MLdCaIdhJ"  >
<path style="stroke: none; stroke-width: 1; stroke-dasharray: none; stroke-linecap: butt; stroke-dashoffset: 0; stroke-linejoin: miter; stroke-miterlimit: 4; fill: rgb(230,230,230); fill-rule: nonzero; opacity: 1;" vector-effect="non-scaling-stroke"  transform=" translate(-332.3, -205.7)" d="M 374.34299 255.466 L 290.25118999999995 255.466 C 285.71309999999994 255.466 282.02120999999994 251.77411 282.02120999999994 247.23602 L 282.02120999999994 164.1701 C 282.02120999999994 159.63200999999998 285.71309999999994 155.94011999999998 290.25118999999995 155.94011999999998 L 374.34299 155.94011999999998 C 378.88108 155.94011999999998 382.57297 159.63200999999998 382.57297 164.1701 L 382.57297 247.23602 C 382.57297 251.77411 378.88108 255.466 374.34299 255.466 Z" stroke-linecap="round" />
</g>
<g transform="matrix(0.88 0 0 0.88 293.9 233.04)" id="P-WPXexkuZ9QPc9nDCP79"  >
<path style="stroke: none; stroke-width: 1; stroke-dasharray: none; stroke-linecap: butt; stroke-dashoffset: 0; stroke-linejoin: miter; stroke-miterlimit: 4; fill: rgb(255,255,255); fill-rule: nonzero; opacity: 1;" vector-effect="non-scaling-stroke"  transform=" translate(-332.3, -205.7)" d="M 305.91171 158.39219 C 294.07159 158.39219 284.47329 167.99049 284.47329 179.83061 L 284.47329 245.4736 C 284.47329 249.63795000000002 287.84918000000005 253.01382 292.01351 253.01382 L 343.4334 253.01382 C 363.69524 253.01382 380.12072 236.58834000000002 380.12072 216.32649 L 380.12072 165.9324 C 380.12072 161.76805 376.74483 158.39218 372.58050000000003 158.39218 L 305.91171 158.39218 L 305.91171 158.3922 Z" stroke-linecap="round" />
</g>
<g transform="matrix(0.88 0 0 0.88 293.82 211.28)" id="3PKghvgwoowzSW1gHsv4C"  >
<path style="stroke: none; stroke-width: 1; stroke-dasharray: none; stroke-linecap: butt; stroke-dashoffset: 0; stroke-linejoin: miter; stroke-miterlimit: 4; fill: rgb(140,142,145); fill-rule: nonzero; opacity: 1;" vector-effect="non-scaling-stroke"  transform=" translate(-332.21, -180.97)" d="M 354.81924 182.53161 L 309.59862999999996 182.53161 C 308.73589999999996 182.53161 308.03392999999994 181.82961 308.03392999999994 180.9669 C 308.03392999999994 180.10419000000002 308.73592999999994 179.40251 309.59862999999996 179.40251 L 354.81924 179.40251 C 355.68197 179.40251 356.38363 180.10417 356.38363 180.9669 C 356.38363 181.82963 355.68197 182.53161 354.81924 182.53161 Z" stroke-linecap="round" />
</g>
<g transform="matrix(0.88 0 0 0.88 293.82 240.64)" id="4T9WYWl2hZ5gCja1WuwYQ"  >
<path style="stroke: none; stroke-width: 1; stroke-dasharray: none; stroke-linecap: butt; stroke-dashoffset: 0; stroke-linejoin: miter; stroke-miterlimit: 4; fill: rgb(140,142,145); fill-rule: nonzero; opacity: 1;" vector-effect="non-scaling-stroke"  transform=" translate(-332.21, -214.33)" d="M 354.81924 215.89521 L 309.59862999999996 215.89521 C 308.73589999999996 215.89521 308.03392999999994 215.19321 308.03392999999994 214.3305 C 308.03392999999994 213.46779 308.73592999999994 212.76611 309.59862999999996 212.76611 L 354.81924 212.76611 C 355.68197 212.76611 356.38363 213.46777 356.38363 214.3305 C 356.38363 215.19323 355.68197 215.89521 354.81924 215.89521 Z" stroke-linecap="round" />
</g>
<g transform="matrix(0.88 0 0 0.88 293.82 225.97)" id="aXlS4H803L6dZviXd4z3O"  >
<path style="stroke: none; stroke-width: 1; stroke-dasharray: none; stroke-linecap: butt; stroke-dashoffset: 0; stroke-linejoin: miter; stroke-miterlimit: 4; fill: rgb(140,142,145); fill-rule: nonzero; opacity: 1;" vector-effect="non-scaling-stroke"  transform=" translate(-332.21, -197.66)" d="M 373.1824 199.22434 L 291.2355 199.22434 C 290.37277 199.22434 289.6708 198.52234 289.6708 197.65963000000002 C 289.6708 196.79692000000003 290.3728 196.09524000000002 291.2355 196.09524000000002 L 373.18240000000003 196.09524000000002 C 374.04513000000003 196.09524000000002 374.74679000000003 196.79690000000002 374.74679000000003 197.65963000000002 C 374.74679000000003 198.52236000000002 374.04513000000003 199.22434 373.18240000000003 199.22434 Z" stroke-linecap="round" />
</g>
<g transform="matrix(0.88 0 0 0.88 317.59 252.58)" id="ruzcQ6JE9Oatj0Q0FfvtO"  >
<path style="stroke: none; stroke-width: 1; stroke-dasharray: none; stroke-linecap: butt; stroke-dashoffset: 0; stroke-linejoin: miter; stroke-miterlimit: 4; fill: rgb(140,142,145); fill-rule: nonzero; opacity: 1;" vector-effect="non-scaling-stroke"  transform=" translate(-359.22, -227.9)" d="M 374.01913 229.46084 L 344.41552 229.46084 C 343.55279 229.46084 342.85082 228.75884 342.85082 227.89613 C 342.85082 227.03342 343.55282 226.33174 344.41552 226.33174 L 374.01913 226.33174 C 374.88186 226.33174 375.58352 227.0334 375.58352 227.89613 C 375.58352 228.75886 374.88186 229.46084 374.01913 229.46084 Z" stroke-linecap="round" />
</g>
<g transform="matrix(0.88 0 0 0.88 146.09 387.7)" id="83Rf0iuSzNxhqLV7OFAwi"  >
<path style="stroke: none; stroke-width: 1; stroke-dasharray: none; stroke-linecap: butt; stroke-dashoffset: 0; stroke-linejoin: miter; stroke-miterlimit: 4; fill: rgb(230,230,230); fill-rule: nonzero; opacity: 1;" vector-effect="non-scaling-stroke"  transform=" translate(-164.32, -381.46)" d="M 197.71127 420.97035 L 130.93673 420.97035 C 127.33318000000001 420.97035 124.40157 418.03874 124.40157 414.43519 L 124.40157 348.47526 C 124.40157 344.87171 127.33318000000001 341.9401 130.93673 341.9401 L 197.7113 341.9401 C 201.31485 341.9401 204.24645999999998 344.87170999999995 204.24645999999998 348.47526 L 204.24645999999998 414.43519 C 204.24645999999998 418.03873999999996 201.31484999999998 420.97035 197.7113 420.97035 L 197.71128 420.97035 Z" stroke-linecap="round" />
</g>
<g transform="matrix(0.88 0 0 0.88 146.09 387.7)" id="ZVywvpcfM5l_1hErtWVnP"  >
<path style="stroke: none; stroke-width: 1; stroke-dasharray: none; stroke-linecap: butt; stroke-dashoffset: 0; stroke-linejoin: miter; stroke-miterlimit: 4; fill: rgb(255,255,255); fill-rule: nonzero; opacity: 1;" vector-effect="non-scaling-stroke"  transform=" translate(0, 0)" d="M -20.95172 -37.56799 C -30.35356 -37.56799 -37.97527 -29.94629 -37.97527 -20.544430000000002 L -37.97527 31.580539999999996 C -37.97527 34.88733 -35.2946 37.568 -31.987820000000003 37.568 L 8.843039999999998 37.568 C 24.932319999999997 37.568 37.97526 24.525059999999996 37.97526 8.435799999999997 L 37.97526 -31.580500000000004 C 37.97526 -34.88729000000001 35.294599999999996 -37.56796000000001 31.9878 -37.56796000000001 L -20.951729999999998 -37.56796000000001 L -20.95171 -37.56799000000001 z" stroke-linecap="round" />
</g>
<g transform="matrix(0.88 0 0 0.88 146.03 370.42)" id="QqWCq8Q5VjwjJfkOH9F_1"  >
<path style="stroke: none; stroke-width: 1; stroke-dasharray: none; stroke-linecap: butt; stroke-dashoffset: 0; stroke-linejoin: miter; stroke-miterlimit: 4; fill: rgb(140,142,145); fill-rule: nonzero; opacity: 1;" vector-effect="non-scaling-stroke"  transform=" translate(0, 0)" d="M 17.95423 1.24236 L 0.23281000000000063 1.24236 L -17.953969999999998 1.24236 C -18.639029999999998 1.24236 -19.19646 0.6849299999999999 -19.19646 -0.00013000000000018552 C -19.19646 -0.6851900000000002 -18.639039999999998 -1.2423500000000003 -17.953969999999998 -1.2423500000000003 L 17.954230000000003 -1.2423500000000003 C 18.639290000000003 -1.2423500000000003 19.196460000000002 -0.6851900000000003 19.196460000000002 -0.00013000000000018552 C 19.196460000000002 0.6849299999999998 18.639290000000003 1.24236 17.954230000000003 1.24236 z" stroke-linecap="round" />
</g>
<g transform="matrix(0.88 0 0 0.88 146.03 393.74)" id="hYkWWbWo9cCcvDB9wNyO8"  >
<path style="stroke: none; stroke-width: 1; stroke-dasharray: none; stroke-linecap: butt; stroke-dashoffset: 0; stroke-linejoin: miter; stroke-miterlimit: 4; fill: rgb(140,142,145); fill-rule: nonzero; opacity: 1;" vector-effect="non-scaling-stroke"  transform=" translate(-164.25, -388.31)" d="M 182.20811 389.54847 L 146.29991 389.54847 C 145.61485000000002 389.54847 145.05742 388.99104 145.05742 388.30598000000003 C 145.05742 387.62092000000007 145.61484000000002 387.06376000000006 146.29991 387.06376000000006 L 182.20811 387.06376000000006 C 182.89317 387.06376000000006 183.45034 387.62092000000007 183.45034 388.30598000000003 C 183.45034 388.99104 182.89317 389.54847 182.20811 389.54847 Z" stroke-linecap="round" />
</g>
<g transform="matrix(0.88 0 0 0.88 146.03 382.09)" id="0rnK6bNy00nN29QuMGYKj"  >
<path style="stroke: none; stroke-width: 1; stroke-dasharray: none; stroke-linecap: butt; stroke-dashoffset: 0; stroke-linejoin: miter; stroke-miterlimit: 4; fill: rgb(140,142,145); fill-rule: nonzero; opacity: 1;" vector-effect="non-scaling-stroke"  transform=" translate(-164.25, -375.07)" d="M 196.78969 376.31068 L 131.71834 376.31068 C 131.03328000000002 376.31068 130.47585 375.75325 130.47585 375.06819 C 130.47585 374.38313000000005 131.03327000000002 373.82597000000004 131.71834 373.82597000000004 L 196.78969 373.82597000000004 C 197.47475 373.82597000000004 198.03192 374.38313000000005 198.03192 375.06819 C 198.03192 375.75325 197.47475 376.31068 196.78969 376.31068 Z" stroke-linecap="round" />
</g>
<g transform="matrix(0.88 0 0 0.88 164.9 403.22)" id="X4pDrHh9g5orCtiXSu71o"  >
<path style="stroke: none; stroke-width: 1; stroke-dasharray: none; stroke-linecap: butt; stroke-dashoffset: 0; stroke-linejoin: miter; stroke-miterlimit: 4; fill: rgb(140,142,145); fill-rule: nonzero; opacity: 1;" vector-effect="non-scaling-stroke"  transform=" translate(-185.7, -399.08)" d="M 197.4541 400.32048 L 173.94685 400.32048 C 173.26179000000002 400.32048 172.70436 399.76304999999996 172.70436 399.07799 C 172.70436 398.39293000000004 173.26178000000002 397.83577 173.94685 397.83577 L 197.4541 397.83577 C 198.13916 397.83577 198.69633000000002 398.39293000000004 198.69633000000002 399.07799 C 198.69633000000002 399.76304999999996 198.13916 400.32048 197.4541 400.32048 Z" stroke-linecap="round" />
</g>
<g transform="matrix(0.88 0 0 0.88 112.67 209.9)" id="InWocnC2pfx0PYzynJKJX"  >
<path style="stroke: none; stroke-width: 1; stroke-dasharray: none; stroke-linecap: butt; stroke-dashoffset: 0; stroke-linejoin: miter; stroke-miterlimit: 4; fill: rgb(230,230,230); fill-rule: nonzero; opacity: 1;" vector-effect="non-scaling-stroke"  transform=" translate(-126.35, -179.4)" d="M 151.04003 208.62567 L 101.65733 208.62567 C 98.99234 208.62567 96.82429 206.45762000000002 96.82429 203.79264 L 96.82429 155.01238 C 96.82429 152.3474 98.99234 150.17935 101.65732 150.17935 L 151.04003 150.17935 C 153.70501000000002 150.17935 155.87306 152.3474 155.87306 155.01238 L 155.87306 203.79264 C 155.87306 206.45762000000002 153.70501000000002 208.62567 151.04003 208.62567 L 151.04002 208.62567 Z" stroke-linecap="round" />
</g>
<g transform="matrix(0.88 0 0 0.88 112.67 209.9)" id="AaB2jJxKxCug7DdqABaNE"  >
<path style="stroke: none; stroke-width: 1; stroke-dasharray: none; stroke-linecap: butt; stroke-dashoffset: 0; stroke-linejoin: miter; stroke-miterlimit: 4; fill: rgb(255,255,255); fill-rule: nonzero; opacity: 1;" vector-effect="non-scaling-stroke"  transform=" translate(-126.35, -179.4)" d="M 110.85394 151.6193 C 103.90087 151.6193 98.26428 157.25588000000002 98.26428 164.20897000000002 L 98.26428 202.75767000000002 C 98.26428 205.20319 100.24675 207.18566 102.69226 207.18566 L 132.88847 207.18566 C 144.7872 207.18566 154.43302 197.53984000000003 154.43302 185.64112 L 154.43302 156.04732 C 154.43302 153.60180000000003 152.45055 151.61933000000002 150.00503 151.61933000000002 L 110.85393 151.61933000000002 L 110.85393 151.61931 Z" stroke-linecap="round" />
</g>
<g transform="matrix(0.88 0 0 0.88 112.62 197.12)" id="sC6NIySKK-nd_PUSCQJwP"  >
<path style="stroke: none; stroke-width: 1; stroke-dasharray: none; stroke-linecap: butt; stroke-dashoffset: 0; stroke-linejoin: miter; stroke-miterlimit: 4; fill: rgb(140,142,145); fill-rule: nonzero; opacity: 1;" vector-effect="non-scaling-stroke"  transform=" translate(-126.3, -164.88)" d="M 139.57477 165.7951 L 113.01908 165.7951 C 112.51245 165.7951 112.1002 165.38285 112.1002 164.87622 C 112.1002 164.36959 112.51244 163.95755 113.01908 163.95755 L 139.57477 163.95755 C 140.0814 163.95755 140.49346 164.36959 140.49346 164.87622 C 140.49346 165.38285 140.0814 165.7951 139.57477 165.7951 Z" stroke-linecap="round" />
</g>
<g transform="matrix(0.88 0 0 0.88 112.62 214.36)" id="yYdYCs39AUHnf_5QzpTpR"  >
<path style="stroke: none; stroke-width: 1; stroke-dasharray: none; stroke-linecap: butt; stroke-dashoffset: 0; stroke-linejoin: miter; stroke-miterlimit: 4; fill: rgb(140,142,145); fill-rule: nonzero; opacity: 1;" vector-effect="non-scaling-stroke"  transform=" translate(-126.3, -184.47)" d="M 139.57477 185.38782 L 113.01908 185.38782 C 112.51245 185.38782 112.1002 184.97557 112.1002 184.46894 C 112.1002 183.96231 112.51244 183.55027 113.01908 183.55027 L 139.57477 183.55027 C 140.0814 183.55027 140.49346 183.96231 140.49346 184.46894 C 140.49346 184.97557 140.0814 185.38782 139.57477 185.38782 Z" stroke-linecap="round" />
</g>
<g transform="matrix(0.88 0 0 0.88 112.62 205.74)" id="q3OwFOXgwSoFJC9d_Knt0"  >
<path style="stroke: none; stroke-width: 1; stroke-dasharray: none; stroke-linecap: butt; stroke-dashoffset: 0; stroke-linejoin: miter; stroke-miterlimit: 4; fill: rgb(140,142,145); fill-rule: nonzero; opacity: 1;" vector-effect="non-scaling-stroke"  transform=" translate(-126.3, -174.68)" d="M 150.35848 175.59789 L 102.23536999999999 175.59789 C 101.72873999999999 175.59789 101.31648999999999 175.18564 101.31648999999999 174.67901 C 101.31648999999999 174.17238 101.72872999999998 173.76034 102.23536999999999 173.76034 L 150.35848 173.76034 C 150.86511 173.76034 151.27716999999998 174.17238 151.27716999999998 174.67901 C 151.27716999999998 175.18564 150.86511 175.59789 150.35848 175.59789 Z" stroke-linecap="round" />
</g>
<g transform="matrix(0.88 0 0 0.88 126.58 221.37)" id="8ecmby5B2l_S74z-uys4J"  >
<path style="stroke: none; stroke-width: 1; stroke-dasharray: none; stroke-linecap: butt; stroke-dashoffset: 0; stroke-linejoin: miter; stroke-miterlimit: 4; fill: rgb(140,142,145); fill-rule: nonzero; opacity: 1;" vector-effect="non-scaling-stroke"  transform=" translate(-142.16, -192.44)" d="M 150.84984 193.35418 L 133.4652 193.35418 C 132.95857 193.35418 132.54632 192.94193 132.54632 192.4353 C 132.54632 191.92867 132.95856 191.51663000000002 133.4652 191.51663000000002 L 150.84984 191.51663000000002 C 151.35647 191.51663000000002 151.76853 191.92867 151.76853 192.4353 C 151.76853 192.94193 151.35647 193.35418 150.84984 193.35418 Z" stroke-linecap="round" />
</g>
<g transform="matrix(0.88 0 0 0.88 261.22 280.94)" id="nDr8_Con5laEIoCYO7R70"  >
<path style="stroke: none; stroke-width: 1; stroke-dasharray: none; stroke-linecap: butt; stroke-dashoffset: 0; stroke-linejoin: miter; stroke-miterlimit: 4; fill: rgb(14,20,30); fill-rule: nonzero; opacity: 1;" vector-effect="non-scaling-stroke"  transform=" translate(-10, -10)" d="M 0 10 C 0 4.47715 4.47715 0 10 0 C 15.52285 0 20 4.47715 20 10 C 20 15.52285 15.52285 20 10 20 C 4.47715 20 0 15.52285 0 10 z" stroke-linecap="round" />
</g>
<g transform="matrix(0.88 0 0 0.88 137.14 236.06)" id="K-m4chcDUnzcUJk08HVLz"  >
<path style="stroke: none; stroke-width: 1; stroke-dasharray: none; stroke-linecap: butt; stroke-dashoffset: 0; stroke-linejoin: miter; stroke-miterlimit: 4; fill: rgb(14,20,30); fill-rule: nonzero; opacity: 1;" vector-effect="non-scaling-stroke"  transform=" translate(-10, -10)" d="M 0 10 C 0 4.47715 4.47715 0 10 0 C 15.52285 0 20 4.47715 20 10 C 20 15.52285 15.52285 20 10 20 C 4.47715 20 0 15.52285 0 10 z" stroke-linecap="round" />
</g>
<g transform="matrix(0.88 0 0 0.88 179.38 356.62)" id="8_BfxvJwadd_zDcQABAEa"  >
<path style="stroke: none; stroke-width: 1; stroke-dasharray: none; stroke-linecap: butt; stroke-dashoffset: 0; stroke-linejoin: miter; stroke-miterlimit: 4; fill: rgb(14,20,30); fill-rule: nonzero; opacity: 1;" vector-effect="non-scaling-stroke"  transform=" translate(-10, -10)" d="M 0 10 C 0 4.47715 4.47715 0 10 0 C 15.52285 0 20 4.47715 20 10 C 20 15.52285 15.52285 20 10 20 C 4.47715 20 0 15.52285 0 10 z" stroke-linecap="round" />
</g>
<g transform="matrix(0.88 0 0 0.88 198.39 110.68)" id="vHw3ChjC2Mlq4z3-lRRqP"  >
<path style="stroke: none; stroke-width: 1; stroke-dasharray: none; stroke-linecap: butt; stroke-dashoffset: 0; stroke-linejoin: miter; stroke-miterlimit: 4; fill: rgb(140,142,145); fill-rule: nonzero; opacity: 1;" vector-effect="non-scaling-stroke"  transform=" translate(-12.46, -12.2)" d="M 0 12.20069 C 0 5.4624299999999995 5.58 0 12.46327 0 C 19.34654 0 24.92654 5.46243 24.92654 12.20069 C 24.92654 18.93895 19.346539999999997 24.40138 12.46327 24.40138 C 5.579999999999999 24.40138 0 18.93895 0 12.20069 z" stroke-linecap="round" />
</g>
<g transform="matrix(0.88 0 0 0.88 256.79 103.33)" id="5X7RsTSKBxE0xrvbfqBXo"  >
<path style="stroke: none; stroke-width: 1; stroke-dasharray: none; stroke-linecap: butt; stroke-dashoffset: 0; stroke-linejoin: miter; stroke-miterlimit: 4; fill: rgb(140,142,145); fill-rule: nonzero; opacity: 1;" vector-effect="non-scaling-stroke"  transform=" translate(-290.13, -58.3)" d="M 323.66919 62.47819 L 256.58423000000005 62.47819 C 254.28281000000004 62.47819 252.41031000000004 60.6057 252.41031000000004 58.304269999999995 C 252.41031000000004 56.00283999999999 254.28281000000004 54.13034999999999 256.58423000000005 54.13034999999999 L 323.66919000000007 54.13034999999999 C 325.9706100000001 54.13034999999999 327.8431100000001 56.00283999999999 327.8431100000001 58.304269999999995 C 327.8431100000001 60.6057 325.9706100000001 62.47819 323.66919000000007 62.47819 Z" stroke-linecap="round" />
</g>
<g transform="matrix(0.88 0 0 0.88 279.83 115.76)" id="K5xqwe7JmvoKgJKREYsOw"  >
<path style="stroke: none; stroke-width: 1; stroke-dasharray: none; stroke-linecap: butt; stroke-dashoffset: 0; stroke-linejoin: miter; stroke-miterlimit: 4; fill: rgb(140,142,145); fill-rule: nonzero; opacity: 1;" vector-effect="non-scaling-stroke"  transform=" translate(-316.3, -72.43)" d="M 376.02252 76.6053 L 256.58423 76.6053 C 254.28280999999998 76.6053 252.41030999999998 74.73281 252.41030999999998 72.43138 C 252.41030999999998 70.12995000000001 254.28280999999998 68.25746000000001 256.58423 68.25746000000001 L 376.02252 68.25746000000001 C 378.32394 68.25746000000001 380.19644 70.12995000000001 380.19644 72.43138 C 380.19644 74.73281 378.32394 76.6053 376.02252 76.6053 Z" stroke-linecap="round" />
</g>
<g transform="matrix(0.88 0 0 0.88 39.64 159.59)" id="exjeR2t4ooon9nufVSNzK"  >
<path style="stroke: none; stroke-width: 1; stroke-dasharray: none; stroke-linecap: butt; stroke-dashoffset: 0; stroke-linejoin: miter; stroke-miterlimit: 4; fill: rgb(140,142,145); fill-rule: nonzero; opacity: 1;" vector-effect="non-scaling-stroke"  transform=" translate(-8.07, -7.9)" d="M 0 7.8961 C 0 3.5351999999999997 3.61129 0 8.06605 0 C 12.52081 0 16.1321 3.5352 16.1321 7.8961 C 16.1321 12.257 12.52081 15.7922 8.06605 15.7922 C 3.6112900000000003 15.7922 0 12.257 0 7.8961 z" stroke-linecap="round" />
</g>
<g transform="matrix(0.88 0 0 0.88 77.44 154.84)" id="SdWMtYgm2y7q_S9B72GD_"  >
<path style="stroke: none; stroke-width: 1; stroke-dasharray: none; stroke-linecap: butt; stroke-dashoffset: 0; stroke-linejoin: miter; stroke-miterlimit: 4; fill: rgb(140,142,145); fill-rule: nonzero; opacity: 1;" vector-effect="non-scaling-stroke"  transform=" translate(-86.31, -116.83)" d="M 108.02125 119.53295 L 64.60485 119.53295 C 63.1154 119.53295 61.903549999999996 118.3211 61.903549999999996 116.83165 C 61.903549999999996 115.34219999999999 63.115399999999994 114.13034999999999 64.60485 114.13034999999999 L 108.02125000000001 114.13034999999999 C 109.51070000000001 114.13034999999999 110.72255000000001 115.34219999999999 110.72255000000001 116.83165 C 110.72255000000001 118.3211 109.51070000000001 119.53295 108.02126000000001 119.53295 Z" stroke-linecap="round" />
</g>
<g transform="matrix(0.88 0 0 0.88 92.35 162.88)" id="DnQczwAFur8Lh-qcJiWyk"  >
<path style="stroke: none; stroke-width: 1; stroke-dasharray: none; stroke-linecap: butt; stroke-dashoffset: 0; stroke-linejoin: miter; stroke-miterlimit: 4; fill: rgb(140,142,145); fill-rule: nonzero; opacity: 1;" vector-effect="non-scaling-stroke"  transform=" translate(-103.25, -125.97)" d="M 141.90355 128.67582 L 64.60485 128.67582 C 63.1154 128.67582 61.903549999999996 127.46396999999999 61.903549999999996 125.97451999999998 C 61.903549999999996 124.48506999999998 63.115399999999994 123.27321999999998 64.60485 123.27321999999998 L 141.90355 123.27321999999998 C 143.39301 123.27321999999998 144.60484 124.48506999999998 144.60484 125.97451999999998 C 144.60484 127.46396999999999 143.39299 128.67582 141.90355 128.67582 Z" stroke-linecap="round" />
</g>
<g transform="matrix(0.88 0 0 0.88 252.6 406.87)" id="P6L6b5Ucz6O38_-PIpeYL"  >
<path style="stroke: none; stroke-width: 1; stroke-dasharray: none; stroke-linecap: butt; stroke-dashoffset: 0; stroke-linejoin: miter; stroke-miterlimit: 4; fill: rgb(140,142,145); fill-rule: nonzero; opacity: 1;" vector-effect="non-scaling-stroke"  transform=" translate(-8.07, -7.9)" d="M 0 7.89609 C 0 3.5351999999999997 3.61129 0 8.06604 0 C 12.520789999999998 0 16.13208 3.5352 16.13208 7.89609 C 16.13208 12.25698 12.520789999999998 15.79218 8.06604 15.79218 C 3.6112899999999994 15.79218 0 12.25698 0 7.89609 z" stroke-linecap="round" />
</g>
<g transform="matrix(0.88 0 0 0.88 290.4 402.12)" id="llfJWYC105xGRy0b1DAl5"  >
<path style="stroke: none; stroke-width: 1; stroke-dasharray: none; stroke-linecap: butt; stroke-dashoffset: 0; stroke-linejoin: miter; stroke-miterlimit: 4; fill: rgb(140,142,145); fill-rule: nonzero; opacity: 1;" vector-effect="non-scaling-stroke"  transform=" translate(-328.31, -397.83)" d="M 350.02124 400.53295 L 306.60483 400.53295 C 305.11539 400.53295 303.90354 399.3211 303.90354 397.83166000000006 C 303.90354 396.3422200000001 305.11539000000005 395.1303700000001 306.60483 395.1303700000001 L 350.02124 395.1303700000001 C 351.51068 395.1303700000001 352.72253 396.3422200000001 352.72253 397.83166000000006 C 352.72253 399.3211 351.51068 400.53295 350.02124000000003 400.53295 Z" stroke-linecap="round" />
</g>
<g transform="matrix(0.88 0 0 0.88 305.31 410.16)" id="tB8GhpIOmBRX6xSEtaXP1"  >
<path style="stroke: none; stroke-width: 1; stroke-dasharray: none; stroke-linecap: butt; stroke-dashoffset: 0; stroke-linejoin: miter; stroke-miterlimit: 4; fill: rgb(140,142,145); fill-rule: nonzero; opacity: 1;" vector-effect="non-scaling-stroke"  transform=" translate(-345.25, -406.97)" d="M 383.90356 409.67581 L 306.60485000000006 409.67581 C 305.11541000000005 409.67581 303.9035600000001 408.46396 303.9035600000001 406.97452 C 303.9035600000001 405.48508 305.1154100000001 404.27323 306.60485000000006 404.27323 L 383.9035600000001 404.27323 C 385.3930000000001 404.27323 386.60485000000006 405.48508000000004 386.60485000000006 406.97452 C 386.60485000000006 408.46395999999993 385.39300000000003 409.67580999999996 383.9035600000001 409.67580999999996 Z" stroke-linecap="round" />
</g>
<g transform="matrix(0.88 0 0 0.88 166.4 231.08)" id="5XSYMfn-nbNhlX0TUWPYF"  >
<path style="stroke: none; stroke-width: 1; stroke-dasharray: none; stroke-linecap: butt; stroke-dashoffset: 0; stroke-linejoin: miter; stroke-miterlimit: 4; fill: rgb(140,142,145); fill-rule: nonzero; opacity: 1;" vector-effect="non-scaling-stroke"  transform=" translate(-1, -47.5)" d="M 0 95 L 0 0 L 2 0 L 2 95 z" stroke-linecap="round" />
</g>
<g transform="matrix(0.88 0 0 0.88 166.4 272.88)" id="ySzFgpL71S64NwlNVVnVW"  >
<path style="stroke: none; stroke-width: 1; stroke-dasharray: none; stroke-linecap: butt; stroke-dashoffset: 0; stroke-linejoin: miter; stroke-miterlimit: 4; fill: rgb(140,142,145); fill-rule: nonzero; opacity: 1;" vector-effect="non-scaling-stroke"  transform=" translate(-6, -6)" d="M 0 6.00001 C 0 2.6862999999999997 2.6863 0 6.00001 0 C 9.31372 0 12.00002 2.6863 12.00002 6.00001 C 12.00002 9.31372 9.31372 12.00002 6.00001 12.00002 C 2.6862999999999997 12.00002 0 9.31372 0 6.00001 z" stroke-linecap="round" />
</g>
<g transform="matrix(0.88 0 0 0.88 246.48 333.6)" id="6KqjSFDT_yTS-7V8dmMkX"  >
<path style="stroke: none; stroke-width: 1; stroke-dasharray: none; stroke-linecap: butt; stroke-dashoffset: 0; stroke-linejoin: miter; stroke-miterlimit: 4; fill: rgb(140,142,145); fill-rule: nonzero; opacity: 1;" vector-effect="non-scaling-stroke"  transform=" translate(-6, -6)" d="M 0 6 C 0 2.68629 2.68629 0 6 0 C 9.31371 0 12 2.68629 12 6 C 12 9.31371 9.31371 12 6 12 C 2.68629 12 0 9.31371 0 6 z" stroke-linecap="round" />
</g>
<g transform="matrix(0.88 0 0 0.88 103.92 261.44)" id="3quE13E-k_Ou9H82ZlCYl"  >
<path style="stroke: none; stroke-width: 1; stroke-dasharray: none; stroke-linecap: butt; stroke-dashoffset: 0; stroke-linejoin: miter; stroke-miterlimit: 4; fill: rgb(140,142,145); fill-rule: nonzero; opacity: 1;" vector-effect="non-scaling-stroke"  transform=" translate(-6, -6)" d="M 0 6 C 0 2.68629 2.68629 0 6 0 C 9.31371 0 12 2.68629 12 6 C 12 9.31371 9.31371 12 6 12 C 2.68629 12 0 9.31371 0 6 z" stroke-linecap="round" />
</g>
<g transform="matrix(0.88 0 0 0.88 87.56 262.77)" id="zc9_EZRjIUz6vYe1-qxBL"  >
<path style="stroke: none; stroke-width: 1; stroke-dasharray: none; stroke-linecap: butt; stroke-dashoffset: 0; stroke-linejoin: miter; stroke-miterlimit: 4; fill: rgb(140,142,145); fill-rule: nonzero; opacity: 1;" vector-effect="non-scaling-stroke"  transform=" translate(-16.41, -1)" d="M 0 2.00092 L 0 0 L 32.82787 0 L 32.82787 2.00092 z" stroke-linecap="round" />
</g>
<g transform="matrix(0.88 0 0 0.88 267.54 343.7)" id="OEtI9J6P5E0RsG8FLanUC"  >
<path style="stroke: none; stroke-width: 1; stroke-dasharray: none; stroke-linecap: butt; stroke-dashoffset: 0; stroke-linejoin: miter; stroke-miterlimit: 4; fill: rgb(140,142,145); fill-rule: nonzero; opacity: 1;" vector-effect="non-scaling-stroke"  transform=" translate(-302.34, -331.46)" d="M 327.21616 342.94012 L 277.4603 342.94012 L 277.4603 319.97038999999995 L 279.4603 319.97038999999995 L 279.4603 340.94012 L 327.21616 340.94012 z" stroke-linecap="round" />
</g>
<g transform="matrix(0.88 0 0 0.88 101.76 319.1)" id="_joclXNds1YqlGcNGUy98"  >
<path style="stroke: none; stroke-width: 1; stroke-dasharray: none; stroke-linecap: butt; stroke-dashoffset: 0; stroke-linejoin: miter; stroke-miterlimit: 4; fill: rgb(140,142,145); fill-rule: nonzero; opacity: 1;" vector-effect="non-scaling-stroke"  transform=" translate(-6, -6)" d="M 0 6 C 0 2.68629 2.68629 0 6 0 C 9.31371 0 12 2.68629 12 6 C 12 9.31371 9.31371 12 6 12 C 2.68629 12 0 9.31371 0 6 z" stroke-linecap="round" />
</g>
<g transform="matrix(0.88 0 0 0.88 122.29 329.2)" id="yiDH1soXTN7wINYZqQAQN"  >
<path style="stroke: none; stroke-width: 1; stroke-dasharray: none; stroke-linecap: butt; stroke-dashoffset: 0; stroke-linejoin: miter; stroke-miterlimit: 4; fill: rgb(140,142,145); fill-rule: nonzero; opacity: 1;" vector-effect="non-scaling-stroke"  transform=" translate(-137.28, -314.97)" d="M 162.16098 326.45526 L 112.40511 326.45526 L 112.40511 303.48553000000004 L 114.40511 303.48553000000004 L 114.40511 324.45526000000007 L 162.16098 324.45526000000007 z" stroke-linecap="round" />
</g>
<g transform="matrix(0.88 0 0 0.88 173.01 299.88)" id="GSjS-CDavfmJ7o7rIYTOl"  >
<path style="stroke: none; stroke-width: 1; stroke-dasharray: none; stroke-linecap: butt; stroke-dashoffset: 0; stroke-linejoin: miter; stroke-miterlimit: 4; fill: rgb(140,142,145); fill-rule: nonzero; opacity: 1;" vector-effect="non-scaling-stroke"  transform=" translate(-119.49, -1)" d="M 0 2 L 0 0 L 238.98243 0 L 238.98243 2 z" stroke-linecap="round" />
</g>
</svg>