<?xml version="1.0" encoding="UTF-8" standalone="no" ?>
<!DOCTYPE svg PUBLIC "-//W3C//DTD SVG 1.1//EN" "http://www.w3.org/Graphics/SVG/1.1/DTD/svg11.dtd">
<svg xmlns="http://www.w3.org/2000/svg" xmlns:xlink="http://www.w3.org/1999/xlink" version="1.1" width="500" height="500" viewBox="0 0 500 500" xml:space="preserve">
<desc>Created with Fabric.js 4.6.0</desc>
<defs>
</defs>
<g transform="matrix(0.56 0 0 0.56 41.14 317.54)" id="29UdVgIqllig6oeew-uSR"  >
<path style="stroke: none; stroke-width: 1; stroke-dasharray: none; stroke-linecap: butt; stroke-dashoffset: 0; stroke-linejoin: miter; stroke-miterlimit: 4; fill: rgb(140,142,145); fill-rule: nonzero; opacity: 1;" vector-effect="non-scaling-stroke"  transform=" translate(-227.03, -570.6)" d="M 268.97109 622.8 C 267.4550820872494 622.8696759217719 266.0570984014887 621.9845950056728 265.47164684329965 620.5844588699306 C 264.8861952851106 619.1843227341884 265.2380611130322 617.5675614491382 266.35244 616.53737 C 266.44355 616.17524 266.50891 615.9152 266.60002000000003 615.55307 Q 266.55112 615.4348600000001 266.50164 615.3168000000001 C 264.97719669910157 611.7160461840064 261.44040772326076 609.3821552662303 257.53027419104 609.3966873428403 C 253.62014065881928 609.4112194194504 250.10079703497453 611.7713345719396 248.60316 615.38332 C 245.67577 622.4338300000001 241.94869 629.49638 241.03099 636.95111 C 240.62682007538712 640.2462738003778 240.79731755117075 643.5865741616576 241.5349 646.82346 C 234.65929126890757 631.8251288254353 231.08896931813146 615.5237540971495 231.066 599.02456 C 231.06454325106156 594.884280756967 231.2945688733874 590.7471580982415 231.755 586.6325599999999 Q 232.3258 581.5728799999999 233.33876999999998 576.5852499999999 C 237.02395628630723 558.5436908310473 244.93621820122104 541.6336102870202 256.42577 527.2437299999999 C 261.9866887659904 524.2095387000201 266.4838848898549 519.5436448464153 269.31133 513.8748099999999 C 270.33563814666564 511.83705506854403 271.0595875628909 509.66176109374527 271.46066 507.4165899999999 C 270.83337 507.49886999999995 270.19577000000004 507.5502899999999 269.56848 507.59138999999993 C 269.37306 507.6016199999999 269.16740000000004 507.6119299999999 268.97198000000003 507.62224999999995 L 268.89828000000006 507.62555 C 267.48997878814083 507.6887428851095 266.17570590783015 506.91954823859436 265.5411260954744 505.6607336748865 C 264.90654628311864 504.4019191111786 265.06982023321535 502.8878797373949 265.95819000000006 501.7933 Q 266.36446000000007 501.2933 266.77119000000005 500.79382 C 267.18259000000006 500.27959999999996 267.6041900000001 499.77569 268.01553000000007 499.26155 C 268.06300120853626 499.21269938985375 268.10763753375403 499.16117179563685 268.14922000000007 499.10722 C 268.6223500000001 498.52103 269.0953100000001 497.94516 269.5684300000001 497.35897 C 268.704918686151 496.0187457347265 267.5435120371908 494.8960861791096 266.1747700000001 494.07853 C 261.43394000000006 491.30192 254.89344000000008 493.22496 251.46891000000008 497.5133 C 248.03415000000007 501.80155 247.38631000000007 507.81767 248.57915000000008 513.17548 C 249.75225668485288 517.7345109478824 251.69277273831025 522.0606184603824 254.31757000000007 525.96848 C 254.06042000000008 526.29759 253.79303000000007 526.61639 253.53596000000007 526.94548 C 248.83623183518432 532.9887188955081 244.74007760260608 539.4780044305853 241.30623000000003 546.3202900000001 C 242.14129327251533 538.6549337574255 241.1446330258729 530.9008382105361 238.3982300000001 523.69582 C 235.6147600000001 516.98103 230.3975900000001 511.32582 225.8032300000001 505.52087 C 220.2846600000001 498.54827 208.9683500000001 501.59128 207.9961000000001 510.43014 Q 207.9819800000001 510.55851 207.9685300000001 510.6868 Q 208.9921600000001 511.26429 209.9725300000001 511.91265 C 211.65305428861512 513.0354598489051 212.47200326190023 515.0747193327871 212.03483292495454 517.0479770295714 C 211.59766258800883 519.0212347263557 209.9940358878824 520.5237785926334 207.9965300000001 520.83173 L 207.8965900000001 520.84717 C 208.1396948053639 523.3066444860368 208.56941285535473 525.7440802549683 209.18203000000008 528.13841 C 212.7706611040437 541.6509986763327 221.83082442600147 553.0554154693334 234.18186000000009 559.60677 C 234.5829400000001 559.81243 234.9737900000001 560.01809 235.3748600000001 560.2135099999999 C 231.9248793647109 569.990451142475 229.76084733950455 580.1744950955903 228.93719000000007 590.5095100000001 C 228.47088877429096 596.606884242632 228.49840511127314 602.7319813929283 229.01947000000013 608.82492 L 228.9886100000001 608.60892 C 227.67217764028555 601.8337113654507 224.05792511831905 595.7203874320677 218.75620000000012 591.30132 C 210.88182000000012 584.83279 199.7568000000001 582.45082 191.26174000000012 577.25139 C 189.41837460416735 576.06788016008 187.0556158321572 576.0621239561792 185.20650576739826 577.236638107711 C 183.3573957026393 578.4111522592428 182.3582953627438 580.5522876261487 182.6460300000001 582.7239 Q 182.6631200000001 582.83742 182.6807700000001 582.9508999999999 C 183.947126822266 583.4666716186911 185.18012746583477 584.0608220003189 186.37261000000012 584.7298999999999 Q 187.39623000000012 585.30751 188.3766100000001 585.9557599999999 C 190.05714247152952 587.0785810339057 190.87609580107372 589.1178527159497 190.43892638610097 591.0911239503871 C 190.00175697112823 593.0643951848245 188.39812686255746 594.5669543430754 186.4006100000001 594.87492 L 186.30061000000012 594.89027 C 186.22861000000012 594.90059 186.16692000000012 594.9109 186.09504000000013 594.92122 C 188.25878602826995 600.0875991428741 191.29568085387123 604.8429802487765 195.0727100000001 608.97908 C 204.5029098846455 619.0979672433728 217.68684080818127 624.8826811340087 231.5184300000001 624.97037 L 231.52875000000012 624.97037 C 233.38648664567398 633.0431682215464 236.07816804405883 640.9010425799213 239.56042000000008 648.4173699999999 L 268.2520900000001 648.41737 C 268.35500000000013 648.09857 268.44751000000014 647.76945 268.54009000000013 647.45065 C 265.88431700627336 647.6176086567816 263.2180922954636 647.4587600773082 260.6009300000001 646.97765 C 262.7297100000001 644.3655200000001 264.85840000000013 641.73283 266.98718000000014 639.12077 C 267.0346604806817 639.071956588937 267.0793005348594 639.0204585937511 267.1208800000001 638.96653 C 268.20066000000014 637.62968 269.2907500000001 636.3030600000001 270.3705300000001 634.96621 L 270.3711100000001 634.96456 C 270.4286739693929 630.8666663600235 269.9584390832994 626.7784114372192 268.972 622.8006 Z" stroke-linecap="round" />
</g>
<g transform="matrix(0.56 0 0 0.56 131 361.33)" id="2rZFBVlOVVy1xSsZ4wx_7"  >
<path style="stroke: none; stroke-width: 1; stroke-dasharray: none; stroke-linecap: butt; stroke-dashoffset: 0; stroke-linejoin: miter; stroke-miterlimit: 4; fill: rgb(204,204,204); fill-rule: nonzero; opacity: 1;" vector-effect="non-scaling-stroke"  transform=" translate(-387.5, -648.81)" d="M 607.335 648.80514 C 607.3359413409362 649.1210456678511 607.2108607630371 649.4242831790757 606.9874751001446 649.6476575793934 C 606.7640894372521 649.8710319797111 606.4608456199883 649.9960972685504 606.14494 649.9951400000001 L 168.855 649.9951400000001 C 168.1977811762155 649.995139959675 167.66500007301508 649.4623588237846 167.66500007301508 648.8051400000002 C 167.66500007301508 648.1479211762156 168.1977811762155 647.6151400403252 168.855 647.6151400000001 L 606.145 647.6151400000001 C 606.4608919720014 647.6142094608938 606.7641140901917 647.7392852604872 606.9874844148522 647.9626555851478 C 607.2108547395129 648.1860259098083 607.3359305391062 648.4892480279987 607.335 648.80514 Z" stroke-linecap="round" />
</g>
<g transform="matrix(0.56 0 0 0.56 127.65 285.66)" id="DNaEaUj5Q4auuzK_PGEkM"  >
<path style="stroke: none; stroke-width: 1; stroke-dasharray: none; stroke-linecap: butt; stroke-dashoffset: 0; stroke-linejoin: miter; stroke-miterlimit: 4; fill: rgb(255,182,182); fill-rule: nonzero; opacity: 1;" vector-effect="non-scaling-stroke"  transform=" translate(-381.52, -513.67)" d="M 396.64724 495.94436 C 393.3134049268738 495.1465752136303 389.7974311233364 495.8664472882464 387.0453967687529 497.91027305659395 C 384.29336241416934 499.9540988249415 382.58796396101786 503.111930946344 382.38809000000003 506.53406 L 357.38928000000004 515.23406 L 358.97103000000004 531.71525 L 394.10164000000003 518.93331 C 400.0024532978211 518.8870752625135 404.9360910697356 514.4346447221501 405.5855458947278 508.569498205908 C 406.23500071972 502.70435168966594 402.39498635671475 497.2804039508749 396.64724 495.94431000000003 Z" stroke-linecap="round" />
</g>
<g transform="matrix(0.56 0 0 0.56 99.81 286.5)" id="powF_ESmVqeiXP0AE0lj5"  >
<path style="stroke: none; stroke-width: 1; stroke-dasharray: none; stroke-linecap: butt; stroke-dashoffset: 0; stroke-linejoin: miter; stroke-miterlimit: 4; fill: rgb(47,46,65); fill-rule: nonzero; opacity: 1;" vector-effect="non-scaling-stroke"  transform=" translate(-331.81, -515.17)" d="M 355.90521 543.8479 C 345.96507 550.77598 328.45321 554.32015 304.6197 554.15766 C 301.9519152065647 554.1648667964183 299.4032597575466 553.0534865022178 297.59323 551.09366 C 291.21599000000003 544.45282 291.46504 529.29381 291.50483 527.82959 L 284.51483 501.48713000000004 C 284.36498 501.08429 280.49598000000003 490.27548 284.43213000000003 482.72765000000004 C 286.12698184400256 479.53705890954376 289.13207425830205 477.2469572337272 292.65791 476.45900000000006 C 307.44035 472.53634000000005 321.33637 512.1057800000001 323.10223 517.33437 L 343.84723 513.8015800000001 L 358.1736 513.21235 L 372.74923 505.16695000000004 L 380.95558 524.80704 L 360.64716 539.64818 C 359.245998216885 541.2385302633791 357.6532192288826 542.649178998919 355.90521 543.8479 Z" stroke-linecap="round" />
</g>
<g transform="matrix(0.56 0 0 0.56 142.81 408.23)" id="LlxXE4Wp2ISCzPUy4_aet"  >
<path style="stroke: none; stroke-width: 1; stroke-dasharray: none; stroke-linecap: butt; stroke-dashoffset: 0; stroke-linejoin: miter; stroke-miterlimit: 4; fill: rgb(255,182,182); fill-rule: nonzero; opacity: 1;" vector-effect="non-scaling-stroke"  transform=" translate(-240.92, -625.09)" d="M 228.268 654.202 L 243.549 654.916 L 253.57500000000002 596.315 L 231.02200000000002 595.2610000000001 z" stroke-linecap="round" />
</g>
<g transform="matrix(0.56 0 0 0.56 146.05 430.93)" id="7N0Ln3kh4pjfJL8SHG31Z"  >
<path style="stroke: none; stroke-width: 1; stroke-dasharray: none; stroke-linecap: butt; stroke-dashoffset: 0; stroke-linejoin: miter; stroke-miterlimit: 4; fill: rgb(47,46,65); fill-rule: nonzero; opacity: 1;" vector-effect="non-scaling-stroke"  transform=" translate(-414.38, -773.09)" d="M 392.496 753.947 L 416.71943 753.63488 L 416.23543 763.9843599999999 L 438.45943 780.9193599999999 C 440.7125732510691 782.6358360782984 441.587710437313 785.6180747596215 440.61937640814904 788.2798925304639 C 439.65104237898504 790.9417103013064 437.06426050276264 792.6645487069538 434.23488 792.5320699999999 L 405.47625 791.1871699999998 L 400.99800999999997 780.7181699999998 L 398.58379999999994 790.8648799999997 L 387.74064999999996 790.3577999999998 Z" stroke-linecap="round" />
</g>
<g transform="matrix(0.56 0 0 0.56 206.14 342.17)" id="AqBm2EuSkI_MvSyqL_nZE"  >
<path style="stroke: none; stroke-width: 1; stroke-dasharray: none; stroke-linecap: butt; stroke-dashoffset: 0; stroke-linejoin: miter; stroke-miterlimit: 4; fill: rgb(255,182,182); fill-rule: nonzero; opacity: 1;" vector-effect="non-scaling-stroke"  transform=" translate(-354.01, -507.13)" d="M 387.812 528.378 L 393.379 514.129 L 341.06800000000004 485.87600000000003 L 314.64200000000005 502.48600000000005 z" stroke-linecap="round" />
</g>
<g transform="matrix(0.56 0 0 0.56 234.46 348.95)" id="ZbfyZDsSqrypM1Py5DRbO"  >
<path style="stroke: none; stroke-width: 1; stroke-dasharray: none; stroke-linecap: butt; stroke-dashoffset: 0; stroke-linejoin: miter; stroke-miterlimit: 4; fill: rgb(47,46,65); fill-rule: nonzero; opacity: 1;" vector-effect="non-scaling-stroke"  transform=" translate(-572.25, -626.69)" d="M 547.06718 636.62606 L 554.5237500000001 613.57673 L 564.17402 617.34744 L 587.33077 601.712 C 589.6780496040124 600.1266550482892 592.7835365704001 600.2519417539471 594.9954783059223 602.0212223744203 C 597.2074200414445 603.7905029948935 598.011794746177 606.7926234773868 596.98077 609.43081 L 586.50288 636.2465 L 575.15126 637.13878 L 583.9916999999999 642.67329 L 580.04113 652.78388 Z" stroke-linecap="round" />
</g>
<g transform="matrix(0.56 0 0 0.56 138.64 332.63)" id="iSsw6qjUcZhO-1MHQ_Kjw"  >
<path style="stroke: none; stroke-width: 1; stroke-dasharray: none; stroke-linecap: butt; stroke-dashoffset: 0; stroke-linejoin: miter; stroke-miterlimit: 4; fill: rgb(47,46,65); fill-rule: nonzero; opacity: 1;" vector-effect="non-scaling-stroke"  transform=" translate(-401.14, -597.55)" d="M 254.96083 593.43123 C 254.96083 593.43123 261.30728 633.9469700000001 291.30728 636.9469700000001 C 321.30728 639.9469700000001 348.96083 626.43123 348.96083 626.43123 L 432.96083 600.5611700000001 C 432.96083 600.5611700000001 522.30728 625.9469700000001 537.30728 629.9469700000001 C 537.30728 629.9469700000001 547.65374 606.4627200000001 547.30728 604.9469700000001 C 544.1169199999999 590.9891200000001 539.96083 600.43123 539.96083 600.43123 L 444.96083 558.43123 C 444.96083 558.43123 429.96083 554.43123 403.96083 565.43123 C 377.96083 576.43123 308.30728 602.947 308.30728 602.947 Z" stroke-linecap="round" />
</g>
<g transform="matrix(0.56 0 0 0.56 105.06 368.32)" id="y6zLwmi8jByEDrem42mFX"  >
<path style="stroke: none; stroke-width: 1; stroke-dasharray: none; stroke-linecap: butt; stroke-dashoffset: 0; stroke-linejoin: miter; stroke-miterlimit: 4; fill: rgb(47,46,65); fill-rule: nonzero; opacity: 1;" vector-effect="non-scaling-stroke"  transform=" translate(-341.18, -661.29)" d="M 255.30728 590.947 C 255.30728 590.947 250.3041 639.48352 279.5277 646.89846 C 307.30728 653.947 345.62586 646.71646 345.62586 646.71646 L 391.30728 641.94701 C 391.30728 641.94701 393.30728 700.64252 393.30728 729.64252 C 402.5885933411347 730.9038683769281 411.9409152483489 731.5718913703007 421.30727999999993 731.6425200000001 C 423.30728 731.64252 423.43995 730.59461 423.43995 730.59461 L 427.31265 629.1508699999999 C 427.8626721384514 620.2320570532772 424.61784613889535 611.4961736556597 418.37891679365055 605.09902512241 C 412.13998744840575 598.7018765891603 403.4880885264004 595.2393342359802 394.55830000000003 595.5658699999999 Q 391.32367000000005 595.6892899999999 387.77187000000004 596.0241299999999 C 359.66958000000005 598.7188399999999 324.78143000000006 592.9902299999999 324.78143000000006 592.9902299999999 Z" stroke-linecap="round" />
</g>
<g transform="matrix(0.56 0 0 0.56 99.26 312.8)" id="1botESZF2LFUg0DchBmJP"  >
<path style="stroke: none; stroke-width: 1; stroke-dasharray: none; stroke-linecap: butt; stroke-dashoffset: 0; stroke-linejoin: miter; stroke-miterlimit: 4; fill: rgb(47,46,65); fill-rule: nonzero; opacity: 1;" vector-effect="non-scaling-stroke"  transform=" translate(-330.82, -562.15)" d="M 336.36554 520.53537 C 336.36554 520.53537 348.22945 592.27927 340.21186 598.00637 C 332.19427 603.7334699999999 321.19929 603.7558899999999 321.19929 603.7558899999999 L 318.64265 564.1433599999999 Z" stroke-linecap="round" />
</g>
<g transform="matrix(0.56 0 0 0.56 99.8 263.99)" id="S9yH4l2-EKFhgi5RhGcQr"  >
<path style="stroke: none; stroke-width: 1; stroke-dasharray: none; stroke-linecap: butt; stroke-dashoffset: 0; stroke-linejoin: miter; stroke-miterlimit: 4; fill: rgb(47,46,65); fill-rule: nonzero; opacity: 1;" vector-effect="non-scaling-stroke"  transform=" translate(-331.78, -474.99)" d="M 316.57845 432.424 L 332.44111999999996 447.49733999999995 C 347.5902890777308 461.8926904917013 351.346171159966 484.59341385365275 341.64086 503.10098999999997 L 334.05823 517.56069 Z" stroke-linecap="round" />
</g>
<g transform="matrix(0.56 0 0 0.56 87.36 287.92)" id="H0x6lE_2M6JWj2y3DuGKY"  >
<path style="stroke: none; stroke-width: 1; stroke-dasharray: none; stroke-linecap: butt; stroke-dashoffset: 0; stroke-linejoin: miter; stroke-miterlimit: 4; fill: rgb(14,20,30); fill-rule: nonzero; opacity: 1;" vector-effect="non-scaling-stroke"  transform=" translate(-309.58, -517.72)" d="M 313.03118 434.95847 L 334.525 459.44052 C 339.2422540201999 464.813594660377 342.1655251714817 471.5246118569208 342.88732 478.63808 L 342.88732 478.63808 C 343.21507025987955 481.86817594473297 343.08328936404206 485.12842406255777 342.49591 488.32153 L 334.39567999999997 532.35577 L 328.30728 595.947 C 328.30728 595.947 281.30395 610.1886 276.49291 588.19728 C 271.68187 566.20596 313.03118 434.95847 313.03118 434.95847 Z" stroke-linecap="round" />
</g>
<g transform="matrix(0.56 0 0 0.56 79.6 282.13)" id="4xcOHIQl5gNph2mcQ6oQ8"  >
<path style="stroke: none; stroke-width: 1; stroke-dasharray: none; stroke-linecap: butt; stroke-dashoffset: 0; stroke-linejoin: miter; stroke-miterlimit: 4; fill: rgb(47,46,65); fill-rule: nonzero; opacity: 1;" vector-effect="non-scaling-stroke"  transform=" translate(-295.72, -507.37)" d="M 292.85589 601.92344 C 261.95772999999997 596.77436 254.3888 595.75198 253.91738999999998 595.57191 L 253.44509 595.3917 L 256.54209 576.80765 L 269.61978999999997 544.67272 C 270.46909 534.16106 275.97734999999994 519.91841 272.82615999999996 508.47847 C 263.6654 475.22147 278.54875999999996 428.22554 285.35508999999996 424.62535 L 304.22425 412.25535 L 310.8478 418.32802000000004 L 322.33229 434.405 C 331.78137 476.49625 338.30747 515.72786 337.99011 518.12578 L 332.15811 559.33247 L 325.28611 575.13893 C 304.4384 585.198 318.45716 606.18982 292.85589 601.92344 Z" stroke-linecap="round" />
</g>
<g transform="matrix(0.56 0 0 0.56 131.26 321.26)" id="lcm73j9JR7YM5M8Jg9r0o"  >
<path style="stroke: none; stroke-width: 1; stroke-dasharray: none; stroke-linecap: butt; stroke-dashoffset: 0; stroke-linejoin: miter; stroke-miterlimit: 4; fill: rgb(230,230,230); fill-rule: nonzero; opacity: 1;" vector-effect="non-scaling-stroke"  transform=" translate(-387.96, -577.25)" d="M 348.7962 571.69324 L 397.31032 558.71336 L 401.58191999999997 557.70048 L 404.62773 556.9771099999999 L 408.17728 556.1378199999999 L 408.20564 556.1312899999999 C 408.72141564550077 556.013609198076 409.2627861941735 556.1037130872719 409.71264 556.3821099999999 L 427.72631 577.9797599999999 C 427.88932443444617 578.0800846198011 428.03288417409334 578.2090197424142 428.15008 578.3603599999999 C 428.1984920923064 578.3995280490731 428.2415740527402 578.4448590794664 428.27823 578.4952 C 428.68305960898357 579.0473859428109 428.78643682427077 579.7648698580814 428.55395884313947 580.4088809729209 C 428.3214808620082 581.0528920877605 427.7836573239414 581.5389125186208 427.11947000000004 581.7052 L 354.74647000000004 598.36043 C 353.98107816774143 598.5336655625957 353.18419594788884 598.2522284051541 352.69736000000006 597.6367399999999 L 351.96292000000005 596.6851899999999 L 347.95792000000006 577.3993399999999 L 347.6729700000001 574.8950799999999 C 347.4912542895513 574.6634435482495 347.3630278046076 574.3944783452578 347.29748000000006 574.10746 C 347.0552331154688 573.0286911555775 347.72193408030915 571.9547328422587 348.7962 571.69324 Z" stroke-linecap="round" />
</g>
<g transform="matrix(0.56 0 0 0.56 132.58 327.5)" id="7RS3XLKsriq5gp32P48qa"  >
<path style="stroke: none; stroke-width: 1; stroke-dasharray: none; stroke-linecap: butt; stroke-dashoffset: 0; stroke-linejoin: miter; stroke-miterlimit: 4; fill: rgb(0,0,0); fill-rule: nonzero; opacity: 0.17;" vector-effect="non-scaling-stroke"  transform=" translate(-390.32, -588.39)" d="M 351.96256 596.6835 L 352.70132 597.63815 C 353.18709905487236 598.2518634137538 353.9814825017294 598.5330751617145 354.74519000000004 598.36168 L 427.12071000000003 581.70588 C 427.78482861172495 581.5402985103832 428.3226890194823 581.0545301251059 428.5548339106762 580.4106516352992 C 428.7869788018702 579.7667731454927 428.68284995645035 579.0495410171552 428.27719 578.49826 C 428.24218808100755 578.4470236778095 428.19959007684525 578.4014145110004 428.15086 578.3629999999999 Z" stroke-linecap="round" />
</g>
<g transform="matrix(0.56 0 0 0.56 147.78 283.97)" id="j9anawBcgmOya5iKcfdFf"  >
<path style="stroke: none; stroke-width: 1; stroke-dasharray: none; stroke-linecap: butt; stroke-dashoffset: 0; stroke-linejoin: miter; stroke-miterlimit: 4; fill: rgb(230,230,230); fill-rule: nonzero; opacity: 1;" vector-effect="non-scaling-stroke"  transform=" translate(-417.46, -510.66)" d="M 407.81609 555.99683 L 406.50678999999997 463.7319600000001 C 406.45190573746066 463.1764584684422 406.6198520492404 462.62189609249816 406.97371 462.19018000000005 L 416.24761 442.88890000000004 L 417.2109 441.71848000000006 C 417.5690041262578 441.2903625153275 418.0806985543648 441.01972692229134 418.63612 440.96468000000004 L 420.65467 440.77655000000004 C 421.81257832308046 440.662744253733 422.8435114686389 441.5091439165932 422.95734 442.66705 L 422.95734 442.66705 L 424.7752 540.2907 L 424.77682999999996 540.29781 L 425.67747999999995 549.6975100000001 L 426.74458999999996 560.85931 L 426.74784999999997 560.87351 L 428.41362 578.23993 C 428.4768757969959 578.8409313278288 428.27326316992634 579.439424508111 427.85661999999996 579.87716 C 427.4505154270213 580.3205296502407 426.8732442411856 580.5676833263271 426.27212 580.55555 L 424.95869999999996 580.5291100000001 C 424.4549429363472 580.5160520428547 423.971961279986 580.32560110324 423.59486999999996 579.9913200000001 L 422.86024 579.3311800000001 L 422.51993 579.0210200000001 L 408.51261 557.3680200000001 C 408.11488537836647 557.0158746886117 407.86589595409583 556.5257066982228 407.81609 555.99683 Z" stroke-linecap="round" />
</g>
<g transform="matrix(0.56 0 0 0.56 150.51 283.97)" id="pIW6Vflz6VuR5bK9yI00E"  >
<path style="stroke: none; stroke-width: 1; stroke-dasharray: none; stroke-linecap: butt; stroke-dashoffset: 0; stroke-linejoin: miter; stroke-miterlimit: 4; fill: rgb(0,0,0); fill-rule: nonzero; opacity: 0.17;" vector-effect="non-scaling-stroke"  transform=" translate(-422.34, -510.66)" d="M 416.251 442.88882 L 422.51840999999996 579.0246999999999 L 422.86107999999996 579.3307 L 423.59326999999996 579.98894 C 423.9700798677905 580.3240741986586 424.45347204380016 580.5148155720469 424.95759999999996 580.52729 L 426.27286999999995 580.55372 C 426.8745875473001 580.563797040596 427.45211202012985 580.317097785798 427.8608425094372 579.8753909366472 C 428.2695729987445 579.4336840874964 428.4708108447339 578.8387905101428 428.41416999999996 578.23966 L 422.95483 442.67 C 422.8434176251285 441.5114489473535 421.8143314865262 440.6622972307796 420.6557 440.77287 L 418.63315 440.96664 C 418.07838517878577 441.01776971043927 417.5673751124907 441.28948913618785 417.21478 441.72083 Z" stroke-linecap="round" />
</g>
<g transform="matrix(0.56 0 0 0.56 145.51 276.21)" id="8dKIv3GNssrzADgUH5lon"  >
<path style="stroke: none; stroke-width: 1; stroke-dasharray: none; stroke-linecap: butt; stroke-dashoffset: 0; stroke-linejoin: miter; stroke-miterlimit: 4; fill: rgb(14,20,30); fill-rule: nonzero; opacity: 1;" vector-effect="non-scaling-stroke"  transform=" translate(-245.75, -389.35)" d="M 249.113 340.929 L 240.632 361.864 L 241.681 424.491 L 250.863 437.77 z" stroke-linecap="round" />
</g>
<g transform="matrix(0.56 0 0 0.56 113.76 322.81)" id="k59kDnVt76c85JEWOz5Rc"  >
<path style="stroke: none; stroke-width: 1; stroke-dasharray: none; stroke-linecap: butt; stroke-dashoffset: 0; stroke-linejoin: miter; stroke-miterlimit: 4; fill: rgb(47,46,65); fill-rule: nonzero; opacity: 1;" vector-effect="non-scaling-stroke"  transform=" translate(-356.72, -580.02)" d="M 354.38731 571.14074 C 353.42081495132055 571.4163377728305 352.860424683789 572.4229320769431 353.13531 573.38963 L 356.87166 588.96082 L 360.37258 587.96397 L 356.63622000000004 572.39277 C 356.36063559521347 571.4262527328676 355.35402328735034 570.8658439980522 354.38731 571.14074 Z" stroke-linecap="round" />
</g>
<g transform="matrix(0.56 0 0 0.56 116.86 318.12)" id="rbQ3DNhAS3PUgdm5O0UiU"  >
<path style="stroke: none; stroke-width: 1; stroke-dasharray: none; stroke-linecap: butt; stroke-dashoffset: 0; stroke-linejoin: miter; stroke-miterlimit: 4; fill: rgb(47,46,65); fill-rule: nonzero; opacity: 1;" vector-effect="non-scaling-stroke"  transform=" translate(-362.25, -571.64)" d="M 361.38914 569.147 C 360.4226462947805 569.4225932239153 359.8622551787099 570.4291845762386 360.13714 571.39588 L 360.93462 574.19662 L 364.43554 573.1997600000001 L 363.63805 570.39903 C 363.3624749524483 569.4325053153098 362.3558546630676 568.872092136964 361.38914 569.147 Z" stroke-linecap="round" />
</g>
<g transform="matrix(0.56 0 0 0.56 120.78 317)" id="-1bKgn_A8m4Pv86XBnDl7"  >
<path style="stroke: none; stroke-width: 1; stroke-dasharray: none; stroke-linecap: butt; stroke-dashoffset: 0; stroke-linejoin: miter; stroke-miterlimit: 4; fill: rgb(47,46,65); fill-rule: nonzero; opacity: 1;" vector-effect="non-scaling-stroke"  transform=" translate(-369.25, -569.64)" d="M 368.391 567.15331 C 367.42450124268015 567.4289030945224 366.86410875357205 568.4355013891152 367.139 569.4022 L 367.93648 572.20293 L 371.4374 571.2060700000001 L 370.63991000000004 568.40534 C 370.3643255952135 567.4388227328676 369.35771328735035 566.8784139980522 368.391 567.15331 Z" stroke-linecap="round" />
</g>
<g transform="matrix(0.56 0 0 0.56 124.7 315.88)" id="TGo2jiTjZ35mg4ty77-VQ"  >
<path style="stroke: none; stroke-width: 1; stroke-dasharray: none; stroke-linecap: butt; stroke-dashoffset: 0; stroke-linejoin: miter; stroke-miterlimit: 4; fill: rgb(47,46,65); fill-rule: nonzero; opacity: 1;" vector-effect="non-scaling-stroke"  transform=" translate(-376.26, -567.65)" d="M 375.3928 565.1596 C 374.4263025861257 565.4351885455607 373.86590924844853 566.4417838884004 374.1408 567.4084799999999 L 374.93828 570.20922 L 378.4392 569.21236 L 377.64171000000005 566.41163 C 377.36613027377933 565.445109024119 376.3595139752103 564.8846980675679 375.3928 565.1596 Z" stroke-linecap="round" />
</g>
<g transform="matrix(0.56 0 0 0.56 128.63 314.77)" id="6ymwoLqBuIpJq-yWA9bo9"  >
<path style="stroke: none; stroke-width: 1; stroke-dasharray: none; stroke-linecap: butt; stroke-dashoffset: 0; stroke-linejoin: miter; stroke-miterlimit: 4; fill: rgb(47,46,65); fill-rule: nonzero; opacity: 1;" vector-effect="non-scaling-stroke"  transform=" translate(-383.26, -565.66)" d="M 382.39463 563.16588 C 381.42813124268014 563.4414730945224 380.86773875357204 564.4480713891152 381.14263 565.41477 L 381.94011 568.2155 L 385.44103 567.21864 L 384.64354000000003 564.41791 C 384.36795559521346 563.4513927328676 383.36134328735034 562.8909839980522 382.39463 563.16588 Z" stroke-linecap="round" />
</g>
<g transform="matrix(0.56 0 0 0.56 132.55 313.65)" id="SW7_WTn_ilOHuvXfEXOt3"  >
<path style="stroke: none; stroke-width: 1; stroke-dasharray: none; stroke-linecap: butt; stroke-dashoffset: 0; stroke-linejoin: miter; stroke-miterlimit: 4; fill: rgb(47,46,65); fill-rule: nonzero; opacity: 1;" vector-effect="non-scaling-stroke"  transform=" translate(-390.26, -563.66)" d="M 389.39646 561.17217 C 388.4299612426801 561.4477630945224 387.869568753572 562.4543613891152 388.14446 563.42106 L 388.94194 566.22179 L 392.44286 565.2249300000001 L 391.64537 562.4242 C 391.3697902737793 561.4576790241191 390.36317397521026 560.897268067568 389.39646 561.17217 Z" stroke-linecap="round" />
</g>
<g transform="matrix(0.56 0 0 0.56 136.47 312.54)" id="lBF33iMOy1bxGDrAoc4nE"  >
<path style="stroke: none; stroke-width: 1; stroke-dasharray: none; stroke-linecap: butt; stroke-dashoffset: 0; stroke-linejoin: miter; stroke-miterlimit: 4; fill: rgb(47,46,65); fill-rule: nonzero; opacity: 1;" vector-effect="non-scaling-stroke"  transform=" translate(-397.26, -561.67)" d="M 396.39828 559.17846 C 395.4317825861257 559.4540485455607 394.8713892484485 560.4606438884005 395.14628 561.42734 L 395.94376 564.22807 L 399.44468 563.23122 L 398.64719 560.43048 C 398.37160590394376 559.4639630622066 397.364990978488 558.9035573461179 396.39828 559.17846 Z" stroke-linecap="round" />
</g>
<g transform="matrix(0.56 0 0 0.56 140.39 311.42)" id="FR0pHyskDiYTTORja8pNi"  >
<path style="stroke: none; stroke-width: 1; stroke-dasharray: none; stroke-linecap: butt; stroke-dashoffset: 0; stroke-linejoin: miter; stroke-miterlimit: 4; fill: rgb(47,46,65); fill-rule: nonzero; opacity: 1;" vector-effect="non-scaling-stroke"  transform=" translate(-404.26, -559.67)" d="M 403.40011 557.18474 C 402.4336112426801 557.4603330945224 401.873218753572 558.4669313891152 402.14811 559.43363 L 402.94559 562.23436 L 406.44651 561.2375000000001 L 405.64902 558.43677 C 405.37343559521344 557.4702527328676 404.3668232873503 556.9098439980522 403.40011 557.18474 Z" stroke-linecap="round" />
</g>
<g transform="matrix(0.56 0 0 0.56 117.68 321.69)" id="91fn9AKWNSfmq1eXc83lS"  >
<path style="stroke: none; stroke-width: 1; stroke-dasharray: none; stroke-linecap: butt; stroke-dashoffset: 0; stroke-linejoin: miter; stroke-miterlimit: 4; fill: rgb(47,46,65); fill-rule: nonzero; opacity: 1;" vector-effect="non-scaling-stroke"  transform=" translate(-363.72, -578.02)" d="M 362.85857 575.53226 C 361.8920749513205 575.8078577728304 361.331684683789 576.814452076943 361.60657 577.7811499999999 L 362.40405999999996 580.58188 L 365.90496999999993 579.58502 L 365.1074899999999 576.7842899999999 C 364.83190572471636 575.8177676806984 363.825286474465 575.2573575727833 362.85857 575.53226 Z" stroke-linecap="round" />
</g>
<g transform="matrix(0.56 0 0 0.56 121.6 320.58)" id="Q6MWhFYjYBBRPOjWWIrCC"  >
<path style="stroke: none; stroke-width: 1; stroke-dasharray: none; stroke-linecap: butt; stroke-dashoffset: 0; stroke-linejoin: miter; stroke-miterlimit: 4; fill: rgb(47,46,65); fill-rule: nonzero; opacity: 1;" vector-effect="non-scaling-stroke"  transform=" translate(-370.72, -576.03)" d="M 369.8604 573.53854 C 368.8939086599001 573.8141424510353 368.33352061388615 574.8207327647735 368.6084 575.78743 L 369.40589 578.58816 L 372.9068 577.59131 L 372.10931999999997 574.79057 C 371.83373104619704 573.8240513894326 370.8271157866153 573.2636435032231 369.8604 573.53854 Z" stroke-linecap="round" />
</g>
<g transform="matrix(0.56 0 0 0.56 125.52 319.46)" id="6WHvNchFBLrF1KxMfQSG7"  >
<path style="stroke: none; stroke-width: 1; stroke-dasharray: none; stroke-linecap: butt; stroke-dashoffset: 0; stroke-linejoin: miter; stroke-miterlimit: 4; fill: rgb(47,46,65); fill-rule: nonzero; opacity: 1;" vector-effect="non-scaling-stroke"  transform=" translate(-377.72, -574.03)" d="M 376.86223 571.54483 C 375.89573495132055 571.8204277728305 375.335344683789 572.8270220769431 375.61023 573.79372 L 376.40772 576.59445 L 379.90862999999996 575.5975900000001 L 379.11114999999995 572.79686 C 378.8355657247164 571.8303376806984 377.828946474465 571.2699275727834 376.86223 571.54483 Z" stroke-linecap="round" />
</g>
<g transform="matrix(0.56 0 0 0.56 129.45 318.34)" id="yCGedjnhBpzG1jPi1pXd4"  >
<path style="stroke: none; stroke-width: 1; stroke-dasharray: none; stroke-linecap: butt; stroke-dashoffset: 0; stroke-linejoin: miter; stroke-miterlimit: 4; fill: rgb(47,46,65); fill-rule: nonzero; opacity: 1;" vector-effect="non-scaling-stroke"  transform=" translate(-384.73, -572.04)" d="M 383.86406 569.55112 C 382.8975420662763 569.8266870052032 382.33711950765127 570.8332865959901 382.612 571.8 L 383.40949 574.60073 L 386.9104 573.60388 L 386.11292 570.80314 C 385.8373305785269 569.8366520312381 384.8307543548939 569.2762554020513 383.86406 569.55112 Z" stroke-linecap="round" />
</g>
<g transform="matrix(0.56 0 0 0.56 133.37 317.23)" id="jGg_Ck3R9rJBqdZjRZgZv"  >
<path style="stroke: none; stroke-width: 1; stroke-dasharray: none; stroke-linecap: butt; stroke-dashoffset: 0; stroke-linejoin: miter; stroke-miterlimit: 4; fill: rgb(47,46,65); fill-rule: nonzero; opacity: 1;" vector-effect="non-scaling-stroke"  transform=" translate(-391.73, -570.05)" d="M 390.86589 567.5574 C 389.8993949513205 567.8329977728305 389.33900468378897 568.8395920769431 389.61388999999997 569.80629 L 390.41137999999995 572.60702 L 393.9122899999999 571.6101600000001 L 393.1148099999999 568.80943 C 392.83922572471636 567.8429076806984 391.83260647446497 567.2824975727834 390.86589 567.5574 Z" stroke-linecap="round" />
</g>
<g transform="matrix(0.56 0 0 0.56 137.29 316.11)" id="jGlgVuqBWDkpQhhO8ec0r"  >
<path style="stroke: none; stroke-width: 1; stroke-dasharray: none; stroke-linecap: butt; stroke-dashoffset: 0; stroke-linejoin: miter; stroke-miterlimit: 4; fill: rgb(47,46,65); fill-rule: nonzero; opacity: 1;" vector-effect="non-scaling-stroke"  transform=" translate(-398.73, -568.05)" d="M 397.86772 565.56369 C 396.90122629478054 565.8392832239152 396.34083517870994 566.8458745762385 396.61572 567.8125699999999 L 397.41321 570.6133 L 400.91411999999997 569.61645 L 400.11663999999996 566.81571 C 399.84105135490717 565.8491917187827 398.83443347775477 565.2887868513119 397.86772 565.56369 Z" stroke-linecap="round" />
</g>
<g transform="matrix(0.56 0 0 0.56 141.21 314.99)" id="ZGeLLjMSTkzL5F8npvrBZ"  >
<path style="stroke: none; stroke-width: 1; stroke-dasharray: none; stroke-linecap: butt; stroke-dashoffset: 0; stroke-linejoin: miter; stroke-miterlimit: 4; fill: rgb(47,46,65); fill-rule: nonzero; opacity: 1;" vector-effect="non-scaling-stroke"  transform=" translate(-405.73, -566.06)" d="M 404.86955 563.57 C 403.90305495132054 563.8455977728305 403.342664683789 564.8521920769431 403.61755 565.81889 L 404.41504 568.61962 L 407.91594999999995 567.6227600000001 L 407.11846999999995 564.82203 C 406.8428857247164 563.8555076806985 405.836266474465 563.2950975727834 404.86955 563.57 Z" stroke-linecap="round" />
</g>
<g transform="matrix(0.56 0 0 0.56 118.51 325.27)" id="D8LCAtaJI-e489Hcw9iJI"  >
<path style="stroke: none; stroke-width: 1; stroke-dasharray: none; stroke-linecap: butt; stroke-dashoffset: 0; stroke-linejoin: miter; stroke-miterlimit: 4; fill: rgb(47,46,65); fill-rule: nonzero; opacity: 1;" vector-effect="non-scaling-stroke"  transform=" translate(-365.19, -584.41)" d="M 364.328 581.91749 C 363.3615012426801 582.1930830945224 362.801108753572 583.1996813891152 363.07599999999996 584.16638 L 363.87348 586.96711 L 367.3744 585.9702500000001 L 366.57691 583.16952 C 366.3013302737793 582.2029990241191 365.29471397521024 581.642588067568 364.328 581.91749 Z" stroke-linecap="round" />
</g>
<g transform="matrix(0.56 0 0 0.56 122.43 324.15)" id="mgRGOKsw3UmGwhpO31rQY"  >
<path style="stroke: none; stroke-width: 1; stroke-dasharray: none; stroke-linecap: butt; stroke-dashoffset: 0; stroke-linejoin: miter; stroke-miterlimit: 4; fill: rgb(47,46,65); fill-rule: nonzero; opacity: 1;" vector-effect="non-scaling-stroke"  transform=" translate(-372.19, -582.41)" d="M 371.32984 579.92378 C 370.36334258612567 580.1993685455607 369.8029492484485 581.2059638884004 370.07784 582.17266 L 370.87532 584.97339 L 374.37624 583.97654 L 373.57875 581.1758 C 373.3031705825647 580.2092793534023 372.2965516663261 579.6488714155528 371.32984 579.92378 Z" stroke-linecap="round" />
</g>
<g transform="matrix(0.56 0 0 0.56 126.35 323.04)" id="0u16RsNSm7_Vtl4F4BmDJ"  >
<path style="stroke: none; stroke-width: 1; stroke-dasharray: none; stroke-linecap: butt; stroke-dashoffset: 0; stroke-linejoin: miter; stroke-miterlimit: 4; fill: rgb(47,46,65); fill-rule: nonzero; opacity: 1;" vector-effect="non-scaling-stroke"  transform=" translate(-379.19, -580.42)" d="M 378.33167 577.93006 C 377.3651712426801 578.2056530945224 376.804778753572 579.2122513891152 377.07966999999996 580.17895 L 377.87715 582.97968 L 381.37807 581.9828200000001 L 380.58058 579.18209 C 380.3050002737793 578.2155690241191 379.29838397521024 577.655158067568 378.33167 577.93006 Z" stroke-linecap="round" />
</g>
<g transform="matrix(0.56 0 0 0.56 130.27 321.92)" id="WXjqZFVnPmP0NmyBH6adF"  >
<path style="stroke: none; stroke-width: 1; stroke-dasharray: none; stroke-linecap: butt; stroke-dashoffset: 0; stroke-linejoin: miter; stroke-miterlimit: 4; fill: rgb(47,46,65); fill-rule: nonzero; opacity: 1;" vector-effect="non-scaling-stroke"  transform=" translate(-386.2, -578.43)" d="M 385.3335 575.93635 C 384.3670025861257 576.2119385455607 383.8066092484485 577.2185338884004 384.0815 578.1852299999999 L 384.87898 580.98596 L 388.3799 579.98911 L 387.58241000000004 577.1883799999999 C 387.3068349524483 576.2218553153097 386.3002146630676 575.661442136964 385.3335 575.93635 Z" stroke-linecap="round" />
</g>
<g transform="matrix(0.56 0 0 0.56 134.19 320.8)" id="xxcPB6OxZW_85-6pS5JmH"  >
<path style="stroke: none; stroke-width: 1; stroke-dasharray: none; stroke-linecap: butt; stroke-dashoffset: 0; stroke-linejoin: miter; stroke-miterlimit: 4; fill: rgb(47,46,65); fill-rule: nonzero; opacity: 1;" vector-effect="non-scaling-stroke"  transform=" translate(-393.2, -576.43)" d="M 392.33533 573.94263 C 391.36883124268013 574.2182230945224 390.80843875357203 575.2248213891152 391.08333 576.19152 L 391.88081 578.99225 L 395.38173 577.99539 L 394.58424 575.19466 C 394.3086602737793 574.2281390241191 393.30204397521027 573.667728067568 392.33533 573.94263 Z" stroke-linecap="round" />
</g>
<g transform="matrix(0.56 0 0 0.56 138.11 319.69)" id="0UVJnQNNP6JaxGZqpzO8w"  >
<path style="stroke: none; stroke-width: 1; stroke-dasharray: none; stroke-linecap: butt; stroke-dashoffset: 0; stroke-linejoin: miter; stroke-miterlimit: 4; fill: rgb(47,46,65); fill-rule: nonzero; opacity: 1;" vector-effect="non-scaling-stroke"  transform=" translate(-400.2, -574.44)" d="M 399.33715 571.94892 C 398.3706525861257 572.2245085455608 397.8102592484485 573.2311038884005 398.08515 574.1978 L 398.88263 576.99854 L 402.38355 576.0016800000001 L 401.586 573.201 C 401.3104413461129 572.2344891462017 400.3038598359158 571.674060225959 399.33715 571.94892 Z" stroke-linecap="round" />
</g>
<g transform="matrix(0.56 0 0 0.56 142.03 318.57)" id="tTjMrj-V-lC3QjyoNhkS7"  >
<path style="stroke: none; stroke-width: 1; stroke-dasharray: none; stroke-linecap: butt; stroke-dashoffset: 0; stroke-linejoin: miter; stroke-miterlimit: 4; fill: rgb(47,46,65); fill-rule: nonzero; opacity: 1;" vector-effect="non-scaling-stroke"  transform=" translate(-407.2, -572.45)" d="M 406.339 569.9552 C 405.37250495132054 570.2307977728304 404.812114683789 571.237392076943 405.087 572.20409 L 405.88448 575.00482 L 409.3854 574.00796 L 408.58791 571.20723 C 408.31232559521345 570.2407127328676 407.30571328735033 569.6803039980522 406.339 569.9552 Z" stroke-linecap="round" />
</g>
<g transform="matrix(0.56 0 0 0.56 116.04 311.98)" id="rXdtf0AzQuLHu5qAgAj7I"  >
<path style="stroke: none; stroke-width: 1; stroke-dasharray: none; stroke-linecap: butt; stroke-dashoffset: 0; stroke-linejoin: miter; stroke-miterlimit: 4; fill: rgb(255,182,182); fill-rule: nonzero; opacity: 1;" vector-effect="non-scaling-stroke"  transform=" translate(-360.79, -560.67)" d="M 385.76768 557.87148 C 383.8666709215348 555.0189208736437 380.79979346347443 553.1549024203248 377.39228374870805 552.7809951730845 C 373.9847740339417 552.4070879258443 370.5866611032353 553.5617006952341 368.11231 555.93415 L 343.87023999999997 545.30615 L 333.81861 558.46276 L 368.2639 572.9907 C 372.6206268273304 576.970677845028 379.2656033380967 577.0630616416227 383.7312905918875 573.2057400778656 C 388.1969778456783 569.3484185141086 389.07183515941153 562.7606364689042 385.76768 557.8714799999999 Z" stroke-linecap="round" />
</g>
<g transform="matrix(0.56 0 0 0.56 92.53 289.07)" id="OFDQvhJx_K5tGh1KYSSR5"  >
<path style="stroke: none; stroke-width: 1; stroke-dasharray: none; stroke-linecap: butt; stroke-dashoffset: 0; stroke-linejoin: miter; stroke-miterlimit: 4; fill: rgb(47,46,65); fill-rule: nonzero; opacity: 1;" vector-effect="non-scaling-stroke"  transform=" translate(-318.81, -519.76)" d="M 323.31836 565.27051 C 311.31957 563.58715 296.07256 554.27284 278.71326 537.94143 C 276.7528772603783 536.1319909741559 275.64072039292097 533.5836648045312 275.64712 530.9158699999999 C 275.48996 521.71016 285.98416999999995 510.76807999999994 287.00933999999995 509.7218699999999 L 299.80469999999997 485.65811999999994 C 299.96889 485.26089999999994 304.48542999999995 474.70626999999996 312.50489 471.85123999999996 C 315.91755877142185 470.6654389078698 319.6780881417421 471.0309660656116 322.79850999999996 472.85178999999994 C 336.30229999999995 480.03200999999996 319.57158999999996 518.4887899999999 317.30929 523.5225099999999 L 334.91839 535.0443999999999 L 345.82039 544.3577599999999 L 361.97700999999995 548.3753499999999 L 354.63239999999996 568.3536799999999 L 329.65097999999995 565.4176799999999 C 327.54212805501606 565.6303072663426 325.41505763111576 565.5808741795182 323.31836 565.27051 Z" stroke-linecap="round" />
</g>
<g transform="matrix(0.56 0 0 0.56 91.56 210.62)" id="ZfJ4z-NaxKd_umDquUGQi"  >
<path style="stroke: none; stroke-width: 1; stroke-dasharray: none; stroke-linecap: butt; stroke-dashoffset: 0; stroke-linejoin: miter; stroke-miterlimit: 4; fill: rgb(255,182,182); fill-rule: nonzero; opacity: 1;" vector-effect="non-scaling-stroke"  transform=" translate(-30.78, -30.11)" d="M 0 30.11079 C 0 13.481060000000003 13.78151 0 30.78186 0 C 47.782210000000006 0 61.56372 13.48106 61.56372 30.11079 C 61.56372 46.740520000000004 47.782210000000006 60.22158 30.78186 60.22158 C 13.78151 60.22158 0 46.740520000000004 0 30.11079 z" stroke-linecap="round" />
</g>
<g transform="matrix(0.56 0 0 0.56 71.18 205.27)" id="OEFmckF36fDXRsUnEP1M-"  >
<path style="stroke: none; stroke-width: 1; stroke-dasharray: none; stroke-linecap: butt; stroke-dashoffset: 0; stroke-linejoin: miter; stroke-miterlimit: 4; fill: rgb(47,46,65); fill-rule: nonzero; opacity: 1;" vector-effect="non-scaling-stroke"  transform=" translate(-280.68, -370.13)" d="M 238.66878 356.82878 C 244.46067 351.5114 247.81878 343.93822 252.68765 337.6954 C 257.55656999999997 331.45254 265.34788 326.27656 272.62894 328.73748 C 277.64803 330.43397 281.08257 335.45376 282.4901 340.76015 C 283.89718 346.06643 283.60548 351.69735000000003 283.30287 357.21169000000003 C 284.52553 345.95146000000005 293.24039 335.93755000000004 303.87606999999997 333.57211 C 314.51095 331.20660000000004 326.24494 336.67245 331.57525999999996 346.47505 C 338.01081080591416 341.800372967439 346.9259018598022 342.679173413125 352.32484999999997 348.52043000000003 C 357.4466 354.33433 357.54684999999995 364.24414 352.54497 370.27787 C 347.54309 376.3116 338.11530999999997 377.65303 331.84596999999997 373.22312 L 329.2147 375.11933 C 329.98969999999997 379.94515 326.74224 385.14681 322.18282999999997 386.38217 C 318.48566999999997 387.38410999999996 313.53549 386.55051 311.77243999999996 390.09317 C 310.54037999999997 392.56854 311.93335999999994 395.53517 313.52887999999996 397.74196 C 315.12395 399.94864 317.05494999999996 402.2614 316.94564999999994 405.03746 C 316.7812799999999 409.22616 312.14564999999993 411.61881 308.14340999999996 412.02714000000003 C 298.49280999999996 413.01184 288.5868 407.41062000000005 284.16394999999994 398.46814 Q 284.0361199999999 398.20948 283.8810199999999 397.94691 C 278.68036390420303 389.35689027623664 277.2428945366064 379.0055651868859 279.90613999999994 369.3235 C 280.44048999999995 367.44315 280.30431999999996 365.98060000000004 279.0371399999999 365.36830000000003 C 273.5599799999999 362.72175000000004 257.0624499999999 364.92238000000003 251.7731399999999 368.06399000000005 C 246.4833899999999 371.2055500000001 242.0145699999999 375.66644 236.8745199999999 379.06959000000006 C 231.73406999999992 382.47274000000004 225.4226299999999 384.81665000000004 219.6280699999999 383.02794000000006 C 214.9872099999999 381.5953600000001 211.3637399999999 377.66737000000006 209.1466299999999 373.18741000000006 C 206.9299199999999 368.70754000000005 205.9477599999999 363.67751000000004 205.12490999999991 358.6970400000001 C 214.88991 366.01465 229.55224 365.198 238.66878 356.82878 Z" stroke-linecap="round" />
</g>
<g transform="matrix(0.56 0 0 0.56 363.92 76.48)" id="D_PBVm2Ge230mmPfo_YnT"  >
<path style="stroke: none; stroke-width: 1; stroke-dasharray: none; stroke-linecap: butt; stroke-dashoffset: 0; stroke-linejoin: miter; stroke-miterlimit: 4; fill: rgb(202,202,202); fill-rule: nonzero; opacity: 1;" vector-effect="non-scaling-stroke"  transform=" translate(-803.42, -140.14)" d="M 1030.56781 141.945 L 576.2748 141.945 C 575.2920444254057 141.92406141736572 574.5062911924991 141.12138860792535 574.5062911924991 140.13841 C 574.5062911924991 139.15543139207463 575.2920444254057 138.35275858263427 576.2748 138.33182 L 1030.5678 138.33182 C 1031.5505555745942 138.35275858263427 1032.336308807501 139.15543139207463 1032.336308807501 140.13841 C 1032.336308807501 141.12138860792535 1031.5505555745942 141.92406141736572 1030.5678 141.945 Z" stroke-linecap="round" />
</g>
<g transform="matrix(0.56 0 0 0.56 254.03 64.24)" id="k82HrrDvGjsJLFNwY2MMJ"  >
<path style="stroke: none; stroke-width: 1; stroke-dasharray: none; stroke-linecap: butt; stroke-dashoffset: 0; stroke-linejoin: miter; stroke-miterlimit: 4; fill: rgb(63,61,86); fill-rule: nonzero; opacity: 1;" vector-effect="non-scaling-stroke"  transform=" translate(-10.59, -10.82)" d="M 0 10.82345 C 0 4.845819999999999 4.74019 0 10.58751 0 C 16.434829999999998 0 21.17502 4.84582 21.17502 10.82345 C 21.17502 16.80108 16.434829999999998 21.6469 10.58751 21.6469 C 4.74019 21.6469 0 16.80108 0 10.82345 z" stroke-linecap="round" />
</g>
<g transform="matrix(0.56 0 0 0.56 274.51 64.24)" id="sIw14PRqoid7gF_Vcn2tA"  >
<path style="stroke: none; stroke-width: 1; stroke-dasharray: none; stroke-linecap: butt; stroke-dashoffset: 0; stroke-linejoin: miter; stroke-miterlimit: 4; fill: rgb(63,61,86); fill-rule: nonzero; opacity: 1;" vector-effect="non-scaling-stroke"  transform=" translate(-10.59, -10.82)" d="M 0 10.82345 C 0 4.845819999999999 4.74019 0 10.58751 0 C 16.434829999999998 0 21.17502 4.84582 21.17502 10.82345 C 21.17502 16.80108 16.434829999999998 21.6469 10.58751 21.6469 C 4.74019 21.6469 0 16.80108 0 10.82345 z" stroke-linecap="round" />
</g>
<g transform="matrix(0.56 0 0 0.56 295 64.24)" id="zKTu13dScZiZu6ZcFz4ff"  >
<path style="stroke: none; stroke-width: 1; stroke-dasharray: none; stroke-linecap: butt; stroke-dashoffset: 0; stroke-linejoin: miter; stroke-miterlimit: 4; fill: rgb(63,61,86); fill-rule: nonzero; opacity: 1;" vector-effect="non-scaling-stroke"  transform=" translate(-10.59, -10.82)" d="M 0 10.82345 C 0 4.845819999999999 4.74019 0 10.58751 0 C 16.434829999999998 0 21.17502 4.84582 21.17502 10.82345 C 21.17502 16.80108 16.434829999999998 21.6469 10.58751 21.6469 C 4.74019 21.6469 0 16.80108 0 10.82345 z" stroke-linecap="round" />
</g>
<g transform="matrix(0.56 0 0 0.56 471.51 60.78)" id="MgvWt1ZOGMw8Vi1gnZfQ-"  >
<path style="stroke: none; stroke-width: 1; stroke-dasharray: none; stroke-linecap: butt; stroke-dashoffset: 0; stroke-linejoin: miter; stroke-miterlimit: 4; fill: rgb(63,61,86); fill-rule: nonzero; opacity: 1;" vector-effect="non-scaling-stroke"  transform=" translate(-995.56, -112.11)" d="M 1008.54655 110.14348 L 982.56555 110.14348 C 981.4943438474758 110.1648111521707 980.6371038624595 111.03929148267882 980.6371038624595 112.11071 C 980.6371038624595 113.18212851732117 981.4943438474758 114.0566088478293 982.56555 114.07794 L 1008.54655 114.07794 C 1009.6177561525243 114.0566088478293 1010.4749961375405 113.18212851732117 1010.4749961375405 112.11071 C 1010.4749961375405 111.03929148267882 1009.6177561525243 110.1648111521707 1008.54655 110.14348 Z" stroke-linecap="round" />
</g>
<g transform="matrix(0.56 0 0 0.56 471.51 64.92)" id="gGZDlN8pbVyOaCP64dVfS"  >
<path style="stroke: none; stroke-width: 1; stroke-dasharray: none; stroke-linecap: butt; stroke-dashoffset: 0; stroke-linejoin: miter; stroke-miterlimit: 4; fill: rgb(63,61,86); fill-rule: nonzero; opacity: 1;" vector-effect="non-scaling-stroke"  transform=" translate(-995.56, -119.5)" d="M 1008.54655 117.52785 L 982.56555 117.52785 C 981.4943438474758 117.5491811521707 980.6371038624595 118.42366148267882 980.6371038624595 119.49508 C 980.6371038624595 120.56649851732118 981.4943438474758 121.4409788478293 982.56555 121.46231 L 1008.54655 121.46231 C 1009.6177561525243 121.4409788478293 1010.4749961375405 120.56649851732118 1010.4749961375405 119.49508 C 1010.4749961375405 118.42366148267882 1009.6177561525243 117.5491811521707 1008.54655 117.52785 Z" stroke-linecap="round" />
</g>
<g transform="matrix(0.56 0 0 0.56 471.51 69.05)" id="YxPSH1YiQD-tjydNuy1fu"  >
<path style="stroke: none; stroke-width: 1; stroke-dasharray: none; stroke-linecap: butt; stroke-dashoffset: 0; stroke-linejoin: miter; stroke-miterlimit: 4; fill: rgb(63,61,86); fill-rule: nonzero; opacity: 1;" vector-effect="non-scaling-stroke"  transform=" translate(-995.56, -126.87)" d="M 1008.54655 124.90253 L 982.56555 124.90253 C 981.4942486366335 124.92372587015295 980.6368618637141 125.79824397529593 980.6368618637141 126.869755 C 980.6368618637141 127.94126602470408 981.4942486366335 128.81578412984706 982.56555 128.83698 L 1008.54655 128.83698 C 1009.6178513633663 128.81578412984686 1010.4752381362856 127.94126602470395 1010.4752381362856 126.86975500000001 C 1010.4752381362856 125.79824397529607 1009.6178513633663 124.92372587015315 1008.54655 124.90253000000001 Z" stroke-linecap="round" />
</g>
<g transform="matrix(0.56 0 0 0.56 45.11 310.02)" id="M7rGvcTxFw4sXTzHOmBjB"  >
<path style="stroke: none; stroke-width: 1; stroke-dasharray: none; stroke-linecap: butt; stroke-dashoffset: 0; stroke-linejoin: miter; stroke-miterlimit: 4; fill: rgb(47,46,65); fill-rule: nonzero; opacity: 1;" vector-effect="non-scaling-stroke"  transform=" translate(-234.12, -557.17)" d="M 234.11529 557.167 L 234.13038999999998 557.14662 L 234.11529 557.18755 Z" stroke-linecap="round" />
</g>
<g transform="matrix(0.56 0 0 0.56 394.59 109.59)" id="W5GMNTH0xsTad6cPXSSTj"  >
<path style="stroke: none; stroke-width: 1; stroke-dasharray: none; stroke-linecap: butt; stroke-dashoffset: 0; stroke-linejoin: miter; stroke-miterlimit: 4; fill: rgb(140,142,145); fill-rule: nonzero; opacity: 1;" vector-effect="non-scaling-stroke"  transform=" translate(-13.09, -13.09)" d="M 0 13.08937 C 0 5.860310000000001 5.86031 0 13.08937 0 C 20.31843 0 26.17874 5.86031 26.17874 13.08937 C 26.17874 20.31843 20.31843 26.17874 13.08937 26.17874 C 5.860310000000001 26.17874 0 20.31843 0 13.08937 z" stroke-linecap="round" />
</g>
<g transform="matrix(0.56 0 0 0.56 422.9 123.63)" id="ekT7bItzvFQ9X5OLQakDp"  >
<path style="stroke: none; stroke-width: 1; stroke-dasharray: none; stroke-linecap: butt; stroke-dashoffset: 0; stroke-linejoin: miter; stroke-miterlimit: 4; fill: rgb(140,142,145); fill-rule: nonzero; opacity: 1;" vector-effect="non-scaling-stroke"  transform=" translate(-908.75, -224.34)" d="M 968.5105 228.2404 L 848.9964 228.2404 C 847.602382742465 228.24263286043293 846.313301297078 227.50021556923696 845.6156473020083 226.29333197786033 C 844.9179933069383 225.08644838648374 844.9179933069383 223.59886161351625 845.6156473020083 222.39197802213965 C 846.313301297078 221.18509443076303 847.602382742465 220.44267713956705 848.9964 220.44491 L 968.5105 220.44491 C 969.904517257535 220.44267713956705 971.1935987029219 221.18509443076303 971.8912526979917 222.39197802213965 C 972.5889066930616 223.59886161351625 972.5889066930616 225.08644838648374 971.8912526979917 226.29333197786033 C 971.1935987029219 227.50021556923696 969.904517257535 228.24263286043293 968.5105 228.2404 Z" stroke-linecap="round" />
</g>
<g transform="matrix(0.56 0 0 0.56 397.75 132.25)" id="ASoMbm_DAtF0oPHl6sAUm"  >
<path style="stroke: none; stroke-width: 1; stroke-dasharray: none; stroke-linecap: butt; stroke-dashoffset: 0; stroke-linejoin: miter; stroke-miterlimit: 4; fill: rgb(140,142,145); fill-rule: nonzero; opacity: 1;" vector-effect="non-scaling-stroke"  transform=" translate(-863.84, -239.74)" d="M 878.68007 243.64236 L 848.9964 243.64236 C 846.8436271822445 243.64236 845.0984599999999 241.89719281775544 845.0984599999999 239.74442 C 845.0984599999999 237.59164718224454 846.8436271822445 235.84647999999999 848.9964 235.84647999999999 L 878.68007 235.84647999999999 C 880.8328428177555 235.84647999999999 882.57801 237.59164718224454 882.57801 239.74442 C 882.5780100000001 241.89719281775544 880.8328428177555 243.64236 878.68007 243.64236 Z" stroke-linecap="round" />
</g>
<g transform="matrix(0.56 0 0 0.56 394.59 223.99)" id="nu2_iCirht8XlcCVmmbn-"  >
<path style="stroke: none; stroke-width: 1; stroke-dasharray: none; stroke-linecap: butt; stroke-dashoffset: 0; stroke-linejoin: miter; stroke-miterlimit: 4; fill: rgb(140,142,145); fill-rule: nonzero; opacity: 1;" vector-effect="non-scaling-stroke"  transform=" translate(-13.09, -13.09)" d="M 0 13.08937 C 0 5.860310000000001 5.86031 0 13.08937 0 C 20.31843 0 26.17874 5.86031 26.17874 13.08937 C 26.17874 20.31843 20.31843 26.17874 13.08937 26.17874 C 5.860310000000001 26.17874 0 20.31843 0 13.08937 z" stroke-linecap="round" />
</g>
<g transform="matrix(0.56 0 0 0.56 422.9 238.04)" id="6kbV6uvEu8d_uATmONivs"  >
<path style="stroke: none; stroke-width: 1; stroke-dasharray: none; stroke-linecap: butt; stroke-dashoffset: 0; stroke-linejoin: miter; stroke-miterlimit: 4; fill: rgb(140,142,145); fill-rule: nonzero; opacity: 1;" vector-effect="non-scaling-stroke"  transform=" translate(-908.75, -428.65)" d="M 968.5105 432.545 L 848.9964 432.545 C 846.843732116347 432.545 845.09865 430.799917883653 845.09865 428.64725 C 845.09865 426.49458211634703 846.843732116347 424.7495 848.9964 424.7495 L 968.5105 424.7495 C 970.6631678836529 424.7495 972.40825 426.49458211634703 972.40825 428.64725 C 972.40825 430.799917883653 970.6631678836529 432.545 968.5105 432.545 Z" stroke-linecap="round" />
</g>
<g transform="matrix(0.56 0 0 0.56 397.75 246.67)" id="7qB9g4IMSuScB2P66voYd"  >
<path style="stroke: none; stroke-width: 1; stroke-dasharray: none; stroke-linecap: butt; stroke-dashoffset: 0; stroke-linejoin: miter; stroke-miterlimit: 4; fill: rgb(140,142,145); fill-rule: nonzero; opacity: 1;" vector-effect="non-scaling-stroke"  transform=" translate(-863.84, -444.05)" d="M 878.68007 447.947 L 848.9964 447.947 C 846.8436271822445 447.947 845.0984599999999 446.2018328177554 845.0984599999999 444.04906 C 845.0984599999999 441.8962871822446 846.8436271822445 440.15112 848.9964 440.15112 L 878.68007 440.15112 C 880.8328428177555 440.15112 882.57801 441.8962871822446 882.57801 444.04906 C 882.5780100000001 446.2018328177554 880.8328428177555 447.947 878.68007 447.947 Z" stroke-linecap="round" />
</g>
<g transform="matrix(0.56 0 0 0.56 276.61 206.63)" id="dTFiAeyJ2lLxMeR5RQfKA"  >
<path style="stroke: none; stroke-width: 1; stroke-dasharray: none; stroke-linecap: butt; stroke-dashoffset: 0; stroke-linejoin: miter; stroke-miterlimit: 4; fill: rgb(140,142,145); fill-rule: nonzero; opacity: 1;" vector-effect="non-scaling-stroke"  transform=" translate(-13.09, -13.09)" d="M 0 13.08937 C 0 5.860310000000001 5.86031 0 13.08937 0 C 20.31843 0 26.17874 5.86031 26.17874 13.08937 C 26.17874 20.31843 20.31843 26.17874 13.08937 26.17874 C 5.860310000000001 26.17874 0 20.31843 0 13.08937 z" stroke-linecap="round" />
</g>
<g transform="matrix(0.56 0 0 0.56 304.93 220.68)" id="pEBO_Krliu8jRDpZMRS-F"  >
<path style="stroke: none; stroke-width: 1; stroke-dasharray: none; stroke-linecap: butt; stroke-dashoffset: 0; stroke-linejoin: miter; stroke-miterlimit: 4; fill: rgb(140,142,145); fill-rule: nonzero; opacity: 1;" vector-effect="non-scaling-stroke"  transform=" translate(-698.09, -397.64)" d="M 757.84621 401.5416 L 638.33211 401.5416 C 636.179442116347 401.5416 634.43436 399.796517883653 634.43436 397.64385000000004 C 634.43436 395.49118211634703 636.179442116347 393.7461 638.33211 393.7461 L 757.8462099999999 393.7461 C 759.9988778836529 393.7461 761.7439599999999 395.49118211634703 761.7439599999999 397.64385 C 761.7439599999999 399.796517883653 759.9988778836529 401.5416 757.8462099999999 401.5416 Z" stroke-linecap="round" />
</g>
<g transform="matrix(0.56 0 0 0.56 279.78 229.31)" id="ILjmC4m39xPY7z-FQtkC3"  >
<path style="stroke: none; stroke-width: 1; stroke-dasharray: none; stroke-linecap: butt; stroke-dashoffset: 0; stroke-linejoin: miter; stroke-miterlimit: 4; fill: rgb(140,142,145); fill-rule: nonzero; opacity: 1;" vector-effect="non-scaling-stroke"  transform=" translate(-653.17, -413.05)" d="M 668.01578 416.94355 L 638.33211 416.94355 C 636.1793371822445 416.94355 634.43417 415.19838281775543 634.43417 413.04561 C 634.43417 410.8928371822446 636.1793371822445 409.14767 638.33211 409.14767 L 668.01578 409.14767 C 670.1685528177554 409.14767 671.9137199999999 410.8928371822446 671.91372 413.04561 C 671.91372 415.19838281775543 670.1685528177554 416.94355 668.01578 416.94355 Z" stroke-linecap="round" />
</g>
<g transform="matrix(0.56 0 0 0.56 394.59 162.48)" id="EiiAjF0JFARhjtY_moS9L"  >
<path style="stroke: none; stroke-width: 1; stroke-dasharray: none; stroke-linecap: butt; stroke-dashoffset: 0; stroke-linejoin: miter; stroke-miterlimit: 4; fill: rgb(140,142,145); fill-rule: nonzero; opacity: 1;" vector-effect="non-scaling-stroke"  transform=" translate(-13.09, -13.09)" d="M 0 13.08937 C 0 5.860310000000001 5.86031 0 13.08937 0 C 20.31843 0 26.17874 5.86031 26.17874 13.08937 C 26.17874 20.31843 20.31843 26.17874 13.08937 26.17874 C 5.860310000000001 26.17874 0 20.31843 0 13.08937 z" stroke-linecap="round" />
</g>
<g transform="matrix(0.56 0 0 0.56 422.9 176.52)" id="fVOioCJUELEDEpabGwr5z"  >
<path style="stroke: none; stroke-width: 1; stroke-dasharray: none; stroke-linecap: butt; stroke-dashoffset: 0; stroke-linejoin: miter; stroke-miterlimit: 4; fill: rgb(140,142,145); fill-rule: nonzero; opacity: 1;" vector-effect="non-scaling-stroke"  transform=" translate(-908.75, -318.79)" d="M 968.5105 322.69174 L 848.9964 322.69174 C 846.843732116347 322.69174 845.09865 320.94665788365296 845.09865 318.79399 C 845.09865 316.641322116347 846.843732116347 314.89624 848.9964 314.89624 L 968.5105 314.89624 C 970.6631678836529 314.89624 972.40825 316.641322116347 972.40825 318.79398999999995 C 972.40825 320.94665788365296 970.6631678836529 322.69174 968.5105 322.69174 Z" stroke-linecap="round" />
</g>
<g transform="matrix(0.56 0 0 0.56 409.54 185.15)" id="rkrmO60mSNgnIKSiwpdn3"  >
<path style="stroke: none; stroke-width: 1; stroke-dasharray: none; stroke-linecap: butt; stroke-dashoffset: 0; stroke-linejoin: miter; stroke-miterlimit: 4; fill: rgb(140,142,145); fill-rule: nonzero; opacity: 1;" vector-effect="non-scaling-stroke"  transform=" translate(-884.9, -334.2)" d="M 920.81293 338.09369 L 848.9964 338.09369 C 846.8436271822445 338.09369 845.0984599999999 336.3485228177554 845.0984599999999 334.19575 C 845.0984599999999 332.04297718224456 846.8436271822445 330.29780999999997 848.9964 330.29780999999997 L 920.81293 330.29780999999997 C 922.9657028177555 330.29780999999997 924.71087 332.04297718224456 924.7108700000001 334.19575 C 924.7108700000001 336.3485228177554 922.9657028177555 338.09369 920.81293 338.09369 Z" stroke-linecap="round" />
</g>
<g transform="matrix(0.56 0 0 0.56 403.94 193.78)" id="IUMjYuj8_yfTJhhie82DT"  >
<path style="stroke: none; stroke-width: 1; stroke-dasharray: none; stroke-linecap: butt; stroke-dashoffset: 0; stroke-linejoin: miter; stroke-miterlimit: 4; fill: rgb(140,142,145); fill-rule: nonzero; opacity: 1;" vector-effect="non-scaling-stroke"  transform=" translate(-874.9, -349.6)" d="M 900.80289 353.49564 L 848.9964 353.49564 C 846.8436271822445 353.49564 845.0984599999999 351.7504728177554 845.0984599999999 349.5977 C 845.0984599999999 347.44492718224456 846.8436271822445 345.69975999999997 848.9964 345.69975999999997 L 900.8028899999999 345.69975999999997 C 902.9556628177554 345.69975999999997 904.7008299999999 347.44492718224456 904.70083 349.5977 C 904.70083 351.7504728177554 902.9556628177554 353.49564 900.8028899999999 353.49564 Z" stroke-linecap="round" />
</g>
<g transform="matrix(0.56 0 0 0.56 298.52 153.32)" id="iDpmNDKg1pCxU9-833SAV"  >
<path style="stroke: none; stroke-width: 1; stroke-dasharray: none; stroke-linecap: butt; stroke-dashoffset: 0; stroke-linejoin: miter; stroke-miterlimit: 4; fill: rgb(14,20,30); fill-rule: nonzero; opacity: 1;" vector-effect="non-scaling-stroke"  transform=" translate(-686.64, -277.36)" d="M 738.84708 208.64888 L 738.84708 346.07642 C 738.8447783170086 348.0731012340818 737.2281761885314 349.69192555445585 735.2315 349.69696999999996 L 662.82063 349.69696999999996 C 654.8094661872631 342.26801661287044 648.2371997054225 333.4252010549435 643.43363 323.61226 C 643.11751 322.98001 642.81621 322.34285 642.52972 321.69579 C 638.1526449753331 312.1986862342192 635.5032389787276 301.99748401458555 634.70578 291.5707 C 634.65145 290.92856 634.60699 290.29139 634.57735 289.64434 C 634.47859 287.98967 634.43412 286.31028 634.43412 284.62597 C 634.4194577361586 273.41488619003985 636.5365170543581 262.30324325983224 640.67252 251.88297000000006 C 640.9195199999999 251.23591 641.18126 250.5938 641.45295 249.95664 C 646.8985316549389 237.15287209095973 655.2709722419625 225.80464901873876 665.89779 216.82347 Q 666.84612 216.01585999999998 667.81426 215.25276 L 667.96272 215.13407 C 676.2782854744256 208.55035512846356 686.5822103927804 204.98394533095262 697.1884699999999 205.01841000000002 L 735.23147 205.01841000000002 C 737.2315444037612 205.0246129736676 738.8490804051731 206.6487969777626 738.84708 208.64888 Z" stroke-linecap="round" />
</g>
<g transform="matrix(0.56 0 0 0.56 298.53 153.11)" id="JLDetG2zFyequw6dVg3Ij"  >
<path style="stroke: none; stroke-width: 1; stroke-dasharray: none; stroke-linecap: butt; stroke-dashoffset: 0; stroke-linejoin: miter; stroke-miterlimit: 4; fill: rgb(0,0,0); fill-rule: nonzero; opacity: 0.2;" vector-effect="non-scaling-stroke"  transform=" translate(-686.81, -276.98)" d="M 739.03978 251.883 L 739.03978 249.95667 L 706.74628 249.95667 L 706.74628 205.01844 L 704.82486 205.01844 L 704.82486 249.95667 L 667.81431 249.95667 L 667.81431 215.25279 Q 666.84374 216.01588 665.89784 216.8235 L 665.89784 249.95667 L 641.453 249.95667 C 641.1813099999999 250.59383 640.91954 251.23594 640.67257 251.883 L 665.89784 251.883 L 665.89784 289.64434 L 634.5774 289.64434 C 634.60704 290.29134 634.6515 290.92856 634.70583 291.5707 L 665.89783 291.5707 L 665.89783 321.69579 L 642.52977 321.69579 C 642.8162599999999 322.34285 643.11756 322.98001 643.43368 323.61226 L 665.89784 323.61226 L 665.89784 348.93626 L 667.81431 348.93626 L 667.81431 323.61226 L 704.82486 323.61226 L 704.82486 348.93626 L 706.74628 348.93626 L 706.74628 323.61226 L 739.03978 323.61226 L 739.03978 321.69579 L 706.74628 321.69579 C 706.7446828227303 313.7056350440009 709.9180501019679 306.04227704691283 715.5679401537449 300.3923813687005 C 721.2178302055219 294.7424856904882 728.8811850424142 291.56911077971125 736.8713399999999 291.5707 L 739.03978 291.5707 L 739.03978 289.64434 L 706.74628 289.64434 L 706.74628 251.883 Z M 704.82486 321.69579 L 667.81431 321.69579 L 667.81431 291.5707 L 704.82486 291.5707 Z M 704.82486 289.64434 L 667.81431 289.64434 L 667.81431 288.88863 C 667.814954454537 279.07347182818813 671.7146330338095 269.66057386994277 678.6554592747494 262.7206703082147 C 685.5962855156894 255.78076674648665 695.0097018292488 251.88233958908182 704.82486 251.883 Z" stroke-linecap="round" />
</g>
<g transform="matrix(0.56 0 0 0.56 301.25 147.84)" id="cUYfWWEBWwFD0glYeDCn_"  >
<path style="stroke: none; stroke-width: 1; stroke-dasharray: none; stroke-linecap: butt; stroke-dashoffset: 0; stroke-linejoin: miter; stroke-miterlimit: 4; fill: rgb(47,46,65); fill-rule: nonzero; opacity: 1;" vector-effect="non-scaling-stroke"  transform=" translate(-691.51, -267.57)" d="M 735.39767 322.18112 C 733.8117653704879 322.25401043150066 732.3493254055685 321.3281236305136 731.73687987027 319.86343356937266 C 731.1244343349714 318.3987435082318 731.4925221864044 316.7074397647063 732.65828 315.62975 C 732.75359 315.25092 732.82196 314.97889 732.91728 314.60007 Q 732.86613 314.4764 732.81437 314.35290000000003 C 729.33451 306.05521000000005 707.1293700000001 329.18625000000003 706.1693700000001 336.98469000000006 C 705.7465607191922 340.43177878379294 705.9249180778761 343.9260861574625 706.6965100000001 347.31221000000005 C 699.503873729773 331.62235913597624 695.7689243353672 314.56938059662565 695.74489 297.30946000000006 C 695.7433772954012 292.9782972099819 695.9840161367969 288.6504370767359 696.46568 284.34614 Q 697.06278 279.05314000000004 698.12247 273.83559 C 701.9775689202296 254.96219833939878 710.2546523802455 237.27245868221075 722.27397 222.21913000000006 C 729.14775 222.60277000000005 735.17197 221.55565000000004 735.75364 208.23381000000003 C 735.8571000000001 205.86409000000003 737.61476 203.81224000000003 738.00205 201.47781000000003 C 737.3458400000001 201.56389000000004 736.67884 201.61767000000003 736.02263 201.66066000000004 C 735.8182 201.67137000000002 735.60306 201.68216000000004 735.39863 201.69295000000002 L 735.32153 201.6964 C 733.8482958981906 201.76251155750145 732.4734231961445 200.95785385948903 731.8095836814128 199.64099906284275 C 731.1457441666811 198.32414426619647 731.3165474318831 196.74029604038736 732.24588 195.59525000000002 Q 732.67088 195.07225000000003 733.0964200000001 194.54969000000003 C 733.52678 194.01176000000004 733.9678500000001 193.48461000000003 734.39813 192.94677000000001 C 734.4477903501121 192.895667678861 734.4944866350339 192.8417662900595 734.53799 192.78533000000002 C 735.0329300000001 192.17211 735.52769 191.56969 736.02263 190.95647000000002 C 735.1193058728367 189.55445461132715 733.9043504382577 188.38003613489494 732.4725000000001 187.52479000000002 C 727.5130800000001 184.62015000000002 720.6710300000001 186.63186000000002 717.0886100000001 191.11791000000002 C 713.4954800000002 195.60391 712.8177800000001 201.89738000000003 714.0656100000001 207.50222000000002 C 715.2928051800335 212.271439361973 717.3227923153981 216.79699522323534 720.0686100000001 220.88502000000003 C 719.7996100000001 221.22931000000003 719.5198900000001 221.56281 719.2509600000002 221.9071 C 714.334546401212 228.2289696231402 710.0495361401944 235.01745192728106 706.4573700000002 242.17521000000005 C 707.4736700000002 234.23657000000003 695.0457800000001 205.56726000000003 690.2396000000002 199.49469000000002 C 684.4666000000002 192.2006 672.6285300000002 195.38391000000001 671.6114500000002 204.63030000000003 Q 671.5966900000002 204.76459000000003 671.5826200000002 204.89879000000005 Q 672.6534400000003 205.50290000000004 673.6790100000003 206.18117000000004 C 675.4370149193202 207.35575076415952 676.2937191890283 209.48903378663823 675.8363894383923 211.55326990856557 C 675.3790596877564 213.6175060304929 673.7014935434589 215.1893236061801 671.6118900000002 215.51147000000003 L 671.5073700000003 215.52761000000004 C 661.9516400000002 229.17127000000005 692.5848200000003 264.68230000000005 700.2525400000003 256.70899000000003 C 696.6434926298019 266.93670394971906 694.3796841164403 277.5902910407142 693.5180500000002 288.4018100000001 C 693.0302427524397 294.78031287294135 693.0590299005268 301.18781769426676 693.6041300000003 307.56168 L 693.5718200000002 307.33575 C 691.8681400000003 293.45342 662.6404800000003 272.81316000000004 654.1055100000002 274.53243000000003 C 649.1887600000002 275.52285 644.3459800000002 275.29769000000005 645.0925800000002 280.25727000000006 Q 645.1104600000002 280.37602000000004 645.1289300000002 280.4947700000001 C 646.4536563289772 281.03433378400365 647.7434871054834 281.6558906107578 648.9909300000002 282.3558300000001 Q 650.0617500000002 282.96006000000006 651.0873200000002 283.6382000000001 C 652.845330664388 284.812796934277 653.7020357676967 286.9460938588042 653.2447051367819 289.0103438795481 C 652.7873745058673 291.07459390029203 651.109804926388 292.64642713197986 649.0201900000002 292.9685900000001 L 648.9155600000001 292.9846500000001 C 648.8402800000001 292.9954400000001 648.7756900000002 293.0062200000001 648.7004900000002 293.0170200000001 C 644.3508200000002 307.98333000000014 676.6078400000001 332.1370200000001 696.2181900000002 324.4516200000001 L 696.2289900000002 324.4516200000001 C 698.1723961917388 332.89662477404147 700.9881872192219 341.11679750310213 704.6309900000002 348.9796800000001 L 734.6455300000002 348.9796800000001 C 734.7531800000003 348.6461800000001 734.8499600000002 348.30189000000007 734.9468200000002 347.9683900000001 C 732.1686024572037 348.1430573580428 729.379449967644 347.9768977258534 726.6416200000002 347.4736200000001 C 728.8685500000003 344.7410500000001 731.0953900000002 341.9869800000001 733.3223200000002 339.2544900000001 C 733.3719812831743 339.2034200868826 733.4186777028677 339.1495485916906 733.4621800000002 339.09314000000006 C 734.5917400000002 337.6946500000001 735.7321000000002 336.30687000000006 736.8616600000003 334.9083800000001 L 736.8622700000003 334.90665000000007 C 736.9224831481483 330.6197472342403 736.4305498684107 326.3429286995558 735.3986000000003 322.18165000000005 Z M 701.0270099999999 254.56812000000002 L 701.0428099999999 254.54679000000002 L 701.0270099999999 254.58961000000002 Z M 694.3786799999999 314.50049 L 694.12047 313.91965 C 694.13126 313.50007999999997 694.13126 313.0805 694.12047 312.65022999999997 C 694.12047 312.53177999999997 694.09897 312.41349999999994 694.09897 312.29513999999995 C 694.19575 313.03741999999994 694.28182 313.77978999999993 694.38939 314.5220699999999 Z" stroke-linecap="round" />
</g>
</svg>