<?xml version="1.0" encoding="UTF-8" standalone="no" ?>
<!DOCTYPE svg PUBLIC "-//W3C//DTD SVG 1.1//EN" "http://www.w3.org/Graphics/SVG/1.1/DTD/svg11.dtd">
<svg xmlns="http://www.w3.org/2000/svg" xmlns:xlink="http://www.w3.org/1999/xlink" version="1.1" width="500" height="500" viewBox="0 0 500 500" xml:space="preserve">
<desc>Created with Fabric.js 4.6.0</desc>
<defs>
</defs>
<g transform="matrix(1 0 0 1 206.8 222.05)" id="oB-7HqSaiUSxibSd-8z3K"  >
<path style="stroke: none; stroke-width: 1; stroke-dasharray: none; stroke-linecap: butt; stroke-dashoffset: 0; stroke-linejoin: miter; stroke-miterlimit: 4; fill: rgb(255,182,182); fill-rule: nonzero; opacity: 1;" vector-effect="non-scaling-stroke"  transform=" translate(-196.13, -163.67)" d="M 190.97649 178.61071 C 186.12326000000002 183.18312 179.83020000000002 184.38613 176.92049 181.29772 C 174.01077 178.20929999999998 175.58628 171.99902 180.43951 167.42661 C 182.56393 165.42511000000002 184.96426000000002 164.06938000000002 187.23592000000002 163.43644 L 208.04348000000002 144.31982 L 216.80645 154.2753 L 195.36418 172.0639 C 194.59713 174.29385 193.10091 176.60922 190.97649 178.61072 Z" stroke-linecap="round" />
</g>
<g transform="matrix(1 0 0 1 303.71 414.37)" id="mHcJrsDkn6W7J0QvB3N9d"  >
<path style="stroke: none; stroke-width: 1; stroke-dasharray: none; stroke-linecap: butt; stroke-dashoffset: 0; stroke-linejoin: miter; stroke-miterlimit: 4; fill: rgb(255,182,182); fill-rule: nonzero; opacity: 1;" vector-effect="non-scaling-stroke"  transform=" translate(-293.04, -355.99)" d="M 300.44371 375.33692 L 290.41313 375.33593 L 285.64153000000005 336.64611 L 300.44575000000003 336.64713 z" stroke-linecap="round" />
</g>
<g transform="matrix(1 0 0 1 294.85 430.95)" id="hGm-yo-rFtJGO7q_5ZqUg"  >
<path style="stroke: none; stroke-width: 1; stroke-dasharray: none; stroke-linecap: butt; stroke-dashoffset: 0; stroke-linejoin: miter; stroke-miterlimit: 4; fill: rgb(47,46,65); fill-rule: nonzero; opacity: 1;" vector-effect="non-scaling-stroke"  transform=" translate(-284.18, -372.57)" d="M 266.07771 375.10937 L 266.07771 375.10937 C 265.76541000000003 375.63535 265.60060000000004 377.33304000000004 265.60060000000004 377.94474 L 265.60060000000004 377.94474 C 265.60060000000004 379.82494 267.12480000000005 381.34914000000003 269.00499 381.34914000000003 L 300.06852000000003 381.34914000000003 C 301.35120000000006 381.34914000000003 302.39101000000005 380.30933000000005 302.39101000000005 379.02665 L 302.39101000000005 377.73337000000004 C 302.39101000000005 377.73337000000004 303.92771000000005 373.84642 300.76392000000004 369.05553000000003 C 300.76392000000004 369.05553000000003 296.83178000000004 372.80689 290.95616000000007 366.93127000000004 L 289.2234900000001 363.79244000000006 L 276.6813600000001 372.96508000000006 L 269.7294400000001 373.82079000000004 C 268.2085300000001 374.00800000000004 266.86006000000015 373.79173000000003 266.07771000000014 375.10937000000007 Z" stroke-linecap="round" />
</g>
<g transform="matrix(1 0 0 1 370.67 409.92)" id="Oxs-PPUp5xIJfk6Pt1Rvz"  >
<path style="stroke: none; stroke-width: 1; stroke-dasharray: none; stroke-linecap: butt; stroke-dashoffset: 0; stroke-linejoin: miter; stroke-miterlimit: 4; fill: rgb(255,182,182); fill-rule: nonzero; opacity: 1;" vector-effect="non-scaling-stroke"  transform=" translate(-360, -351.53)" d="M 370.81355 369.6394 L 360.95144000000005 371.47002000000003 L 349.19524000000007 334.302 L 363.75074000000006 331.59973 z" stroke-linecap="round" />
</g>
<g transform="matrix(1 0 0 1 365.82 429.23)" id="Y6O-iVzzAZpsimHSuKyIR"  >
<path style="stroke: none; stroke-width: 1; stroke-dasharray: none; stroke-linecap: butt; stroke-dashoffset: 0; stroke-linejoin: miter; stroke-miterlimit: 4; fill: rgb(47,46,65); fill-rule: nonzero; opacity: 1;" vector-effect="non-scaling-stroke"  transform=" translate(-355.16, -370.84)" d="M 336.98379 375.69096 L 336.98379 375.69096 C 336.77279 376.26512 336.92075 377.96436 337.03244 378.56578 L 337.03244 378.56578 C 337.37577 380.41437 339.15266 381.63462000000004 341.00124 381.29129 L 371.5425 375.61904 C 372.80361 375.38482 373.63607 374.17262 373.40185 372.91150999999996 L 373.1657 371.63998 C 373.1657 371.63998 373.96680000000003 367.53778 369.98138 363.40515 C 369.98138 363.40515 366.80035 367.81145 359.95062 363.10751999999997 L 357.67393000000004 360.33784999999995 L 347.01761000000005 371.64649 L 340.33883000000003 373.75725 C 338.87767 374.21903 337.51239000000004 374.25263 336.98380000000003 375.69097 Z" stroke-linecap="round" />
</g>
<g transform="matrix(1 0 0 1 329.86 326.59)" id="YkaQ2yZuB9gb-1Tl9bHgs"  >
<path style="stroke: none; stroke-width: 1; stroke-dasharray: none; stroke-linecap: butt; stroke-dashoffset: 0; stroke-linejoin: miter; stroke-miterlimit: 4; fill: rgb(47,46,65); fill-rule: nonzero; opacity: 1;" vector-effect="non-scaling-stroke"  transform=" translate(-319.2, -268.21)" d="M 346.23438 184.13067 L 370.94133 349.55359 L 347.94133 352.55359 L 307.94133 221.55358999999999 L 302.94133 356.55359 L 281.50432 356.55359 C 281.50432 356.55359 262.98857 207.55358999999999 268.46495 189.55358999999999 C 273.94133 171.55358999999999 346.23438 184.13066999999998 346.23438 184.13066999999998 Z" stroke-linecap="round" />
</g>
<g transform="matrix(1 0 0 1 318.86 185.5)" id="gPz7F68pIvg59qIMhqGfI"  >
<path style="stroke: none; stroke-width: 1; stroke-dasharray: none; stroke-linecap: butt; stroke-dashoffset: 0; stroke-linejoin: miter; stroke-miterlimit: 4; fill: rgb(14,20,30); fill-rule: nonzero; opacity: 1;" vector-effect="non-scaling-stroke"  transform=" translate(-308.19, -127.12)" d="M 292.94132 51.55359 L 316.94132 51.55359 L 320.44132 60.05359 C 320.44132 60.05359 334.44132 68.05359 334.44132 71.05359 C 334.44132 74.05359 342.94132 149.55358999999999 342.94132 149.55358999999999 L 347.44132 191.05358999999999 C 347.44132 191.05358999999999 294.94132 217.55358999999999 268.94132 190.55358999999999 L 273.94132 144.55358999999999 C 273.94132 144.55358999999999 269.94132 72.55358999999999 271.94132 69.55358999999999 C 273.94132 66.55358999999999 288.94132 59.553589999999986 288.94132 59.553589999999986 L 292.94132 51.553589999999986 Z" stroke-linecap="round" />
</g>
<g transform="matrix(1 0 0 1 254.07 172.37)" id="QVEpgUsqWdEqXpKMm_0Co"  >
<path style="stroke: none; stroke-width: 1; stroke-dasharray: none; stroke-linecap: butt; stroke-dashoffset: 0; stroke-linejoin: miter; stroke-miterlimit: 4; fill: rgb(14,20,30); fill-rule: nonzero; opacity: 1;" vector-effect="non-scaling-stroke"  transform=" translate(-243.41, -113.99)" d="M 285.43489 64.45358 L 285.43489999999997 64.45358 C 285.43489999999997 64.45358 292.74908999999997 75.5067 290.44131999999996 80.05359 C 288.13354999999996 84.60048 252.11734999999996 128.23708 252.11734999999996 128.23708 L 208.66208999999995 164.02310999999997 L 195.92487999999994 152.71985999999998 L 236.85625999999993 113.67344999999997 L 263.30303999999995 74.67019999999997 C 267.51177999999993 66.64182999999997 276.59464999999994 62.448939999999965 285.43487999999996 64.45357999999996 Z" stroke-linecap="round" />
</g>
<g transform="matrix(1 0 0 1 369.38 255.57)" id="nWdwId3y_ZIEGhJR7LXwo"  >
<path style="stroke: none; stroke-width: 1; stroke-dasharray: none; stroke-linecap: butt; stroke-dashoffset: 0; stroke-linejoin: miter; stroke-miterlimit: 4; fill: rgb(255,182,182); fill-rule: nonzero; opacity: 1;" vector-effect="non-scaling-stroke"  transform=" translate(-358.72, -197.19)" d="M 367.95999 208.11934 C 369.00474 214.70488 366.45438 220.58241999999998 362.26358 221.24725999999998 C 358.07277999999997 221.91209999999998 353.82857 217.11245999999997 352.78382999999997 210.52693 C 352.32651 207.64422 352.55818999999997 204.89723999999998 353.31465 202.66367 L 349.23785 174.70335 L 362.39961999999997 173.06965 L 365.02158999999995 200.80644999999998 C 366.43218999999993 202.69622999999999 367.50266999999997 205.23663 367.95998999999995 208.11935 Z" stroke-linecap="round" />
</g>
<g transform="matrix(1 0 0 1 352.84 188.01)" id="G4xjuhmB-KiqCWUBT-iIz"  >
<path style="stroke: none; stroke-width: 1; stroke-dasharray: none; stroke-linecap: butt; stroke-dashoffset: 0; stroke-linejoin: miter; stroke-miterlimit: 4; fill: rgb(14,20,30); fill-rule: nonzero; opacity: 1;" vector-effect="non-scaling-stroke"  transform=" translate(-342.17, -129.63)" d="M 316.77007 65.54704 C 316.77007 65.54704 337.46493999999996 60.91533 341.22463 72.39192 C 344.98432 83.86851 367.57679 192.7277 367.57679 192.7277 L 350.36621 194.63354999999999 L 337.44131000000004 120.05358999999999 L 316.77006000000006 65.54703999999998 Z" stroke-linecap="round" />
</g>
<g transform="matrix(1 0 0 1 316.43 83.73)" id="WHnY3QwRX0unu08HZ6VeM"  >
<path style="stroke: none; stroke-width: 1; stroke-dasharray: none; stroke-linecap: butt; stroke-dashoffset: 0; stroke-linejoin: miter; stroke-miterlimit: 4; fill: rgb(255,182,182); fill-rule: nonzero; opacity: 1;" vector-effect="non-scaling-stroke"  transform=" translate(-20.63, -20.63)" d="M 0 20.63413 C 0 9.238209999999999 9.23821 0 20.63413 0 C 32.03005 0 41.26826 9.23821 41.26826 20.63413 C 41.26826 32.03005 32.030049999999996 41.26826 20.63413 41.26826 C 9.238209999999999 41.26826 0 32.030049999999996 0 20.63413 z" stroke-linecap="round" />
</g>
<g transform="matrix(1 0 0 1 315.72 79.93)" id="GyVmRQDIy6NcfPAUBaf5z"  >
<path style="stroke: none; stroke-width: 1; stroke-dasharray: none; stroke-linecap: butt; stroke-dashoffset: 0; stroke-linejoin: miter; stroke-miterlimit: 4; fill: rgb(47,46,65); fill-rule: nonzero; opacity: 1;" vector-effect="non-scaling-stroke"  transform=" translate(-305.05, -21.55)" d="M 317.83683 42.87307 C 316.51379000000003 42.937439999999995 314.76745 42.68539 314.54564000000005 41.37948 C 314.38917000000004 40.4582 315.16619000000003 39.66413 315.89745000000005 39.08233 C 316.9169600000001 38.27119 317.9924500000001 37.515 318.86850000000004 36.550689999999996 C 319.74455 35.58637999999999 320.41929000000005 34.366859999999996 320.43588000000005 33.06415 C 320.45247000000006 31.76144 319.67651000000006 30.40223 318.43008000000003 30.023079999999997 C 317.18365 29.643929999999994 315.62881000000004 30.570739999999997 315.61010000000005 31.873419999999996 C 314.40858000000003 30.048529999999996 314.24890000000005 27.749199999999995 314.18589000000003 25.565189999999994 C 314.14901000000003 24.287149999999993 314.13270000000006 23.008509999999994 314.13696000000004 21.729949999999995 C 314.14277000000004 19.983239999999995 314.18697000000003 18.236919999999994 314.23117 16.490759999999995 C 313.37206000000003 16.445539999999994 306.44134 19.053599999999996 305.44134 19.053599999999996 C 304.58104000000003 19.053599999999996 297.67183 17.682009999999995 298.13149000000004 15.713679999999997 C 297.99623 16.971719999999998 291.40495000000004 19.237739999999995 291.27032 18.579259999999998 C 291.13569 17.92078 290.64435000000003 17.2258 289.9734 17.265119999999996 C 289.26608000000004 17.306579999999997 288.88164 18.090519999999994 288.64379 18.757939999999998 C 288.11279 20.24798 286.8233 22.823249999999998 285.44134 22.05359 C 274.98196 16.22849 283.4155 14.41422 284.65443000000005 12.045259999999999 C 286.17737000000005 9.133249999999999 287.80226000000005 6.103639999999999 290.51297000000005 4.245899999999999 C 293.22368000000006 2.388159999999999 295.36332000000004 0.1699699999999993 297.49856000000005 2.667949999999999 C 302.85513000000003 -1.2366900000000012 308.16977 -0.29483000000000104 314.41328000000004 1.931729999999999 C 320.65679000000006 4.158289999999999 325.65128000000004 9.606119999999999 327.32837000000006 16.019099999999998 C 328.09710000000007 18.958599999999997 330.15634000000006 20.24842 328.6219700000001 22.87089 C 330.3131800000001 25.13898 329.3968900000001 23.855729999999998 329.73106000000007 26.66514 C 329.99471000000005 28.881680000000003 329.77389000000005 31.221330000000002 328.6747700000001 33.16413 C 327.50058000000007 35.23961 325.4224400000001 36.68357 323.20040000000006 37.54897 C 320.97836 38.41436999999999 320.59415000000007 42.76088 318.23395000000005 43.1012" stroke-linecap="round" />
</g>
<g transform="matrix(1 0 0 1 457.36 390.32)" id="6HP4KsgxJ5_5vVSW4VjGM"  >
<path style="stroke: none; stroke-width: 1; stroke-dasharray: none; stroke-linecap: butt; stroke-dashoffset: 0; stroke-linejoin: miter; stroke-miterlimit: 4; fill: rgb(140,142,145); fill-rule: nonzero; opacity: 1;" vector-effect="non-scaling-stroke"  transform=" translate(-446.69, -331.93)" d="M 420.34575 365.60151 C 422.41167 365.73088 423.55343 363.16414000000003 421.99043 361.66818 L 421.83493 361.04999 C 421.8554 361.00048 421.87597999999997 360.95101999999997 421.89671 360.9016 C 423.98595 355.91979999999995 431.06663 355.95417999999995 433.1381 360.94336999999996 C 434.97669 365.37154 437.31752 369.80726 437.89389 374.48930999999993 C 438.15227 376.55610999999993 438.03602 378.66166999999996 437.57741 380.6897799999999 C 441.88548 371.2791899999999 444.15256 361.00316999999995 444.15256 350.66900999999996 C 444.15256 348.07248999999996 444.01043 345.47599999999994 443.71981 342.88605999999993 C 443.48081 340.76751999999993 443.15142 338.6619599999999 442.7251 336.57571999999993 C 440.41935 325.29851999999994 435.42658 314.5574699999999 428.22498 305.58609999999993 C 424.76301 303.69361999999995 421.87592 300.73544999999996 420.13203000000004 297.1895799999999 C 419.50554000000005 295.9106699999999 419.01464000000004 294.5349599999999 418.78212 293.13339999999994 C 419.1761 293.1850799999999 420.26768000000004 287.1847399999999 419.97053 286.81659999999994 C 420.51959 285.98342999999994 421.50231 285.56926999999996 422.10197 284.75625999999994 C 425.08429 280.71284999999995 429.19317 281.41884999999996 431.33817999999997 286.9135299999999 C 435.92042 289.2261899999999 435.96477 293.0615899999999 433.15313 296.75035999999994 C 431.36435 299.0971799999999 431.11857 302.27268999999995 429.54904999999997 304.78513999999996 C 429.71056 304.99184999999994 429.87848999999994 305.19208999999995 430.03995 305.39879999999994 C 433.00100999999995 309.19667999999996 435.56203 313.27881999999994 437.72099 317.56738999999993 C 437.11082 312.80117999999993 438.01165999999995 307.05916999999994 439.5474 303.35779999999994 C 441.29559 299.14047999999997 444.57230999999996 295.5886499999999 447.45785 291.94278999999995 C 450.92386 287.56354999999996 458.03122 289.47472999999997 458.64186 295.02610999999996 C 458.64777 295.07985999999994 458.65352 295.13355999999993 458.65917 295.18730999999997 C 458.23057 295.42909 457.81068 295.68598 457.40053 295.95723 C 455.06104 297.50446 455.86957 301.13109 458.6416 301.55897 L 458.70437 301.56864 C 458.54934 303.1123 458.28452999999996 304.64308 457.89703 306.14801 C 461.59882 320.4638 453.60691999999995 325.67791 442.19556 325.91213 C 441.94365 326.04129 441.69818 326.17045 441.44627 326.29321999999996 C 442.60244 329.54846999999995 443.52609 332.88768999999996 444.21068 336.27212999999995 C 444.82427 339.26255999999995 445.25059000000005 342.28529999999995 445.48953 345.32100999999994 C 445.78668 349.15106999999995 445.76082 353.00059999999996 445.43785 356.8242399999999 L 445.45724 356.6886199999999 C 446.27748 352.4774699999999 448.56395000000003 348.5439999999999 451.88384 345.8183399999999 C 456.82945 341.75569999999993 463.81666 340.2596499999999 469.1521 336.9940899999999 C 471.72043 335.4221299999999 475.01155 337.4535399999999 474.56331 340.4311699999999 L 474.54149 340.5737799999999 C 473.74706000000003 340.89666999999986 472.97202 341.27132999999986 472.22278 341.69110999999987 C 471.79418 341.9329499999999 471.3743 342.18977999999987 470.96414 342.4610299999999 C 468.62465 344.00831999999986 469.43318 347.6349499999999 472.20520999999997 348.0628299999999 L 472.26802999999995 348.0724799999999 C 472.31323 348.07893999999993 472.352 348.0854299999999 472.39714 348.0919199999999 C 471.03432 351.3277299999999 469.13545999999997 354.3311399999999 466.7586 356.9211399999999 C 464.44397 369.41826999999995 454.50257 370.6039599999999 443.86838 366.96467999999993 L 443.8619 366.96467999999993 C 442.69930999999997 372.02845999999994 441.00061999999997 376.97594999999995 438.8175 381.6908899999999 L 420.79731 381.6908899999999 C 420.73267999999996 381.4906699999999 420.67456999999996 381.2839699999999 420.61642 381.0837199999999 C 422.28282 381.1871299999999 423.96213 381.0902099999999 425.60271 380.78669999999994 C 424.2657 379.14610999999996 422.92875 377.49260999999996 421.59174 375.85207999999994 C 421.55945 375.8197799999999 421.53358000000003 375.78747999999996 421.50777 375.75518999999997 C 420.82959999999997 374.91558999999995 420.14495 374.08236 419.46677999999997 373.24273 L 419.46641999999997 373.24171 C 419.42397 370.66416000000004 419.73294 368.09509 420.34517999999997 365.60187 L 420.34574999999995 365.60152 Z" stroke-linecap="round" />
</g>
<g transform="matrix(1 0 0 1 250 440.43)" id="kfDkcCsHAFmzrPBalX_RA"  >
<path style="stroke: none; stroke-width: 1; stroke-dasharray: none; stroke-linecap: butt; stroke-dashoffset: 0; stroke-linejoin: miter; stroke-miterlimit: 4; fill: rgb(140,142,145); fill-rule: nonzero; opacity: 1;" vector-effect="non-scaling-stroke"  transform=" translate(-239.34, -382.05)" d="M 0 382.04684 C 0 382.70687 0.53003 383.23684 1.19006 383.23684 L 477.48004 383.23684 C 478.14000999999996 383.23684 478.67004 382.70687 478.67004 382.04684 C 478.67004 381.38687 478.14000999999996 380.85684 477.48004 380.85684 L 1.19006 380.85684 C 0.5300299999999999 380.85684 0 381.38687 0 382.04684 Z" stroke-linecap="round" />
</g>
<g transform="matrix(1 0 0 1 112.34 244.33)" id="g7wVQrnEruMk2JIgs-5N-"  >
<path style="stroke: none; stroke-width: 1; stroke-dasharray: none; stroke-linecap: butt; stroke-dashoffset: 0; stroke-linejoin: miter; stroke-miterlimit: 4; fill: rgb(63,61,86); fill-rule: nonzero; opacity: 1;" vector-effect="non-scaling-stroke"  transform=" translate(-101.67, -185.95)" d="M 107.48917 273.84851 L 107.35343 271.85242 C 111.2548 271.58777 115.16642 271.05359 118.97941 270.26355 L 119.38468 272.22253 C 115.48282 273.03015 111.48087000000001 273.57702 107.48917 273.84851000000003 Z M 95.46964 273.67078 C 91.434 273.3075 87.44474 272.72936999999996 83.61319 271.95301 L 84.01065 269.99207 C 87.77042 270.75477 91.68643 271.32215 95.64932 271.67859 L 95.46963000000001 273.67078 Z M 130.94864 268.98426 L 130.27774000000002 267.09949 C 133.95352000000003 265.79187 137.57315000000003 264.2157 141.03751000000003 262.4159 L 141.95939 264.19129000000004 C 138.41447000000002 266.03309 134.70988000000003 267.64539 130.94865000000001 268.98426000000006 Z M 72.02676000000001 268.85828 C 68.19571 267.57311999999996 64.46084 266.03893999999997 60.92617000000001 264.29578 L 61.80996000000001 262.50280999999995 C 65.26504000000001 264.20495999999997 68.91592000000001 265.70592999999997 72.66250000000001 266.96178999999995 L 72.02676000000001 268.85826999999995 Z M 50.55752000000001 258.23620999999997 C 47.25576000000001 255.97253999999998 44.098050000000015 253.44909999999996 41.17275000000001 250.73522999999997 L 42.533100000000005 249.26842999999997 C 45.38662000000001 251.91588999999996 48.467180000000006 254.37780999999995 51.688370000000006 256.58581 L 50.55751000000001 258.2362 Z M 152.20742 257.94323999999995 L 151.05215 256.31042999999994 C 154.23770000000002 254.05651999999995 157.29824000000002 251.56237999999993 160.14883 248.89831999999993 L 161.51406 250.35925999999992 C 158.59804 253.08484999999993 155.4667 255.63659999999993 152.20742 257.94323999999995 Z M 32.98476000000001 241.92663999999994 C 30.49648000000001 238.82116999999994 28.20253000000001 235.49011999999993 26.16738000000001 232.02722999999995 L 27.891990000000007 231.01355999999996 C 29.878320000000006 234.39441999999997 32.117090000000005 237.64539999999997 34.54531000000001 240.67664999999997 L 32.98476000000001 241.92664999999997 Z M 169.71132 241.58581999999993 L 168.16054 240.32214999999994 C 170.62783 237.29187999999994 172.9081 234.06628999999992 174.93691 230.73620999999994 L 176.64492 231.77722999999995 C 174.56875000000002 235.18445999999994 172.23623 238.48425999999995 169.71133 241.58581999999996 Z M 20.81876 221.27234 C 19.30069 217.60437000000002 18.010170000000002 213.77625 16.983310000000003 209.89343000000002 L 18.916900000000002 209.38171000000003 C 19.920810000000003 213.17859 21.182520000000004 216.92175000000003 22.666410000000003 220.50671000000003 L 20.81875 221.27233000000004 Z M 182.17862 221.11609 L 180.34464 220.31726 C 181.90177 216.73914 183.22451999999998 213.01648 184.27627999999999 209.25281 L 186.20206 209.79187000000002 C 185.12589 213.64246000000003 183.77237 217.45300000000003 182.17862 221.11609 Z M 14.67618 198.11121 C 14.164950000000001 194.15906 13.90372 190.12879 13.9003 186.13367 L 15.9003 186.13172 C 15.90372 190.04285 16.15909 193.98719 16.65958 197.85535 L 14.676179999999999 198.11121 Z M 188.63271999999998 198.03211 L 186.65126999999998 197.76257999999999 C 187.17567999999997 193.90809 187.44131 189.96863 187.44131 186.0536 L 187.44081999999997 185.87294 L 189.44081999999997 185.87294 L 189.44131 186.04579 C 189.44131 190.05849 189.16933999999998 194.08876 188.63271999999998 198.03212000000002 Z M 16.63956 174.40711 L 14.65518 174.1532 C 15.1625 170.17957 15.93155 166.21424 16.94131 162.36853 L 18.875880000000002 162.87634 C 17.888090000000002 166.63855 17.135650000000002 170.51843 16.639550000000003 174.4071 Z M 186.62734999999998 174.16785 C 186.09267999999997 170.29871 185.28506 166.43395999999998 184.22841999999997 162.68151999999998 L 186.15321999999998 162.13952999999998 C 187.23524999999998 165.97937 188.06092999999998 169.93444999999997 188.60878999999997 173.89441 L 186.62733999999998 174.16785 Z M 22.6049 151.74597 L 20.755290000000002 150.98425 C 22.28508 147.26989 24.077070000000003 143.64978 26.08097 140.22448 L 27.80753 141.23425 C 25.84952 144.57995 24.09903 148.11657 22.60489 151.74597 Z M 180.27677999999997 151.63269 C 178.71622999999997 148.06432999999998 176.89200999999997 144.56628 174.85441999999998 141.23523 L 176.56046999999998 140.19128 C 178.64592 143.59997 180.51261999999997 147.18005 182.1093 150.83190000000002 L 180.27678 151.63268000000002 Z M 168.06437999999997 131.66785 C 165.59562999999997 128.64733999999999 162.89542999999998 125.76647999999999 160.03849999999997 123.10583999999999 L 161.40177999999997 121.64196999999999 C 164.32462999999998 124.36462999999999 167.08732999999998 127.31188999999999 169.61320999999998 130.40222 L 168.06437999999997 131.66784 Z M 34.43888999999996 131.56286999999998 L 32.87540999999996 130.31579999999997 C 35.37394999999996 127.18347999999997 38.12003999999996 124.21667999999997 41.03653999999996 121.49743999999997 L 42.40079999999996 122.96032999999997 C 39.55509999999996 125.61315999999997 36.87638999999996 128.50720999999996 34.43888999999996 131.56286999999998 Z M 150.92570999999995 115.70788999999998 C 147.73039999999995 113.45642999999998 144.35441999999995 111.40661999999998 140.89103999999995 109.61511999999998 L 141.80998999999994 107.83874999999998 C 145.35393999999994 109.67175999999998 148.80852999999993 111.76940999999998 152.07805999999994 114.07312999999998 L 150.92571999999993 115.70789999999998 Z M 51.538989999999956 115.62243999999998 L 50.40421999999995 113.97497999999999 C 53.671309999999956 111.72497999999999 57.15519999999995 109.67858999999999 60.75919999999995 107.89196999999999 L 61.64786999999995 109.68395999999998 C 58.128339999999945 111.42809999999999 54.72745999999995 113.42614999999998 51.538979999999945 115.62243999999998 Z M 72.49064999999996 105.20104999999998 L 71.85099999999996 103.30602999999998 C 75.56486999999996 102.05309999999997 79.46134999999995 101.00475999999998 83.43204999999996 100.19127999999998 L 83.83341999999996 102.15025999999997 C 79.94327999999996 102.94761999999997 76.12687999999996 103.97398999999997 72.49064999999996 105.20103999999998 Z M 130.11710999999997 104.95006999999998 C 126.43790999999997 103.64879999999998 122.63126999999997 102.59166999999998 118.80314999999997 101.80651999999998 L 119.20451999999997 99.84753999999998 C 123.12248999999997 100.65075999999998 127.01847999999997 101.73278999999998 130.78410999999997 103.06433999999999 L 130.11711999999997 104.95007999999999 Z M 95.46817999999996 100.44469999999998 L 95.28555999999996 98.45348999999999 C 97.28750999999995 98.26989999999999 99.34561999999997 98.13561999999999 101.40274999999995 98.05455999999998 C 103.34903999999996 98.03160999999999 105.36612999999996 98.11803999999998 107.30460999999995 98.24547999999999 L 107.17374999999996 100.24156999999998 C 105.27823999999995 100.11656999999998 103.35001999999996 100.05357999999998 101.44229999999996 100.05357999999998 C 99.45889999999996 100.13267999999998 97.43594999999996 100.26500999999999 95.46817999999996 100.44468999999998 Z" stroke-linecap="round" />
</g>
<g transform="matrix(1 0 0 1 45.54 299.26)" id="-t4LAGMIQpWV85VX7h9sp"  >
<path style="stroke: none; stroke-width: 1; stroke-dasharray: none; stroke-linecap: butt; stroke-dashoffset: 0; stroke-linejoin: miter; stroke-miterlimit: 4; fill: rgb(14,20,30); fill-rule: nonzero; opacity: 1;" vector-effect="non-scaling-stroke"  transform=" translate(-27, -27)" d="M 0 27 C 0 12.08831 12.08831 0 27 0 C 41.91169 0 54 12.08831 54 27 C 54 41.91169 41.91169 54 27 54 C 12.08831 54 0 41.91169 0 27 z" stroke-linecap="round" />
</g>
<g transform="matrix(1 0 0 1 45.54 299.26)" id="e9U8H9giOXMG0oO_ETfxW"  >
<path style="stroke: none; stroke-width: 1; stroke-dasharray: none; stroke-linecap: butt; stroke-dashoffset: 0; stroke-linejoin: miter; stroke-miterlimit: 4; fill: rgb(255,255,255); fill-rule: nonzero; opacity: 1;" vector-effect="non-scaling-stroke"  transform=" translate(-34.87, -240.88)" d="M 24.3073 231.82262 C 24.3073 230.98651 25.002080000000003 230.3089 25.85933 230.3089 L 43.88929 230.3089 C 44.74654 230.3089 45.441320000000005 230.98650999999998 45.441320000000005 231.82262 L 45.441320000000005 249.92919 C 45.441320000000005 250.76531 44.74654 251.44291 43.88929 251.44291 L 25.85933 251.44291 C 25.00208 251.44291 24.3073 250.76530000000002 24.3073 249.92919 L 24.3073 231.82262 Z M 30.83639 248.00071 L 30.83639 238.45738 L 27.66497 238.45738 L 27.66497 248.00071 L 30.83639 248.00071 Z M 29.251340000000003 237.15367 C 30.356910000000003 237.15367 31.045090000000002 236.4219 31.045090000000002 235.50522 C 31.025280000000002 234.56872 30.358230000000002 233.85677 29.272470000000002 233.85677 C 28.18671 233.85677 27.477400000000003 234.57004 27.477400000000003 235.50522 C 27.477400000000003 236.42191 28.165580000000002 237.15367 29.230200000000004 237.15367 L 29.251330000000003 237.15367 Z M 35.7342 248.00071 L 35.7342 242.67097 C 35.7342 242.38566 35.75533 242.10035000000002 35.839870000000005 241.89694 C 36.068380000000005 241.32764 36.59013 240.73721 37.46719 240.73721 C 38.615030000000004 240.73721 39.07338 241.61163 39.07338 242.89552 L 39.07338 248.00071 L 42.2448 248.00071 L 42.2448 242.527 C 42.2448 239.59464999999997 40.680879999999995 238.23151 38.5939 238.23151 C 36.9111 238.23151 36.15688 239.15612 35.7342 239.80731999999998 L 35.7342 239.84033999999997 L 35.71307 239.84033999999997 L 35.7342 239.80731999999998 L 35.7342 238.45737999999997 L 32.5641 238.45737999999997 C 32.603730000000006 239.35292999999996 32.5641 248.00070999999997 32.5641 248.00070999999997 L 35.7342 248.00070999999997 Z" stroke-linecap="round" />
</g>
<g transform="matrix(1 0 0 1 125.27 157.9)" id="FDzMOCI81N2R1PXe-bxMT"  >
<path style="stroke: none; stroke-width: 1; stroke-dasharray: none; stroke-linecap: butt; stroke-dashoffset: 0; stroke-linejoin: miter; stroke-miterlimit: 4; fill: rgb(14,20,30); fill-rule: nonzero; opacity: 1;" vector-effect="non-scaling-stroke"  transform=" translate(-27, -27)" d="M 0 27 C 0 12.08831 12.08831 0 27 0 C 41.91169 0 54 12.08831 54 27 C 54 41.91169 41.91169 54 27 54 C 12.08831 54 0 41.91169 0 27 z" stroke-linecap="round" />
</g>
<g transform="matrix(1 0 0 1 125.27 157.9)" id="fJzbrgZfDjOuUx6BZYmYQ"  >
<path style="stroke: none; stroke-width: 1; stroke-dasharray: none; stroke-linecap: butt; stroke-dashoffset: 0; stroke-linejoin: miter; stroke-miterlimit: 4; fill: rgb(255,255,255); fill-rule: evenodd; opacity: 1;" vector-effect="non-scaling-stroke"  transform=" translate(-114.61, -99.52)" d="M 114.95126 94.62378 C 116.42836 92.62619 118.06144 91.05359 120.14976 91.05359 C 124.09241 91.05359 127.33948 96.07223 127.34107 102.04747 C 127.34107 105.69247 125.77165000000001 107.97656 122.95275000000001 107.97656 C 120.49675 107.97656 119.14062000000001 106.59815 116.70691000000001 102.52657 L 115.64525 100.73909 L 115.45743 100.42553000000001 C 115.18057 99.95761 114.89936 99.49228000000001 114.61383000000001 99.02961 L 112.73881 102.34035 C 110.07589 106.99608 108.57651 107.97657 106.49456 107.97657 C 103.60085000000001 107.97657 101.87226000000001 105.72430999999999 101.87226000000001 102.15253 C 101.87226000000001 96.44628 105.04771000000001 91.05359 109.19091000000002 91.05359 C 109.69866000000002 91.05359 110.18572000000002 91.11567 110.66164000000002 91.24778 C 111.15507000000002 91.38467 111.63417000000003 91.59795000000001 112.11486000000002 91.8956 C 113.03327000000002 92.46702 113.95168000000002 93.35201 114.95127000000002 94.62378 Z M 117.36428000000001 98.16372 C 116.96317 97.51111999999999 116.57798000000001 96.91105 116.20711000000001 96.36032 L 116.19756000000001 96.34759 C 117.54255 94.27042 118.65356000000001 93.2374 119.97308000000001 93.2374 C 122.71558000000002 93.2374 124.91054000000001 97.27555 124.91054000000001 102.23528999999999 C 124.91054000000001 104.12622999999999 124.28978000000001 105.22291 123.00846000000001 105.22291 C 121.77807000000001 105.22291 121.19074000000002 104.41114 118.85412000000001 100.65473 L 117.36269000000001 98.16372 L 117.36428000000001 98.16372 Z M 109.58563000000001 93.84862 C 110.73961000000001 94.00779 111.79014000000001 94.85776 113.31021000000001 97.03362 C 112.43313 98.37665 111.56563000000001 99.72592 110.70778000000001 101.08132 C 108.54784000000001 104.46528 107.80133000000001 105.22452000000001 106.59960000000001 105.22452000000001 C 105.36285000000001 105.22452000000001 104.62589000000001 104.13898000000002 104.62589000000001 102.20029000000001 C 104.62589000000001 98.05868000000001 106.69192000000001 93.82157000000001 109.15587000000001 93.82157000000001 C 109.30071000000001 93.82157000000001 109.44397000000001 93.83112000000001 109.58563000000001 93.85022000000001 L 109.58563000000001 93.84863000000001 Z" stroke-linecap="round" />
</g>
<g transform="matrix(1 0 0 1 38.38 200.6)" id="5ajMvKnoF2IEhZJRx6YEc"  >
<path style="stroke: none; stroke-width: 1; stroke-dasharray: none; stroke-linecap: butt; stroke-dashoffset: 0; stroke-linejoin: miter; stroke-miterlimit: 4; fill: rgb(14,20,30); fill-rule: nonzero; opacity: 1;" vector-effect="non-scaling-stroke"  transform=" translate(-27, -27)" d="M 0 27 C 0 12.08831 12.08831 0 27 0 C 41.91169 0 54 12.08831 54 27 C 54 41.91169 41.91169 54 27 54 C 12.08831 54 0 41.91169 0 27 z" stroke-linecap="round" />
</g>
<g transform="matrix(1 0 0 1 38.38 200.6)" id="GvvFqTW8SB4p71d3fKQZ9"  >
<path style="stroke: none; stroke-width: 1; stroke-dasharray: none; stroke-linecap: butt; stroke-dashoffset: 0; stroke-linejoin: miter; stroke-miterlimit: 4; fill: rgb(255,255,255); fill-rule: nonzero; opacity: 1;" vector-effect="non-scaling-stroke"  transform=" translate(-27.72, -142.22)" d="M 23.36215 151.74693 C 32.20907 151.74693 37.04864 144.41649999999998 37.04864 138.0707 C 37.04864 137.86557 37.04864 137.65751 37.03985 137.45237999999998 C 37.982060000000004 136.77030999999997 38.79525 135.92585999999997 39.441320000000005 134.9586 C 38.56119 135.34665999999999 37.628510000000006 135.60242 36.673550000000006 135.71758 C 37.679460000000006 135.11632 38.432860000000005 134.17028 38.79370000000001 133.0553 C 37.84862000000001 133.61518999999998 36.81423000000001 134.00823 35.73581000000001 134.21721 C 33.91564000000001 132.27875 30.86867000000001 132.18285 28.93021000000001 134.00302 C 27.67841000000001 135.17843 27.14736000000001 136.93157 27.53651000000001 138.60404 C 23.66883000000001 138.4101 20.06512000000001 136.58402 17.62146000000001 133.57985 C 16.34840000000001 135.77859999999998 17.00107000000001 138.58802 19.11304000000001 140.00038 C 18.35046000000001 139.97447 17.60464000000001 139.7697 16.93574000000001 139.40258 L 16.93574000000001 139.46851 C 16.93845000000001 141.75655 18.55012000000001 143.72705000000002 20.79216000000001 144.18354000000002 C 20.37936000000001 144.29726000000002 19.95293000000001 144.35395000000003 19.52476000000001 144.35204000000002 C 19.22290000000001 144.35296000000002 18.92165000000001 144.32499 18.62512000000001 144.26852000000002 C 19.25531000000001 146.22728000000004 21.06159000000001 147.56830000000002 23.11891000000001 147.60479000000004 C 21.41422000000001 148.94370000000004 19.30850000000001 149.66986000000003 17.14087000000001 149.66634000000005 C 16.75892000000001 149.66795000000005 16.37724000000001 149.64593000000005 15.99801000000001 149.60041000000004 C 18.19804000000001 151.00300000000004 20.75304000000001 151.74774000000005 23.36214000000001 151.74694000000005 Z" stroke-linecap="round" />
</g>
<g transform="matrix(1 0 0 1 135.59 328.92)" id="B7BeDX7TBdSuMmNsuv37Z"  >
<path style="stroke: none; stroke-width: 1; stroke-dasharray: none; stroke-linecap: butt; stroke-dashoffset: 0; stroke-linejoin: miter; stroke-miterlimit: 4; fill: rgb(14,20,30); fill-rule: nonzero; opacity: 1;" vector-effect="non-scaling-stroke"  transform=" translate(-27, -27)" d="M 0 27 C 0 12.08831 12.08831 0 27 0 C 41.91169 0 54 12.08831 54 27 C 54 41.91169 41.91169 54 27 54 C 12.08831 54 0 41.91169 0 27 z" stroke-linecap="round" />
</g>
<g transform="matrix(1 0 0 1 135.59 328.92)" id="ZXrfhqJTx9Dg-2w0yErof"  >
<path style="stroke: none; stroke-width: 1; stroke-dasharray: none; stroke-linecap: butt; stroke-dashoffset: 0; stroke-linejoin: miter; stroke-miterlimit: 4; fill: rgb(255,255,255); fill-rule: nonzero; opacity: 1;" vector-effect="non-scaling-stroke"  transform=" translate(-124.93, -270.54)" d="M 124.92586 259.02023 C 121.80085 259.02023 121.40789 259.03462 120.18005 259.08932000000004 C 118.95221 259.1469 118.1159 259.33978 117.38323 259.62479 C 116.61471 259.91386 115.91859 260.36729 115.34355 260.95339 C 114.75780999999999 261.52873 114.30443 262.22475000000003 114.01495 262.99307 C 113.72994 263.72429999999997 113.53562 264.56205 113.47948 265.78557 C 113.42478 267.01629 113.41038999999999 267.40781 113.41038999999999 270.53714 C 113.41038999999999 273.66359 113.42478 274.05511 113.47948 275.28295 C 113.53706 276.50935000000004 113.72994 277.34566 114.01495 278.07833000000005 C 114.31003 278.83547000000004 114.703 279.47746000000006 115.34355 280.11801 C 115.98266 280.75856000000005 116.62464999999999 281.15296 117.38179 281.44661 C 118.1159 281.73162 118.95076999999999 281.92594 120.17716999999999 281.98208 C 121.40644999999999 282.03678 121.79796999999999 282.05117 124.92585999999999 282.05117 C 128.05374999999998 282.05117 128.44383 282.03678 129.67310999999998 281.98208 C 130.89807 281.9245 131.73726 281.73162 132.46992999999998 281.44661 C 133.23796 281.1574 133.93356999999997 280.70397 134.50816999999998 280.11801 C 135.14871999999997 279.47746 135.54167999999999 278.83548 135.83676999999997 278.07833000000005 C 136.12033999999997 277.34566000000007 136.31465999999998 276.50935000000004 136.37223999999998 275.28295 C 136.42693999999997 274.05511 136.44132999999997 273.66359000000006 136.44132999999997 270.5357 C 136.44132999999997 267.40781 136.42693999999997 267.01629 136.37223999999998 265.78701 C 136.31465999999998 264.56205 136.12033999999997 263.7243 135.83676999999997 262.99307 C 135.54732999999996 262.22474 135.09394999999998 261.5287 134.50816999999998 260.95339 C 133.93330999999998 260.36707 133.23713999999998 259.91361 132.46848999999997 259.62479 C 131.73438 259.33978 130.89663 259.14546 129.67166999999998 259.08932000000004 C 128.44239 259.03462 128.05230999999998 259.02023 124.92297999999998 259.02023 L 124.92585999999999 259.02023 Z M 123.89379 261.09589000000005 L 124.9273 261.09589000000005 C 128.00193000000002 261.09589000000005 128.36611 261.10597000000007 129.57955 261.16210000000007 C 130.70231 261.2124800000001 131.31263 261.40105000000005 131.71855000000002 261.5579400000001 C 132.25546000000003 261.7666600000001 132.63979000000003 262.0171200000001 133.04283 262.42016000000007 C 133.44586999999999 262.82320000000004 133.69489000000002 263.2060900000001 133.90361000000001 263.74444000000005 C 134.06195000000002 264.14892000000003 134.24907000000002 264.75924000000003 134.29945 265.88200000000006 C 134.35559 267.09544000000005 134.3671 267.4596200000001 134.3671 270.53281000000004 C 134.3671 273.606 134.35558 273.97162000000003 134.29945 275.18506 C 134.24907000000002 276.30782000000005 134.06050000000002 276.91670000000005 133.90361000000001 277.32262000000003 C 133.71899000000002 277.82262000000003 133.42432000000002 278.27471 133.04139 278.64546 C 132.63835 279.0485 132.25546 279.29752 131.71711000000002 279.50624 C 131.31407000000002 279.66458 130.70375 279.8517 129.57955 279.90352 C 128.36611000000002 279.95822000000004 128.00193000000002 279.97117000000003 124.92730000000002 279.97117000000003 C 121.85267000000002 279.97117000000003 121.48705000000001 279.95822000000004 120.27361000000002 279.90352 C 119.15085000000002 279.8517 118.54197000000002 279.66457 118.13605000000003 279.50624 C 117.63585000000002 279.32187999999996 117.18333000000003 279.02774 116.81177000000002 278.64546 C 116.42852000000002 278.27413 116.13340000000002 277.82161 115.94811000000003 277.32118 C 115.79121000000004 276.91670000000005 115.60265000000003 276.30638000000005 115.55227000000002 275.18362 C 115.49757000000002 273.97018 115.48606000000002 273.606 115.48606000000002 270.52993000000004 C 115.48606000000002 267.4553 115.49758000000003 267.09256000000005 115.55227000000002 265.87912000000006 C 115.60409000000003 264.75636000000003 115.79122000000002 264.1460400000001 115.94955000000002 263.74012000000005 C 116.15827000000002 263.20321000000007 116.40873000000002 262.81888000000004 116.81177000000001 262.41584000000006 C 117.21481000000001 262.0128000000001 117.5977 261.76378000000005 118.13605000000001 261.5550600000001 C 118.54197 261.3967200000001 119.15085 261.2096000000001 120.27361 261.15778000000006 C 121.33591 261.10884000000004 121.74759 261.0944400000001 123.89378 261.09301000000005 L 123.89378 261.09589000000005 Z M 131.07368 263.00746000000004 C 130.3105 263.00746000000004 129.69182 263.62614 129.69182 264.38932000000005 C 129.69182 265.1525000000001 130.31050000000002 265.7711800000001 131.07368 265.7711800000001 L 131.07368 265.7711800000001 C 131.83686 265.7711800000001 132.45553999999998 265.1525000000001 132.45553999999998 264.38932000000005 C 132.45553999999998 263.62614 131.83685999999997 263.00746000000004 131.07368 263.00746000000004 Z M 124.9273 264.62250000000006 C 121.66114 264.5715400000001 118.97208 267.17798000000005 118.92112 270.44414000000006 C 118.87016 273.7103000000001 121.47659 276.39936000000006 124.74276 276.45032000000003 C 124.80427 276.45128000000005 124.86579 276.45128000000005 124.92731 276.45032000000003 C 128.19347000000002 276.39935 130.7999 273.71029000000004 130.74894 270.44413000000003 C 130.69909 267.24981 128.12163 264.67235000000005 124.92731 264.6225 Z M 124.9273 266.6967200000001 C 127.0475 266.69583000000006 128.76699 268.41386000000006 128.76789 270.5340700000001 C 128.76879 272.65428000000014 127.05075 274.3737600000001 124.93054 274.3746600000001 L 124.92729999999999 274.3746600000001 C 122.80709999999999 274.3746600000001 121.08832999999998 272.65590000000014 121.08832999999998 270.5356900000001 C 121.08832999999998 268.41548000000006 122.80708999999999 266.6967200000001 124.92729999999999 266.6967200000001 Z" stroke-linecap="round" />
</g>
</svg>