<?xml version="1.0" encoding="UTF-8" standalone="no" ?>
<!DOCTYPE svg PUBLIC "-//W3C//DTD SVG 1.1//EN" "http://www.w3.org/Graphics/SVG/1.1/DTD/svg11.dtd">
<svg xmlns="http://www.w3.org/2000/svg" xmlns:xlink="http://www.w3.org/1999/xlink" version="1.1" width="500" height="500" viewBox="0 0 500 500" xml:space="preserve">
<desc>Created with Fabric.js 4.6.0</desc>
<defs>
</defs>
<g transform="matrix(0.96 0 0 0.96 250 250)" id="Ue0VPpjz9z2alkKFCBons"  >
<g style="" vector-effect="non-scaling-stroke"   >
		<g transform="matrix(0.77 0 0 0.77 0 -138.79)" id="tHyeY3MBYv2ij0xpEsTWy"  >
<path style="stroke: none; stroke-width: 1; stroke-dasharray: none; stroke-linecap: butt; stroke-dashoffset: 0; stroke-linejoin: miter; stroke-miterlimit: 4; fill: rgb(63,61,86); fill-rule: nonzero; opacity: 1;" vector-effect="non-scaling-stroke"  transform=" translate(-600.05, -269.49)" d="M 891.62348 313.02059 L 308.47961 313.02059 C 291.9585326340747 313.00192452975597 278.5702099499816 299.61359737216117 278.55154999999996 283.09252000000004 L 278.55154999999996 255.88519 C 278.5702099499816 239.36411262783886 291.9585326340747 225.97578547024403 308.47961 225.95712 L 891.62348 225.95712 C 908.1445612711673 225.97577996061418 921.5328900393858 239.3641087288327 921.55155 255.88519 L 921.55155 283.09252 C 921.5328900393858 299.6136012711673 908.1445612711673 313.00193003938585 891.62348 313.02059 Z M 308.47961 227.77094 C 292.9598345272664 227.78853621862697 280.3829606983736 240.36541452100857 280.36537 255.88519 L 280.36537 283.09252 C 280.3829606983736 298.6122954789914 292.9598345272664 311.18917378137303 308.47961 311.20677 L 891.62348 311.20677 C 907.1432554727336 311.18917378137303 919.7201293016263 298.6122954789914 919.73772 283.09252000000004 L 919.73772 255.88519 C 919.7201293016263 240.36541452100857 907.1432554727335 227.78853621862697 891.62348 227.77094 Z" stroke-linecap="round" />
</g>
		<g transform="matrix(0.77 0 0 0.77 -41.2 -138.79)" id="XjWIQoJ4BfOhIwVNappEX"  >
<path style="stroke: none; stroke-width: 1; stroke-dasharray: none; stroke-linecap: butt; stroke-dashoffset: 0; stroke-linejoin: miter; stroke-miterlimit: 4; fill: rgb(140,142,145); fill-rule: nonzero; opacity: 1;" vector-effect="non-scaling-stroke"  transform=" translate(-210.86, -17.23)" d="M 0 34.46262 L 0 0 L 421.71368 0 L 421.71368 34.46262 z" stroke-linecap="round" />
</g>
		<g transform="matrix(0.77 0 0 0.77 -2.09 -22.42)" id="4XnZOul7bQ8W06IAcW--J"  >
<path style="stroke: none; stroke-width: 1; stroke-dasharray: none; stroke-linecap: butt; stroke-dashoffset: 0; stroke-linejoin: miter; stroke-miterlimit: 4; fill: rgb(14,20,30); fill-rule: nonzero; opacity: 1;" vector-effect="non-scaling-stroke"  transform=" translate(-210.86, -17.23)" d="M 0 34.46262 L 0 0 L 421.71368 0 L 421.71368 34.46262 z" stroke-linecap="round" />
</g>
		<g transform="matrix(0.77 0 0 0.77 -2.09 61.94)" id="FF05NV9grCPDwjxZsTbOo"  >
<path style="stroke: none; stroke-width: 1; stroke-dasharray: none; stroke-linecap: butt; stroke-dashoffset: 0; stroke-linejoin: miter; stroke-miterlimit: 4; fill: rgb(140,142,145); fill-rule: nonzero; opacity: 1;" vector-effect="non-scaling-stroke"  transform=" translate(-210.86, -17.23)" d="M 0 34.46262 L 0 0 L 421.71368 0 L 421.71368 34.46262 z" stroke-linecap="round" />
</g>
		<g transform="matrix(0.77 0 0 0.77 -2.09 146.31)" id="ye7TqzbXBgJ3D31QdVNeP"  >
<path style="stroke: none; stroke-width: 1; stroke-dasharray: none; stroke-linecap: butt; stroke-dashoffset: 0; stroke-linejoin: miter; stroke-miterlimit: 4; fill: rgb(140,142,145); fill-rule: nonzero; opacity: 1;" vector-effect="non-scaling-stroke"  transform=" translate(-210.86, -17.23)" d="M 0 34.46262 L 0 0 L 421.71368 0 L 421.71368 34.46262 z" stroke-linecap="round" />
</g>
		<g transform="matrix(0.77 0 0 0.77 196.5 -129.63)" id="HQIBHBxrYI3yOx7Ahf12f"  >
<path style="stroke: none; stroke-width: 1; stroke-dasharray: none; stroke-linecap: butt; stroke-dashoffset: 0; stroke-linejoin: miter; stroke-miterlimit: 4; fill: rgb(14,20,30); fill-rule: nonzero; opacity: 1;" vector-effect="non-scaling-stroke"  transform=" translate(-855.24, -281.4)" d="M 864.86391 288.10449 C 864.0041601609539 289.33231034085793 862.3118682411117 289.6307257106433 861.08401 288.77103 L 846.27734 278.46828 C 845.0494894984812 277.6085493756334 844.7510693756334 275.91623050151884 845.6107999999999 274.68838000000005 C 846.4705306243666 273.4605294984812 848.1628494984811 273.1621093756334 849.3906999999999 274.02184 L 864.19737 284.32459 C 865.4251953821861 285.18433662736174 865.7236115464306 286.8766330525239 864.86391 288.10449 Z" stroke-linecap="round" />
</g>
		<g transform="matrix(0.77 0 0 0.77 178.81 -141.98)" id="P5tiaVhcGdcqgTzyOLXVm"  >
<path style="stroke: none; stroke-width: 1; stroke-dasharray: none; stroke-linecap: butt; stroke-dashoffset: 0; stroke-linejoin: miter; stroke-miterlimit: 4; fill: rgb(14,20,30); fill-rule: nonzero; opacity: 1;" vector-effect="non-scaling-stroke"  transform=" translate(-832.27, -265.35)" d="M 848.054 276.39907 C 841.9508338146533 285.1155014312527 829.937176535082 287.2339720111439 821.2207445378648 281.1308066340975 C 812.5043125406477 275.027641257051 810.3858408466948 263.01398417393176 816.4890054154409 254.29755161075022 C 822.5921699841871 245.58111904756868 834.6058268708542 243.4626462395542 843.32226 249.56581 C 852.0277150315422 255.67596645052006 854.1444584436067 267.67982260686244 848.054 276.39907 Z M 820.43463 257.06024 C 815.8572901580337 263.5975495582946 817.4461512360117 272.6077521097775 823.9834527875418 277.1851033869009 C 830.5207543390719 281.7624546640243 839.5309596698016 280.1736093468361 844.1083223820682 273.63631580209045 C 848.6856850943348 267.0990222573448 847.0968555379411 258.08881414739574 840.55957 253.51144000000002 C 834.0201361668334 248.94357039578333 825.0172217254883 250.53112847139914 820.43461 257.06024 Z" stroke-linecap="round" />
</g>
		<g transform="matrix(0.77 0 0 0.77 0 2.8)" id="NsGvJ9uFaZrsd1T5rUTnK"  >
<path style="stroke: none; stroke-width: 1; stroke-dasharray: none; stroke-linecap: butt; stroke-dashoffset: 0; stroke-linejoin: miter; stroke-miterlimit: 4; fill: rgb(63,61,86); fill-rule: nonzero; opacity: 1;" vector-effect="non-scaling-stroke"  transform=" translate(-600.05, -453.38)" d="M 874.84562 454.28942 L 325.25747 454.28942 C 324.75659743753096 454.28942 324.35056000000003 453.883382562469 324.35056000000003 453.38251 C 324.35056000000003 452.88163743753097 324.75659743753096 452.4756 325.25747 452.4756 L 874.84562 452.4756 C 875.346492562469 452.4756 875.7525300000001 452.88163743753097 875.7525300000001 453.38250999999997 C 875.7525300000001 453.883382562469 875.346492562469 454.28942 874.84562 454.28942 Z" stroke-linecap="round" />
</g>
		<g transform="matrix(0.77 0 0 0.77 0 87.21)" id="0xV7eRK5P0-9MswuOZF21"  >
<path style="stroke: none; stroke-width: 1; stroke-dasharray: none; stroke-linecap: butt; stroke-dashoffset: 0; stroke-linejoin: miter; stroke-miterlimit: 4; fill: rgb(63,61,86); fill-rule: nonzero; opacity: 1;" vector-effect="non-scaling-stroke"  transform=" translate(-600.05, -563)" d="M 874.84562 563.90864 L 325.25747 563.90864 C 324.75659750782114 563.9086399005947 324.35056017998926 563.5026024921789 324.35056017998926 563.00173 C 324.35056017998926 562.5008575078211 324.75659750782114 562.0948200994053 325.25747 562.09482 L 874.84562 562.09482 C 875.3464924921789 562.0948200994053 875.7525298200109 562.5008575078211 875.7525298200109 563.00173 C 875.7525298200109 563.5026024921789 875.3464924921789 563.9086399005947 874.84562 563.90864 Z" stroke-linecap="round" />
</g>
		<g transform="matrix(0.77 0 0 0.77 0 171.62)" id="RJC5Dt_5nRXLR4IdeZh8u"  >
<path style="stroke: none; stroke-width: 1; stroke-dasharray: none; stroke-linecap: butt; stroke-dashoffset: 0; stroke-linejoin: miter; stroke-miterlimit: 4; fill: rgb(63,61,86); fill-rule: nonzero; opacity: 1;" vector-effect="non-scaling-stroke"  transform=" translate(-600.05, -672.62)" d="M 874.84562 673.52741 L 325.25747 673.52741 C 324.75659750782114 673.5274099005948 324.35056017998926 673.1213724921789 324.35056017998926 672.6205 C 324.35056017998926 672.1196275078212 324.75659750782114 671.7135900994053 325.25747 671.7135900000001 L 874.84562 671.7135900000001 C 875.169627779013 671.7135899356961 875.4690233408678 671.88644599111 875.6310272489372 672.1670449480416 C 875.7930311570067 672.4476439049732 875.7930311570067 672.7933560950269 875.6310272489372 673.0739550519585 C 875.4690233408678 673.3545540088901 875.169627779013 673.527410064304 874.84562 673.52741 Z" stroke-linecap="round" />
</g>
</g>
</g>
</svg>