<?xml version="1.0" encoding="UTF-8" standalone="no" ?>
<!DOCTYPE svg PUBLIC "-//W3C//DTD SVG 1.1//EN" "http://www.w3.org/Graphics/SVG/1.1/DTD/svg11.dtd">
<svg xmlns="http://www.w3.org/2000/svg" xmlns:xlink="http://www.w3.org/1999/xlink" version="1.1" width="500" height="500" viewBox="0 0 500 500" xml:space="preserve">
<desc>Created with Fabric.js 4.6.0</desc>
<defs>
</defs>
<g transform="matrix(0.61 0 0 0.61 219.92 317.05)" id="x_ZFMRKFbxB-IyCaBYXiS"  >
<path style="stroke: none; stroke-width: 1; stroke-dasharray: none; stroke-linecap: butt; stroke-dashoffset: 0; stroke-linejoin: miter; stroke-miterlimit: 4; fill: rgb(140,142,145); fill-rule: nonzero; opacity: 1;" vector-effect="non-scaling-stroke"  transform=" translate(-351.99, -363.53)" d="M 617.77271 503.43022 C 617.7689899999999 503.96245000000005 617.5572599999999 504.47209000000004 617.18268 504.85020000000003 C 616.80847 505.22325 616.30109 505.43199000000004 615.77271 505.43022 L 607.73273 505.43022 C 606.6319599999999 505.434 605.73651 504.54478 605.73273 503.44401 L 605.73273 260.2902 C 605.73273 254.93021000000002 603.93274 250.58021000000002 601.72272 250.57020000000003 L 101.23273 250.57020000000003 C 99.01273 250.58015000000003 97.22272000000001 254.93019000000004 97.21274 260.2902 L 97.21274 501.94016 C 97.20931999999999 502.96963999999997 96.42728 503.82944 95.40274 503.93014999999997 C 93.78273999999999 504.09011999999996 92.16274999999999 504.23013999999995 90.55273 504.36013999999994 C 90.51272 504.36013999999994 90.47274 504.37014999999997 90.43272999999999 504.37014999999997 C 89.55273 504.45016999999996 88.67272 504.51016 87.79271999999999 504.58016999999995 L 87.78271 504.58016999999995 C 87.32271999999999 503.75014999999996 86.88271999999999 502.90018 86.4327 502.05013999999994 C 86.28844 501.76131999999996 86.21316 501.4429599999999 86.2127 501.12014999999997 L 86.2127 247.68016 C 86.2127 246.20015 86.2727 244.71016 86.3727 243.24016 C 86.51536999999999 241.22157 86.76574 239.21205 87.1227 237.22017 C 88.81269999999999 227.93016 92.63270999999999 221.64018 96.97270999999999 221.62016 L 605.97271 221.62016 C 606.60613 221.62437 607.23211 221.75706 607.81274 222.01017 C 608.66558 222.38757999999999 609.43664 222.92765 610.08276 223.60017 C 610.95984 224.51197 611.7099000000001 225.53788 612.31274 226.65016 C 614.45269 230.42015 615.98272 236.04017 616.52276 242.58015 C 616.52276 242.64015 616.5327699999999 242.70015 616.5327699999999 242.76014 C 616.6727799999999 244.38014 616.7427899999999 246.03013 616.7327799999999 247.68015 L 616.8727899999999 269.11014 L 616.9628199999999 281.89014 L 617.2328399999999 321.99014999999997 L 617.3328199999999 336.23013999999995 L 617.7726999999999 503.43021 Z" stroke-linecap="round" />
</g>
<g transform="matrix(0.61 0 0 0.61 253.18 210.67)" id="hFNecKx8GodGNQRx3-NrE"  >
<path style="stroke: none; stroke-width: 1; stroke-dasharray: none; stroke-linecap: butt; stroke-dashoffset: 0; stroke-linejoin: miter; stroke-miterlimit: 4; fill: rgb(140,142,145); fill-rule: nonzero; opacity: 1;" vector-effect="non-scaling-stroke"  transform=" translate(-406.52, -189.14)" d="M 432.02362 147.48647 L 381.018 147.48647 C 379.51543999999996 147.48873 378.29907 148.70827 378.30064999999996 150.2108 L 378.30064999999996 230.78462000000002 L 434.74791999999997 230.78462000000002 L 434.74791999999997 150.21077000000002 C 434.74870999999996 148.70696000000004 433.53027 147.48726000000002 432.02642 147.48647000000003 L 432.02360999999996 147.48647000000003 Z M 406.69244 193.26754 C 403.37248999999997 193.25207 400.68498999999997 190.56459999999998 400.66949 187.24465 L 400.66949 177.95116000000002 C 400.66949 174.62481000000002 403.36602 171.92824000000002 406.69238 171.92824000000002 C 410.01874000000004 171.92824000000002 412.71533 174.62480000000002 412.71533 177.95116000000002 L 412.71533 187.24465 C 412.69989 190.5646 410.01239 193.2521 406.69244 193.26754 Z" stroke-linecap="round" />
</g>
<g transform="matrix(0.61 0 0 0.61 253.18 237.34)" id="NY_lMg4UL9valipyVFXx7"  >
<path style="stroke: none; stroke-width: 1; stroke-dasharray: none; stroke-linecap: butt; stroke-dashoffset: 0; stroke-linejoin: miter; stroke-miterlimit: 4; fill: rgb(63,61,86); fill-rule: nonzero; opacity: 1;" vector-effect="non-scaling-stroke"  transform=" translate(-406.52, -232.85)" d="M 378.12561 228.20735 L 378.12561 235.98112 C 378.12732 236.81974 378.80676 237.49916000000002 379.64539 237.50083 L 433.40332 237.50083 C 434.24091 237.49662 434.91882 236.81867 434.92303 235.98112 L 434.92303 228.20735 L 378.12561 228.20735 Z" stroke-linecap="round" />
</g>
<g transform="matrix(0.61 0 0 0.61 253.76 157.74)" id="FBeH2m0h5EznvTjkAq77P"  >
<path style="stroke: none; stroke-width: 1; stroke-dasharray: none; stroke-linecap: butt; stroke-dashoffset: 0; stroke-linejoin: miter; stroke-miterlimit: 4; fill: rgb(230,230,230); fill-rule: nonzero; opacity: 1;" vector-effect="non-scaling-stroke"  transform=" translate(-407.47, -102.37)" d="M 516.48425 21.74191 L 298.45525999999995 21.74191 C 294.55517 21.74812 291.39507999999995 24.9082 291.38884999999993 28.80829 L 291.38884999999993 175.9352 C 291.39259999999996 179.83632 294.55412999999993 182.99785 298.45525999999995 183.00158000000002 L 516.48425 183.00158000000002 C 520.38537 182.99786000000003 523.54693 179.83633000000003 523.55066 175.9352 L 523.55066 28.8083 C 523.54443 24.90821 520.38434 21.74812 516.48425 21.741909999999997 Z" stroke-linecap="round" />
</g>
<g transform="matrix(0.61 0 0 0.61 253.76 157.74)" id="7IHAwd3tOQw4Axxy8ifnR"  >
<path style="stroke: none; stroke-width: 1; stroke-dasharray: none; stroke-linecap: butt; stroke-dashoffset: 0; stroke-linejoin: miter; stroke-miterlimit: 4; fill: rgb(0,0,0); fill-opacity: 0.8; fill-rule: nonzero; opacity: 1;" vector-effect="non-scaling-stroke"  transform=" translate(-407.47, -102.37)" d="M 514.66437 26.84586 L 300.27685999999994 26.84586 C 298.18850999999995 26.850389999999997 296.49792999999994 28.54451 296.49774999999994 30.632859999999997 L 296.49774999999994 174.11305 C 296.50131999999996 176.19870999999998 298.1911999999999 177.88859 300.27685999999994 177.89216 L 514.66437 177.89216 C 516.75 177.88859 518.43988 176.19870999999998 518.4434799999999 174.11305 L 518.4434799999999 30.63283 C 518.4432999999999 28.5445 516.7526799999999 26.850389999999997 514.66437 26.84586 Z" stroke-linecap="round" />
</g>
<g transform="matrix(0.61 0 0 0.61 254.78 237.53)" id="QPqE03h3S5Ab2UMJGgMGz"  >
<path style="stroke: none; stroke-width: 1; stroke-dasharray: none; stroke-linecap: butt; stroke-dashoffset: 0; stroke-linejoin: miter; stroke-miterlimit: 4; fill: rgb(204,204,204); fill-rule: nonzero; opacity: 1;" vector-effect="non-scaling-stroke"  transform=" translate(-409.13, -233.16)" d="M 472.90534 240.20592 L 345.35645 240.20592 C 344.06061 240.20592 343.01014 239.15541 343.01014 237.85958 C 343.01014 237.69717 343.02698999999996 237.53521 343.06043 237.37627 L 345.03956 227.97655 C 345.27162 226.89308 346.22718 226.11766 347.33521 226.11363 L 470.92652 226.11363 C 472.03454999999997 226.11766 472.99012 226.89308 473.22217 227.97655 L 475.20136 237.37627 C 475.46827 238.64434 474.65668 239.88869 473.38868 240.1556 C 473.22974000000005 240.18904999999998 473.06776 240.20592 472.90534 240.20592 Z" stroke-linecap="round" />
</g>
<g transform="matrix(0.61 0 0 0.61 218.83 234.98)" id="vvvN4H0VcAKOQKJ6yDPeT"  >
<path style="stroke: none; stroke-width: 1; stroke-dasharray: none; stroke-linecap: butt; stroke-dashoffset: 0; stroke-linejoin: miter; stroke-miterlimit: 4; fill: rgb(230,230,230); fill-rule: nonzero; opacity: 1;" vector-effect="non-scaling-stroke"  transform=" translate(-1.96, -1.18)" d="M 0 2.35703 L 0 0 L 3.92838 0 L 3.92838 2.35703 z" stroke-linecap="round" />
</g>
<g transform="matrix(0.61 0 0 0.61 223.62 234.98)" id="xvZWEnbe5lasPnjr-XMZT"  >
<path style="stroke: none; stroke-width: 1; stroke-dasharray: none; stroke-linecap: butt; stroke-dashoffset: 0; stroke-linejoin: miter; stroke-miterlimit: 4; fill: rgb(230,230,230); fill-rule: nonzero; opacity: 1;" vector-effect="non-scaling-stroke"  transform=" translate(-1.96, -1.18)" d="M 0 2.35703 L 0 0 L 3.92838 0 L 3.92838 2.35703 z" stroke-linecap="round" />
</g>
<g transform="matrix(0.61 0 0 0.61 228.41 234.98)" id="JCWFlTHj5SA2PPCfJcvKp"  >
<path style="stroke: none; stroke-width: 1; stroke-dasharray: none; stroke-linecap: butt; stroke-dashoffset: 0; stroke-linejoin: miter; stroke-miterlimit: 4; fill: rgb(230,230,230); fill-rule: nonzero; opacity: 1;" vector-effect="non-scaling-stroke"  transform=" translate(-1.96, -1.18)" d="M 0 2.35703 L 0 0 L 3.92838 0 L 3.92838 2.35703 z" stroke-linecap="round" />
</g>
<g transform="matrix(0.61 0 0 0.61 233.21 234.98)" id="5RB7QNpPXTrFZlLIOH-ad"  >
<path style="stroke: none; stroke-width: 1; stroke-dasharray: none; stroke-linecap: butt; stroke-dashoffset: 0; stroke-linejoin: miter; stroke-miterlimit: 4; fill: rgb(230,230,230); fill-rule: nonzero; opacity: 1;" vector-effect="non-scaling-stroke"  transform=" translate(-1.96, -1.18)" d="M 0 2.35703 L 0 0 L 3.92838 0 L 3.92838 2.35703 z" stroke-linecap="round" />
</g>
<g transform="matrix(0.61 0 0 0.61 238 234.98)" id="UlqTQwNaNFTk2lmCK_Z1v"  >
<path style="stroke: none; stroke-width: 1; stroke-dasharray: none; stroke-linecap: butt; stroke-dashoffset: 0; stroke-linejoin: miter; stroke-miterlimit: 4; fill: rgb(230,230,230); fill-rule: nonzero; opacity: 1;" vector-effect="non-scaling-stroke"  transform=" translate(-1.96, -1.18)" d="M 0 2.35703 L 0 0 L 3.92838 0 L 3.92838 2.35703 z" stroke-linecap="round" />
</g>
<g transform="matrix(0.61 0 0 0.61 242.79 234.98)" id="6e_230vuZBZQcJBo7zZRi"  >
<path style="stroke: none; stroke-width: 1; stroke-dasharray: none; stroke-linecap: butt; stroke-dashoffset: 0; stroke-linejoin: miter; stroke-miterlimit: 4; fill: rgb(230,230,230); fill-rule: nonzero; opacity: 1;" vector-effect="non-scaling-stroke"  transform=" translate(-1.96, -1.18)" d="M 0 2.35703 L 0 0 L 3.92838 0 L 3.92838 2.35703 z" stroke-linecap="round" />
</g>
<g transform="matrix(0.61 0 0 0.61 247.58 234.98)" id="0_dvCCpv-nKGnjuNLc2Wq"  >
<path style="stroke: none; stroke-width: 1; stroke-dasharray: none; stroke-linecap: butt; stroke-dashoffset: 0; stroke-linejoin: miter; stroke-miterlimit: 4; fill: rgb(230,230,230); fill-rule: nonzero; opacity: 1;" vector-effect="non-scaling-stroke"  transform=" translate(-1.96, -1.18)" d="M 0 2.35703 L 0 0 L 3.92838 0 L 3.92838 2.35703 z" stroke-linecap="round" />
</g>
<g transform="matrix(0.61 0 0 0.61 252.38 234.98)" id="ap65igeAGO9EAmKU_QZxb"  >
<path style="stroke: none; stroke-width: 1; stroke-dasharray: none; stroke-linecap: butt; stroke-dashoffset: 0; stroke-linejoin: miter; stroke-miterlimit: 4; fill: rgb(230,230,230); fill-rule: nonzero; opacity: 1;" vector-effect="non-scaling-stroke"  transform=" translate(-1.96, -1.18)" d="M 0 2.35703 L 0 0 L 3.92838 0 L 3.92838 2.35703 z" stroke-linecap="round" />
</g>
<g transform="matrix(0.61 0 0 0.61 257.17 234.98)" id="VI3WU8TzN9VwmmkX-nRd8"  >
<path style="stroke: none; stroke-width: 1; stroke-dasharray: none; stroke-linecap: butt; stroke-dashoffset: 0; stroke-linejoin: miter; stroke-miterlimit: 4; fill: rgb(230,230,230); fill-rule: nonzero; opacity: 1;" vector-effect="non-scaling-stroke"  transform=" translate(-1.96, -1.18)" d="M 0 2.35703 L 0 0 L 3.92838 0 L 3.92838 2.35703 z" stroke-linecap="round" />
</g>
<g transform="matrix(0.61 0 0 0.61 261.96 234.98)" id="oculKXV4DtRH8zozBKZZy"  >
<path style="stroke: none; stroke-width: 1; stroke-dasharray: none; stroke-linecap: butt; stroke-dashoffset: 0; stroke-linejoin: miter; stroke-miterlimit: 4; fill: rgb(230,230,230); fill-rule: nonzero; opacity: 1;" vector-effect="non-scaling-stroke"  transform=" translate(-1.96, -1.18)" d="M 0 2.35703 L 0 0 L 3.92838 0 L 3.92838 2.35703 z" stroke-linecap="round" />
</g>
<g transform="matrix(0.61 0 0 0.61 266.76 234.98)" id="hoIrHxGbe4j05LkMmgadD"  >
<path style="stroke: none; stroke-width: 1; stroke-dasharray: none; stroke-linecap: butt; stroke-dashoffset: 0; stroke-linejoin: miter; stroke-miterlimit: 4; fill: rgb(230,230,230); fill-rule: nonzero; opacity: 1;" vector-effect="non-scaling-stroke"  transform=" translate(-1.96, -1.18)" d="M 0 2.35703 L 0 0 L 3.92838 0 L 3.92838 2.35703 z" stroke-linecap="round" />
</g>
<g transform="matrix(0.61 0 0 0.61 271.55 234.98)" id="uaaI5NaylSoaAKuoZnCVg"  >
<path style="stroke: none; stroke-width: 1; stroke-dasharray: none; stroke-linecap: butt; stroke-dashoffset: 0; stroke-linejoin: miter; stroke-miterlimit: 4; fill: rgb(230,230,230); fill-rule: nonzero; opacity: 1;" vector-effect="non-scaling-stroke"  transform=" translate(-1.96, -1.18)" d="M 0 2.35703 L 0 0 L 3.92838 0 L 3.92838 2.35703 z" stroke-linecap="round" />
</g>
<g transform="matrix(0.61 0 0 0.61 276.34 234.98)" id="IMvioxx3jWSXzETEubdOa"  >
<path style="stroke: none; stroke-width: 1; stroke-dasharray: none; stroke-linecap: butt; stroke-dashoffset: 0; stroke-linejoin: miter; stroke-miterlimit: 4; fill: rgb(230,230,230); fill-rule: nonzero; opacity: 1;" vector-effect="non-scaling-stroke"  transform=" translate(-1.96, -1.18)" d="M 0 2.35703 L 0 0 L 3.92838 0 L 3.92838 2.35703 z" stroke-linecap="round" />
</g>
<g transform="matrix(0.61 0 0 0.61 281.13 234.98)" id="7BR7Rf3VmHGShvCFZ9juu"  >
<path style="stroke: none; stroke-width: 1; stroke-dasharray: none; stroke-linecap: butt; stroke-dashoffset: 0; stroke-linejoin: miter; stroke-miterlimit: 4; fill: rgb(230,230,230); fill-rule: nonzero; opacity: 1;" vector-effect="non-scaling-stroke"  transform=" translate(-1.96, -1.18)" d="M 0 2.35703 L 0 0 L 3.92838 0 L 3.92838 2.35703 z" stroke-linecap="round" />
</g>
<g transform="matrix(0.61 0 0 0.61 285.92 234.98)" id="NcwUCg7WqjoxhZFOlOUNB"  >
<path style="stroke: none; stroke-width: 1; stroke-dasharray: none; stroke-linecap: butt; stroke-dashoffset: 0; stroke-linejoin: miter; stroke-miterlimit: 4; fill: rgb(230,230,230); fill-rule: nonzero; opacity: 1;" vector-effect="non-scaling-stroke"  transform=" translate(-1.96, -1.18)" d="M 0 2.35703 L 0 0 L 3.92838 0 L 3.92838 2.35703 z" stroke-linecap="round" />
</g>
<g transform="matrix(0.61 0 0 0.61 290.72 234.98)" id="kCXHCi9y5nKnDjvUXWVf8"  >
<path style="stroke: none; stroke-width: 1; stroke-dasharray: none; stroke-linecap: butt; stroke-dashoffset: 0; stroke-linejoin: miter; stroke-miterlimit: 4; fill: rgb(230,230,230); fill-rule: nonzero; opacity: 1;" vector-effect="non-scaling-stroke"  transform=" translate(-1.96, -1.18)" d="M 0 2.35703 L 0 0 L 3.92838 0 L 3.92838 2.35703 z" stroke-linecap="round" />
</g>
<g transform="matrix(0.61 0 0 0.61 218.77 237.37)" id="uhYY8Xa4CsHi0-7_ReXGM"  >
<path style="stroke: none; stroke-width: 1; stroke-dasharray: none; stroke-linecap: butt; stroke-dashoffset: 0; stroke-linejoin: miter; stroke-miterlimit: 4; fill: rgb(230,230,230); fill-rule: nonzero; opacity: 1;" vector-effect="non-scaling-stroke"  transform=" translate(-1.96, -1.18)" d="M 0 2.35703 L 0 0 L 3.92838 0 L 3.92838 2.35703 z" stroke-linecap="round" />
</g>
<g transform="matrix(0.61 0 0 0.61 223.56 237.37)" id="UCC6d0M7i519W7W7p79bK"  >
<path style="stroke: none; stroke-width: 1; stroke-dasharray: none; stroke-linecap: butt; stroke-dashoffset: 0; stroke-linejoin: miter; stroke-miterlimit: 4; fill: rgb(230,230,230); fill-rule: nonzero; opacity: 1;" vector-effect="non-scaling-stroke"  transform=" translate(-1.96, -1.18)" d="M 0 2.35703 L 0 0 L 3.92838 0 L 3.92838 2.35703 z" stroke-linecap="round" />
</g>
<g transform="matrix(0.61 0 0 0.61 228.36 237.37)" id="UfDa6hrtZ1eneWXkw_-Wv"  >
<path style="stroke: none; stroke-width: 1; stroke-dasharray: none; stroke-linecap: butt; stroke-dashoffset: 0; stroke-linejoin: miter; stroke-miterlimit: 4; fill: rgb(230,230,230); fill-rule: nonzero; opacity: 1;" vector-effect="non-scaling-stroke"  transform=" translate(-1.96, -1.18)" d="M 0 2.35703 L 0 0 L 3.92838 0 L 3.92838 2.35703 z" stroke-linecap="round" />
</g>
<g transform="matrix(0.61 0 0 0.61 233.15 237.37)" id="_ArKDwSQWYSgqYwuGsG9D"  >
<path style="stroke: none; stroke-width: 1; stroke-dasharray: none; stroke-linecap: butt; stroke-dashoffset: 0; stroke-linejoin: miter; stroke-miterlimit: 4; fill: rgb(230,230,230); fill-rule: nonzero; opacity: 1;" vector-effect="non-scaling-stroke"  transform=" translate(-1.96, -1.18)" d="M 0 2.35703 L 0 0 L 3.92838 0 L 3.92838 2.35703 z" stroke-linecap="round" />
</g>
<g transform="matrix(0.61 0 0 0.61 237.94 237.37)" id="d_8mgr4pVWaaQ3A3PpPs7"  >
<path style="stroke: none; stroke-width: 1; stroke-dasharray: none; stroke-linecap: butt; stroke-dashoffset: 0; stroke-linejoin: miter; stroke-miterlimit: 4; fill: rgb(230,230,230); fill-rule: nonzero; opacity: 1;" vector-effect="non-scaling-stroke"  transform=" translate(-1.96, -1.18)" d="M 0 2.35703 L 0 0 L 3.92838 0 L 3.92838 2.35703 z" stroke-linecap="round" />
</g>
<g transform="matrix(0.61 0 0 0.61 242.73 237.37)" id="QQP1xye0QuMrX_59MWy7s"  >
<path style="stroke: none; stroke-width: 1; stroke-dasharray: none; stroke-linecap: butt; stroke-dashoffset: 0; stroke-linejoin: miter; stroke-miterlimit: 4; fill: rgb(230,230,230); fill-rule: nonzero; opacity: 1;" vector-effect="non-scaling-stroke"  transform=" translate(-1.96, -1.18)" d="M 0 2.35703 L 0 0 L 3.92838 0 L 3.92838 2.35703 z" stroke-linecap="round" />
</g>
<g transform="matrix(0.61 0 0 0.61 247.53 237.37)" id="LqcyffQMsAnSL-KJw4zLs"  >
<path style="stroke: none; stroke-width: 1; stroke-dasharray: none; stroke-linecap: butt; stroke-dashoffset: 0; stroke-linejoin: miter; stroke-miterlimit: 4; fill: rgb(230,230,230); fill-rule: nonzero; opacity: 1;" vector-effect="non-scaling-stroke"  transform=" translate(-1.96, -1.18)" d="M 0 2.35703 L 0 0 L 3.92838 0 L 3.92838 2.35703 z" stroke-linecap="round" />
</g>
<g transform="matrix(0.61 0 0 0.61 252.32 237.37)" id="Bc2fhcfDergGnnN5OY671"  >
<path style="stroke: none; stroke-width: 1; stroke-dasharray: none; stroke-linecap: butt; stroke-dashoffset: 0; stroke-linejoin: miter; stroke-miterlimit: 4; fill: rgb(230,230,230); fill-rule: nonzero; opacity: 1;" vector-effect="non-scaling-stroke"  transform=" translate(-1.96, -1.18)" d="M 0 2.35703 L 0 0 L 3.92838 0 L 3.92838 2.35703 z" stroke-linecap="round" />
</g>
<g transform="matrix(0.61 0 0 0.61 257.11 237.37)" id="nSDWv-CbYGM0e3Qt4xIOE"  >
<path style="stroke: none; stroke-width: 1; stroke-dasharray: none; stroke-linecap: butt; stroke-dashoffset: 0; stroke-linejoin: miter; stroke-miterlimit: 4; fill: rgb(230,230,230); fill-rule: nonzero; opacity: 1;" vector-effect="non-scaling-stroke"  transform=" translate(-1.96, -1.18)" d="M 0 2.35703 L 0 0 L 3.92838 0 L 3.92838 2.35703 z" stroke-linecap="round" />
</g>
<g transform="matrix(0.61 0 0 0.61 261.91 237.37)" id="OTX3ia_SRNFZPJis3H5U_"  >
<path style="stroke: none; stroke-width: 1; stroke-dasharray: none; stroke-linecap: butt; stroke-dashoffset: 0; stroke-linejoin: miter; stroke-miterlimit: 4; fill: rgb(230,230,230); fill-rule: nonzero; opacity: 1;" vector-effect="non-scaling-stroke"  transform=" translate(-1.96, -1.18)" d="M 0 2.35703 L 0 0 L 3.92838 0 L 3.92838 2.35703 z" stroke-linecap="round" />
</g>
<g transform="matrix(0.61 0 0 0.61 266.7 237.37)" id="-y99TaX9Gcnif-LuS99hp"  >
<path style="stroke: none; stroke-width: 1; stroke-dasharray: none; stroke-linecap: butt; stroke-dashoffset: 0; stroke-linejoin: miter; stroke-miterlimit: 4; fill: rgb(230,230,230); fill-rule: nonzero; opacity: 1;" vector-effect="non-scaling-stroke"  transform=" translate(-1.96, -1.18)" d="M 0 2.35703 L 0 0 L 3.92838 0 L 3.92838 2.35703 z" stroke-linecap="round" />
</g>
<g transform="matrix(0.61 0 0 0.61 271.49 237.37)" id="0SQABJTghWuoWpXXILLkW"  >
<path style="stroke: none; stroke-width: 1; stroke-dasharray: none; stroke-linecap: butt; stroke-dashoffset: 0; stroke-linejoin: miter; stroke-miterlimit: 4; fill: rgb(230,230,230); fill-rule: nonzero; opacity: 1;" vector-effect="non-scaling-stroke"  transform=" translate(-1.96, -1.18)" d="M 0 2.35703 L 0 0 L 3.92838 0 L 3.92838 2.35703 z" stroke-linecap="round" />
</g>
<g transform="matrix(0.61 0 0 0.61 276.28 237.37)" id="gHGCiR_czXDIor3zC7YYo"  >
<path style="stroke: none; stroke-width: 1; stroke-dasharray: none; stroke-linecap: butt; stroke-dashoffset: 0; stroke-linejoin: miter; stroke-miterlimit: 4; fill: rgb(230,230,230); fill-rule: nonzero; opacity: 1;" vector-effect="non-scaling-stroke"  transform=" translate(-1.96, -1.18)" d="M 0 2.35703 L 0 0 L 3.92838 0 L 3.92838 2.35703 z" stroke-linecap="round" />
</g>
<g transform="matrix(0.61 0 0 0.61 281.07 237.37)" id="UkLw4C4iHzmaHXR8UhtgQ"  >
<path style="stroke: none; stroke-width: 1; stroke-dasharray: none; stroke-linecap: butt; stroke-dashoffset: 0; stroke-linejoin: miter; stroke-miterlimit: 4; fill: rgb(230,230,230); fill-rule: nonzero; opacity: 1;" vector-effect="non-scaling-stroke"  transform=" translate(-1.96, -1.18)" d="M 0 2.35703 L 0 0 L 3.92838 0 L 3.92838 2.35703 z" stroke-linecap="round" />
</g>
<g transform="matrix(0.61 0 0 0.61 285.87 237.37)" id="AChonBqJMc2OhEAovIttG"  >
<path style="stroke: none; stroke-width: 1; stroke-dasharray: none; stroke-linecap: butt; stroke-dashoffset: 0; stroke-linejoin: miter; stroke-miterlimit: 4; fill: rgb(230,230,230); fill-rule: nonzero; opacity: 1;" vector-effect="non-scaling-stroke"  transform=" translate(-1.96, -1.18)" d="M 0 2.35703 L 0 0 L 3.92838 0 L 3.92838 2.35703 z" stroke-linecap="round" />
</g>
<g transform="matrix(0.61 0 0 0.61 290.66 237.37)" id="FfzWJRURKa2MJyyHlI15F"  >
<path style="stroke: none; stroke-width: 1; stroke-dasharray: none; stroke-linecap: butt; stroke-dashoffset: 0; stroke-linejoin: miter; stroke-miterlimit: 4; fill: rgb(230,230,230); fill-rule: nonzero; opacity: 1;" vector-effect="non-scaling-stroke"  transform=" translate(-1.96, -1.18)" d="M 0 2.35703 L 0 0 L 3.92838 0 L 3.92838 2.35703 z" stroke-linecap="round" />
</g>
<g transform="matrix(0.61 0 0 0.61 250.16 240.25)" id="20vIrgpAiO0dnU6Ez2jDY"  >
<path style="stroke: none; stroke-width: 1; stroke-dasharray: none; stroke-linecap: butt; stroke-dashoffset: 0; stroke-linejoin: miter; stroke-miterlimit: 4; fill: rgb(230,230,230); fill-rule: nonzero; opacity: 1;" vector-effect="non-scaling-stroke"  transform=" translate(-15.71, -1.18)" d="M 0 2.35703 L 0 0 L 31.42706 0 L 31.42706 2.35703 z" stroke-linecap="round" />
</g>
<g transform="matrix(0.61 0 0 0.61 251.39 123.25)" id="nHxZIxm1z-DWHXwpSpYpJ"  >
<path style="stroke: none; stroke-width: 1; stroke-dasharray: none; stroke-linecap: butt; stroke-dashoffset: 0; stroke-linejoin: miter; stroke-miterlimit: 4; fill: rgb(202,202,202); fill-rule: nonzero; opacity: 1;" vector-effect="non-scaling-stroke"  transform=" translate(-403.59, -45.82)" d="M 503.88745 46.61423 L 303.28592000000003 46.61423 C 302.84534 46.60454 302.49603 46.23952 302.50574000000006 45.79895 C 302.51511000000005 45.372009999999996 302.8589800000001 45.02814 303.28592000000003 45.01875 L 503.88745000000006 45.01875 C 504.32800000000003 45.028439999999996 504.67731000000003 45.39346 504.66766000000007 45.83403 C 504.65826000000004 46.26097 504.31439000000006 46.604839999999996 503.88745000000006 46.61423 Z" stroke-linecap="round" />
</g>
<g transform="matrix(0.61 0 0 0.61 198.54 117.36)" id="CYYNe4hZqp7jcWOWJr1Re"  >
<path style="stroke: none; stroke-width: 1; stroke-dasharray: none; stroke-linecap: butt; stroke-dashoffset: 0; stroke-linejoin: miter; stroke-miterlimit: 4; fill: rgb(204,204,204); fill-rule: nonzero; opacity: 1;" vector-effect="non-scaling-stroke"  transform=" translate(-4.68, -4.78)" d="M 0 4.7793 C 0 2.13977 2.09312 0 4.67511 0 C 7.257099999999999 0 9.35022 2.13977 9.35022 4.7793 C 9.35022 7.41883 7.2571 9.5586 4.67511 9.5586 C 2.0931200000000003 9.5586 0 7.41883 0 4.7793 z" stroke-linecap="round" />
</g>
<g transform="matrix(0.61 0 0 0.61 208.39 117.36)" id="v3oOhqf7gWM0RbyDucTN-"  >
<path style="stroke: none; stroke-width: 1; stroke-dasharray: none; stroke-linecap: butt; stroke-dashoffset: 0; stroke-linejoin: miter; stroke-miterlimit: 4; fill: rgb(204,204,204); fill-rule: nonzero; opacity: 1;" vector-effect="non-scaling-stroke"  transform=" translate(-4.68, -4.78)" d="M 0 4.7793 C 0 2.13977 2.09312 0 4.67511 0 C 7.257099999999999 0 9.35022 2.13977 9.35022 4.7793 C 9.35022 7.41883 7.2571 9.5586 4.67511 9.5586 C 2.0931200000000003 9.5586 0 7.41883 0 4.7793 z" stroke-linecap="round" />
</g>
<g transform="matrix(0.61 0 0 0.61 218.24 117.36)" id="rliMb6XP6rA-TFxrpTd4D"  >
<path style="stroke: none; stroke-width: 1; stroke-dasharray: none; stroke-linecap: butt; stroke-dashoffset: 0; stroke-linejoin: miter; stroke-miterlimit: 4; fill: rgb(204,204,204); fill-rule: nonzero; opacity: 1;" vector-effect="non-scaling-stroke"  transform=" translate(-4.68, -4.78)" d="M 0 4.7793 C 0 2.13977 2.09312 0 4.67511 0 C 7.257099999999999 0 9.35022 2.13977 9.35022 4.7793 C 9.35022 7.41883 7.2571 9.5586 4.67511 9.5586 C 2.0931200000000003 9.5586 0 7.41883 0 4.7793 z" stroke-linecap="round" />
</g>
<g transform="matrix(0.61 0 0 0.61 276.34 117.4)" id="autulG5w7aaonzqfPu4J8"  >
<path style="stroke: none; stroke-width: 1; stroke-dasharray: none; stroke-linecap: butt; stroke-dashoffset: 0; stroke-linejoin: miter; stroke-miterlimit: 4; fill: rgb(63,61,86); fill-rule: nonzero; opacity: 1;" vector-effect="non-scaling-stroke"  transform=" translate(-444.49, -36.24)" d="M 403.38118 58.71 L 402.73317 56.817 L 485.59117 13.765 L 486.23818 15.658000000000001 z" stroke-linecap="round" />
</g>
<g transform="matrix(0.61 0 0 0.61 418.77 166.11)" id="YrLD-tqVV7BK5FQIQpgME"  >
<path style="stroke: none; stroke-width: 1; stroke-dasharray: none; stroke-linecap: butt; stroke-dashoffset: 0; stroke-linejoin: miter; stroke-miterlimit: 4; fill: rgb(63,61,86); fill-rule: nonzero; opacity: 1;" vector-effect="non-scaling-stroke"  transform=" translate(-677.99, -116.09)" d="M 653.38118 138.452 L 652.73317 136.55901 L 702.5912 93.725 L 703.2381799999999 95.61699999999999 z" stroke-linecap="round" />
</g>
<g transform="matrix(0.61 0 0 0.61 320.26 172.13)" id="hjoIY_0suWxIOh6GeSfir"  >
<path style="stroke: none; stroke-width: 1; stroke-dasharray: none; stroke-linecap: butt; stroke-dashoffset: 0; stroke-linejoin: miter; stroke-miterlimit: 4; fill: rgb(63,61,86); fill-rule: nonzero; opacity: 1;" vector-effect="non-scaling-stroke"  transform=" translate(-516.49, -125.95)" d="M 557.5912 148.423 L 474.73317 105.37100000000001 L 475.38118 103.47800000000001 L 558.2381799999999 146.53 z" stroke-linecap="round" />
</g>
<g transform="matrix(0.61 0 0 0.61 356.86 142.85)" id="w8G2WZmrpSWeQ0YqEyrNK"  >
<path style="stroke: none; stroke-width: 1; stroke-dasharray: none; stroke-linecap: butt; stroke-dashoffset: 0; stroke-linejoin: miter; stroke-miterlimit: 4; fill: rgb(63,61,86); fill-rule: nonzero; opacity: 1;" vector-effect="non-scaling-stroke"  transform=" translate(-576.49, -77.95)" d="M 600.00618 118.465 L 551.43117 38.71900000000001 L 552.9662 37.43600000000001 L 601.54018 117.182 z" stroke-linecap="round" />
</g>
<g transform="matrix(0.61 0 0 0.61 379.91 103.5)" id="t3nnbQO3we9DDcCfkes3p"  >
<path style="stroke: none; stroke-width: 1; stroke-dasharray: none; stroke-linecap: butt; stroke-dashoffset: 0; stroke-linejoin: miter; stroke-miterlimit: 4; fill: rgb(63,61,86); fill-rule: nonzero; opacity: 1;" vector-effect="non-scaling-stroke"  transform=" translate(-614.26, -13.45)" d="M 637.9142 14.554 L 590.6071900000001 14.336 L 590.6071900000001 12.336 L 637.9142 12.554 z" stroke-linecap="round" />
</g>
<g transform="matrix(0.61 0 0 0.61 430.44 103.81)" id="cCODF3pIFTkOxQPd0ZSVA"  >
<path style="stroke: none; stroke-width: 1; stroke-dasharray: none; stroke-linecap: butt; stroke-dashoffset: 0; stroke-linejoin: miter; stroke-miterlimit: 4; fill: rgb(14,20,30); fill-rule: nonzero; opacity: 1;" vector-effect="non-scaling-stroke"  transform=" translate(-697.11, -13.96)" d="M 723.61127 26.95947 L 670.61127 26.95947 C 663.4315799999999 26.95947 657.61127 21.13917 657.61127 13.95947 C 657.61127 6.779769999999999 663.4315799999999 0.9594699999999996 670.61127 0.9594699999999996 L 723.61127 0.9594699999999996 C 730.79096 0.9594699999999996 736.61127 6.779769999999999 736.61127 13.95947 C 736.61127 21.13917 730.79096 26.95947 723.61127 26.95947 L 723.61127 26.95947 Z" stroke-linecap="round" />
</g>
<g transform="matrix(0.61 0 0 0.61 470.7 150.17)" id="uXs22h7FGtzC30fXbH-AN"  >
<path style="stroke: none; stroke-width: 1; stroke-dasharray: none; stroke-linecap: butt; stroke-dashoffset: 0; stroke-linejoin: miter; stroke-miterlimit: 4; fill: rgb(14,20,30); fill-rule: nonzero; opacity: 1;" vector-effect="non-scaling-stroke"  transform=" translate(-763.11, -89.96)" d="M 789.61127 102.95949 L 736.61127 102.95949 C 729.4315799999999 102.95949 723.61127 97.13918 723.61127 89.95949 C 723.61127 82.77980000000001 729.4315799999999 76.95949 736.61127 76.95949 L 789.61127 76.95949 C 796.79096 76.95949 802.61127 82.77980000000001 802.61127 89.95949 C 802.61127 97.13918 796.79096 102.95949 789.61127 102.95949 Z" stroke-linecap="round" />
</g>
<g transform="matrix(0.61 0 0 0.61 420.17 190.12)" id="lSDHU_NuguAl47O_4rNTy"  >
<path style="stroke: none; stroke-width: 1; stroke-dasharray: none; stroke-linecap: butt; stroke-dashoffset: 0; stroke-linejoin: miter; stroke-miterlimit: 4; fill: rgb(63,61,86); fill-rule: nonzero; opacity: 1;" vector-effect="non-scaling-stroke"  transform=" translate(-680.26, -155.44)" d="M 703.9142 156.55299 L 656.6071900000001 156.33599999999998 L 656.6071900000001 154.33599999999998 L 703.9142 154.55299 z" stroke-linecap="round" />
</g>
<g transform="matrix(0.61 0 0 0.61 470.7 190.43)" id="q6S_0e3dDLpuMAHVBHo0P"  >
<path style="stroke: none; stroke-width: 1; stroke-dasharray: none; stroke-linecap: butt; stroke-dashoffset: 0; stroke-linejoin: miter; stroke-miterlimit: 4; fill: rgb(14,20,30); fill-rule: nonzero; opacity: 1;" vector-effect="non-scaling-stroke"  transform=" translate(-763.11, -155.96)" d="M 789.61127 168.95949 L 736.61127 168.95949 C 729.4315799999999 168.95949 723.61127 163.13917999999998 723.61127 155.95949 C 723.61127 148.7798 729.4315799999999 142.95949 736.61127 142.95949 L 789.61127 142.95949 C 796.79096 142.95949 802.61127 148.7798 802.61127 155.95949 C 802.61127 163.13917999999998 796.79096 168.95949 789.61127 168.95949 Z" stroke-linecap="round" />
</g>
<g transform="matrix(0.61 0 0 0.61 376.15 184.97)" id="IGXNc3ijOt5KnSSNRTnN8"  >
<path style="stroke: none; stroke-width: 1; stroke-dasharray: none; stroke-linecap: butt; stroke-dashoffset: 0; stroke-linejoin: miter; stroke-miterlimit: 4; fill: rgb(14,20,30); fill-rule: nonzero; opacity: 1;" vector-effect="non-scaling-stroke"  transform=" translate(-608.11, -147)" d="M 634.61127 159.99998 L 581.61127 159.99998 C 574.4315799999999 159.99998 568.61127 154.17967 568.61127 146.99998 C 568.61127 139.82029 574.4315799999999 133.99998 581.61127 133.99998 L 634.61127 133.99998 C 641.79096 133.99998 647.61127 139.82029 647.61127 146.99998 C 647.61127 154.17967 641.79096 159.99998 634.61127 159.99998 Z" stroke-linecap="round" />
</g>
<g transform="matrix(0.61 0 0 0.61 332.23 103.23)" id="R7my4ABcqx2e9KnKpuYWU"  >
<path style="stroke: none; stroke-width: 1; stroke-dasharray: none; stroke-linecap: butt; stroke-dashoffset: 0; stroke-linejoin: miter; stroke-miterlimit: 4; fill: rgb(14,20,30); fill-rule: nonzero; opacity: 1;" vector-effect="non-scaling-stroke"  transform=" translate(-536.11, -13)" d="M 562.61127 26 L 509.61127 26 C 502.43158 26 496.61127 20.1797 496.61127 13 C 496.61127 5.8203 502.43158 0 509.61127 0 L 562.61127 0 C 569.79096 0 575.61127 5.8203 575.61127 13 C 575.61127 20.1797 569.79096 26 562.61127 26 Z" stroke-linecap="round" />
</g>
<g transform="matrix(0.61 0 0 0.61 175.57 271.09)" id="dVPOmQnhCA11cont_nK_W"  >
<path style="stroke: none; stroke-width: 1; stroke-dasharray: none; stroke-linecap: butt; stroke-dashoffset: 0; stroke-linejoin: miter; stroke-miterlimit: 4; fill: rgb(63,61,86); fill-rule: nonzero; opacity: 1;" vector-effect="non-scaling-stroke"  transform=" translate(-279.28, -288.18)" d="M 309.28272 249.18022 L 249.28271999999998 249.18022 C 244.86444999999998 249.18022 241.28271999999998 252.76194999999998 241.28271999999998 257.18021999999996 C 241.28271999999998 261.59848999999997 244.86444999999998 265.18021999999996 249.28271999999998 265.18021999999996 L 271.28272 265.18021999999996 L 271.28272 327.18021999999996 L 287.28272 327.18021999999996 L 287.28272 265.18021999999996 L 309.28272 265.18021999999996 C 313.70099 265.18021999999996 317.28272 261.59848999999997 317.28272 257.18021999999996 C 317.28272 252.76194999999996 313.70099 249.18021999999996 309.28272 249.18021999999996 Z" stroke-linecap="round" />
</g>
<g transform="matrix(0.61 0 0 0.61 135.64 234.39)" id="sGb1TnEIZHb6P2dFeq7q0"  >
<path style="stroke: none; stroke-width: 1; stroke-dasharray: none; stroke-linecap: butt; stroke-dashoffset: 0; stroke-linejoin: miter; stroke-miterlimit: 4; fill: rgb(63,61,86); fill-rule: nonzero; opacity: 1;" vector-effect="non-scaling-stroke"  transform=" translate(-213.83, -228.02)" d="M 348.88379 361.51714 L 188.40088 361.51714 C 156.24228 361.39959 129.03449 337.71666 124.48438 305.8814 L 118.80372 284.98573999999996 C 107.04581999999999 241.68541999999997 89.13624 200.29600999999997 65.62237999999999 162.08259999999996 C 54.875049999999995 144.62882999999997 49.34343 127.73374999999996 61.90753999999999 111.46733999999995 C 62.01449999999999 111.32881999999995 62.11972999999999 111.19224999999994 62.22314999999999 111.05763999999995 C 72.3003 97.94142999999995 122.45752999999999 95.10206999999996 138.80859999999998 94.54982999999996 C 139.45459999999997 94.52782999999995 140.10303 94.51692999999996 140.75391 94.51711999999996 L 240.57276 94.51711999999996 C 241.22413 94.51711999999996 241.87241 94.52804999999996 242.51757999999998 94.54982999999996 C 260.47583 95.07332999999996 276.69721 105.41261999999996 284.75390999999996 121.47072999999996 C 293.35076999999995 137.86550999999997 292.25390999999996 157.65618999999995 281.89791999999994 173.00051999999997 C 246.83443999999994 225.67141999999996 236.09908999999993 258.69778999999994 247.08980999999994 280.08551 C 257.72115999999994 300.77301 290.31001999999995 311.35016 349.64842999999996 313.37067 C 365.59471999999994 313.91367 372.91308 326.33069 372.96434999999997 337.63727 C 373.01415 348.65192 365.97801999999996 360.81305 350.41161999999997 361.48493 C 349.90576 361.50641 349.39648 361.51716000000005 348.88379 361.51716000000005 Z" stroke-linecap="round" />
</g>
<g transform="matrix(0.61 0 0 0.61 155.06 356.7)" id="IftnP9Tb6AujUVaEE08uU"  >
<path style="stroke: none; stroke-width: 1; stroke-dasharray: none; stroke-linecap: butt; stroke-dashoffset: 0; stroke-linejoin: miter; stroke-miterlimit: 4; fill: rgb(63,61,86); fill-rule: nonzero; opacity: 1;" vector-effect="non-scaling-stroke"  transform=" translate(-245.66, -428.52)" d="M 215.66342 504.01701 L 275.66342 504.01701 C 280.08169 504.01701 283.66342 500.43528000000003 283.66342 496.01701 C 283.66342 491.59874 280.08169 488.01701 275.66342 488.01701 L 253.66341999999997 488.01701 L 253.66341999999997 353.01701 L 237.66341999999997 353.01701 L 237.66341999999997 488.01701 L 215.66341999999997 488.01701 C 211.24514999999997 488.01701 207.66341999999997 491.59874 207.66341999999997 496.01701 C 207.66341999999997 500.43528000000003 211.24514999999997 504.01701 215.66341999999997 504.01701 Z" stroke-linecap="round" />
</g>
<g transform="matrix(0.61 0 0 0.61 181.38 358.91)" id="ejZmtKOuafJt0YLMxo-f7"  >
<path style="stroke: none; stroke-width: 1; stroke-dasharray: none; stroke-linecap: butt; stroke-dashoffset: 0; stroke-linejoin: miter; stroke-miterlimit: 4; fill: rgb(160,97,106); fill-rule: nonzero; opacity: 1;" vector-effect="non-scaling-stroke"  transform=" translate(-288.82, -432.15)" d="M 269.96919 449.59201 L 280.30519000000004 455.20599000000004 L 307.66719000000006 417.37500000000006 L 292.41118000000006 409.08801000000005 z" stroke-linecap="round" />
</g>
<g transform="matrix(0.61 0 0 0.61 178.01 373.72)" id="Ioz_rhqM5Vnl70IrgnpIj"  >
<path style="stroke: none; stroke-width: 1; stroke-dasharray: none; stroke-linecap: butt; stroke-dashoffset: 0; stroke-linejoin: miter; stroke-miterlimit: 4; fill: rgb(47,46,65); fill-rule: nonzero; opacity: 1;" vector-effect="non-scaling-stroke"  transform=" translate(-283.3, -456.43)" d="M 274.94449 436.11107 L 293.70849999999996 441.98674 L 290.72189999999995 449.84776 L 303.58871999999997 468.52244 C 305.23495999999994 470.91111 304.63311999999996 474.18205 302.24447999999995 475.82829000000004 C 300.82318 476.80784000000006 299.01138999999995 477.02659000000006 297.39782999999994 476.41343000000006 L 275.55395999999996 468.11442000000005 L 274.74301999999994 458.9081800000001 L 270.31872999999996 466.12547000000006 L 262.08273999999994 462.99644000000006 L 274.94449999999995 436.11106000000007 Z" stroke-linecap="round" />
</g>
<g transform="matrix(0.61 0 0 0.61 166.27 163.67)" id="mOqednljQhCdQzb71F22i"  >
<path style="stroke: none; stroke-width: 1; stroke-dasharray: none; stroke-linecap: butt; stroke-dashoffset: 0; stroke-linejoin: miter; stroke-miterlimit: 4; fill: rgb(160,97,106); fill-rule: nonzero; opacity: 1;" vector-effect="non-scaling-stroke"  transform=" translate(-264.04, -112.08)" d="M 296.0845 68.07558 C 297.01034 74.42287 292.61541 80.3189 286.26812 81.24474000000001 C 285.59133 81.34346000000001 284.90719 81.38219000000001 284.22359 81.36052000000001 L 244.37227000000001 166.15581 L 231.8734 148.72612 L 272.89733 68.54497 C 273.52761000000004 62.12664000000001 279.24166 57.43448000000001 285.66003 58.064780000000006 C 291.03051 58.59217 295.34018000000003 62.7308 296.0845 68.07555 L 296.0845 68.07558 Z" stroke-linecap="round" />
</g>
<g transform="matrix(0.61 0 0 0.61 137.36 184.74)" id="MMQVLXBIlZRu7g11DGOEJ"  >
<path style="stroke: none; stroke-width: 1; stroke-dasharray: none; stroke-linecap: butt; stroke-dashoffset: 0; stroke-linejoin: miter; stroke-miterlimit: 4; fill: rgb(14,20,30); fill-rule: nonzero; opacity: 1;" vector-effect="non-scaling-stroke"  transform=" translate(-216.65, -146.63)" d="M 163.83472 183.30061 C 163.83472 183.30061 162.76679000000001 198.11418 179.51987 201.0196 C 196.27294999999998 203.92502 241.05893 175.60459 248.41419 171.25605 C 255.76944999999998 166.90750999999997 269.47593 112.19543999999999 269.47593 112.19543999999999 L 257.55573 92.03361 C 242.83831999999998 110.65055 231.28088999999997 127.81761 230.57911 140.00360999999998 L 163.83472999999998 183.30060999999998 Z" stroke-linecap="round" />
</g>
<g transform="matrix(0.61 0 0 0.61 136.5 245.11)" id="zAuV58VSfjhnJkq6sGLgm"  >
<path style="stroke: none; stroke-width: 1; stroke-dasharray: none; stroke-linecap: butt; stroke-dashoffset: 0; stroke-linejoin: miter; stroke-miterlimit: 4; fill: rgb(160,97,106); fill-rule: nonzero; opacity: 1;" vector-effect="non-scaling-stroke"  transform=" translate(-215.25, -245.6)" d="M 183.17545 234.32722 L 186.79364 249.87333 C 186.79364 249.87333 186.82919 264.20823 189.36792 266.85133 C 191.88886 269.48213000000004 247.3233 264.19993 247.3233 264.19993 C 247.3233 264.19993 241.44583 241.10023 241.52400999999998 223.6215 L 183.17543999999998 234.32722 Z" stroke-linecap="round" />
</g>
<g transform="matrix(0.61 0 0 0.61 166.46 305.51)" id="4j4WSMFr2Mvu2ExfWSLwy"  >
<path style="stroke: none; stroke-width: 1; stroke-dasharray: none; stroke-linecap: butt; stroke-dashoffset: 0; stroke-linejoin: miter; stroke-miterlimit: 4; fill: rgb(47,46,65); fill-rule: nonzero; opacity: 1;" vector-effect="non-scaling-stroke"  transform=" translate(-264.35, -344.61)" d="M 300.28272 433.18022 L 280.28272 422.18022 C 279.90232 396.15544 295.55584999999996 360.93675 314.12226 324.04777 C 272.59925 331.18907 233.42611999999997 333.47679 199.54307 324.83793000000003 C 187.96873 321.78141000000005 180.99302 309.99793000000005 183.88029 298.38023000000004 C 184.01219 297.83201 184.16468 297.28965000000005 184.33781 296.75309000000004 C 188.39296 284.38062 179.30017999999998 276.62510000000003 187.6634 263.01704000000007 C 209.6598 255.50477000000006 230.55549 253.38337000000007 249.6634 260.01704000000007 L 261.63584 286.4883500000001 L 320.97834 278.8092400000001 C 332.97785 277.3746700000001 343.86842 285.9392400000001 345.30299 297.9387900000001 C 345.30952 297.9934800000001 345.31587 298.0481700000001 345.32197 298.1029100000001 C 345.40174 298.7470800000001 345.45381000000003 299.39390000000014 345.47828000000004 300.0433400000001 C 333.47913000000005 356.2960600000001 320.02454000000006 406.9119000000001 300.28272000000004 433.1802100000001 Z" stroke-linecap="round" />
</g>
<g transform="matrix(0.61 0 0 0.61 130.89 217.77)" id="ldDMa8ooesAG3LMrVZJHh"  >
<path style="stroke: none; stroke-width: 1; stroke-dasharray: none; stroke-linecap: butt; stroke-dashoffset: 0; stroke-linejoin: miter; stroke-miterlimit: 4; fill: rgb(14,20,30); fill-rule: nonzero; opacity: 1;" vector-effect="non-scaling-stroke"  transform=" translate(-206.04, -200.77)" d="M 175.12006 135.90422 L 197.98104999999998 134.55440000000002 C 199.95730999999998 134.4377 201.79003999999998 135.58748000000003 202.54494999999997 137.41759000000002 L 209.00539999999998 153.07924000000003 L 235.85558999999998 175.27135000000004 C 235.85558999999998 175.27135000000004 246.48629999999997 188.79937000000004 246.51101999999997 206.27046000000004 C 246.53573999999998 223.74155000000005 250.28271999999998 264.18025000000006 250.28271999999998 264.18025000000006 C 250.28271999999998 264.18025000000006 234.76771 242.34160000000006 225.1915 248.15001000000007 C 223.56232 249.13820000000007 222.98926 251.15901000000005 221.28271999999998 252.18025000000006 C 220.43149 252.68965000000006 218.46488 252.19447000000005 217.60522999999998 252.70479000000006 C 204.40936999999997 260.53826000000004 190.64744 268.19127000000003 189.36157999999998 266.84938000000005 C 186.83685999999997 264.2147100000001 183.77423999999996 250.75175000000004 183.77423999999996 250.75175000000004 L 162.84805999999998 173.86457000000004 C 160.55087999999998 165.67344000000006 162.03619999999998 156.88422000000003 166.89740999999998 149.90281000000004 C 168.35934999999998 147.84449000000004 169.89109 146.31321000000005 171.31454999999997 146.05995000000004 C 174.51071999999996 145.37935000000004 172.81054999999998 138.21602000000004 175.12005999999997 135.90422000000004 Z" stroke-linecap="round" />
</g>
<g transform="matrix(0.61 0 0 0.61 225.53 374.79)" id="5ymUwS01dEhTaLqQ07Oet"  >
<path style="stroke: none; stroke-width: 1; stroke-dasharray: none; stroke-linecap: butt; stroke-dashoffset: 0; stroke-linejoin: miter; stroke-miterlimit: 4; fill: rgb(160,97,106); fill-rule: nonzero; opacity: 1;" vector-effect="non-scaling-stroke"  transform=" translate(-361.19, -458.18)" d="M 369.58919 482.16 L 379.23918 475.45099000000005 L 357.37818999999996 434.20700000000005 L 343.13618999999994 444.10901000000007 z" stroke-linecap="round" />
</g>
<g transform="matrix(0.61 0 0 0.61 176.17 318.36)" id="9-g_M6d_7XyiB-B7935M2"  >
<path style="stroke: none; stroke-width: 1; stroke-dasharray: none; stroke-linecap: butt; stroke-dashoffset: 0; stroke-linejoin: miter; stroke-miterlimit: 4; fill: rgb(47,46,65); fill-rule: nonzero; opacity: 1;" vector-effect="non-scaling-stroke"  transform=" translate(-280.26, -365.67)" d="M 371.04779 454.48637 L 355.92419 468.00462000000005 C 331.8764 441.20897 313.6969 403.62883000000005 298.29077 360.95189000000005 C 257.92493 349.12969000000004 227.48376000000002 330.06352000000004 200.90890000000002 307.4254 C 191.89358000000001 299.79689 185.13534 289.99684 192.82421000000002 280.70421000000005 C 193.18368 280.26976 193.55898000000002 279.84969000000007 193.95022000000003 279.44390000000004 C 203.02853000000002 270.11391000000003 226.05087000000003 271.8919 239.53478000000004 263.34426 L 269.65615 295.54064 L 267.7615 304.17226 L 324.33874000000003 323.33715 C 335.72814000000005 327.32873 341.72534 339.79754 337.73370000000006 351.18694 C 337.7141700000001 351.24279 337.69433000000004 351.29857 337.67431000000005 351.35429999999997 C 337.46240000000006 351.96783 337.22454000000005 352.57158999999996 336.96081000000004 353.16551999999996 L 371.04779 454.48637999999994 Z" stroke-linecap="round" />
</g>
<g transform="matrix(0.61 0 0 0.61 241.92 391.92)" id="tDBw0W8Gef1jQuAAcaOE5"  >
<path style="stroke: none; stroke-width: 1; stroke-dasharray: none; stroke-linecap: butt; stroke-dashoffset: 0; stroke-linejoin: miter; stroke-miterlimit: 4; fill: rgb(47,46,65); fill-rule: nonzero; opacity: 1;" vector-effect="non-scaling-stroke"  transform=" translate(-388.06, -486.26)" d="M 363.96283 479.44029 L 379.41028 467.27537 L 384.21015 474.18022 L 406.88813 474.11119 C 409.78913 474.10203 412.14832 476.44627 412.15747999999996 479.34727000000004 C 412.16297 481.07334000000003 411.32007999999996 482.69194000000005 409.90272 483.67710000000005 L 390.71583 497.01469000000003 L 382.66089999999997 492.48368000000005 L 386.11744 500.21128000000004 L 378.88325 505.24009000000007 L 363.96283999999997 479.44029000000006 Z" stroke-linecap="round" />
</g>
<g transform="matrix(0.61 0 0 0.61 120.23 267.18)" id="jAWnr47x40lk3a84wATLG"  >
<path style="stroke: none; stroke-width: 1; stroke-dasharray: none; stroke-linecap: butt; stroke-dashoffset: 0; stroke-linejoin: miter; stroke-miterlimit: 4; fill: rgb(160,97,106); fill-rule: nonzero; opacity: 1;" vector-effect="non-scaling-stroke"  transform=" translate(-188.56, -281.77)" d="M 208.8783 329.67296 C 202.9737 327.16679999999997 200.21872 320.3485 202.72489 314.4439 C 202.9921 313.81432 203.31439999999998 313.20962 203.68802 312.63677 L 151.93372 234.53515000000002 L 173.31998 232.90936000000002 L 220.52242999999999 309.61599 C 225.67941 313.48873000000003 226.72048999999998 320.80877000000004 222.84775 325.96569 C 219.60724 330.28081 213.832 331.81341 208.8783 329.67289999999997 L 208.8783 329.67296 Z" stroke-linecap="round" />
</g>
<g transform="matrix(0.61 0 0 0.61 113.15 228.97)" id="PHH1Ckzo4UKwhithZZRFO"  >
<path style="stroke: none; stroke-width: 1; stroke-dasharray: none; stroke-linecap: butt; stroke-dashoffset: 0; stroke-linejoin: miter; stroke-miterlimit: 4; fill: rgb(14,20,30); fill-rule: nonzero; opacity: 1;" vector-effect="non-scaling-stroke"  transform=" translate(-176.95, -219.14)" d="M 179.12128 156.81078 C 179.12128 156.81078 167.0181 148.2029 155.83258 161.00884 C 144.64706 173.81477999999998 145.58105 226.79552 145.47595 235.33941 C 145.44305 238.01483 149.30639000000002 243.78777 154.62906 250.45602 C 157.01865 253.44967 159.70236 256.62378 162.45972 259.77908 C 164.05536 261.60501000000005 162.68048000000002 265.40554000000003 164.28272 267.18023 C 165.87616 268.94524 170.4469 268.68480999999997 171.96256000000002 270.32293 C 179.15671000000003 278.09835 185.00116000000003 284.01705 185.00116000000003 284.01705 L 208.42139000000003 284.30503999999996 C 208.68561000000003 266.89487999999994 196.76288000000002 251.35435999999996 181.44562000000002 236.33457999999996 L 179.12128 156.81077999999997 Z" stroke-linecap="round" />
</g>
<g transform="matrix(0.61 0 0 0.61 99.65 140.17)" id="t-GIJASIAB6-df4AsFgsv"  >
<path style="stroke: none; stroke-width: 1; stroke-dasharray: none; stroke-linecap: butt; stroke-dashoffset: 0; stroke-linejoin: miter; stroke-miterlimit: 4; fill: rgb(47,46,65); fill-rule: nonzero; opacity: 1;" vector-effect="non-scaling-stroke"  transform=" translate(-154.84, -73.56)" d="M 155.51419 81.0078 C 153.29687 82.6082 150.9642 84.25695 148.25857000000002 84.65352 C 145.55294000000004 85.05009 142.38543 83.74214 141.63665000000003 81.11211 C 140.72112000000004 77.89638000000001 143.62493000000003 74.9684 146.23479000000003 72.8785 L 154.51070000000004 66.25149 C 156.02626000000004 64.90740000000001 157.73711000000003 63.801230000000004 159.58480000000003 62.97079 C 161.46471000000003 62.14361 163.61867000000004 62.2156 165.43914000000004 63.1665 C 167.24773000000005 64.38781 168.29363000000004 66.45965 168.20223000000004 68.64007 C 168.08419000000004 70.78926999999999 167.37493000000003 72.86412999999999 166.15261000000004 74.63583 C 163.04824000000005 79.47454 158.10299000000003 82.83618 152.46151000000003 83.94256" stroke-linecap="round" />
</g>
<g transform="matrix(0.61 0 0 0.61 120.06 273.53)" id="njxRZ2ufNEgwMVDLjGFoS"  >
<path style="stroke: none; stroke-width: 1; stroke-dasharray: none; stroke-linecap: butt; stroke-dashoffset: 0; stroke-linejoin: miter; stroke-miterlimit: 4; fill: rgb(63,61,86); fill-rule: nonzero; opacity: 1;" vector-effect="non-scaling-stroke"  transform=" translate(-188.28, -292.18)" d="M 218.28272 253.18022 L 158.28272 253.18022 C 153.86445 253.18022 150.28272 256.76195 150.28272 261.18021999999996 C 150.28272 265.5984899999999 153.86445 269.18021999999996 158.28272 269.18021999999996 L 180.28272 269.18021999999996 L 180.28272 331.18021999999996 L 196.28272 331.18021999999996 L 196.28272 269.18021999999996 L 218.28272 269.18021999999996 C 222.70099000000002 269.18021999999996 226.28272 265.59848999999997 226.28272 261.18021999999996 C 226.28272 256.76194999999996 222.70099000000002 253.18021999999996 218.28272 253.18021999999996 Z" stroke-linecap="round" />
</g>
<g transform="matrix(0.61 0 0 0.61 82.51 146.59)" id="raQB5EFlinP7lcuPRyMt2"  >
<path style="stroke: none; stroke-width: 1; stroke-dasharray: none; stroke-linecap: butt; stroke-dashoffset: 0; stroke-linejoin: miter; stroke-miterlimit: 4; fill: rgb(47,46,65); fill-rule: nonzero; opacity: 1;" vector-effect="non-scaling-stroke"  transform=" translate(-126.74, -84.08)" d="M 159.19028 64.2235 C 159.4317 58.22536 153.03992 53.47587 147.05048 53.85132 C 141.06104 54.22677 135.9123 58.43978 132.51566 63.38909 C 129.12009 68.33422 127.08024 74.06209 124.40516 79.43136 C 121.73007999999999 84.80063 118.1677 90.0577 112.85194 92.84011 C 107.53721 95.61833999999999 100.13908 95.12263999999999 96.46558999999999 90.37911 C 94.14896999999999 93.89223 93.64511999999999 98.29903 95.10898999999999 102.24441 C 96.61283999999999 106.13879 99.41748999999999 109.39306 103.04718999999999 111.45532 C 104.49194999999999 112.31213 106.03519999999999 112.99072 107.64319999999998 113.47632 C 108.30621999999998 111.68668 109.23908999999998 110.00897 110.40943999999998 108.50141 C 109.88080999999997 110.28614 109.67902999999997 112.15168000000001 109.81379999999997 114.00815 C 112.29221999999997 114.48322 114.84187999999997 114.44306 117.30409999999998 113.89014 C 122.20659999999998 112.79349 126.30559999999997 109.45063 128.36584 104.86887 C 130.61227 99.55112 129.4681 93.48804 129.94853999999998 87.73569 C 130.42483 81.98227 133.89181 75.41434000000001 139.66454 75.32056 C 144.06092999999998 75.24823 143.47902 75.61069 146.26454999999999 79.0123" stroke-linecap="round" />
</g>
<g transform="matrix(0.61 0 0 0.61 110.19 153.7)" id="2UR4R9Tig1NkhnKTmbqmh"  >
<path style="stroke: none; stroke-width: 1; stroke-dasharray: none; stroke-linecap: butt; stroke-dashoffset: 0; stroke-linejoin: miter; stroke-miterlimit: 4; fill: rgb(47,46,65); fill-rule: nonzero; opacity: 1;" vector-effect="non-scaling-stroke"  transform=" translate(-172.11, -95.74)" d="M 199.11124 95.74193 C 199.11124 110.10134 187.47065 121.74193 173.11124 121.74193 C 158.75183 121.74193 145.11124 105.10134 145.11124 90.74193 C 145.11124 76.38252 158.75183 69.74193 173.11124 69.74193 C 187.47065 69.74193 199.11124 81.38252 199.11124 95.74193 Z" stroke-linecap="round" />
</g>
<g transform="matrix(0.61 0 0 0.61 115.59 157.88)" id="6fXt_4Ry0gXfflrU0MV_q"  >
<path style="stroke: none; stroke-width: 1; stroke-dasharray: none; stroke-linecap: butt; stroke-dashoffset: 0; stroke-linejoin: miter; stroke-miterlimit: 4; fill: rgb(160,97,106); fill-rule: nonzero; opacity: 1;" vector-effect="non-scaling-stroke"  transform=" translate(-24.81, -24.81)" d="M 0 24.80508 C 0 11.10561 11.10561 0 24.80508 0 C 38.50455 0 49.61016 11.10561 49.61016 24.80508 C 49.61016 38.50455 38.50455 49.61016 24.80508 49.61016 C 11.10561 49.61016 0 38.50455 0 24.80508 z" stroke-linecap="round" />
</g>
<g transform="matrix(0.61 0 0 0.61 114.77 156.46)" id="TvCz_4JSjUzev1rmT3M_4"  >
<path style="stroke: none; stroke-width: 1; stroke-dasharray: none; stroke-linecap: butt; stroke-dashoffset: 0; stroke-linejoin: miter; stroke-miterlimit: 4; fill: rgb(47,46,65); fill-rule: nonzero; opacity: 1;" vector-effect="non-scaling-stroke"  transform=" translate(-179.61, -100.26)" d="M 212.11124 98.74193 C 204.76825000000002 100.74692999999999 197.35431 102.84864999999999 194.49124 98.74193 C 193.93487000000002 96.01894 192.88052000000002 93.42208 191.38125 91.08193 C 191.09923999999998 93.70266 190.48427999999998 96.27672 189.55125999999998 98.74193 C 180.27425 100.75841 171.60371999999998 101.24043 164.11126 98.74193 C 163.08111 100.60524 162.48302999999999 102.67629 162.36126 104.80193 C 161.99078 104.56923 161.60296 104.36528 161.20126 104.19194 C 160.71945 103.91957000000001 160.14348999999999 103.86851 159.62126999999998 104.05193 C 159.26009 104.27001 159.02013 104.64287 158.97127999999998 105.06193999999999 C 158.92153999999996 105.47904999999999 158.94179999999997 105.90150999999999 159.03127999999998 106.31193999999999 C 159.13622999999998 107.74226999999999 159.56356999999997 109.13027 160.28127999999998 110.37194 C 160.85531999999998 111.23669 161.76595999999998 111.82078999999999 162.79128999999998 111.98192999999999 C 163.83129999999997 117.83193999999999 172.11129999999997 125.74193999999999 172.11129999999997 125.74193999999999 C 147.11129999999997 126.74193999999999 147.11129999999997 109.78194999999998 147.11129999999997 93.74193999999999 L 150.11129999999997 87.74193999999999 L 160.11129999999997 87.74193999999999 L 160.11129999999997 74.74193999999999 L 188.11129999999997 74.74193999999999 C 201.36468999999997 74.74538999999999 212.10781999999998 85.48854999999999 212.11123999999998 98.74193999999999 Z" stroke-linecap="round" />
</g>
<g transform="matrix(0.61 0 0 0.61 139.75 403.88)" id="04RV9bDn7mq6o51gd2A_u"  >
<path style="stroke: none; stroke-width: 1; stroke-dasharray: none; stroke-linecap: butt; stroke-dashoffset: 0; stroke-linejoin: miter; stroke-miterlimit: 4; fill: rgb(46,46,46); fill-rule: nonzero; opacity: 1;" vector-effect="non-scaling-stroke"  transform=" translate(-220.57, -505.87)" d="M 439.9469 506.91136 L 1.1969000000000278 507.21867 C 0.5393100000000278 507.22209 0.0034500000000279307 506.69181 0.0000200000000278866 506.03421999999995 C -0.0034099999999721575 505.3766299999999 0.5268900000000278 504.8407399999999 1.184480000000028 504.8373199999999 L 1.196900000000028 504.8373199999999 L 439.9469 504.53000999999995 C 440.60449000000006 504.53214999999994 441.13586000000004 505.06693999999993 441.13373 505.72452999999996 C 441.13165000000004 506.37913 440.6015 506.90921999999995 439.9469 506.91135999999995 Z" stroke-linecap="round" />
</g>
<g transform="matrix(0.61 0 0 0.61 383.14 403.88)" id="60ioEAwHQRlrm9ckWuYwz"  >
<path style="stroke: none; stroke-width: 1; stroke-dasharray: none; stroke-linecap: butt; stroke-dashoffset: 0; stroke-linejoin: miter; stroke-miterlimit: 4; fill: rgb(46,46,46); fill-rule: nonzero; opacity: 1;" vector-effect="non-scaling-stroke"  transform=" translate(-619.57, -505.87)" d="M 732.9469 506.91136 L 506.1969 507.21867 C 505.53931 507.22209 505.00342 506.69181 505 506.03421999999995 C 504.99658 505.3766299999999 505.52692 504.8407399999999 506.18451 504.8373199999999 L 506.19689999999997 504.8373199999999 L 732.9468999999999 504.53000999999995 C 733.6044899999999 504.52786999999995 734.1392799999999 505.05924999999996 734.1414199999999 505.71683999999993 C 734.14356 506.3744299999999 733.61218 506.90921999999995 732.9545899999999 506.91135999999995 L 732.9468999999999 506.91135999999995 Z" stroke-linecap="round" />
</g>
<g transform="matrix(0.61 0 0 0.61 253.47 159.96)" id="XiMPmX7MSntrJ-1a5HKR4"  >
<path style="stroke: none; stroke-width: 1; stroke-dasharray: none; stroke-linecap: butt; stroke-dashoffset: 0; stroke-linejoin: miter; stroke-miterlimit: 4; fill: rgb(140,142,145); fill-rule: nonzero; opacity: 1;" vector-effect="non-scaling-stroke"  transform=" translate(-407, -106)" d="M 449.97424 147.99998 L 364.02112 147.99998 C 356.55579 147.99165 350.50604 141.94187 350.49774 134.47654 L 350.49774 77.52345 C 350.50604000000004 70.05812 356.55585 64.00831 364.02118 64.00001 L 449.9743 64.00001 C 457.43963 64.00831000000001 463.48944 70.05812 463.49774 77.52345 L 463.49774 134.47654 C 463.48944 141.9419 457.43963 147.99171 449.97424 147.99998 Z M 364.02112 65.99998 C 357.65990999999997 66.00724 352.50495 71.16224 352.49774 77.52345 L 352.49774 134.47654 C 352.50494000000003 140.83778 357.65997000000004 145.99274 364.02118 145.99998 L 449.9743 145.99998 C 456.33551 145.99275 461.49054 140.83777999999998 461.49774 134.47654 L 461.49774 77.52345 C 461.49054 71.16221 456.33551 66.00725 449.9743 66.00001 L 364.02111 65.99998000000001 Z" stroke-linecap="round" />
</g>
<g transform="matrix(0.61 0 0 0.61 235.78 145.93)" id="fIBXo0au7cmTONUSKrVCi"  >
<path style="stroke: none; stroke-width: 1; stroke-dasharray: none; stroke-linecap: butt; stroke-dashoffset: 0; stroke-linejoin: miter; stroke-miterlimit: 4; fill: rgb(230,230,230); fill-rule: nonzero; opacity: 1;" vector-effect="non-scaling-stroke"  transform=" translate(-11.5, -1)" d="M 0 2 L 0 0 L 22.99121 0 L 22.99121 2 z" stroke-linecap="round" />
</g>
<g transform="matrix(0.61 0 0 0.61 244.32 150.81)" id="LqCIBCI2PJKRv-RKUaWv8"  >
<path style="stroke: none; stroke-width: 1; stroke-dasharray: none; stroke-linecap: butt; stroke-dashoffset: 0; stroke-linejoin: miter; stroke-miterlimit: 4; fill: rgb(230,230,230); fill-rule: nonzero; opacity: 1;" vector-effect="non-scaling-stroke"  transform=" translate(-25.5, -1)" d="M 0 2 L 0 0 L 51 0 L 51 2 z" stroke-linecap="round" />
</g>
<g transform="matrix(0.61 0 0 0.61 244.32 155.08)" id="ZPGbcneF8R2oWlUK9ha5H"  >
<path style="stroke: none; stroke-width: 1; stroke-dasharray: none; stroke-linecap: butt; stroke-dashoffset: 0; stroke-linejoin: miter; stroke-miterlimit: 4; fill: rgb(230,230,230); fill-rule: nonzero; opacity: 1;" vector-effect="non-scaling-stroke"  transform=" translate(-25.5, -1)" d="M 0 2 L 0 0 L 51 0 L 51 2 z" stroke-linecap="round" />
</g>
<g transform="matrix(0.61 0 0 0.61 248.59 159.35)" id="Y_UyMXaL5lnVYH9ZIwf3w"  >
<path style="stroke: none; stroke-width: 1; stroke-dasharray: none; stroke-linecap: butt; stroke-dashoffset: 0; stroke-linejoin: miter; stroke-miterlimit: 4; fill: rgb(230,230,230); fill-rule: nonzero; opacity: 1;" vector-effect="non-scaling-stroke"  transform=" translate(-32.5, -1)" d="M 0 2 L 0 0 L 65 0 L 65 2 z" stroke-linecap="round" />
</g>
<g transform="matrix(0.61 0 0 0.61 239.14 163.62)" id="TfOBbTR1h7sk-uJakG8yD"  >
<path style="stroke: none; stroke-width: 1; stroke-dasharray: none; stroke-linecap: butt; stroke-dashoffset: 0; stroke-linejoin: miter; stroke-miterlimit: 4; fill: rgb(230,230,230); fill-rule: nonzero; opacity: 1;" vector-effect="non-scaling-stroke"  transform=" translate(-17, -1)" d="M 0 2 L 0 0 L 34 0 L 34 2 z" stroke-linecap="round" />
</g>
<g transform="matrix(0.61 0 0 0.61 247.68 167.89)" id="jMAHvYoQTUMs5nYCXcLfT"  >
<path style="stroke: none; stroke-width: 1; stroke-dasharray: none; stroke-linecap: butt; stroke-dashoffset: 0; stroke-linejoin: miter; stroke-miterlimit: 4; fill: rgb(230,230,230); fill-rule: nonzero; opacity: 1;" vector-effect="non-scaling-stroke"  transform=" translate(-31, -1)" d="M 0 2 L 0 0 L 62 0 L 62 2 z" stroke-linecap="round" />
</g>
<g transform="matrix(0.61 0 0 0.61 232.12 172.16)" id="RbUtyRiJvfMu8qp9_lsLA"  >
<path style="stroke: none; stroke-width: 1; stroke-dasharray: none; stroke-linecap: butt; stroke-dashoffset: 0; stroke-linejoin: miter; stroke-miterlimit: 4; fill: rgb(230,230,230); fill-rule: nonzero; opacity: 1;" vector-effect="non-scaling-stroke"  transform=" translate(-5.5, -1)" d="M 0 2 L 0 0 L 11 0 L 11 2 z" stroke-linecap="round" />
</g>
<g transform="matrix(0.61 0 0 0.61 227.66 117.5)" id="Uob0ceiC7-h0FRf02R9Zo"  >
<path style="stroke: none; stroke-width: 1; stroke-dasharray: none; stroke-linecap: butt; stroke-dashoffset: 0; stroke-linejoin: miter; stroke-miterlimit: 4; fill: rgb(204,204,204); fill-rule: nonzero; opacity: 1;" vector-effect="non-scaling-stroke"  transform=" translate(-364.68, -36.4)" d="M 365.74896 38.95834 C 365.65182 38.95834 365.55487 38.92073 365.48165 38.84587 L 363.34796 36.664699999999996 C 363.20573 36.51936 363.20573 36.28711 363.34796 36.14178 L 365.48165 33.9608 C 365.62644 33.813269999999996 365.86344 33.8109 366.01042 33.95496 C 366.15813 34.09939 366.16069 34.3362 366.01626 34.48373 L 364.13837 36.40325 L 366.01626 38.32295 C 366.16069 38.47048 366.15812999999997 38.70729 366.01042 38.85172 C 365.93775 38.92293 365.84335 38.95835 365.74896 38.95835 Z" stroke-linecap="round" />
</g>
<g transform="matrix(0.61 0 0 0.61 231.15 117.5)" id="g8DulZOqwWXTxgQfwaa3W"  >
<path style="stroke: none; stroke-width: 1; stroke-dasharray: none; stroke-linecap: butt; stroke-dashoffset: 0; stroke-linejoin: miter; stroke-miterlimit: 4; fill: rgb(204,204,204); fill-rule: nonzero; opacity: 1;" vector-effect="non-scaling-stroke"  transform=" translate(-370.4, -36.4)" d="M 369.33439 38.95834 C 369.23999 38.95834 369.1456 38.92292 369.07293 38.85171 C 368.92521999999997 38.70728 368.92266 38.47065 369.06709 38.322939999999996 L 370.9448 36.40324 L 369.06709 34.48372 C 368.92266 34.336189999999995 368.92522 34.09938 369.07293 33.95495 C 369.22028 33.81034 369.45727 33.81308 369.6017 33.960789999999996 L 371.73521 36.141769999999994 C 371.87744 36.28710999999999 371.87744 36.51935999999999 371.73521 36.66468999999999 L 369.6017 38.845859999999995 C 369.52848 38.920719999999996 369.43153 38.95833 369.33439 38.95833 Z" stroke-linecap="round" />
</g>
<g transform="matrix(0.61 0 0 0.61 297.38 117.47)" id="t2cWJCN9ssN8ApxbdVQTm"  >
<path style="stroke: none; stroke-width: 1; stroke-dasharray: none; stroke-linecap: butt; stroke-dashoffset: 0; stroke-linejoin: miter; stroke-miterlimit: 4; fill: rgb(204,204,204); fill-rule: nonzero; opacity: 1;" vector-effect="non-scaling-stroke"  transform=" translate(-478.98, -36.35)" d="M 480.95765 33.5449 L 476.99021 33.5449 C 476.53774 33.5449 476.17129 33.91135 476.17129 34.36382 L 476.17129 38.33501 C 476.17129 38.787479999999995 476.53774 39.153929999999995 476.99021 39.153929999999995 L 480.95765 39.153929999999995 C 481.41012 39.153929999999995 481.78031 38.787479999999995 481.78031 38.33501 L 481.78031 34.36382 C 481.78031 33.91135 481.41012 33.5449 480.95765 33.5449 Z" stroke-linecap="round" />
</g>
<g transform="matrix(0.61 0 0 0.61 291.45 117.47)" id="NBCnnJPCzy-STwaQebFcD"  >
<path style="stroke: none; stroke-width: 1; stroke-dasharray: none; stroke-linecap: butt; stroke-dashoffset: 0; stroke-linejoin: miter; stroke-miterlimit: 4; fill: rgb(204,204,204); fill-rule: nonzero; opacity: 1;" vector-effect="non-scaling-stroke"  transform=" translate(-469.25, -36.35)" d="M 471.23534 33.5449 L 467.2679 33.5449 C 466.81543 33.5449 466.44898 33.91135 466.44898 34.36382 L 466.44898 38.33501 C 466.44898 38.787479999999995 466.81543 39.153929999999995 467.2679 39.153929999999995 L 471.23534 39.153929999999995 C 471.68781 39.153929999999995 472.058 38.787479999999995 472.058 38.33501 L 472.058 34.36382 C 472.058 33.91135 471.68781 33.5449 471.23534 33.5449 Z" stroke-linecap="round" />
</g>
<g transform="matrix(0.61 0 0 0.61 302.97 117.59)" id="UCgsUBymVzJiECMWHU-ce"  >
<path style="stroke: none; stroke-width: 1; stroke-dasharray: none; stroke-linecap: butt; stroke-dashoffset: 0; stroke-linejoin: miter; stroke-miterlimit: 4; fill: rgb(204,204,204); fill-rule: nonzero; opacity: 1;" vector-effect="non-scaling-stroke"  transform=" translate(-488.14, -36.54)" d="M 490.11906 33.73186 L 486.15162 33.73186 C 485.69915 33.73186 485.3327 34.09831 485.3327 34.550779999999996 L 485.3327 38.521969999999996 C 485.3327 38.974439999999994 485.69915 39.340889999999995 486.15162 39.340889999999995 L 490.11906 39.340889999999995 C 490.57153 39.340889999999995 490.94172 38.974439999999994 490.94172 38.521969999999996 L 490.94172 34.550779999999996 C 490.94172 34.09831 490.57153 33.73186 490.11906 33.73186 Z" stroke-linecap="round" />
</g>
<g transform="matrix(0.61 0 0 0.61 258.03 117.4)" id="tHe1ytIrAsA6vndSjseit"  >
<path style="stroke: none; stroke-width: 1; stroke-dasharray: none; stroke-linecap: butt; stroke-dashoffset: 0; stroke-linejoin: miter; stroke-miterlimit: 4; fill: rgb(204,204,204); fill-rule: nonzero; opacity: 1;" vector-effect="non-scaling-stroke"  transform=" translate(-414.46, -36.24)" d="M 430.31875 35.24255 L 398.60533000000004 35.24255 C 398.05189 35.24255 397.60691 35.69128 397.60691 36.240970000000004 C 397.60691 36.79066000000001 398.05189 37.23937 398.60533000000004 37.23937 L 430.31875 37.23937 C 430.86842 37.23937 431.31715 36.79064 431.31715 36.240970000000004 C 431.31715 35.691300000000005 430.86842 35.24255 430.31875 35.24255 Z" stroke-linecap="round" />
</g>
</svg>