<?xml version="1.0" encoding="UTF-8" standalone="no" ?>
<!DOCTYPE svg PUBLIC "-//W3C//DTD SVG 1.1//EN" "http://www.w3.org/Graphics/SVG/1.1/DTD/svg11.dtd">
<svg xmlns="http://www.w3.org/2000/svg" xmlns:xlink="http://www.w3.org/1999/xlink" version="1.1" width="500" height="500" viewBox="0 0 500 500" xml:space="preserve">
<desc>Created with Fabric.js 4.6.0</desc>
<defs>
</defs>
<g transform="matrix(0.71 0 0 0.71 448.82 363.61)" id="3_TMzGgi-bCqfu5Yb32A6"  >
<path style="stroke: none; stroke-width: 1; stroke-dasharray: none; stroke-linecap: butt; stroke-dashoffset: 0; stroke-linejoin: miter; stroke-miterlimit: 4; fill: rgb(140,142,145); fill-rule: nonzero; opacity: 1;" vector-effect="non-scaling-stroke"  transform=" translate(-880.75, -610.01)" d="M 890.46523 679.51478 C 876.8929049574435 694.0458774412588 861.341282787583 706.5926305928657 844.26874 716.78523 C 843.8772 717.0259199999999 843.4790399999999 717.2519299999999 843.07949 717.4855399999999 L 815.44049 693.0229099999999 C 815.73084 692.7533399999999 816.05237 692.4505599999999 816.39855 692.1179699999999 C 836.99246 672.563 939.22932 535.83823 946.042 502.54351 C 945.57186 505.31735 952.18923 614.09419 890.46523 679.51478 Z" stroke-linecap="round" />
</g>
<g transform="matrix(0.71 0 0 0.71 455.51 416.19)" id="1bZrD3QyFDu_x-FAMDJ8Y"  >
<path style="stroke: none; stroke-width: 1; stroke-dasharray: none; stroke-linecap: butt; stroke-dashoffset: 0; stroke-linejoin: miter; stroke-miterlimit: 4; fill: rgb(140,142,145); fill-rule: nonzero; opacity: 1;" vector-effect="non-scaling-stroke"  transform=" translate(-890.17, -684.07)" d="M 849.6017 721.5053 C 849.07905 721.62996 848.5473000000001 721.74667 848.0140600000001 721.85302 L 827.2785600000001 703.50051 C 827.6838000000001 703.3593199999999 828.1573900000001 703.19124 828.6990200000001 703.00483 C 837.5956400000001 699.85457 864.0933800000001 690.34457 890.4631500000002 679.51294 C 918.7976200000002 667.86925 946.9962600000001 654.71308 953.0608000000002 646.28594 C 951.75986 648.244 911.68646 707.62224 849.6017 721.5053 Z" stroke-linecap="round" />
</g>
<g transform="matrix(0.71 0 0 0.71 360.31 256.14)" id="RKTRemt8WO3rn6nlC_mI3"  >
<path style="stroke: none; stroke-width: 1; stroke-dasharray: none; stroke-linecap: butt; stroke-dashoffset: 0; stroke-linejoin: miter; stroke-miterlimit: 4; fill: rgb(63,61,86); fill-rule: nonzero; opacity: 1;" vector-effect="non-scaling-stroke"  transform=" translate(-756.09, -458.65)" d="M 890.08181 317.64639 L 887.12892 317.64639 L 887.12892 236.75278 C 887.1289359130027 224.3355987665443 882.1962410289062 212.4269875043204 873.4159736015945 203.6467088248237 C 864.6357061742826 194.86643014532694 852.7271012334659 189.93371999998982 840.30992 189.93372 L 668.92579 189.93372 C 656.5086156969788 189.93369082615501 644.600005228764 194.86636750170356 635.8197183222791 203.64661690091032 C 627.0394314157941 212.4268663001171 622.1067038694564 224.33545569696753 622.10668 236.75263000000004 L 622.10668 680.54143 C 622.1066640869973 692.9586112334557 627.0393589710937 704.8672224956796 635.8196263984055 713.6475011751763 C 644.5998938257173 722.4277798546731 656.508498766534 727.3604900000103 668.9256799999999 727.36049 L 840.30972 727.36049 C 852.7268960356329 727.360529782531 864.635512233599 722.4278619084387 873.4158069290042 713.6476178478605 C 882.1961016244095 704.8673737872824 887.1288381740717 692.9587860356559 887.12887 680.54161 L 887.12887 375.22785 L 890.08181 375.22785 Z" stroke-linecap="round" />
</g>
<g transform="matrix(0.71 0 0 0.71 360.31 256.14)" id="dnHNdIuS9DSvdJZ53U2Yz"  >
<path style="stroke: none; stroke-width: 1; stroke-dasharray: none; stroke-linecap: butt; stroke-dashoffset: 0; stroke-linejoin: miter; stroke-miterlimit: 4; fill: rgb(255,255,255); fill-rule: nonzero; opacity: 1;" vector-effect="non-scaling-stroke"  transform=" translate(-756.09, -458.65)" d="M 877.1627 237.07439 L 877.1627 680.21716 C 877.1627404050031 689.4904526540503 873.4780974326923 698.383763342904 866.9197116239095 704.9397935619048 C 860.3613258151269 711.4958237809057 851.4666920411714 715.1772717119636 842.1934 715.1739 L 669.98426 715.1739 C 660.7129167447785 715.1746029115776 651.8210980042824 711.4919052595138 645.2652439187428 704.9360999345106 C 638.7093898332034 698.3802946095074 635.0266260462337 689.4885032601932 635.02726 680.21716 L 635.02726 237.07439 C 635.0266260462337 227.8030467398069 638.7093898332034 218.9112553904927 645.2652439187428 212.3554500654894 C 651.8210980042822 205.79964474048612 660.7129167447785 202.11694708842236 669.98426 202.11765 L 690.8826499999999 202.11765 C 688.7995462670843 207.23976604962158 689.4004661941341 213.0624886943 692.4857536368323 217.65121350450667 C 695.5710410795306 222.23993831471333 700.7365590811239 224.99359543403514 706.2660599999999 224.99728 L 804.4475199999999 224.99728 C 809.9805394665369 225.00252169266406 815.1525078625535 222.25084145191906 818.2398407849515 217.65925051644825 C 821.3271737073494 213.06765958097745 821.9240358834242 207.2397305509126 819.83152 202.11765 L 842.1934 202.11765 C 851.4666920411714 202.11427828803636 860.3613258151269 205.79572621909432 866.9197116239095 212.35175643809518 C 873.4780974326923 218.90778665709604 877.1627404050031 227.80109734594976 877.1627 237.07439 Z" stroke-linecap="round" />
</g>
<g transform="matrix(0.71 0 0 0.71 354.51 253.46)" id="42n5-8qaQCXywDqMZR-iH"  >
<path style="stroke: none; stroke-width: 1; stroke-dasharray: none; stroke-linecap: butt; stroke-dashoffset: 0; stroke-linejoin: miter; stroke-miterlimit: 4; fill: rgb(240,240,240); fill-rule: nonzero; opacity: 1;" vector-effect="non-scaling-stroke"  transform=" translate(-747.91, -454.87)" d="M 823.59459 467.3551 L 672.22789 467.3551 C 666.707624012575 467.348872648843 662.234117351157 462.875365987425 662.22789 457.3551 L 662.22789 452.37756 C 662.234117351157 446.857294012575 666.707624012575 442.383787351157 672.22789 442.37756 L 823.59459 442.37756 C 829.114855987425 442.383787351157 833.588362648843 446.857294012575 833.59459 452.37756 L 833.59459 457.3551 C 833.588362648843 462.875365987425 829.114855987425 467.348872648843 823.59459 467.3551 Z" stroke-linecap="round" />
</g>
<g transform="matrix(0.71 0 0 0.71 354.51 283.92)" id="dBSPPWwIV_79mye3ErrUZ"  >
<path style="stroke: none; stroke-width: 1; stroke-dasharray: none; stroke-linecap: butt; stroke-dashoffset: 0; stroke-linejoin: miter; stroke-miterlimit: 4; fill: rgb(240,240,240); fill-rule: nonzero; opacity: 1;" vector-effect="non-scaling-stroke"  transform=" translate(-747.91, -497.77)" d="M 823.59459 510.26233 L 672.22789 510.26233 C 666.707624012575 510.256102648843 662.234117351157 505.78259598742505 662.22789 500.26233 L 662.22789 495.28479000000004 C 662.234117351157 489.764524012575 666.707624012575 485.29101735115705 672.22789 485.28479000000004 L 823.59459 485.28479000000004 C 829.114855987425 485.29101735115705 833.588362648843 489.764524012575 833.59459 495.28479000000004 L 833.59459 500.26233 C 833.588362648843 505.78259598742505 829.114855987425 510.256102648843 823.59459 510.26233 Z" stroke-linecap="round" />
</g>
<g transform="matrix(0.71 0 0 0.71 359.88 246.29)" id="AXlQ_NihtrlUU53siOTTA"  >
<path style="stroke: none; stroke-width: 1; stroke-dasharray: none; stroke-linecap: butt; stroke-dashoffset: 0; stroke-linejoin: miter; stroke-miterlimit: 4; fill: rgb(63,61,86); fill-rule: nonzero; opacity: 1;" vector-effect="non-scaling-stroke"  transform=" translate(-755.48, -444.77)" d="M 831.16637 457.75891 L 679.79967 457.75891 C 674.0034215117947 457.7522970460415 669.3062829539584 453.05515848820534 669.29967 447.25891 L 669.29967 442.28137000000004 C 669.3062829539584 436.4851215117947 674.0034215117947 431.78798295395853 679.79967 431.78137000000004 L 831.16637 431.78137000000004 C 836.9626184882053 431.78798295395853 841.6597570460416 436.4851215117947 841.66637 442.28137000000004 L 841.66637 447.25891 C 841.6597570460416 453.05515848820534 836.9626184882053 457.7522970460415 831.16637 457.75891 Z M 679.79967 433.78137000000004 C 675.1074222369788 433.78661100647145 671.3049110064713 437.58912223697877 671.29967 442.28137000000004 L 671.29967 447.25891 C 671.3049110064713 451.9511577630213 675.1074222369788 455.75366899352866 679.79967 455.75891 L 831.16637 455.75891 C 835.8586177630212 455.75366899352866 839.6611289935287 451.9511577630213 839.66637 447.25891 L 839.66637 442.28137000000004 C 839.6611289935287 437.58912223697877 835.8586177630212 433.7866110064714 831.16637 433.78137000000004 Z" stroke-linecap="round" />
</g>
<g transform="matrix(0.71 0 0 0.71 359.88 276.75)" id="6QUyfD0MUuqXMfVqbdo9B"  >
<path style="stroke: none; stroke-width: 1; stroke-dasharray: none; stroke-linecap: butt; stroke-dashoffset: 0; stroke-linejoin: miter; stroke-miterlimit: 4; fill: rgb(63,61,86); fill-rule: nonzero; opacity: 1;" vector-effect="non-scaling-stroke"  transform=" translate(-755.48, -487.68)" d="M 831.16637 500.66614 L 679.79967 500.66614 C 674.0034215117947 500.6595270460415 669.3062829539584 495.9623884882053 669.29967 490.16614 L 669.29967 485.1886 C 669.3062829539584 479.3923515117947 674.0034215117947 474.6952129539585 679.79967 474.6886 L 831.16637 474.6886 C 836.9626184882053 474.6952129539585 841.6597570460416 479.3923515117947 841.66637 485.1886 L 841.66637 490.16614 C 841.6597570460416 495.9623884882053 836.9626184882053 500.6595270460415 831.16637 500.66614 Z M 679.79967 476.6886 C 675.1074222369788 476.6938410064714 671.3049110064713 480.49635223697874 671.29967 485.1886 L 671.29967 490.16614 C 671.3049110064713 494.85838776302126 675.1074222369788 498.66089899352863 679.79967 498.66614 L 831.16637 498.66614 C 835.8586177630212 498.66089899352863 839.6611289935287 494.85838776302126 839.66637 490.16614 L 839.66637 485.1886 C 839.6611289935287 480.49635223697874 835.8586177630212 476.69384100647136 831.16637 476.6886 Z" stroke-linecap="round" />
</g>
<g transform="matrix(0.71 0 0 0.71 400.17 121.84)" id="RNeiUkxHmLF9Q364ll_sk"  >
<path style="stroke: none; stroke-width: 1; stroke-dasharray: none; stroke-linecap: butt; stroke-dashoffset: 0; stroke-linejoin: miter; stroke-miterlimit: 4; fill: rgb(140,142,145); fill-rule: nonzero; opacity: 1;" vector-effect="non-scaling-stroke"  transform=" translate(-812.22, -269.5)" d="M 877.1627 237.07439 L 877.1627 333.4641 C 846.1223721647559 341.6304616709552 813.0498233912239 334.9394997695175 787.6249179596537 315.34956360688574 C 762.2000125280834 295.759627444254 747.2979197244514 265.48604021683616 747.28027 233.38945 Q 747.28027 229.14922 747.62103 224.99728000000002 L 804.44752 224.99728000000002 C 809.980539466537 225.0025216926641 815.1525078625536 222.2508414519191 818.2398407849516 217.65925051644828 C 821.3271737073495 213.06765958097748 821.9240358834243 207.23973055091264 819.8315200000001 202.11765000000003 L 842.1934 202.11765000000003 C 851.4666920411714 202.1142782880364 860.3613258151269 205.79572621909435 866.9197116239095 212.3517564380952 C 873.4780974326923 218.90778665709604 877.1627404050031 227.80109734594978 877.1627 237.07439000000002 Z" stroke-linecap="round" />
</g>
<g transform="matrix(0.71 0 0 0.71 305.25 408.81)" id="bveYkyeulvKIioMLXQ-ll"  >
<path style="stroke: none; stroke-width: 1; stroke-dasharray: none; stroke-linecap: butt; stroke-dashoffset: 0; stroke-linejoin: miter; stroke-miterlimit: 4; fill: rgb(14,20,30); fill-rule: nonzero; opacity: 1;" vector-effect="non-scaling-stroke"  transform=" translate(-678.53, -673.67)" d="M 722.04076 709.15425 C 722.04076 711.18601 721.96496 713.19259 721.80105 715.1739 L 669.98426 715.1739 C 660.7129167447785 715.1746029115776 651.8210980042824 711.4919052595138 645.2652439187428 704.9360999345106 C 638.7093898332034 698.3802946095074 635.0266260462337 689.4885032601932 635.02726 680.21716 L 635.02726 632.81736 C 656.9999255830406 629.9596850045642 679.139614629431 636.6968755997509 695.7959977766438 651.3095153221598 C 712.4523809238566 665.9221550445687 722.0140442361101 686.996550952633 722.0407299999999 709.1542499999999 Z" stroke-linecap="round" />
</g>
<g transform="matrix(0.71 0 0 0.71 53.14 329.82)" id="NMZkMI9DzkFHSyOYzOXc6"  >
<path style="stroke: none; stroke-width: 1; stroke-dasharray: none; stroke-linecap: butt; stroke-dashoffset: 0; stroke-linejoin: miter; stroke-miterlimit: 4; fill: rgb(14,20,30); fill-rule: nonzero; opacity: 1;" vector-effect="non-scaling-stroke"  transform=" translate(-323.45, -562.42)" d="M 304.12133 625.985 C 307.1528907370083 627.3183467021889 310.6916885771454 625.9464418739857 312.03233 622.9181 L 358.71165 517.12416 C 360.89651460201867 512.1731505479105 359.8836758222621 506.39350695413265 356.1454547987774 502.4804734118012 C 352.40723377529275 498.5674398694697 346.6798787579544 497.2916942168241 341.63425 499.24816 L 341.63413 499.24816 C 338.7836121493819 500.3367845275793 336.39830032836716 502.37937730513835 334.88401000000005 505.02842999999996 C 334.64312690765286 505.4475371434001 334.42467907960884 505.8791453486213 334.22959000000003 506.32142999999996 L 287.55027 612.11543 C 286.90775536966805 613.5713206792578 286.8699706957032 615.2228331100026 287.44522973956623 616.7065850274721 C 288.02048878342924 618.1903369449416 289.16165946146185 619.384761691039 290.61765 620.0270499999999 Z" stroke-linecap="round" />
</g>
<g transform="matrix(0.71 0 0 0.71 60.42 305.67)" id="zkLpcPlD4v6vH3TxgSnSe"  >
<path style="stroke: none; stroke-width: 1; stroke-dasharray: none; stroke-linecap: butt; stroke-dashoffset: 0; stroke-linejoin: miter; stroke-miterlimit: 4; fill: rgb(47,46,65); fill-rule: nonzero; opacity: 1;" vector-effect="non-scaling-stroke"  transform=" translate(-333.71, -528.41)" d="M 356.79528 560.55725 L 310.62352 550.2965099999999 L 322.05152 520.0645799999999 C 326.07463162000505 504.7948096691462 340.64951653104544 494.75444812985586 356.35051999999996 496.4366499999999 L 356.79535 496.48595999999986 Z" stroke-linecap="round" />
</g>
<g transform="matrix(0.71 0 0 0.71 131.03 329.82)" id="vrCQiUhD1kj-I0O-jYhHK"  >
<path style="stroke: none; stroke-width: 1; stroke-dasharray: none; stroke-linecap: butt; stroke-dashoffset: 0; stroke-linejoin: miter; stroke-miterlimit: 4; fill: rgb(14,20,30); fill-rule: nonzero; opacity: 1;" vector-effect="non-scaling-stroke"  transform=" translate(-433.15, -562.42)" d="M 450.055 627.49817 C 447.2806686442166 627.4934802357615 444.76870898202793 625.8571605658618 443.64314 623.32141 L 396.964 517.52747 C 393.88141623838595 510.5379862553629 396.80159212785213 502.35811333239815 403.61358112945226 498.9009451985071 C 410.4255701310524 495.443777064616 418.75179658822225 497.91596258459526 422.57337 504.5304 L 422.57337 504.52991 C 422.83206042794325 504.9798352010091 423.066605904639 505.44321807109844 423.27601 505.91808999999995 L 469.95520999999997 611.71209 C 471.51574130572254 615.2490939831947 469.9135535538228 619.3814670627713 466.37658999999996 620.94209 L 452.41517 627.10175 L 452.40809 627.08613 C 451.653418289907 627.3583766244099 450.85727642798054 627.4977857812157 450.055 627.49817 Z" stroke-linecap="round" />
</g>
<g transform="matrix(0.71 0 0 0.71 102.43 398.16)" id="2bEy_U30_q5o3NX0hnbpY"  >
<path style="stroke: none; stroke-width: 1; stroke-dasharray: none; stroke-linecap: butt; stroke-dashoffset: 0; stroke-linejoin: miter; stroke-miterlimit: 4; fill: rgb(14,20,30); fill-rule: nonzero; opacity: 1;" vector-effect="non-scaling-stroke"  transform=" translate(-392.87, -658.68)" d="M 385.48546 591.16907 C 382.17328443743344 591.1727679165441 379.489157916544 593.8568944374335 379.48546 597.16907 L 379.48546 720.18323 C 379.48916341581327 723.4954032810946 382.17328671890544 726.1795265841866 385.48546 726.18323 L 400.245 726.18323 C 403.55717328109455 726.1795265841866 406.2412965841867 723.4954032810946 406.245 720.18323 L 406.245 597.16907 C 406.241302083456 593.8568944374335 403.55717556256656 591.1727679165441 400.245 591.16907 Z" stroke-linecap="round" />
</g>
<g transform="matrix(0.71 0 0 0.71 81.7 398.16)" id="g9kXrALhMMl2Mro_Bssn8"  >
<path style="stroke: none; stroke-width: 1; stroke-dasharray: none; stroke-linecap: butt; stroke-dashoffset: 0; stroke-linejoin: miter; stroke-miterlimit: 4; fill: rgb(14,20,30); fill-rule: nonzero; opacity: 1;" vector-effect="non-scaling-stroke"  transform=" translate(-363.67, -658.68)" d="M 356.29308 591.16907 C 352.9809044374334 591.1727679165441 350.296777916544 593.8568944374335 350.29308 597.16907 L 350.29308 720.18323 C 350.29678341581325 723.4954032810946 352.98090671890543 726.1795265841866 356.29308 726.18323 L 371.05283999999995 726.18323 C 374.3650132810945 726.1795265841866 377.04913658418667 723.4954032810946 377.05283999999995 720.18323 L 377.05283999999995 597.16907 C 377.04914208345593 593.8568944374335 374.3650155625665 591.1727679165441 371.05283999999995 591.16907 Z" stroke-linecap="round" />
</g>
<g transform="matrix(0.71 0 0 0.71 91.75 222.52)" id="iuvuIR2G3K3CBUqG6AM8d"  >
<path style="stroke: none; stroke-width: 1; stroke-dasharray: none; stroke-linecap: butt; stroke-dashoffset: 0; stroke-linejoin: miter; stroke-miterlimit: 4; fill: rgb(14,20,30); fill-rule: nonzero; opacity: 1;" vector-effect="non-scaling-stroke"  transform=" translate(-51, -51)" d="M 0 51 C 0 22.83348 22.83348 0 51 0 C 79.16651999999999 0 102 22.83348 102 51 C 102 79.16651999999999 79.16651999999999 102 51 102 C 22.83348 102 0 79.16651999999999 0 51 z" stroke-linecap="round" />
</g>
<g transform="matrix(0.71 0 0 0.71 108.68 225.63)" id="xMerrr_zRuc2813AM866s"  >
<path style="stroke: none; stroke-width: 1; stroke-dasharray: none; stroke-linecap: butt; stroke-dashoffset: 0; stroke-linejoin: miter; stroke-miterlimit: 4; fill: rgb(47,46,65); fill-rule: nonzero; opacity: 1;" vector-effect="non-scaling-stroke"  transform=" translate(-401.67, -415.68)" d="M 394.79994 432.69926 C 398.10585 432.60747 402.22023 432.49271999999996 405.38993999999997 430.17726 C 407.3004963492503 428.7244073575808 408.47171435560693 426.50180225142657 408.59002 424.10451 C 408.70623687584396 422.39834842436613 408.017949889113 420.73599453886555 406.72965999999997 419.61136 C 405.07415 418.21242 402.65666 417.88428999999996 400.05143999999996 418.64992 L 402.75066 398.92433 L 400.76921999999996 398.65285 L 397.596 421.84282 L 399.25066 421.08354 C 401.169 420.20366 403.8023 419.75590000000005 405.43865999999997 421.13872000000003 C 406.2531387318706 421.8715056066953 406.6793683664046 422.9421546917152 406.59137 424.03422000000006 C 406.4932221121522 425.81779741696613 405.6240705424929 427.4704639981725 404.21013999999997 428.5620600000001 C 401.74346999999995 430.3638100000001 398.46392999999995 430.5962400000001 394.74431999999996 430.70024000000006 Z" stroke-linecap="round" />
</g>
<g transform="matrix(0.71 0 0 0.71 120.23 215.66)" id="MxD_dF0jJwpT3KNOZjzpi"  >
<path style="stroke: none; stroke-width: 1; stroke-dasharray: none; stroke-linecap: butt; stroke-dashoffset: 0; stroke-linejoin: miter; stroke-miterlimit: 4; fill: rgb(47,46,65); fill-rule: nonzero; opacity: 1;" vector-effect="non-scaling-stroke"  transform=" translate(-5.39, -1)" d="M 0 2 L 0 0 L 10.77161 0 L 10.77161 2 z" stroke-linecap="round" />
</g>
<g transform="matrix(0.71 0 0 0.71 96.09 215.66)" id="W7KUhZyAaVRa_vrUKXc2W"  >
<path style="stroke: none; stroke-width: 1; stroke-dasharray: none; stroke-linecap: butt; stroke-dashoffset: 0; stroke-linejoin: miter; stroke-miterlimit: 4; fill: rgb(47,46,65); fill-rule: nonzero; opacity: 1;" vector-effect="non-scaling-stroke"  transform=" translate(-5.39, -1)" d="M 0 2 L 0 0 L 10.77161 0 L 10.77161 2 z" stroke-linecap="round" />
</g>
<g transform="matrix(0.71 0 0 0.71 92.08 325.21)" id="4rr8ouahUB8_BnPMFhfhG"  >
<path style="stroke: none; stroke-width: 1; stroke-dasharray: none; stroke-linecap: butt; stroke-dashoffset: 0; stroke-linejoin: miter; stroke-miterlimit: 4; fill: rgb(47,46,65); fill-rule: nonzero; opacity: 1;" vector-effect="non-scaling-stroke"  transform=" translate(-378.3, -555.93)" d="M 428.36168 628.11938 L 410.00568 494.11938 C 409.59857230641103 491.148012124799 407.05998715822494 488.9336070697187 404.06086 488.93372 L 390.20543 488.93372 C 390.2631517326273 488.60346727140006 390.29320607132456 488.26897268378497 390.29528 487.93372 L 390.29528 482.93372 C 390.2951971612518 479.62004581455477 387.6089541854452 476.9338028387482 384.29528 476.93372 L 372.29528 476.93372 C 368.9816035270499 476.93379731641164 366.29535731641164 479.6200435270499 366.29528 482.93372 L 366.29528 487.93372 C 366.2973506261264 488.2689724043489 366.3274016196911 488.60346698988684 366.38512 488.93372 L 352.52965 488.93372 C 349.5305816800212 488.93376403250556 346.9920852137396 491.1480917304574 346.58483 494.11938 L 328.22883 628.11938 C 327.99358087379255 629.8366404551824 328.51246116000425 631.5717322302482 329.65186862710533 632.8779007669345 C 330.7912760942064 634.1840693036207 332.43987094309625 634.9336793646087 334.17317 634.93372 L 422.41731000000004 634.93372 C 424.15061429167326 634.9336880309826 425.7992173385472 634.184081702856 426.93863151216243 632.8779120701055 C 428.0780456857776 631.5717424373549 428.5969298364817 629.8366456413585 428.36168 628.11938 Z" stroke-linecap="round" />
</g>
<g transform="matrix(0.71 0 0 0.71 123.73 305.67)" id="u8hfuozIgLB26tUm2HdEI"  >
<path style="stroke: none; stroke-width: 1; stroke-dasharray: none; stroke-linecap: butt; stroke-dashoffset: 0; stroke-linejoin: miter; stroke-miterlimit: 4; fill: rgb(47,46,65); fill-rule: nonzero; opacity: 1;" vector-effect="non-scaling-stroke"  transform=" translate(-422.88, -528.41)" d="M 399.79528 560.55725 L 399.79528 496.486 L 400.2401 496.43669 C 415.96116081875294 494.7559135114112 430.5486584946268 504.8223595632106 434.55553 520.11686 L 445.96691 550.29655 Z" stroke-linecap="round" />
</g>
<g transform="matrix(0.71 0 0 0.71 87.22 216.54)" id="KDuqi6RIt1JjR-JemsBbr"  >
<path style="stroke: none; stroke-width: 1; stroke-dasharray: none; stroke-linecap: butt; stroke-dashoffset: 0; stroke-linejoin: miter; stroke-miterlimit: 4; fill: rgb(47,46,65); fill-rule: nonzero; opacity: 1;" vector-effect="non-scaling-stroke"  transform=" translate(-371.45, -402.87)" d="M 375.25992 463.88179 L 339.98446 450.18987000000004 C 334.21619000000004 447.95095000000003 328.41568 445.78019000000006 322.67795 443.46418000000006 C 320.2201718717166 442.6077375401175 317.95617413496467 441.27338342115337 316.01642 439.53801000000004 C 314.3276264776482 437.7502084141791 313.17662955221203 435.52282067636486 312.69531 433.11106000000007 C 311.47184 427.9397400000001 311.69305 422.2859000000001 311.78031 417.0085700000001 C 311.8480066296761 411.2353944010317 312.32310043785856 405.47419610595614 313.20205 399.7679200000001 C 314.7425225874159 389.04483116521845 318.36018414240874 378.725269911358 323.85231999999996 369.38749000000007 C 333.74503999999996 353.1559400000001 350.7895 340.9438600000001 370.39522 341.9184900000001 C 379.4719 342.36969000000005 388.60079 345.62673000000007 395.34459 351.83249000000006 C 396.0480518199828 352.6731926714492 396.83735247655284 353.43816482200447 397.69966 354.1149700000001 C 398.2990525752734 354.3397601773677 398.9512695551533 354.38354568446994 399.57533 354.2408900000001 Q 400.80975 354.16147000000007 402.04621000000003 354.1196500000001 C 404.9064032886242 353.9990009951328 407.7716768290363 354.1191847877615 410.61172000000005 354.4789300000001 C 415.78732601716086 355.03807073096596 420.6926657464176 357.07492007396536 424.74207000000007 360.3462900000001 C 428.11221000000006 363.24537000000015 430.85440000000006 367.33800000000014 431.1365800000001 371.8861500000001 C 431.4126605270262 376.1177496996379 429.70779874075754 380.2375903446142 426.5222800000001 383.0367200000001 C 422.31376000000006 386.5836600000001 416.3091800000001 385.3369600000001 411.2609000000001 385.0695000000001 L 392.7671400000001 384.08971000000014 L 383.3969600000001 383.59329000000014 C 381.4676100000001 383.49107000000015 381.4732300000001 386.49137000000013 383.3969600000001 386.59329000000014 L 408.3019000000001 387.91274000000016 C 412.3041100000001 388.12474000000014 416.4289000000001 388.64442000000014 420.4343400000001 388.40443000000016 C 423.51201800665325 388.26504564566363 426.45072526695526 387.08282286066213 428.7675100000001 385.0520500000002 C 433.0715512836365 381.0982335102548 434.9837778642901 375.17505184176855 433.80415000000005 369.45090000000016 C 432.52015000000006 363.3133500000002 427.95232000000004 358.2362200000002 422.5975 355.21579000000014 C 415.31137 351.10599000000013 406.6095 350.7122200000001 398.45674 351.3197900000001 L 399.5174 351.75913000000014 C 390.29516 341.8609700000001 376.16885 337.6818000000001 362.90714 339.14431000000013 C 348.90485 340.68848000000014 336.45102 348.50015000000013 327.50305000000003 359.18184000000014 C 317.52661 371.0912500000001 312.09005 385.94141000000013 309.97652000000005 401.21167000000014 C 308.87664986518456 409.45623083973146 308.51454771520963 417.782481970781 308.89452000000006 426.0914000000001 C 308.878874512391 429.7558021116398 309.50579117825777 433.39457430531485 310.74680000000006 436.84247000000016 C 312.1627473248352 440.19808223928055 314.7228564075889 442.94279958212053 317.97192000000007 444.5885900000002 C 321.6968666556902 446.3868348921334 325.5263619897125 447.9599419287964 329.4397600000001 449.29943000000014 L 342.436 454.3438 L 367.96429 464.25243 L 374.4624 466.77463 C 376.26327 467.47363 377.0434 464.57403 375.25992 463.88179 Z" stroke-linecap="round" />
</g>
<g transform="matrix(0.71 0 0 0.71 50.55 176.47)" id="TnRzHhy_PuP1kV1wesEYe"  >
<path style="stroke: none; stroke-width: 1; stroke-dasharray: none; stroke-linecap: butt; stroke-dashoffset: 0; stroke-linejoin: miter; stroke-miterlimit: 4; fill: rgb(47,46,65); fill-rule: nonzero; opacity: 1;" vector-effect="non-scaling-stroke"  transform=" translate(-319.8, -346.43)" d="M 319.79528 361.93372 C 311.23486637762267 361.93372 304.29528 354.9941336223773 304.29528 346.43372 C 304.29528 337.8733063776227 311.23486637762267 330.93372 319.79528 330.93372 C 328.3556936223773 330.93372 335.29528 337.87330637762267 335.29528 346.43372 C 335.2856688489015 354.99014939120184 328.35170939120184 361.9241088489015 319.79528 361.93372 Z M 319.79528 333.93372 C 312.8917206271151 333.93372 307.29528 339.5301606271151 307.29528 346.43372 C 307.29528 353.3372793728849 312.8917206271151 358.93372 319.79528 358.93372 C 326.6988393728849 358.93372 332.29528 353.3372793728849 332.29528 346.43372 C 332.2875205569121 339.5333772493182 326.69562275068176 333.94147944308787 319.79528 333.93372 Z" stroke-linecap="round" />
</g>
<g transform="matrix(0.71 0 0 0.71 249.49 446.62)" id="E2p4a6ZeyZVSdYpce_u-m"  >
<path style="stroke: none; stroke-width: 1; stroke-dasharray: none; stroke-linecap: butt; stroke-dashoffset: 0; stroke-linejoin: miter; stroke-miterlimit: 4; fill: rgb(63,61,86); fill-rule: nonzero; opacity: 1;" vector-effect="non-scaling-stroke"  transform=" translate(-600, -726.93)" d="M 953 727.93372 L 247 727.93372 C 246.4477152501692 727.93372 246 727.4860047498308 246 726.93372 C 246 726.3814352501691 246.4477152501692 725.93372 247 725.93372 L 953 725.93372 C 953.5522847498308 725.93372 954 726.3814352501691 954 726.93372 C 954 727.4860047498308 953.5522847498308 727.93372 953 727.93372 Z" stroke-linecap="round" />
</g>
<g transform="matrix(0.71 0 0 0.71 352.27 320.65)" id="XdHmZfMbfrpww2bhqBbbg"  >
<path style="stroke: none; stroke-width: 1; stroke-dasharray: none; stroke-linecap: butt; stroke-dashoffset: 0; stroke-linejoin: miter; stroke-miterlimit: 4; fill: rgb(14,20,30); fill-rule: nonzero; opacity: 1;" vector-effect="non-scaling-stroke"  transform=" translate(-744.76, -549.51)" d="M 780.68737 562.00305 L 708.8253 562.00305 C 703.305034012575 561.996822648843 698.831527351157 557.523315987425 698.8253 552.00305 L 698.8253 547.02551 C 698.831527351157 541.5052440125751 703.305034012575 537.0317373511571 708.8253 537.02551 L 780.68737 537.02551 C 786.207635987425 537.0317373511571 790.681142648843 541.5052440125751 790.68737 547.02551 L 790.68737 552.00305 C 790.681142648843 557.523315987425 786.207635987425 561.996822648843 780.68737 562.00305 Z" stroke-linecap="round" />
</g>
<g transform="matrix(0.71 0 0 0.71 357.64 313.49)" id="-Bklh06i3Bas8XnW23UP-"  >
<path style="stroke: none; stroke-width: 1; stroke-dasharray: none; stroke-linecap: butt; stroke-dashoffset: 0; stroke-linejoin: miter; stroke-miterlimit: 4; fill: rgb(63,61,86); fill-rule: nonzero; opacity: 1;" vector-effect="non-scaling-stroke"  transform=" translate(-752.33, -539.42)" d="M 788.25939 552.40735 L 716.39708 552.40735 C 710.6008315117947 552.4007370460415 705.9036929539584 547.7035984882052 705.89708 541.90735 L 705.89708 536.92981 C 705.9036929539584 531.1335615117947 710.6008315117947 526.4364229539584 716.39708 526.42981 L 788.2593899999999 526.42981 C 794.0556384882052 526.4364229539584 798.7527770460415 531.1335615117947 798.7593899999999 536.92981 L 798.7593899999999 541.90735 C 798.7527770460415 547.7035984882052 794.0556384882053 552.4007370460414 788.25939 552.40735 Z M 716.3970800000001 528.42981 C 711.7048322369789 528.4350510064713 707.9023210064714 532.2375622369788 707.8970800000001 536.92981 L 707.8970800000001 541.90735 C 707.9023210064714 546.5995977630212 711.7048322369789 550.4021089935286 716.3970800000001 550.40735 L 788.25939 550.40735 C 792.9516377630213 550.4021089935286 796.7541489935287 546.5995977630213 796.75939 541.90735 L 796.75939 536.92981 C 796.7541489935287 532.2375622369788 792.9516377630213 528.4350510064713 788.25939 528.42981 Z" stroke-linecap="round" />
</g>
</svg>