<?xml version="1.0" encoding="UTF-8" standalone="no" ?>
<!DOCTYPE svg PUBLIC "-//W3C//DTD SVG 1.1//EN" "http://www.w3.org/Graphics/SVG/1.1/DTD/svg11.dtd">
<svg xmlns="http://www.w3.org/2000/svg" xmlns:xlink="http://www.w3.org/1999/xlink" version="1.1" width="500" height="500" viewBox="0 0 500 500" xml:space="preserve">
<desc>Created with Fabric.js 4.6.0</desc>
<defs>
</defs>
<g transform="matrix(0.67 0 0 0.67 198.24 113.96)" id="pfcOvmqWVvJqAyVBYckxj"  >
<path style="stroke: none; stroke-width: 1; stroke-dasharray: none; stroke-linecap: butt; stroke-dashoffset: 0; stroke-linejoin: miter; stroke-miterlimit: 4; fill: rgb(47,46,65); fill-rule: nonzero; opacity: 1;" vector-effect="non-scaling-stroke"  transform=" translate(-522.75, -246.96)" d="M 528.35053 230.24577 C 519.60676 245.30876999999998 536.07118 270.68897 519.47778 275.95931 L 520.84478 274.59231 C 530.86098 262.27195 509.92578000000003 236.19531 519.94204 223.87493999999998 C 521.4982535934054 222.0676901539545 522.8341780711594 220.08190201540103 523.9217100000001 217.95934999999997" stroke-linecap="round" />
</g>
<g transform="matrix(0.67 0 0 0.67 242.26 228.51)" id="eYNkZm2CVnisXIC0Ol7La"  >
<path style="stroke: none; stroke-width: 1; stroke-dasharray: none; stroke-linecap: butt; stroke-dashoffset: 0; stroke-linejoin: miter; stroke-miterlimit: 4; fill: rgb(255,184,184); fill-rule: nonzero; opacity: 1;" vector-effect="non-scaling-stroke"  transform=" translate(-588.45, -417.93)" d="M 610.23656 451.23117 C 610.8169740973137 448.17980545851054 610.0160106983234 445.02807590659233 608.0491935721892 442.6240508481196 C 606.082376446055 440.22002578964685 603.1517429819509 438.81065393167967 600.04587 438.77517 L 578.43258 375.982 L 566.46933 391.2309 L 589.321 449.904 C 589.6136676301503 455.2428123097163 593.8531962053199 459.51897291824736 599.1892930357677 459.8575609218772 C 604.5253898662154 460.1961489255071 609.2714058810196 456.49014243915883 610.23653 451.23114 Z" stroke-linecap="round" />
</g>
<g transform="matrix(0.67 0 0 0.67 221.42 190.61)" id="GWBc0ETlB8neUVNUB90SI"  >
<path style="stroke: none; stroke-width: 1; stroke-dasharray: none; stroke-linecap: butt; stroke-dashoffset: 0; stroke-linejoin: miter; stroke-miterlimit: 4; fill: rgb(14,20,30); fill-rule: nonzero; opacity: 1;" vector-effect="non-scaling-stroke"  transform=" translate(-557.35, -361.36)" d="M 515.23087 299.62387 C 515.23087 299.62387 514.5584299999999 276.89347000000004 534.88476 289.91479000000004 C 555.2110900000001 302.93611000000004 599.46694 424.9139 599.46694 424.9139 L 577.44344 436.8293 L 527.44685 325.20578 Z" stroke-linecap="round" />
</g>
<g transform="matrix(0.67 0 0 0.67 222.76 398.61)" id="8YV26JVNKf14W3SApj39E"  >
<path style="stroke: none; stroke-width: 1; stroke-dasharray: none; stroke-linecap: butt; stroke-dashoffset: 0; stroke-linejoin: miter; stroke-miterlimit: 4; fill: rgb(255,182,182); fill-rule: nonzero; opacity: 1;" vector-effect="non-scaling-stroke"  transform=" translate(-318.18, -494.08)" d="M 334.034 511.488 L 323.884 515.825 L 302.324 478.74000000000007 L 317.305 472.3380000000001 z" stroke-linecap="round" />
</g>
<g transform="matrix(0.67 0 0 0.67 229.35 417.19)" id="PxdG2dZiKvLxDlsXCIxzL"  >
<path style="stroke: none; stroke-width: 1; stroke-dasharray: none; stroke-linecap: butt; stroke-dashoffset: 0; stroke-linejoin: miter; stroke-miterlimit: 4; fill: rgb(47,46,65); fill-rule: nonzero; opacity: 1;" vector-effect="non-scaling-stroke"  transform=" translate(-569.18, -699.53)" d="M 588.0705 704.50277 L 580.79168 707.61314 L 576.55588 701.2962600000001 L 576.16488 709.5902600000001 L 556.8597100000001 717.8397000000001 C 554.960436407927 718.6514252747461 552.7539825589151 718.1337509278554 551.4139121365346 716.5620164202911 C 550.073841714154 714.9902819127268 549.9115636362806 712.7297308421493 551.0133900000001 710.9827000000001 L 561.8801800000001 693.7477000000001 L 558.9114200000001 686.8002700000001 L 575.5405100000002 680.8389400000001 Z" stroke-linecap="round" />
</g>
<g transform="matrix(0.67 0 0 0.67 122.72 404.19)" id="tqbj7HTGAHpslAzNwO3Jk"  >
<path style="stroke: none; stroke-width: 1; stroke-dasharray: none; stroke-linecap: butt; stroke-dashoffset: 0; stroke-linejoin: miter; stroke-miterlimit: 4; fill: rgb(255,182,182); fill-rule: nonzero; opacity: 1;" vector-effect="non-scaling-stroke"  transform=" translate(-168.87, -502.41)" d="M 174.924 524.067 L 163.9 523.528 L 160.731 480.749 L 177.003 481.54400000000004 z" stroke-linecap="round" />
</g>
<g transform="matrix(0.67 0 0 0.67 117.19 422.08)" id="VLYNpe8Pi1URseQbpaQOw"  >
<path style="stroke: none; stroke-width: 1; stroke-dasharray: none; stroke-linecap: butt; stroke-dashoffset: 0; stroke-linejoin: miter; stroke-miterlimit: 4; fill: rgb(47,46,65); fill-rule: nonzero; opacity: 1;" vector-effect="non-scaling-stroke"  transform=" translate(-401.78, -706.83)" d="M 420.97453 721.17129 L 413.06843000000003 720.7849 L 412.02203000000003 713.25164 L 408.04293 720.5392899999999 L 387.07407 719.5144899999999 C 385.01106312531994 719.413780197479 383.25324939052695 717.9832155804421 382.73556784194636 715.9836792232933 C 382.2178862933657 713.9841428661443 383.0606365806223 711.8802901614442 384.81558 710.7911099999999 L 402.12588 700.0447199999999 L 402.49468 692.4985699999999 L 420.05624 694.4106199999999 Z" stroke-linecap="round" />
</g>
<g transform="matrix(0.67 0 0 0.67 371.64 379.56)" id="hhVGL9L-rj38pfcxnpsKc"  >
<path style="stroke: none; stroke-width: 1; stroke-dasharray: none; stroke-linecap: butt; stroke-dashoffset: 0; stroke-linejoin: miter; stroke-miterlimit: 4; fill: rgb(140,142,145); fill-rule: nonzero; opacity: 1;" vector-effect="non-scaling-stroke"  transform=" translate(-781.55, -643.37)" d="M 740.917 694.96942 C 742.4128783255871 695.0239053482322 743.7833848391042 694.1378300221043 744.3476603511778 692.7513907826828 C 744.9119358632514 691.3649515432614 744.5497082670785 689.7736600062588 743.44093 688.76806 C 743.3476499999999 688.41175 743.28073 688.15592 743.18752 687.79956 C 744.5819151596793 684.1558422187221 748.047665501114 681.7225617650917 751.9483769445936 681.6486201283451 C 755.8490883880734 681.5746784915987 759.4045660265593 683.8748649965153 760.9360499999999 687.46312 C 765.2537699999999 697.30891 770.81747 707.49117 768.2026599999999 718.40578 C 785.79666 680.17845 779.2393299999999 632.89805 752.3923799999999 600.6055700000001 C 745.0187399999999 596.6347300000001 739.0050699999999 589.5124500000001 737.3779299999999 581.1914200000001 C 741.0199299999999 582.3868800000001 745.5179299999999 579.3909300000001 742.7520499999998 575.5930100000002 C 741.5550499999998 574.1427800000001 740.3466099999998 572.7042200000002 739.1496799999999 571.2539300000002 C 752.7998099999999 556.4363900000002 769.4501899999999 579.3614600000002 754.4601299999998 599.3279300000002 C 759.4848152209643 605.5060989058587 763.8498711327089 612.1926211893398 767.4841299999998 619.2784800000002 C 766.5885193942198 611.7260746751913 767.498691869078 604.0689422007813 770.1397799999999 596.9369300000002 C 772.8219999999999 590.2880700000002 777.9145199999998 584.6614000000002 782.3913599999998 578.8929300000002 C 787.8343599999998 571.8643200000002 799.2044199999998 574.9747800000002 800.0300599999998 583.8204800000002 C 794.9613899999998 585.5401300000002 794.3707699999998 592.8910300000002 800.1965199999999 593.8408400000002 C 798.8299799999999 610.3243300000001 788.2147999999999 625.5616600000002 773.4647499999999 632.9254900000002 C 779.0833917405694 648.2280577237195 781.3759307976945 664.5524325268699 780.1895799999999 680.8106700000002 C 782.6245199999998 661.7996700000002 802.9608899999998 656.9981700000002 817.1339399999998 649.3164800000002 C 818.9751549202424 648.1108124529931 821.354898441493 648.1072172523071 823.1997478764708 649.3073160726931 C 825.0445973114488 650.5074148930792 826.0058590181383 652.6843779344867 825.6499399999998 654.8562500000002 C 823.6914758830499 655.6744261923037 821.819124297898 656.6851144416022 820.0604599999998 657.8734300000002 C 818.3720658650865 659.0320998470573 817.594622796284 661.1272687847006 818.1185253405479 663.1068436616384 C 818.6424278848118 665.0864185385761 820.354491453335 666.5227294171223 822.3949999999998 666.6945300000002 C 815.3838899999997 684.5338600000002 796.9334599999997 696.6439900000003 777.8664599999997 696.7583700000002 C 776.1100101613582 704.7379451860656 773.5290335318426 712.5133763164132 770.1651199999998 719.9593700000003 L 741.8666899999997 720.2288500000003 C 741.7621999999997 719.9154000000003 741.6678399999997 719.5916200000003 741.5735299999998 719.2780700000003 C 744.1944540751498 719.4177933070356 746.8226261735084 719.2360745260186 749.3993799999997 718.7369700000003 C 742.3912199999997 710.5979700000003 736.9918999999998 706.4629100000003 740.9161099999998 694.9699100000003 Z" stroke-linecap="round" />
</g>
<g transform="matrix(0.67 0 0 0.67 171.64 315.04)" id="ZDdcW6IN7cOmByR-Ni_No"  >
<path style="stroke: none; stroke-width: 1; stroke-dasharray: none; stroke-linecap: butt; stroke-dashoffset: 0; stroke-linejoin: miter; stroke-miterlimit: 4; fill: rgb(47,46,65); fill-rule: nonzero; opacity: 1;" vector-effect="non-scaling-stroke"  transform=" translate(-483.04, -547.07)" d="M 443.93871 423.70394 C 443.93871 423.70394 421.51971000000003 484.80122 421.15748 491.63841 C 420.79525 498.47560000000004 414.40157 584.93569 409.03937 589.95931 C 403.67717000000005 594.9829299999999 387.28346 672.8674599999999 400.03937 678.95931 C 412.79528000000005 685.05116 453.03937 674.95931 453.03937 674.95931 L 467.03937 582.95931 L 471.79528000000005 512.4756 C 471.79528000000005 512.4756 486.27408 678.45197 512.5346800000001 677.96379 C 538.7952800000002 677.4756100000001 570.79528 667.4756 570.79528 667.4756 L 534.03937 566.95931 C 534.03937 566.95931 534.55905 447.96057999999994 526.03937 423.95930999999996 C 517.51969 399.95804 443.93871 423.70394 443.93871 423.70394 Z" stroke-linecap="round" />
</g>
<g transform="matrix(0.67 0 0 0.67 173.47 181.82)" id="984ZuBehKP-YVZoJDtiOf"  >
<path style="stroke: none; stroke-width: 1; stroke-dasharray: none; stroke-linecap: butt; stroke-dashoffset: 0; stroke-linejoin: miter; stroke-miterlimit: 4; fill: rgb(14,20,30); fill-rule: nonzero; opacity: 1;" vector-effect="non-scaling-stroke"  transform=" translate(-485.77, -348.24)" d="M 510.46306 266.29342 L 480.43881999999996 269.04353000000003 L 475.60191999999995 283.89131000000003 C 475.60191999999995 283.89131000000003 450.47565 297.69031 456.03936999999996 303.95931 C 461.60308999999995 310.22831 454.79527999999993 352.4756 454.79527999999993 352.4756 L 456.3329099999999 386.76851 C 456.3329099999999 386.76851 454.6811799999999 410.52738999999997 449.73822999999993 416.00151 C 444.79527999999993 421.47563 431.86340999999993 434.89887 441.00078999999994 428.47688 C 473.03936999999996 405.95933 529.03937 424.95933 529.03937 424.95933 L 521.03937 375.95933 C 521.03937 375.95933 539.21037 295.73463000000004 532.03937 288.95933 C 524.8683699999999 282.18403 518.10237 281.32768000000004 518.10237 281.32768000000004 Z" stroke-linecap="round" />
</g>
<g transform="matrix(0.67 0 0 0.67 99.71 210.15)" id="89wBsB_iOYqyMfx1oNsto"  >
<path style="stroke: none; stroke-width: 1; stroke-dasharray: none; stroke-linecap: butt; stroke-dashoffset: 0; stroke-linejoin: miter; stroke-miterlimit: 4; fill: rgb(255,184,184); fill-rule: nonzero; opacity: 1;" vector-effect="non-scaling-stroke"  transform=" translate(-375.69, -390.52)" d="M 352.699 421.72134 C 355.75258348981765 421.1527399483584 358.3974769023713 419.2607977178115 359.9219936532939 416.554596168745 C 361.4465104042165 413.84839461967846 361.6940483114985 410.60592155857915 360.598 407.69966 L 411.2375 364.73733 L 392.68283 359.13622 L 346.3317 401.75441 C 341.4645674025323 403.96792208304964 339.02222159642037 409.4719357235947 340.64668683801887 414.5660232907629 C 342.27115207961737 419.6601108579311 347.4489618166232 422.7341156593761 352.699 421.72134 Z" stroke-linecap="round" />
</g>
<g transform="matrix(0.67 0 0 0.67 128.16 183.25)" id="s9BcWnVl6IC38hweaEoOB"  >
<path style="stroke: none; stroke-width: 1; stroke-dasharray: none; stroke-linecap: butt; stroke-dashoffset: 0; stroke-linejoin: miter; stroke-miterlimit: 4; fill: rgb(14,20,30); fill-rule: nonzero; opacity: 1;" vector-effect="non-scaling-stroke"  transform=" translate(-418.15, -350.37)" d="M 481.30457 309.34381 C 481.30457 309.34381 491.28197 288.90917 467.3962 292.39981 C 443.51043000000004 295.89045 352.93148 388.80233 352.93148 388.80233 L 368.09 408.733 L 459.63399999999996 327.62095 Z" stroke-linecap="round" />
</g>
<g transform="matrix(0.67 0 0 0.67 173.34 220.53)" id="ZTsVeXsbZrJzsD51vsIMp"  >
<path style="stroke: none; stroke-width: 1; stroke-dasharray: none; stroke-linecap: butt; stroke-dashoffset: 0; stroke-linejoin: miter; stroke-miterlimit: 4; fill: rgb(230,230,230); fill-rule: nonzero; opacity: 1;" vector-effect="non-scaling-stroke"  transform=" translate(-485.58, -406.01)" d="M 442.4072 274.68222 L 347.70481 396.00816 C 344.2938470961748 400.3924024159131 345.0723917165085 406.7098103974333 349.44574 410.13473 C 371.43811 463.53353 437.23322 503.13113 514.63184 539.07273 C 519.0150871072469 542.4873603687942 525.3353983178511 541.7084271933431 528.75842 537.33173 L 623.46081 416.00579 C 626.8754701282893 411.62254759103433 626.0965343332862 405.3022106511527 621.71981 401.87919999999997 C 556.76781 365.20332999999994 500.94158000000004 322.71105 456.53371000000004 272.94124999999997 C 452.1494733512364 269.53031394430815 445.8320916204606 270.3088765242963 442.4072 274.68222 Z" stroke-linecap="round" />
</g>
<g transform="matrix(0.67 0 0 0.67 173.62 206.35)" id="pgXfowYXifU7jDxyyG45m"  >
<path style="stroke: none; stroke-width: 1; stroke-dasharray: none; stroke-linecap: butt; stroke-dashoffset: 0; stroke-linejoin: miter; stroke-miterlimit: 4; fill: rgb(255,255,255); fill-rule: nonzero; opacity: 1;" vector-effect="non-scaling-stroke"  transform=" translate(-486, -384.85)" d="M 616.814 413.24549 L 587.9875599999999 450.17587000000003 C 551.3309483726061 496.85585542332177 483.85804493019094 505.17119266090106 436.9647399999999 468.78787000000005 L 356.18 405.73035 C 353.68819647708074 403.7846531786424 353.24159648246115 400.1890964485805 355.18168000000003 397.69291999999996 L 446.69282000000004 280.45538999999997 C 448.64327193012195 277.9673071320307 452.2396688681167 277.5275617564772 454.73215000000005 279.47238999999996 C 495.59742000000006 332.24155999999994 550.2990400000001 373.30616999999995 615.8243100000001 405.21476999999993 C 618.3118715062473 407.1609961720925 618.7546100652958 410.7535447488411 616.814 413.24549 Z" stroke-linecap="round" />
</g>
<g transform="matrix(0.67 0 0 0.67 135.25 183.71)" id="2DHUbvm_mAY-Mmp3tS1YD"  >
<path style="stroke: none; stroke-width: 1; stroke-dasharray: none; stroke-linecap: butt; stroke-dashoffset: 0; stroke-linejoin: miter; stroke-miterlimit: 4; fill: rgb(140,142,145); fill-rule: nonzero; opacity: 1;" vector-effect="non-scaling-stroke"  transform=" translate(-428.73, -351.06)" d="M 440.518 340.91459 L 421.74459 364.9657 C 420.7072289583756 366.2922282888818 418.7912894645674 366.5274740917932 417.4638283578568 365.49130700002934 C 416.13636725114617 364.45513990826555 415.8993976969066 362.539412849918 416.93437 361.21102 L 435.70775 337.15991 C 436.37808773070225 336.2995277020065 437.4567207753774 335.8624153270194 438.53691219650267 336.01340163643545 C 439.6171036176279 336.16438794585156 440.5345411796458 336.8805058085184 440.9432724326611 337.891717524586 C 441.3520036856764 338.9029292406535 441.18985488472885 340.0554153532741 440.51797 340.91459000000003 Z" stroke-linecap="round" />
</g>
<g transform="matrix(0.67 0 0 0.67 151.32 181.39)" id="46P__5ONOq5fvsdHvBUU4"  >
<path style="stroke: none; stroke-width: 1; stroke-dasharray: none; stroke-linecap: butt; stroke-dashoffset: 0; stroke-linejoin: miter; stroke-miterlimit: 4; fill: rgb(140,142,145); fill-rule: nonzero; opacity: 1;" vector-effect="non-scaling-stroke"  transform=" translate(-452.71, -347.6)" d="M 475.73121 323.07417 L 434.50336999999996 375.89234 C 433.4665437477526 377.22064833608925 431.54922333608926 377.4569412522473 430.220915 376.420115 C 428.89260666391067 375.38328874775266 428.6563137477526 373.46596833608925 429.69313999999997 372.13766 L 470.921 319.3195 C 471.5910127925223 318.4581450394339 472.6700448162586 318.02021480232435 473.7508381784087 318.17099682568187 C 474.83163154055876 318.3217788490394 475.7496037776598 319.03831215094164 476.15828561845115 320.050156340154 C 476.56696745924245 321.06200052936634 476.40412511650305 322.21507267465233 475.73122 323.07417 Z" stroke-linecap="round" />
</g>
<g transform="matrix(0.67 0 0 0.67 119.63 210.52)" id="hPQQGSpxpMwG1nRDNmpvd"  >
<path style="stroke: none; stroke-width: 1; stroke-dasharray: none; stroke-linecap: butt; stroke-dashoffset: 0; stroke-linejoin: miter; stroke-miterlimit: 4; fill: rgb(14,20,30); fill-rule: nonzero; opacity: 1;" vector-effect="non-scaling-stroke"  transform=" translate(-20.1, -20.1)" d="M 0 20.09591 C 0 8.99725 8.99725 0 20.09591 0 C 31.19457 0 40.19182 8.99725 40.19182 20.09591 C 40.19182 31.19457 31.19457 40.19182 20.09591 40.19182 C 8.99725 40.19182 0 31.19457 0 20.09591 z" stroke-linecap="round" />
</g>
<g transform="matrix(0.67 0 0 0.67 149.63 213.4)" id="05vrW0b2vHqU62xOZOcbv"  >
<path style="stroke: none; stroke-width: 1; stroke-dasharray: none; stroke-linecap: butt; stroke-dashoffset: 0; stroke-linejoin: miter; stroke-miterlimit: 4; fill: rgb(140,142,145); fill-rule: nonzero; opacity: 1;" vector-effect="non-scaling-stroke"  transform=" translate(-450.2, -395.38)" d="M 477.92013 364.8182 L 427.28405999999995 429.68952 C 426.1900861833373 430.8035539568156 424.4343138707805 430.91934498393584 423.2035127176793 429.95862708048736 C 421.97271156457816 428.9979091770389 421.65874898399977 427.2665595666196 422.47383999999994 425.93484 L 473.10990999999996 361.06353 C 474.2038849643315 359.9495117010252 475.959643687312 359.8337270887171 477.1904379087378 360.7944370228492 C 478.42123213016356 361.7551469569812 478.73520210732755 363.4864810157951 477.92013 364.8182 Z" stroke-linecap="round" />
</g>
<g transform="matrix(0.67 0 0 0.67 164.93 212.08)" id="z2HnSDinWswPdDDE8KKii"  >
<path style="stroke: none; stroke-width: 1; stroke-dasharray: none; stroke-linecap: butt; stroke-dashoffset: 0; stroke-linejoin: miter; stroke-miterlimit: 4; fill: rgb(140,142,145); fill-rule: nonzero; opacity: 1;" vector-effect="non-scaling-stroke"  transform=" translate(-473.03, -393.4)" d="M 510.7689 350.007 L 440.09331 440.55151 C 438.99933618333733 441.6655439568156 437.2435638707805 441.78133498393584 436.0127627176793 440.82061708048735 C 434.7819615645782 439.85989917703887 434.4679989839998 438.1285495666196 435.28308999999996 436.79683 L 505.95867 346.25233000000003 C 507.0526405268802 345.1382887274309 508.8084163516576 345.0224912205419 510.0392220122954 345.9832080864354 C 511.27002767293317 346.94392495232887 511.58399278520807 348.6752780987864 510.7689 350.007 Z" stroke-linecap="round" />
</g>
<g transform="matrix(0.67 0 0 0.67 171.48 230.46)" id="TsNzo0jpIdg6lS_KyK_zv"  >
<path style="stroke: none; stroke-width: 1; stroke-dasharray: none; stroke-linecap: butt; stroke-dashoffset: 0; stroke-linejoin: miter; stroke-miterlimit: 4; fill: rgb(140,142,145); fill-rule: nonzero; opacity: 1;" vector-effect="non-scaling-stroke"  transform=" translate(-482.8, -420.83)" d="M 510.5235 390.26715 L 459.88743 455.13847 C 458.79345618333736 456.2525039568156 457.03768387078054 456.3682949839358 455.80688271767934 455.40757708048733 C 454.5760815645782 454.44685917703885 454.2621189839998 452.7155095666196 455.07721 451.38379 L 505.71328 386.51248 C 506.80725496433155 385.39846170102516 508.56301368731204 385.2826770887171 509.79380790873785 386.24338702284916 C 511.0246021301636 387.2040969569812 511.3385721073276 388.9354310157951 510.5235 390.26714999999996 Z" stroke-linecap="round" />
</g>
<g transform="matrix(0.67 0 0 0.67 216.37 235.82)" id="Tn4MkPrtGRXeqEbC1tS-i"  >
<path style="stroke: none; stroke-width: 1; stroke-dasharray: none; stroke-linecap: butt; stroke-dashoffset: 0; stroke-linejoin: miter; stroke-miterlimit: 4; fill: rgb(14,20,30); fill-rule: nonzero; opacity: 1;" vector-effect="non-scaling-stroke"  transform=" translate(-549.8, -428.83)" d="M 577.5235 398.26715 L 526.88743 463.13847 C 525.7934561833373 464.2525039568154 524.0376838707806 464.36829498393564 522.8068827176795 463.40757708048716 C 521.5760815645784 462.44685917703873 521.2621189839999 460.7155095666195 522.07721 459.38379 L 572.71328 394.51248 C 573.8072549643316 393.39846170102527 575.563013687312 393.2826770887173 576.7938079087378 394.24338702284933 C 578.0246021301634 395.2040969569813 578.3385721073274 396.93543101579513 577.5235 398.26714999999996 Z" stroke-linecap="round" />
</g>
<g transform="matrix(0.67 0 0 0.67 186.77 229.13)" id="nFKY08g_lW-Txawwfum_x"  >
<path style="stroke: none; stroke-width: 1; stroke-dasharray: none; stroke-linecap: butt; stroke-dashoffset: 0; stroke-linejoin: miter; stroke-miterlimit: 4; fill: rgb(140,142,145); fill-rule: nonzero; opacity: 1;" vector-effect="non-scaling-stroke"  transform=" translate(-505.63, -418.85)" d="M 543.37227 375.45593 L 472.69667999999996 466.00044 C 471.6027061833373 467.11447395681563 469.8469338707805 467.23026498393585 468.6161327176793 466.26954708048737 C 467.38533156457817 465.3088291770389 467.0713689839998 463.5774795666196 467.88645999999994 462.24576 L 538.56205 371.70126000000005 C 539.6560249643316 370.58724170102533 541.411783687312 370.4714570887174 542.6425779087377 371.4321670228494 C 543.8733721301634 372.39287695698135 544.1873421073274 374.1242110157952 543.37227 375.45593 Z" stroke-linecap="round" />
</g>
<g transform="matrix(0.67 0 0 0.67 176.27 101.24)" id="TqE39qFVL8nA8OvPDAl_Z"  >
<path style="stroke: none; stroke-width: 1; stroke-dasharray: none; stroke-linecap: butt; stroke-dashoffset: 0; stroke-linejoin: miter; stroke-miterlimit: 4; fill: rgb(47,46,65); fill-rule: nonzero; opacity: 1;" vector-effect="non-scaling-stroke"  transform=" translate(-489.95, -227.97)" d="M 460.1263 227.96223 C 460.1213131314123 241.39362394146144 469.0954697158095 253.17110452450228 482.046750480935 256.73013453596275 C 494.99803124606046 260.28916454742324 508.73042085652116 254.7514745171224 515.5897540612798 243.20366450545006 C 522.4490872660385 231.65585449377772 520.7426716966298 216.94760234779986 511.42163 207.277 L 511.27849 207.134 C 511.03988999999996 206.88339 510.80129 206.63293 510.55075 206.39425999999997 C 510.54757474761067 206.39431256372774 510.5445152015275 206.39306883623598 510.54227721211834 206.39081575077688 C 510.5400392227092 206.38856266531778 510.53881609146663 206.38549482727242 510.53889 206.38231999999996 C 510.22871999999995 206.09602999999996 509.91855 205.80973999999998 509.59644 205.53538999999998 C 500.7947326234641 197.81876000333338 488.29190475285833 195.96637859001757 477.63086880062417 200.79946700973343 C 466.96983284838996 205.6325554294493 460.1231974700222 216.25684861337814 460.12629999999996 227.96224999999998 Z" stroke-linecap="round" />
</g>
<g transform="matrix(0.67 0 0 0.67 181.19 105.86)" id="Keck9060TjUbuWUXclihF"  >
<path style="stroke: none; stroke-width: 1; stroke-dasharray: none; stroke-linecap: butt; stroke-dashoffset: 0; stroke-linejoin: miter; stroke-miterlimit: 4; fill: rgb(255,184,184); fill-rule: nonzero; opacity: 1;" vector-effect="non-scaling-stroke"  transform=" translate(-25.01, -25.01)" d="M 0 25.00775 C 0 11.19635 11.19635 0 25.00775 0 C 38.81915 0 50.0155 11.19635 50.0155 25.00775 C 50.0155 38.81915 38.81915 50.0155 25.00775 50.0155 C 11.19635 50.0155 0 38.81915 0 25.00775 z" stroke-linecap="round" />
</g>
<g transform="matrix(0.67 0 0 0.67 182.45 101.31)" id="_Pt2jz4cGRLtp6GXJQOxP"  >
<path style="stroke: none; stroke-width: 1; stroke-dasharray: none; stroke-linecap: butt; stroke-dashoffset: 0; stroke-linejoin: miter; stroke-miterlimit: 4; fill: rgb(47,46,65); fill-rule: nonzero; opacity: 1;" vector-effect="non-scaling-stroke"  transform=" translate(-499.18, -228.08)" d="M 470.637 241.52685 C 468.19266 230.51122999999998 471.72586 218.16992 479.429 210.81592 C 487.3350604575346 203.417204733065 498.77938912355313 201.1989319933144 508.87724 205.10792 C 509.50615 205.36182 510.13505 205.63966000000002 510.75224 205.92969 L 511.03934999999996 206.06494999999998 L 511.03934999999996 206.10694999999998 C 511.09500999999995 206.14551999999998 511.15067999999997 206.18605 511.20634999999993 206.22706999999997 C 511.3228664471224 206.3363461446808 511.46487674251796 206.4147269995797 511.61943999999994 206.45506999999998 C 516.011213210598 206.34017595644832 520.2434047884507 208.1043848923114 523.2532299999999 211.30467 C 527.1292299999999 215.51023999999998 528.9544 222.30667 528.39483 230.44188 L 528.37725 230.69628 L 528.16045 230.83153000000001 C 525.2260655267261 232.69107296192104 522.1810290888217 234.36996798961675 519.04229 235.85887000000002 C 508.06377 241.02098000000004 498.04129 241.97753000000003 488.4085 238.77928000000003 L 488.23174 238.72069000000002 L 484.18874 231.94481000000002 C 483.35867 236.61815 483.80203 252.11946 479.03933 252.9593 L 470.7405 241.99413 Z" stroke-linecap="round" />
</g>
<g transform="matrix(0.67 0 0 0.67 139.57 102.14)" id="8LmR3cAblplc6Cvx_mi8_"  >
<path style="stroke: none; stroke-width: 1; stroke-dasharray: none; stroke-linecap: butt; stroke-dashoffset: 0; stroke-linejoin: miter; stroke-miterlimit: 4; fill: rgb(47,46,65); fill-rule: nonzero; opacity: 1;" vector-effect="non-scaling-stroke"  transform=" translate(-435.18, -229.31)" d="M 417.994 263.30087 C 426.50408000000004 258.9084 415.55918 242.96644999999998 417.75847000000005 233.64564 C 419.95783000000006 224.32482 435.79547 221.32692999999998 436.80440000000004 211.80342 C 437.81333000000006 202.27991 440.18685000000005 192.45741999999998 446.47120000000007 185.23092 C 450.48688000000004 180.61319 456.40398000000005 177.20423 462.49611000000004 177.78262999999998 C 466.6671010129919 178.17861662353144 470.4591668106786 180.37049793079706 472.88417824900273 183.7871177458294 C 475.3091896873269 187.20373756086173 476.1269540912805 191.50668632406496 475.12438000000003 195.57470999999998 C 476.85892 193.11694999999997 481.34779000000003 193.64961999999997 482.45887000000005 196.44522999999998 C 483.44675000000007 198.93050999999997 481.26450000000006 201.94089999999997 478.69635000000005 202.16079 C 475.33589000000006 206.31079 471.48775000000006 210.71506 466.22310000000004 211.55221999999998 C 464.52354761420634 211.94250930322633 462.73890237820706 211.53058273352673 461.38234000000006 210.43488999999997 C 460.14378000000005 209.24546999999995 460.0474500000001 206.86749999999998 461.51668000000006 205.97863999999996 C 454.90053000000006 208.60677999999996 451.02159000000006 215.76018999999997 450.03990000000005 222.81122999999997 C 449.05828 229.86222999999995 450.41640000000007 236.99645999999996 451.31137000000007 244.05899999999997 C 452.20634000000007 251.12153999999998 452.59195000000005 258.551 449.8227800000001 265.10945999999996 C 446.5510000000001 272.85830999999996 439.0182500000001 278.41209 430.79759000000007 280.19316 C 422.57693000000006 281.97423 413.8220800000001 280.2335 406.3810000000001 276.31167999999997 C 398.9399200000001 272.38955999999996 392.7347800000001 266.40227 387.66577000000007 259.6898 C 396.39747 265.89 408.47784 268.21276 417.994 263.30087 Z" stroke-linecap="round" />
</g>
<g transform="matrix(0.67 0 0 0.67 169.43 115.97)" id="a8VjePd-Oh9GYrE8uGw_b"  >
<path style="stroke: none; stroke-width: 1; stroke-dasharray: none; stroke-linecap: butt; stroke-dashoffset: 0; stroke-linejoin: miter; stroke-miterlimit: 4; fill: rgb(47,46,65); fill-rule: nonzero; opacity: 1;" vector-effect="non-scaling-stroke"  transform=" translate(-479.75, -249.96)" d="M 485.35053 233.24577 C 476.60676 248.30876999999998 493.07117999999997 273.68897 476.47778 278.95931 L 477.84478 277.59231 C 487.86098000000004 265.27195 466.92578000000003 239.19531 476.94204 226.87493999999998 C 478.4982535934053 225.0676901539545 479.8341780711594 223.08190201540103 480.92171 220.95934999999997" stroke-linecap="round" />
</g>
<g transform="matrix(0.67 0 0 0.67 177.45 98.14)" id="BGGf_1hXVUG7jt6j8CbB1"  >
<path style="stroke: none; stroke-width: 1; stroke-dasharray: none; stroke-linecap: butt; stroke-dashoffset: 0; stroke-linejoin: miter; stroke-miterlimit: 4; fill: rgb(253,101,132); fill-rule: nonzero; opacity: 1;" vector-effect="non-scaling-stroke"  transform=" translate(-491.71, -223.34)" d="M 471.80491 241.29893 C 471.80491 241.29893 479.21291 213.64725 510.96832 207.26504 C 511.00407 207.25325 511.1234 207.20548 511.27849000000003 207.13398 C 511.37387 207.07428000000002 511.49320000000006 207.01458 511.61249000000004 206.95498 C 511.25463 206.75213 510.90871000000004 206.57331 510.55077000000006 206.3942 C 510.54759474761073 206.39425256372778 510.54453520152754 206.39300883623602 510.5422972121184 206.39075575077692 C 510.54005922270926 206.38850266531782 510.5388360914667 206.38543482727246 510.53891000000004 206.38226 C 510.22874 206.09597 509.91857000000005 205.80968000000001 509.59646000000004 205.53533000000002 L 508.68983000000003 205.57116000000002 C 508.68983000000003 205.57116000000002 476.82711 200.52519 471.80491 241.29893 Z" stroke-linecap="round" />
</g>
<g transform="matrix(0.67 0 0 0.67 250 431.63)" id="2du_srTyuchhIEe6Xvn0F"  >
<path style="stroke: none; stroke-width: 1; stroke-dasharray: none; stroke-linecap: butt; stroke-dashoffset: 0; stroke-linejoin: miter; stroke-miterlimit: 4; fill: rgb(140,142,145); fill-rule: nonzero; opacity: 1;" vector-effect="non-scaling-stroke"  transform=" translate(-600, -721.09)" d="M 241.165 721.09139 C 241.1640559779476 721.4072964844445 241.28913569478834 721.7105355552527 241.51252194076895 721.9339105386291 C 241.73590818674953 722.1572855220054 242.03915356355358 722.2823499497077 242.35505999999998 722.2813900000001 L 957.64506 722.2813900000001 C 958.3022788237844 722.281389959675 958.8350599269849 721.7486088237846 958.8350599269849 721.09139 C 958.8350599269849 720.4341711762156 958.3022788237844 719.9013900403252 957.64506 719.9013900000001 L 242.355 719.9013900000001 C 242.0391080279986 719.9004594608938 241.73588590980833 720.0255352604872 241.51251558514772 720.2489055851478 C 241.28914526048712 720.4722759098084 241.16406946089373 720.7754980279987 241.165 721.09139 Z" stroke-linecap="round" />
</g>
</svg>