<?xml version="1.0" encoding="UTF-8" standalone="no" ?>
<!DOCTYPE svg PUBLIC "-//W3C//DTD SVG 1.1//EN" "http://www.w3.org/Graphics/SVG/1.1/DTD/svg11.dtd">
<svg xmlns="http://www.w3.org/2000/svg" xmlns:xlink="http://www.w3.org/1999/xlink" version="1.1" width="500" height="500" viewBox="0 0 500 500" xml:space="preserve">
<desc>Created with Fabric.js 4.6.0</desc>
<defs>
</defs>
<g transform="matrix(0.57 0 0 0.57 248.96 315.04)" id="rBqL2Xf8Y7UwDAdpSQ7Ra"  >
<path style="stroke: none; stroke-width: 1; stroke-dasharray: none; stroke-linecap: butt; stroke-dashoffset: 0; stroke-linejoin: miter; stroke-miterlimit: 4; fill: rgb(220,221,222); fill-rule: nonzero; opacity: 1;" vector-effect="non-scaling-stroke"  transform=" translate(-594.65, -564.16)" d="M 222.38121 599.64355 C 218.23721 599.64355 214.08469000000002 599.81444 210.02944000000002 600.15917 L 209.43925000000002 600.20898 C 182.54067 602.5869 162.86561 616.38183 163.67479000000003 632.29882 L 163.83122000000003 635.17675 C 163.93438000000003 636.99608 164.04430000000002 638.95214 164.13477000000003 641.1220599999999 C 164.18377000000004 642.1923699999999 165.64408000000003 643.01366 167.46116000000004 643.01366 L 829.101 643.01366 C 875.74989 642.73046 922.22968 642.37401 967.24159 641.95409 C 975.6834725204466 641.9716666373392 984.1201740056961 641.5345100348333 992.5150299999999 640.6445199999999 C 1005.02403 639.16405 1013.7061600000001 636.22952 1019.06017 631.67284 L 1019.06186 631.67284 C 1025.71971 626.0224499999999 1025.92941 618.9072199999999 1025.52692 610.8681499999999 C 1024.70674 594.6357299999999 1023.89333 577.5829999999999 1023.0816 560.5820199999999 C 1022.3646 545.59862 1021.65093 530.65526 1020.93729 516.34862 C 1020.49591 507.85839 1019.51508 500.36424999999997 1011.95418 494.63671 C 1003.7591299999999 488.44237 988.81318 485.30271 967.53077 485.30271 C 967.2737199999999 485.30271 967.01837 485.30271 966.75794 485.30370999999997 C 900.0610899999999 485.54101999999995 833.97474 508.47461 802.31234 542.37109 C 798.66634 546.27441 795.26892 550.45309 791.98312 554.49509 C 787.12798 560.46579 782.10881 566.63864 776.11894 572.15915 C 772.8757781354686 575.1885942894538 769.3686149840661 577.9224307302795 765.6392199999999 580.3281 C 765.38222 580.50583 765.0879199999999 580.6962599999999 764.7767599999999 580.8769199999999 C 764.0647599999999 581.34079 763.3207599999998 581.78806 762.5952399999999 582.1864899999999 C 758.347521348663 584.6397295747281 753.8716051697584 586.6746732187776 749.2305099999999 588.26267 L 748.7620799999999 588.41989 C 748.4094799999998 588.54589 748.0272899999999 588.67189 747.6450799999999 588.7870800000001 C 744.9646899999999 589.6474300000001 742.1802999999999 590.3915700000001 739.3908299999999 590.9931300000001 C 727.32148 593.6532900000001 713.5973899999999 594.2909900000001 698.60159 592.88669 C 684.8301030072909 591.5627555844967 671.2362707229772 588.7926039058464 658.04487 584.6220400000001 C 644.15843 580.23337 631.1606599999999 574.76169 618.59074 569.47067 C 613.06931 567.14548 607.35848 564.74216 601.65525 562.46481 C 600.5831000000001 562.0361 599.5287000000001 561.61716 598.45825 561.19821 C 591.49262 558.48337 585.1772500000001 556.24121 579.15184 554.34372 C 564.2241409094086 549.6239740331588 548.7716749099015 546.7619091756236 533.14384 545.82224 C 516.55584 544.9140299999999 501.93803999999994 546.6269199999999 489.70633999999995 550.90134 C 486.33415088180766 552.0755013539036 483.05061881459807 553.4902721086335 479.88106999999997 555.13474 C 465.39343999999994 562.6581699999999 456.46191999999996 573.7616899999999 447.82548999999995 584.49997 C 437.08194999999995 597.85642 425.97228999999993 611.66892 404.03538999999995 618.82907 C 378.72220999999996 627.0986 341.77344999999997 623.66307 315.63247999999993 617.68845 C 307.41374999999994 615.80954 299.20516999999995 613.64845 291.2663099999999 611.55759 Q 286.4568299999999 610.2905 281.6405899999999 609.04099 C 275.3311099999999 607.41208 270.16734999999994 606.16399 265.38999999999993 605.11032 L 263.8789999999999 604.77438 C 263.0385199999999 604.59177 262.1971999999999 604.40915 261.3406599999999 604.23532 C 255.6661899999999 603.04392 250.3823499999999 602.10642 245.1788499999999 601.36911 L 243.9477299999999 601.1894199999999 C 241.47957999999988 600.8642299999999 239.17207999999988 600.59372 236.9077299999999 600.3661799999999 L 236.0038399999999 600.2763399999999 C 231.56894 599.85448 226.9793 599.64355 222.38121 599.64355 Z" stroke-linecap="round" />
</g>
<g transform="matrix(0.57 0 0 0.57 434.06 360.72)" id="2lPFSzsSo7-i3BY8rwwwv"  >
<path style="stroke: none; stroke-width: 1; stroke-dasharray: none; stroke-linecap: butt; stroke-dashoffset: 0; stroke-linejoin: miter; stroke-miterlimit: 4; fill: rgb(220,221,222); fill-rule: nonzero; opacity: 1;" vector-effect="non-scaling-stroke"  transform=" translate(-922.92, -644.24)" d="M 906.55528 617.4077 C 925.17259 600.63114 952.8642100000001 592.19562 976.0924100000001 601.6027 C 952.2652762429 614.8314479596804 933.8852940783214 636.0618151011558 924.20441 661.53754 C 920.50651 671.3760000000001 917.4179700000001 682.7037700000001 908.32253 687.97103 C 902.6632000000001 691.24855 895.62226 691.40873 889.2768500000001 689.8266 C 882.9311700000001 688.24423 877.1145900000001 685.07245 871.3777200000001 681.93238 L 869.7455400000001 681.89546 C 877.07331 657.92965 887.938 634.18425 906.55528 617.4077 Z" stroke-linecap="round" />
</g>
<g transform="matrix(0.57 0 0 0.57 434.25 359.02)" id="gXPvOKN1SPavNyux7AmYI"  >
<path style="stroke: none; stroke-width: 1; stroke-dasharray: none; stroke-linecap: butt; stroke-dashoffset: 0; stroke-linejoin: miter; stroke-miterlimit: 4; fill: rgb(255,255,255); fill-rule: nonzero; opacity: 1;" vector-effect="non-scaling-stroke"  transform=" translate(-923.24, -641.26)" d="M 975.96253 602.11225 C 955.3901579990028 604.7707887521392 936.1784694949991 613.8438687893743 921.05625 628.04277 C 917.7465185698253 631.0416759689462 914.9301779482765 634.5435389532472 912.71091 638.41944 C 910.6710694416365 642.2649226446463 909.6982051245836 646.586489728934 909.8934 650.93512 C 909.9939400000001 654.9934499999999 910.5667500000001 659.1330399999999 909.67902 663.14512 C 908.6982648517466 667.2852977800148 905.9971582860643 670.8101007818934 902.2544700000001 672.8337700000001 C 897.7086200000001 675.4467700000001 892.49498 676.2705000000001 887.3684700000001 676.8988700000001 C 881.6764700000001 677.5965600000001 875.7532200000002 678.2310600000001 870.8261000000001 681.4236700000001 C 870.2291000000001 681.8105000000002 869.6637900000001 680.8615600000002 870.2598800000001 680.4753100000001 C 878.8322200000001 674.9207000000001 889.67957 676.9418100000001 898.8971200000001 673.2346600000002 C 903.1982 671.5048300000002 907.0040300000001 668.4683400000002 908.35112 663.8774700000002 C 909.5290600000001 659.8629500000003 908.9420200000001 655.5936700000002 908.8047 651.4854000000003 C 908.5521104411856 647.2459684079072 909.3414269680669 643.0091720427449 911.1037 639.1451100000003 C 913.1184650342637 635.168729300677 915.7952099590284 631.5642010578254 919.01931 628.4858800000003 C 926.1672528610716 621.4397969583218 934.3786225572818 615.5614223191792 943.35261 611.0661000000003 C 953.566100319512 605.8788163270209 964.5916824454988 602.476908002731 975.9523300000001 601.0075600000004 C 976.65552 600.9169100000004 976.6611800000001 602.0221700000003 975.9625900000001 602.1122300000004 Z" stroke-linecap="round" />
</g>
<g transform="matrix(0.57 0 0 0.57 435.58 343.29)" id="06ccx9F9u_dlbPG47Glnp"  >
<path style="stroke: none; stroke-width: 1; stroke-dasharray: none; stroke-linecap: butt; stroke-dashoffset: 0; stroke-linejoin: miter; stroke-miterlimit: 4; fill: rgb(255,255,255); fill-rule: nonzero; opacity: 1;" vector-effect="non-scaling-stroke"  transform=" translate(-925.58, -613.67)" d="M 925.65643 623.18417 C 921.4475736334042 617.2760364068811 922.1386304799405 609.1886803562911 927.28884 604.08027 C 927.79512 603.58154 928.5939000000001 604.3448400000001 928.08695 604.84427 C 923.2805201707836 609.5941166401493 922.651460381475 617.1376519317716 926.60479 622.6179800000001 C 927.01991 623.1948800000001 926.06918 623.7578100000001 925.65643 623.1842100000001 Z" stroke-linecap="round" />
</g>
<g transform="matrix(0.57 0 0 0.57 432.31 362.61)" id="acYbXniaJJQAhGSTWwfrs"  >
<path style="stroke: none; stroke-width: 1; stroke-dasharray: none; stroke-linecap: butt; stroke-dashoffset: 0; stroke-linejoin: miter; stroke-miterlimit: 4; fill: rgb(255,255,255); fill-rule: nonzero; opacity: 1;" vector-effect="non-scaling-stroke"  transform=" translate(-919.84, -647.57)" d="M 909.57141 648.88409 C 916.6409806194465 650.1366493683406 923.9229241338096 648.6785824527506 929.9652100000001 644.8006300000001 C 930.5635400000001 644.4159300000001 931.1290500000001 645.36476 930.5314300000001 645.749 C 924.2361471320162 649.7727445649969 916.6550822489802 651.2746818757664 909.3011900000001 649.95507 C 908.6003500000002 649.82881 908.8743700000001 648.75852 909.5714100000001 648.88407 Z" stroke-linecap="round" />
</g>
<g transform="matrix(0.57 0 0 0.57 453.19 341.31)" id="KBvJ1l1ELok3RX4GJekJt"  >
<path style="stroke: none; stroke-width: 1; stroke-dasharray: none; stroke-linecap: butt; stroke-dashoffset: 0; stroke-linejoin: miter; stroke-miterlimit: 4; fill: rgb(255,255,255); fill-rule: nonzero; opacity: 1;" vector-effect="non-scaling-stroke"  transform=" translate(-956.48, -610.19)" d="M 953.65581 607.34063 C 954.7889865038545 609.922713788589 957.1445902656463 611.7619343035088 959.92441 612.23506 C 960.6265 612.35237 960.35172 613.4225799999999 959.6542 613.30606 C 956.5867237189517 612.7692731661924 953.9847576639083 610.7469667545022 952.70745 607.90689 C 952.5614534195287 607.6435699968013 952.6450771977251 607.312129753811 952.89852 607.14959 C 953.1606403592278 606.9948704359576 953.4984661910322 607.0801064508038 953.65581 607.34066 Z" stroke-linecap="round" />
</g>
<g transform="matrix(0.57 0 0 0.57 440.97 382.13)" id="NfYejuvNghXhxOA5ULDCi"  >
<path style="stroke: none; stroke-width: 1; stroke-dasharray: none; stroke-linecap: butt; stroke-dashoffset: 0; stroke-linejoin: miter; stroke-miterlimit: 4; fill: rgb(220,221,222); fill-rule: nonzero; opacity: 1;" vector-effect="non-scaling-stroke"  transform=" translate(-935.04, -681.8)" d="M 1001.67049 682.50737 C 1001.23001 682.44658 1000.78949 682.3858 1000.34258 682.33177 C 994.416321793144 681.54521667321 988.4359575808595 681.2414207475236 982.4605 681.42338 C 981.99829 681.4301099999999 981.5299600000001 681.4438899999999 981.0689100000001 681.4638799999999 C 966.677358118207 682.0557160145155 952.5207600115875 685.3143124441893 939.31876 691.0740199999999 C 934.0674839005959 693.3707716381282 928.9985531358487 696.0637093245896 924.1558500000001 699.12952 C 917.4681200000001 703.3639 910.5538500000001 708.4871599999999 903.0778500000001 710.21411 C 902.299905221726 710.4030361282119 901.511004594003 710.5435919384133 900.7156800000001 710.63497 L 869.8270400000001 683.88951 C 869.7873400000001 683.79351 869.7412300000001 683.7042 869.7012000000001 683.60789 L 868.4190800000001 682.59642 C 868.6577900000001 682.42086 868.9091600000002 682.2438999999999 869.1478700000001 682.0683399999999 C 869.2858700000002 681.96593 869.4308700000001 681.8694699999999 869.5688700000002 681.7670599999999 C 869.6630800000001 681.70067 869.7576800000002 681.6345299999999 869.8388700000002 681.5692399999999 C 869.8701500000002 681.54702 869.9017700000002 681.5251099999999 869.9269800000002 681.5098999999999 C 870.0082000000002 681.4446099999999 870.0905800000002 681.39258 870.1656900000002 681.3343399999999 Q 872.2691400000001 679.8448199999999 874.4008500000001 678.3797099999999 C 874.4069600000001 678.3726599999999 874.4069600000001 678.3726599999999 874.4199500000001 678.3715599999999 C 885.1775762203159 670.8253694133615 896.7923960054508 664.5819497733672 909.02095 659.77217 C 909.3878100000001 659.6335799999999 909.76043 659.4876399999999 910.1414000000001 659.36127 C 915.6485087260671 657.313597008411 921.3137645666867 655.719453568443 927.0805900000001 654.59476 C 930.2403004984012 653.9890701403474 933.4286473579522 653.5437235545186 936.6333900000001 653.2604299999999 C 944.9153709449823 652.5443749201648 953.258441028218 653.1354647828978 961.3567400000002 655.01203 C 977.5000600000002 658.75533 992.2665100000002 667.61988 1001.0125200000002 681.44457 C 1001.23613 681.79838 1001.45311 682.1465 1001.67049 682.50737 Z" stroke-linecap="round" />
</g>
<g transform="matrix(0.57 0 0 0.57 441.31 382.21)" id="ForlE_JLWEpG2Q34s64HL"  >
<path style="stroke: none; stroke-width: 1; stroke-dasharray: none; stroke-linecap: butt; stroke-dashoffset: 0; stroke-linejoin: miter; stroke-miterlimit: 4; fill: rgb(255,255,255); fill-rule: nonzero; opacity: 1;" vector-effect="non-scaling-stroke"  transform=" translate(-935.63, -681.94)" d="M 1001.26159 682.83928 C 983.2350656470433 672.5759872294561 962.4329739268637 668.2535786344116 941.81 670.486 C 937.3618147275469 670.8877657048283 933.0047596755073 671.9881762576762 928.89924 673.74672 C 924.9552937336913 675.5889941431907 921.5766329329789 678.4537909710775 919.1143099999999 682.04345 C 916.75119 685.34433 914.7162299999999 688.99445 911.59187 691.66345 C 908.3161200974538 694.3786669200102 904.037264083091 695.5667711488642 899.83055 694.9292 C 894.62774 694.2786 889.96899 691.79735 885.4974500000001 689.21256 C 880.5326500000001 686.34265 875.4212500000001 683.28305 869.5650400000001 682.86571 C 868.8554800000001 682.81515 868.9754300000001 681.7171000000001 869.6839200000001 681.76759 C 879.8727200000001 682.4937 887.3169200000001 690.6382900000001 896.90853 693.22794 C 901.38418 694.4363099999999 906.2511000000001 694.30322 910.09067 691.4486899999999 C 913.44821 688.9525199999999 915.54989 685.1903 917.91372 681.8273999999999 C 920.264453253559 678.2903690381387 923.4455097639653 675.3827409260758 927.1790100000001 673.3585099999999 C 931.1817415754324 671.396617764801 935.4891457050513 670.1301839504009 939.91677 669.6134399999999 C 949.8662353573015 668.2911034713013 959.961744053568 668.5413626978951 969.83347 670.3550499999999 C 981.111477492008 672.3625247445503 991.9629753767267 676.2844559627509 1001.91847 681.9511599999998 C 1002.53447 682.3021599999998 1001.87359 683.1880399999999 1001.2615700000001 682.8393499999999 Z" stroke-linecap="round" />
</g>
<g transform="matrix(0.57 0 0 0.57 452.42 371.15)" id="SkM5odkoSoyqcf4rbDxsp"  >
<path style="stroke: none; stroke-width: 1; stroke-dasharray: none; stroke-linecap: butt; stroke-dashoffset: 0; stroke-linejoin: miter; stroke-miterlimit: 4; fill: rgb(255,255,255); fill-rule: nonzero; opacity: 1;" vector-effect="non-scaling-stroke"  transform=" translate(-955.12, -662.54)" d="M 948.40824 669.37628 C 948.6048083933717 662.1249459901618 954.0257226224795 656.0837100931291 961.21349 655.1057099999999 C 961.918 655.0123199999999 962.09622 656.1027099999999 961.39078 656.19621 C 954.6933617478469 657.0948981467558 949.6493589390459 662.7392790550581 949.50636 669.4952099999999 C 949.4904799999999 670.2057699999999 948.3924499999999 670.08282 948.40824 669.3763299999999 Z" stroke-linecap="round" />
</g>
<g transform="matrix(0.57 0 0 0.57 437.64 384.05)" id="uI6UfCVoJAznvO7GBSZsm"  >
<path style="stroke: none; stroke-width: 1; stroke-dasharray: none; stroke-linecap: butt; stroke-dashoffset: 0; stroke-linejoin: miter; stroke-miterlimit: 4; fill: rgb(255,255,255); fill-rule: nonzero; opacity: 1;" vector-effect="non-scaling-stroke"  transform=" translate(-929.2, -685.18)" d="M 920.09212 680.21194 C 924.982664156151 685.4684142863005 931.6747625755164 688.6884618520593 938.834 689.23 C 939.5433599999999 689.28308 939.4236199999999 690.38113 938.71512 690.32812 C 931.2661181691379 689.7506653709786 924.3087922132895 686.3855564081933 919.2316199999999 680.90437 C 918.7480499999999 680.3815999999999 919.6112299999999 679.69201 920.0921699999999 680.21194 Z" stroke-linecap="round" />
</g>
<g transform="matrix(0.57 0 0 0.57 467.02 379.71)" id="mLTSajIlh6e4wbB-ub7U4"  >
<path style="stroke: none; stroke-width: 1; stroke-dasharray: none; stroke-linecap: butt; stroke-dashoffset: 0; stroke-linejoin: miter; stroke-miterlimit: 4; fill: rgb(255,255,255); fill-rule: nonzero; opacity: 1;" vector-effect="non-scaling-stroke"  transform=" translate(-980.74, -677.56)" d="M 980.30308 673.58367 C 979.6532679342625 676.3275669820821 980.4267471986822 679.2143137698988 982.3614200000001 681.26572 C 982.8514200000001 681.7821 981.98764 682.47117 981.5008700000001 681.9581499999999 C 979.3748515961755 679.6827186894525 978.5148990890158 676.5014588725561 979.20496 673.4647899999999 C 979.2469240592832 673.1666451151742 979.513241904692 672.9523566296048 979.8134600000001 672.9751699999999 C 980.115901954886 673.0094477996005 980.3343211598749 673.280899305331 980.30308 673.58367 Z" stroke-linecap="round" />
</g>
<g transform="matrix(0.57 0 0 0.57 160.78 367.91)" id="_GvpaO2EBORzaQLFI_jql"  >
<path style="stroke: none; stroke-width: 1; stroke-dasharray: none; stroke-linecap: butt; stroke-dashoffset: 0; stroke-linejoin: miter; stroke-miterlimit: 4; fill: rgb(220,221,222); fill-rule: nonzero; opacity: 1;" vector-effect="non-scaling-stroke"  transform=" translate(-443.47, -656.86)" d="M 419.19376 634.09278 C 434.43832 610.9703999999999 461.70859 594.2445499999999 489.16892 597.8436099999999 C 467.36527647785016 618.6208671533162 453.6135856850544 646.4407196983664 450.34692 676.38103 C 449.12892 687.9323099999999 448.97704 700.9069499999999 440.71454 709.0707899999999 C 435.57354 714.1506399999998 428.08754 716.2807899999999 420.86082 716.3538899999999 C 413.6337 716.4268899999998 406.5303 714.6527199999998 399.52097 712.8903099999999 L 397.76502999999997 713.3048999999999 C 398.93507 685.63414 403.9492 657.21515 419.19376 634.09278 Z" stroke-linecap="round" />
</g>
<g transform="matrix(0.57 0 0 0.57 160.89 366.82)" id="MmmrQKCYJfdITtsqigxhN"  >
<path style="stroke: none; stroke-width: 1; stroke-dasharray: none; stroke-linecap: butt; stroke-dashoffset: 0; stroke-linejoin: miter; stroke-miterlimit: 4; fill: rgb(255,255,255); fill-rule: nonzero; opacity: 1;" vector-effect="non-scaling-stroke"  transform=" translate(-443.67, -654.95)" d="M 489.17177 598.42474 C 467.90858514064644 606.9913571369289 449.88521823449895 622.039985531749 437.6616699999999 641.4331500000002 C 434.95609689730077 645.5613341808679 432.91815102299773 650.0901912838083 431.62285999999995 654.8529900000001 C 430.51099754147583 659.5333361205252 430.67274623778934 664.4260373674318 432.09129999999993 669.0227300000001 C 433.32785999999993 673.3352700000002 435.09212999999994 677.6033300000001 435.2588399999999 682.1413600000002 C 435.3616906420965 686.8422536041498 433.4533750453645 691.3635871038596 430.0134399999999 694.5691800000002 C 425.8784399999999 698.6285000000001 420.53143999999986 700.9599600000001 415.2233199999999 703.0581800000002 C 409.3296499999999 705.3878900000002 403.1710599999999 707.7143600000002 398.7895399999999 712.4996800000002 C 398.25865999999985 713.0794900000002 397.39002999999985 712.2218400000003 397.92010999999985 711.6429100000003 C 405.5432099999999 703.3172600000003 417.70704999999987 702.4611600000003 426.5341799999999 695.9319100000002 C 430.6530799999999 692.8852500000003 433.87878999999987 688.5788500000002 434.0423199999999 683.2940100000003 C 434.1853199999999 678.6726600000003 432.3697599999999 674.2698400000003 431.0799799999999 669.9141200000003 C 429.63039993472916 665.4501961323048 429.2959068011216 660.6992269981752 430.1057199999999 656.0762300000002 C 431.1543445271608 651.2628602122247 433.01442554842583 646.6630350858733 435.6063099999999 642.4737300000003 C 441.29103011688176 632.9491737100432 448.43796789954786 624.377667213638 456.78530999999987 617.0732100000002 C 466.26585781264606 608.6838672021898 477.1116497060486 601.9781118531453 488.85343999999986 597.2460700000003 C 489.58029999999985 596.9534900000002 489.89383999999984 598.1340200000003 489.17172999999985 598.4246900000003 Z" stroke-linecap="round" />
</g>
<g transform="matrix(0.57 0 0 0.57 158.13 349.43)" id="JfF35y3TRuQTqHa1Urkp_"  >
<path style="stroke: none; stroke-width: 1; stroke-dasharray: none; stroke-linecap: butt; stroke-dashoffset: 0; stroke-linejoin: miter; stroke-miterlimit: 4; fill: rgb(255,255,255); fill-rule: nonzero; opacity: 1;" vector-effect="non-scaling-stroke"  transform=" translate(-438.83, -624.44)" d="M 441.23 634.957 C 435.0848521082049 629.8089774271931 433.5740564082361 620.9670470642166 437.66121000000004 614.07066 C 438.06394000000006 613.39641 439.13062 613.99055 438.72735000000006 614.66566 C 434.90813247579115 621.0829149707948 436.333940353795 629.3259614644059 442.08677000000006 634.08753 C 442.69126000000006 634.58906 441.8310200000001 635.4556200000001 441.2300000000001 634.95696 Z" stroke-linecap="round" />
</g>
<g transform="matrix(0.57 0 0 0.57 159.79 371.07)" id="1ZYGZUudpnzH2QmM1AI2T"  >
<path style="stroke: none; stroke-width: 1; stroke-dasharray: none; stroke-linecap: butt; stroke-dashoffset: 0; stroke-linejoin: miter; stroke-miterlimit: 4; fill: rgb(255,255,255); fill-rule: nonzero; opacity: 1;" vector-effect="non-scaling-stroke"  transform=" translate(-441.74, -662.41)" d="M 431.17632 666.91867 C 439.08590774375904 666.2915635111364 446.4685388455588 662.706280630274 451.85211 656.87773 C 452.38502 656.29983 453.25381 657.1573000000001 452.72153 657.73451 C 447.10794403657286 663.789381704907 439.4175999632738 667.5048021773354 431.18526999999995 668.13928 C 430.40056999999996 668.19922 430.3958799999999 666.97828 431.17626999999993 666.91867 Z" stroke-linecap="round" />
</g>
<g transform="matrix(0.57 0 0 0.57 176.23 342.63)" id="s1iTlI1z8Niuj0OVFoIdv"  >
<path style="stroke: none; stroke-width: 1; stroke-dasharray: none; stroke-linecap: butt; stroke-dashoffset: 0; stroke-linejoin: miter; stroke-miterlimit: 4; fill: rgb(255,255,255); fill-rule: nonzero; opacity: 1;" vector-effect="non-scaling-stroke"  transform=" translate(-470.58, -612.51)" d="M 466.76858 610.22238 C 468.6988810559401 612.6687444661595 471.7299374318259 613.9805182420295 474.83466 613.7132 C 475.61821 613.64335 475.62206 614.86442 474.84366 614.93381 C 471.4135648312988 615.2130703935483 468.0680766418511 613.7740154176971 465.91185 611.09181 C 465.6824445068476 610.8508032741959 465.6796740942904 610.4730555525389 465.90552 610.22871 C 466.1428223284177 609.9903035881069 466.52785646739454 609.9874797694746 466.76863000000003 610.2223799999999 Z" stroke-linecap="round" />
</g>
<g transform="matrix(0.57 0 0 0.57 174.64 390.92)" id="0f8EajrwkJ9zDYOjuoUvq"  >
<path style="stroke: none; stroke-width: 1; stroke-dasharray: none; stroke-linecap: butt; stroke-dashoffset: 0; stroke-linejoin: miter; stroke-miterlimit: 4; fill: rgb(220,221,222); fill-rule: nonzero; opacity: 1;" vector-effect="non-scaling-stroke"  transform=" translate(-467.79, -697.23)" d="M 539.03313 677.25786 C 538.54513 677.3153900000001 538.05713 677.37292 537.56404 677.43947 C 531.0069059172133 678.2469208237103 524.5262065163414 679.58574108656 518.18589 681.44272 C 517.69341 681.5785 517.19636 681.72352 516.7088 681.87317 C 501.4812406746271 686.5098848509443 487.2468644657078 693.9334189459759 474.72926999999993 703.7664 C 469.75181797005746 707.683745079416 465.07961174373025 711.9740993704831 460.7530999999999 716.60032 C 454.77836999999994 722.98965 448.80859999999996 730.39269 441.29328999999996 734.31951 C 440.51381314066384 734.7379992887912 439.7091624234176 735.1078040447605 438.88395999999995 735.4268000000001 L 398.407 715.41491 C 398.33783999999997 715.32327 398.26367999999997 715.24059 398.19406 715.14873 L 396.54141 714.42361 C 396.74788 714.16943 396.96749 713.91024 397.17395999999997 713.65606 C 397.29312 713.5081200000001 397.42128999999994 713.36464 397.54044999999996 713.2167000000001 C 397.62273999999996 713.1194800000001 397.70552 713.0224300000001 397.77421999999996 712.9300000000001 C 397.80148999999994 712.89754 397.82921999999996 712.8653 397.85194999999993 712.8420000000001 C 397.9206499999999 712.7495700000001 397.99427999999995 712.671 398.05841999999996 712.5878200000001 Q 399.89374999999995 710.40956 401.76606999999996 708.24953 C 401.77063999999996 708.2402900000001 401.77063999999996 708.2402900000001 401.78423 708.23553 C 411.32306 697.2875300000001 421.85967999999997 687.0397 433.61676 678.7169100000001 C 433.97057 678.4666200000001 434.3285 678.2069100000001 434.70076 677.9657300000001 C 440.02112390009074 674.243605831735 445.6368011653606 670.9625469041592 451.49170999999996 668.1553200000001 C 454.70261522504313 666.6284898183982 457.9887537343166 665.2651818995449 461.33750999999995 664.07063 C 469.99613933368016 661.0007351374759 479.0837555086766 659.3118836351365 488.2672 659.06599 C 506.57436 658.5784900000001 524.83365 663.9513800000001 538.03381 676.3041700000001 C 538.37133 676.62042 538.70025 676.93237 539.03313 677.25786 Z" stroke-linecap="round" />
</g>
<g transform="matrix(0.57 0 0 0.57 174.96 390.18)" id="qWVyLbHRpJHlb9CvAt7ka"  >
<path style="stroke: none; stroke-width: 1; stroke-dasharray: none; stroke-linecap: butt; stroke-dashoffset: 0; stroke-linejoin: miter; stroke-miterlimit: 4; fill: rgb(255,255,255); fill-rule: nonzero; opacity: 1;" vector-effect="non-scaling-stroke"  transform=" translate(-468.35, -695.93)" d="M 538.68814 677.72661 C 516.5529716058435 671.7646608973009 493.10199587468253 672.9288330857419 471.6661399999999 681.0537700000001 C 467.02044310561945 682.720958775771 462.6665744137667 685.110012824663 458.76482 688.1329800000001 C 455.05916517837665 691.2005546298107 452.2425674808089 695.2044882694812 450.60767999999996 699.7287600000001 C 448.99854999999997 703.9165800000001 447.83755999999994 708.3866 445.23846 712.1103400000001 C 442.49031511742027 715.9256575746851 438.24448023047097 718.3867484529235 433.56789999999995 718.87516 C 427.82233999999994 719.62674 422.14937 718.26903 416.64782999999994 716.7485 C 410.53941999999995 715.06025 404.2214399999999 713.2099000000001 397.84193999999997 714.39274 C 397.06893999999994 714.53606 396.89178999999996 713.3283 397.66358999999994 713.1852 C 408.76282999999995 711.12726 418.99039999999997 717.7672 429.96941999999996 717.8685 C 435.09241999999995 717.91578 440.26072999999997 716.4195000000001 443.57312999999994 712.2982800000001 C 446.46968999999996 708.6944800000001 447.67085999999995 704.0859800000001 449.26348999999993 699.8316400000001 C 450.79368494981674 695.3947004285927 453.38703501010457 691.3999337981825 456.817 688.1963 C 460.5522465749576 684.9844308548572 464.8068310094049 682.4316213542921 469.39856000000003 680.6471899999999 C 479.67194326853553 676.4649722988402 490.5390203305703 673.9240654764192 501.60170000000005 673.1175499999999 C 514.2223519700558 672.1270666554735 526.9194401942825 673.3028096547441 539.14362 676.5939099999999 C 539.9001300000001 676.7979099999999 539.4397200000001 677.92928 538.6881400000001 677.7266099999999 Z" stroke-linecap="round" />
</g>
<g transform="matrix(0.57 0 0 0.57 183.59 374.74)" id="y9fyjzmkKrKhZxt7z005S"  >
<path style="stroke: none; stroke-width: 1; stroke-dasharray: none; stroke-linecap: butt; stroke-dashoffset: 0; stroke-linejoin: miter; stroke-miterlimit: 4; fill: rgb(255,255,255); fill-rule: nonzero; opacity: 1;" vector-effect="non-scaling-stroke"  transform=" translate(-483.49, -668.84)" d="M 478.41444 678.0313 C 476.60735626107737 670.2210844492691 480.72453108307417 662.2516962624399 488.14 659.20607 C 488.8675 658.91019 489.36145999999997 660.02679 488.633 660.3230699999999 C 481.71993820857665 663.1474628013358 477.8954836303675 670.5875103061636 479.62199999999996 677.8529599999999 C 479.80269999999996 678.6173399999999 478.59412 678.7913199999999 478.41445999999996 678.03131 Z" stroke-linecap="round" />
</g>
<g transform="matrix(0.57 0 0 0.57 171.49 392.8)" id="CL-b-KRCrewSkF7PYr3ul"  >
<path style="stroke: none; stroke-width: 1; stroke-dasharray: none; stroke-linecap: butt; stroke-dashoffset: 0; stroke-linejoin: miter; stroke-miterlimit: 4; fill: rgb(255,255,255); fill-rule: nonzero; opacity: 1;" vector-effect="non-scaling-stroke"  transform=" translate(-462.26, -700.52)" d="M 451.144 697.49791 C 457.83692123516477 701.759317159185 465.8901236941603 703.3415215904627 473.69779 701.92903 C 474.47124 701.78846 474.64866 702.99617 473.87614 703.13658 C 465.7485543515788 704.5912799898213 457.3713082722373 702.9277175205442 450.41625 698.47789 C 449.75363 698.0533 450.48497 697.07563 451.144 697.49789 Z" stroke-linecap="round" />
</g>
<g transform="matrix(0.57 0 0 0.57 201.77 379.82)" id="syZwBLUfnGuR_v1PJ1XzK"  >
<path style="stroke: none; stroke-width: 1; stroke-dasharray: none; stroke-linecap: butt; stroke-dashoffset: 0; stroke-linejoin: miter; stroke-miterlimit: 4; fill: rgb(255,255,255); fill-rule: nonzero; opacity: 1;" vector-effect="non-scaling-stroke"  transform=" translate(-515.39, -677.76)" d="M 513.69745 673.65809 C 513.7658084464109 676.773554352681 515.3961633207888 679.6458410083492 518.03606 681.30166 C 518.70374 681.71766 517.97164 682.6949099999999 517.30831 682.28166 C 514.4014355654072 680.4394803311579 512.5966608824237 677.2762591156124 512.48991 673.83647 C 512.4518498077167 673.5059196707389 512.6770704276246 673.2026421181444 513.00451 673.14352 C 513.3375147381266 673.0960479482852 513.6466329460558 673.3256092808687 513.69745 673.6581199999999 Z" stroke-linecap="round" />
</g>
<g transform="matrix(0.57 0 0 0.57 208.17 230.72)" id="FEcE2abNE9NWmEKK-BGzl"  >
<path style="stroke: none; stroke-width: 1; stroke-dasharray: none; stroke-linecap: butt; stroke-dashoffset: 0; stroke-linejoin: miter; stroke-miterlimit: 4; fill: rgb(255,182,182); fill-rule: nonzero; opacity: 1;" vector-effect="non-scaling-stroke"  transform=" translate(-526.62, -416.18)" d="M 527.68913 460.73774 C 529.7367772173947 458.7004650737418 530.7768645301891 455.8608446247723 530.5295234733618 452.98296855835247 C 530.2821824165345 450.10509249193257 528.7728207203802 447.4845862082875 526.4075799999999 445.82658 L 542.3396299999999 368.71993999999995 L 525.1507899999999 374.14257 L 512.3325399999999 448.73715 C 509.7539560437427 452.9885494225195 510.7626926586676 458.49667947138033 514.6805616614051 461.558344826486 C 518.5984306641427 464.6200101815917 524.187058489254 464.2674690834976 527.6891299999999 460.73774 Z" stroke-linecap="round" />
</g>
<g transform="matrix(0.57 0 0 0.57 217.61 184.97)" id="CrTcCsT6gb0HENEK9S5vT"  >
<path style="stroke: none; stroke-width: 1; stroke-dasharray: none; stroke-linecap: butt; stroke-dashoffset: 0; stroke-linejoin: miter; stroke-miterlimit: 4; fill: rgb(230,230,230); fill-rule: nonzero; opacity: 1;" vector-effect="non-scaling-stroke"  transform=" translate(-543.18, -335.91)" d="M 564.51521 254.62848 L 553.86758 246.59109 C 553.86758 246.59109 544.4747 245.92593000000002 542.81115 262.86486 C 541.1476 279.80379000000005 530.73168 344.815 530.73168 344.815 L 514.43868 420.27787 L 536.9925999999999 425.22834 L 554.4436 343.79058 L 571.91248 287.60663999999997 Z" stroke-linecap="round" />
</g>
<g transform="matrix(0.57 0 0 0.57 221.83 192.46)" id="kqZd_pD0zqNrmLv-SdTM5"  >
<path style="stroke: none; stroke-width: 1; stroke-dasharray: none; stroke-linecap: butt; stroke-dashoffset: 0; stroke-linejoin: miter; stroke-miterlimit: 4; fill: rgb(63,61,86); fill-rule: nonzero; opacity: 1;" vector-effect="non-scaling-stroke"  transform=" translate(-550.58, -349.06)" d="M 556.4035 394.26194 L 505.32845000000003 354.54845 C 503.67203284315457 353.25749253269737 503.37317186043236 350.86934245171284 504.66038000000003 349.21001 L 539.41138 304.51716 C 540.7023542397817 302.860772980751 543.0904907676393 302.5619438888832 544.7498 303.84916 L 595.8248000000001 343.56264 C 597.4812127653919 344.85359011586297 597.7800780425187 347.24172981877143 596.4928800000001 348.90106 L 561.7418800000002 393.59391999999997 C 560.4509145818913 395.2502878835379 558.0628078402157 395.54912443424695 556.4035 394.26194 Z" stroke-linecap="round" />
</g>
<g transform="matrix(0.57 0 0 0.57 221.83 192.46)" id="q0uLBW1DmR4lR7JJpsage"  >
<path style="stroke: none; stroke-width: 1; stroke-dasharray: none; stroke-linecap: butt; stroke-dashoffset: 0; stroke-linejoin: miter; stroke-miterlimit: 4; fill: rgb(255,255,255); fill-rule: nonzero; opacity: 1;" vector-effect="non-scaling-stroke"  transform=" translate(-550.58, -349.06)" d="M 556.12277 390.1524 L 509.38042999999993 353.80782 C 507.9097153544937 352.66159380078244 507.6443607388303 350.541181512623 508.78725999999995 349.06788 L 540.2906 308.5518 C 541.4368291399295 307.08109053094336 543.5572369129676 306.81573648031554 545.0305400000001 307.95863 L 591.7728800000001 344.30321000000004 C 593.2435894690567 345.44943913992955 593.5089435196845 347.5698469129675 592.3660500000001 349.04315 L 560.8627100000001 389.55923 C 559.7164808600706 391.0299394690567 557.5960730870326 391.2952935196846 556.12277 390.1524 Z" stroke-linecap="round" />
</g>
<g transform="matrix(0.57 0 0 0.57 206.66 188.38)" id="Z3ulTyZXufBn0q4J-cOU0"  >
<path style="stroke: none; stroke-width: 1; stroke-dasharray: none; stroke-linecap: butt; stroke-dashoffset: 0; stroke-linejoin: miter; stroke-miterlimit: 4; fill: rgb(228,228,228); fill-rule: nonzero; opacity: 1;" vector-effect="non-scaling-stroke"  transform=" translate(-523.97, -341.89)" d="M 515.50831 352.77719 C 515.1406663056209 352.4906417784329 515.07435915703 351.96056931611173 515.36009 351.59229 L 531.2526 331.15310999999997 C 531.4377725415774 330.91496033042307 531.7359303623634 330.7936893357904 532.0347602969085 330.8349786260913 C 532.3335902314536 330.8762679163922 532.5876929039407 331.0738446662136 532.7013502969085 331.3532836260913 C 532.8150076898763 331.6327225859691 532.7709525415773 331.95157033042307 532.58578 332.18971999999997 L 516.69326 352.6289 C 516.4067088139292 352.9965619516606 515.8766269547278 353.0628987919501 515.50831 352.77719 Z" stroke-linecap="round" />
</g>
<g transform="matrix(0.57 0 0 0.57 208.17 189.55)" id="uFGGNe29SonVYiuQ0G42I"  >
<path style="stroke: none; stroke-width: 1; stroke-dasharray: none; stroke-linecap: butt; stroke-dashoffset: 0; stroke-linejoin: miter; stroke-miterlimit: 4; fill: rgb(228,228,228); fill-rule: nonzero; opacity: 1;" vector-effect="non-scaling-stroke"  transform=" translate(-526.61, -343.94)" d="M 518.14234 354.82529 C 517.7746512592198 354.5387323852107 517.708312999481 354.0086168157827 517.99405 353.64029 L 533.88657 333.20110999999997 C 534.1728357543798 332.83294594006776 534.7033559400678 332.76655424562017 535.07152 333.05281999999994 C 535.4396840599322 333.3390857543797 535.5060757543798 333.86960594006774 535.21981 334.23776999999995 L 519.32729 354.677 C 519.04073587346 355.04465677554305 518.5106585289658 355.1109930508416 518.14234 354.82529 Z" stroke-linecap="round" />
</g>
<g transform="matrix(0.57 0 0 0.57 212.23 187.41)" id="iN6dLQ4RIbPFubW7VcwvE"  >
<path style="stroke: none; stroke-width: 1; stroke-dasharray: none; stroke-linecap: butt; stroke-dashoffset: 0; stroke-linejoin: miter; stroke-miterlimit: 4; fill: rgb(228,228,228); fill-rule: nonzero; opacity: 1;" vector-effect="non-scaling-stroke"  transform=" translate(-533.74, -340.2)" d="M 529.77986 345.29409 C 529.4121712592198 345.0075323852107 529.345832999481 344.4774168157827 529.63157 344.10909 L 536.52057 335.2492 C 536.7055625630968 335.0104669122199 537.003971360358 334.8887099791836 537.3031712124427 334.9298825928322 C 537.6023710645275 334.97105520648086 537.8568014406095 335.1688878244993 537.9704354574369 335.44871463847863 C 538.0840694742642 335.728541452458 538.0396035600253 336.04775195274925 537.85382 336.28587 L 530.96482 345.14576 C 530.6782772375904 345.5134360417761 530.1481906606498 345.5797908064581 529.77986 345.29409 Z" stroke-linecap="round" />
</g>
<g transform="matrix(0.57 0 0 0.57 219.44 190.65)" id="9oBBb7hhmmFM_Y5HZYX6s"  >
<path style="stroke: none; stroke-width: 1; stroke-dasharray: none; stroke-linecap: butt; stroke-dashoffset: 0; stroke-linejoin: miter; stroke-miterlimit: 4; fill: rgb(228,228,228); fill-rule: nonzero; opacity: 1;" vector-effect="non-scaling-stroke"  transform=" translate(-546.39, -345.88)" d="M 533.33129 362.6806 C 532.96365148248 362.39404883778906 532.8973448987335 361.8639808909447 533.1830699999999 361.4957 L 558.2724099999999 329.22859 C 558.4575825415773 328.9904403304231 558.7557403623633 328.86916933579045 559.0545702969084 328.9104586260913 C 559.3534002314535 328.9517479163922 559.6075029039406 329.1493246662136 559.7211602969084 329.4287636260913 C 559.8348176898762 329.7082025859691 559.7907625415772 330.0270503304231 559.6055899999999 330.2652 L 534.5162499999999 362.53231 C 534.2296951756705 362.89997316837963 533.6996101864461 362.9663098405476 533.33129 362.6806 Z" stroke-linecap="round" />
</g>
<g transform="matrix(0.57 0 0 0.57 220.95 191.82)" id="XROJLGYH0tveQC65DPITf"  >
<path style="stroke: none; stroke-width: 1; stroke-dasharray: none; stroke-linecap: butt; stroke-dashoffset: 0; stroke-linejoin: miter; stroke-miterlimit: 4; fill: rgb(228,228,228); fill-rule: nonzero; opacity: 1;" vector-effect="non-scaling-stroke"  transform=" translate(-549.03, -347.93)" d="M 535.96532 364.7287 C 535.5976312592198 364.44214238521073 535.531292999481 363.9120268157827 535.81703 363.5437 L 560.90637 331.27659 C 561.1926385158035 330.9084259400678 561.7231609400678 330.84203648419646 562.0913250000001 331.12830499999995 C 562.4594890599323 331.4145735158035 562.5258785158036 331.9450959400678 562.2396100000001 332.31326 L 537.1502700000001 364.58037 C 536.8637279352309 364.94803964897187 536.333649003058 365.0143940166745 535.96532 364.7287 Z" stroke-linecap="round" />
</g>
<g transform="matrix(0.57 0 0 0.57 224.36 194.47)" id="nDQnEoR1kAMz59foEwD_t"  >
<path style="stroke: none; stroke-width: 1; stroke-dasharray: none; stroke-linecap: butt; stroke-dashoffset: 0; stroke-linejoin: miter; stroke-miterlimit: 4; fill: rgb(228,228,228); fill-rule: nonzero; opacity: 1;" vector-effect="non-scaling-stroke"  transform=" translate(-555.01, -352.58)" d="M 541.94445 369.37778 C 541.5768018709794 369.091231155591 541.5104903672901 368.5611551666792 541.79622 368.19286999999997 L 566.8855699999999 335.92575999999997 C 567.1718247086848 335.55761527003403 567.702320270034 335.49123029131516 568.0704649999999 335.77748499999996 C 568.4386097299658 336.0637397086848 568.5049947086848 336.59423527003406 568.2187399999999 336.96238 L 543.1294 369.22949 C 542.8428458734601 369.5971467755431 542.3127685289659 369.66348305084165 541.94445 369.37778 Z" stroke-linecap="round" />
</g>
<g transform="matrix(0.57 0 0 0.57 225.85 195.64)" id="2YcclSB7bZpcJwODXPLTh"  >
<path style="stroke: none; stroke-width: 1; stroke-dasharray: none; stroke-linecap: butt; stroke-dashoffset: 0; stroke-linejoin: miter; stroke-miterlimit: 4; fill: rgb(228,228,228); fill-rule: nonzero; opacity: 1;" vector-effect="non-scaling-stroke"  transform=" translate(-557.64, -354.63)" d="M 544.57847 371.42587 C 544.2107844774679 371.13930936964664 544.1444507409424 370.6091941971163 544.43019 370.24087 L 569.51953 337.97375999999997 C 569.8057985158035 337.60559594006776 570.3363209400678 337.5392064841964 570.7044850000001 337.8254749999999 C 571.0726490599322 338.1117435158035 571.1390385158036 338.6422659400678 570.8527700000001 339.01043 L 545.7634300000001 371.27754 C 545.4768842969462 371.6452108657422 544.9468022347086 371.7115650652862 544.57847 371.42587 Z" stroke-linecap="round" />
</g>
<g transform="matrix(0.57 0 0 0.57 229.26 198.28)" id="UYLhJAPkNcqL2qzGWlsio"  >
<path style="stroke: none; stroke-width: 1; stroke-dasharray: none; stroke-linecap: butt; stroke-dashoffset: 0; stroke-linejoin: miter; stroke-miterlimit: 4; fill: rgb(228,228,228); fill-rule: nonzero; opacity: 1;" vector-effect="non-scaling-stroke"  transform=" translate(-563.62, -359.27)" d="M 550.5576 376.075 C 550.18996148248 375.788448837789 550.1236548987335 375.25838089094464 550.4093799999999 374.89009999999996 L 575.4987199999999 342.62298999999996 C 575.6838925415773 342.38484033042306 575.9820503623633 342.2635693357904 576.2808802969084 342.3048586260913 C 576.5797102314535 342.34614791639217 576.8338129039406 342.54372466621356 576.9474702969084 342.8231636260913 C 577.0611276898762 343.10260258596907 577.0170725415772 343.42145033042306 576.8318999999999 343.65959999999995 L 551.7425599999999 375.92670999999996 C 551.4560051756705 376.2943731683796 550.9259201864461 376.36070984054754 550.5576 376.075 Z" stroke-linecap="round" />
</g>
<g transform="matrix(0.57 0 0 0.57 230.76 199.45)" id="S-tSUhL1YytL3Ko1JXgO1"  >
<path style="stroke: none; stroke-width: 1; stroke-dasharray: none; stroke-linecap: butt; stroke-dashoffset: 0; stroke-linejoin: miter; stroke-miterlimit: 4; fill: rgb(228,228,228); fill-rule: nonzero; opacity: 1;" vector-effect="non-scaling-stroke"  transform=" translate(-566.25, -361.32)" d="M 553.19163 378.123 C 552.8239412592199 377.8364423852107 552.757602999481 377.3063268157827 553.0433400000001 376.938 L 578.13268 344.671 C 578.419468039133 344.3045611721635 578.9486519574265 344.23918528110397 579.315996790484 344.52481190374596 C 579.6833416235415 344.8104385263879 579.7503923439674 345.3394128427801 579.4659300000001 345.70766 L 554.3765900000001 377.97477 C 554.0900170835689 378.34241385910985 553.5599344750933 378.4087233928108 553.19163 378.123 Z" stroke-linecap="round" />
</g>
<g transform="matrix(0.57 0 0 0.57 199.42 230.19)" id="LahhnafQ5cYVgjaaZZCJD"  >
<path style="stroke: none; stroke-width: 1; stroke-dasharray: none; stroke-linecap: butt; stroke-dashoffset: 0; stroke-linejoin: miter; stroke-miterlimit: 4; fill: rgb(255,255,255); fill-rule: nonzero; opacity: 1;" vector-effect="non-scaling-stroke"  transform=" translate(-0.35, -0.35)" d="M 0 0.34668 C 0 0.15521 0.15521 0 0.34668 0 C 0.53815 0 0.69336 0.15521 0.69336 0.34668 C 0.69336 0.53815 0.53815 0.69336 0.34668 0.69336 C 0.15521 0.69336 0 0.53815 0 0.34668 z" stroke-linecap="round" />
</g>
<g transform="matrix(0.57 0 0 0.57 245.75 100.28)" id="O-KvWYdlBCCNbt_Lh1QeV"  >
<path style="stroke: none; stroke-width: 1; stroke-dasharray: none; stroke-linecap: butt; stroke-dashoffset: 0; stroke-linejoin: miter; stroke-miterlimit: 4; fill: rgb(47,46,65); fill-rule: nonzero; opacity: 1;" vector-effect="non-scaling-stroke"  transform=" translate(-592.55, -187.33)" d="M 561.77832 176.70558 C 560.5588714671298 183.25733760186762 558.5592530886304 189.6394981093403 555.82217 195.71576 C 540.14886 228.87242999999998 584.7835 218.06507 600.73441 218.06507 C 618.1744100000001 218.06507 634.86085 227.23579999999998 632.31231 186.48716 C 631.22369 169.08115999999998 618.1744 154.90925 600.73441 154.90925 C 585.83774 154.90925 564.89327 161.53052 561.77832 176.70558 Z" stroke-linecap="round" />
</g>
<g transform="matrix(0.57 0 0 0.57 253.44 355.07)" id="bC3XUuB5XOpqO7zU8LGQL"  >
<path style="stroke: none; stroke-width: 1; stroke-dasharray: none; stroke-linecap: butt; stroke-dashoffset: 0; stroke-linejoin: miter; stroke-miterlimit: 4; fill: rgb(255,182,182); fill-rule: nonzero; opacity: 1;" vector-effect="non-scaling-stroke"  transform=" translate(-442.38, -479.43)" d="M 453.34 508.085 L 438.481 508.085 L 431.40999999999997 450.772 L 453.34 450.772 z" stroke-linecap="round" />
</g>
<g transform="matrix(0.57 0 0 0.57 249.32 375.44)" id="LS6yswNCZVIW8RHFsRoHU"  >
<path style="stroke: none; stroke-width: 1; stroke-dasharray: none; stroke-linecap: butt; stroke-dashoffset: 0; stroke-linejoin: miter; stroke-miterlimit: 4; fill: rgb(47,46,65); fill-rule: nonzero; opacity: 1;" vector-effect="non-scaling-stroke"  transform=" translate(-598.81, -670.07)" d="M 624.83334 688.73931 L 614.17746 688.73931 L 612.27546 678.6789 L 607.4040799999999 688.73931 L 579.14211 688.73931 C 576.3615529127616 688.7395206800236 573.9039456142253 686.9315034449135 573.0764676548433 684.2769266450234 C 572.2489896954613 681.6223498451333 573.2439386566164 678.7381105137028 575.53211 677.15831 L 598.10126 661.5712500000001 L 598.10126 651.40053 L 621.84007 652.81742 Z" stroke-linecap="round" />
</g>
<g transform="matrix(0.57 0 0 0.57 295.24 350.14)" id="1BZoC2RpvF67gQ7NJK9kZ"  >
<path style="stroke: none; stroke-width: 1; stroke-dasharray: none; stroke-linecap: butt; stroke-dashoffset: 0; stroke-linejoin: miter; stroke-miterlimit: 4; fill: rgb(255,182,182); fill-rule: nonzero; opacity: 1;" vector-effect="non-scaling-stroke"  transform=" translate(-515.72, -470.77)" d="M 541.617 489.333 L 529.693 498.20000000000005 L 489.82 456.42900000000003 L 507.418 443.34200000000004 z" stroke-linecap="round" />
</g>
<g transform="matrix(0.57 0 0 0.57 309.01 370.25)" id="QLl9xwp-151KFenxtB9vw"  >
<path style="stroke: none; stroke-width: 1; stroke-dasharray: none; stroke-linecap: butt; stroke-dashoffset: 0; stroke-linejoin: miter; stroke-miterlimit: 4; fill: rgb(47,46,65); fill-rule: nonzero; opacity: 1;" vector-effect="non-scaling-stroke"  transform=" translate(-703.52, -660.96)" d="M 726.92339 660.22174 L 718.3725400000001 666.5802699999999 L 710.8430500000001 659.64222 L 712.93721 670.6220599999999 L 690.25832 687.4863899999999 C 688.0271883992472 689.1457189070101 684.9762429431979 689.1613521697964 682.728223907452 687.5249747510932 C 680.4802048717062 685.88859733239 679.5575167780762 682.9804777927964 680.45092 680.3473899999999 L 689.26057 654.3721499999999 L 683.1915700000001 646.21061 L 703.0863300000001 633.18228 Z" stroke-linecap="round" />
</g>
<g transform="matrix(0.57 0 0 0.57 252.05 205.9)" id="JUQ74I2Dyt8KhSEGfBw4f"  >
<path style="stroke: none; stroke-width: 1; stroke-dasharray: none; stroke-linecap: butt; stroke-dashoffset: 0; stroke-linejoin: miter; stroke-miterlimit: 4; fill: rgb(255,182,182); fill-rule: nonzero; opacity: 1;" vector-effect="non-scaling-stroke"  transform=" translate(-439.94, -217.72)" d="M 404.675 244.313 L 475.21000000000004 233.327 L 461.18300000000005 191.129 L 404.67500000000007 191.129 z" stroke-linecap="round" />
</g>
<g transform="matrix(0.57 0 0 0.57 261.71 273.8)" id="1NMnydxX3koD65lKV-Xep"  >
<path style="stroke: none; stroke-width: 1; stroke-dasharray: none; stroke-linecap: butt; stroke-dashoffset: 0; stroke-linejoin: miter; stroke-miterlimit: 4; fill: rgb(47,46,65); fill-rule: nonzero; opacity: 1;" vector-effect="non-scaling-stroke"  transform=" translate(-620.55, -491.76)" d="M 634.29015 367.29129 C 634.29015 367.29129 662.4827200000001 391.64836 649.47501 461.08429 L 633.59466 529.1199 L 676.86085 604.2358 L 654.86085 616.2358 L 601.54305 542.1306900000001 L 577.145 484.90063 L 564.23959 384.59926 Z" stroke-linecap="round" />
</g>
<g transform="matrix(0.57 0 0 0.57 253.44 311.26)" id="rkZY9d1vO3rLNNBhAXZHc"  >
<path style="stroke: none; stroke-width: 1; stroke-dasharray: none; stroke-linecap: butt; stroke-dashoffset: 0; stroke-linejoin: miter; stroke-miterlimit: 4; fill: rgb(47,46,65); fill-rule: nonzero; opacity: 1;" vector-effect="non-scaling-stroke"  transform=" translate(-442.38, -402.56)" d="M 426.942 346.301 L 425.246 372.562 L 430.21 450.327 L 454.854 458.812 L 459.52099999999996 379.134 z" stroke-linecap="round" />
</g>
<g transform="matrix(0.57 0 0 0.57 249.12 168.22)" id="wXes-0mCsrpXZGdANh9fa"  >
<path style="stroke: none; stroke-width: 1; stroke-dasharray: none; stroke-linecap: butt; stroke-dashoffset: 0; stroke-linejoin: miter; stroke-miterlimit: 4; fill: rgb(230,230,230); fill-rule: nonzero; opacity: 1;" vector-effect="non-scaling-stroke"  transform=" translate(-598.46, -306.52)" d="M 583.01607 226.805 L 610.28107 227.86868 L 621.14735 245.90624000000003 L 645.9391899999999 250.74604000000002 L 631.13917 325.619 L 633.86085 368.23585 L 609.17485 368.0853 C 591.3840701762015 367.97680187650764 574.1795007096118 374.44018835331394 560.86085 386.23582999999996 L 560.86085 386.23583 L 561.59934 330.91588 L 550.98112 289.62018 L 553.36757 246.31901 L 573.31149 243.82601 Z" stroke-linecap="round" />
</g>
<g transform="matrix(0.57 0 0 0.57 248.93 103.17)" id="lScyBYLGY_ICpP28RniEZ"  >
<path style="stroke: none; stroke-width: 1; stroke-dasharray: none; stroke-linecap: butt; stroke-dashoffset: 0; stroke-linejoin: miter; stroke-miterlimit: 4; fill: rgb(255,182,182); fill-rule: nonzero; opacity: 1;" vector-effect="non-scaling-stroke"  transform=" translate(-25.66, -25.66)" d="M 0 25.66061 C 0 11.488649999999998 11.48865 0 25.66061 0 C 39.83257 0 51.32122 11.48865 51.32122 25.66061 C 51.32122 39.83257 39.83257 51.32122 25.66061 51.32122 C 11.488649999999998 51.32122 0 39.83257 0 25.66061 z" stroke-linecap="round" />
</g>
<g transform="matrix(0.57 0 0 0.57 247.72 95.38)" id="1qx8Rd8crpeWEwErUoI1l"  >
<path style="stroke: none; stroke-width: 1; stroke-dasharray: none; stroke-linecap: butt; stroke-dashoffset: 0; stroke-linejoin: miter; stroke-miterlimit: 4; fill: rgb(47,46,65); fill-rule: nonzero; opacity: 1;" vector-effect="non-scaling-stroke"  transform=" translate(-596, -178.73)" d="M 580.69521 166.23918 C 589.8536512474752 160.65587375352726 601.3262606636271 160.50462620997533 610.6287068664693 165.84455592567224 C 619.9311530693116 171.18448564136912 625.5862600103144 181.1676418617649 625.3836 191.89188000000001 C 612.30819 195.17473 598.5716 197.68699 584.62767 192.67710000000002 L 581.33467 184.61782000000002 L 579.39329 192.68307000000001 C 575.14688 194.41874 570.88946 195.8873 566.63207 192.66631 C 566.2782968820106 181.98125558966063 571.6351900709359 171.91470482647088 580.69521 166.23918 Z" stroke-linecap="round" />
</g>
<g transform="matrix(0.57 0 0 0.57 284.26 241.19)" id="U-VzSzxivUlymsxVBuj12"  >
<path style="stroke: none; stroke-width: 1; stroke-dasharray: none; stroke-linecap: butt; stroke-dashoffset: 0; stroke-linejoin: miter; stroke-miterlimit: 4; fill: rgb(14,20,30); fill-rule: nonzero; opacity: 1;" vector-effect="non-scaling-stroke"  transform=" translate(-660.1, -434.54)" d="M 641.1932 419.97065 L 644.65231 451.36318 C 645.1468912410622 452.97111376061366 646.6324213124996 454.0683906615588 648.3147 454.06838 L 664.25987 454.06838 C 665.9422862886662 454.0685285158656 667.4280080119767 452.97123289341835 667.9226699999999 451.36318 L 670.78775 427.30234 C 673.0584187159103 428.4156310457408 675.7881753011741 427.93498415507327 677.5420222345704 426.1130691449378 C 679.2958691679667 424.29115413480235 679.6722783911125 421.54508265994417 678.4733764726935 419.318428766778 C 677.2744745542745 417.0917748736119 674.7747397000726 415.8943116771057 672.28825 416.35553000000004 C 671.56472048997 415.50079293595917 670.5008299162099 415.0089676389852 669.3809799999999 415.01153000000005 L 644.856 415.01153000000005 C 643.6399061409811 415.0116031135634 642.4960215035918 415.58884351857057 641.7735225496999 416.56704571694996 C 641.0510235958081 417.54524791532936 640.8356701795917 418.80830035088064 641.1932 419.97065 Z M 671.2884600000001 425.67524 L 673.0433700000001 419.97065 C 673.2465791601478 419.3123690792915 673.2666302842006 418.61116744280685 673.1013700000001 417.94235 C 673.1764300000001 417.93834999999996 673.2470300000001 417.91999 673.3229100000001 417.91999 C 675.617653135547 417.91999 677.4779100000001 419.78024686445303 677.4779100000001 422.07498999999996 C 677.4779100000001 424.36973313554694 675.617653135547 426.22999 673.3229100000001 426.22999 C 672.6080074636128 426.22549919681114 671.9066888316593 426.0342649511545 671.28846 425.67524 Z" stroke-linecap="round" />
</g>
<g transform="matrix(0.57 0 0 0.57 287.93 226.92)" id="KRxZE5k9IjeFtdADaEenY"  >
<path style="stroke: none; stroke-width: 1; stroke-dasharray: none; stroke-linecap: butt; stroke-dashoffset: 0; stroke-linejoin: miter; stroke-miterlimit: 4; fill: rgb(255,182,182); fill-rule: nonzero; opacity: 1;" vector-effect="non-scaling-stroke"  transform=" translate(-666.55, -409.51)" d="M 665.23736 454.09 C 663.20007830355 452.04235306925847 662.1744234856154 449.19748148384923 662.4363828306506 446.3208946234861 C 662.6983421756858 443.4443077631229 664.2210060528399 440.8315014441947 666.59465 439.18553999999995 L 651.05459 361.999 L 668.21566 367.50889 L 680.65472 442.16764 C 683.2115685455313 446.4320809390049 682.1748211221113 451.93493017586223 678.2414857064796 454.97660792263025 C 674.3081502908478 458.01828566939827 668.7214594932645 457.6373908338497 665.23736 454.09 Z" stroke-linecap="round" />
</g>
<g transform="matrix(0.57 0 0 0.57 282.28 187.33)" id="St94VM0bQuogh6Kwbsy1S"  >
<path style="stroke: none; stroke-width: 1; stroke-dasharray: none; stroke-linecap: butt; stroke-dashoffset: 0; stroke-linejoin: miter; stroke-miterlimit: 4; fill: rgb(230,230,230); fill-rule: nonzero; opacity: 1;" vector-effect="non-scaling-stroke"  transform=" translate(-656.63, -340.06)" d="M 635.29161 258.78347 L 645.93923 250.74608000000003 C 645.93923 250.74608000000003 655.3321199999999 250.08092000000005 656.9956599999999 267.01985 C 658.6591999999999 283.95878 669.07514 348.97 669.07514 348.97 L 685.36814 424.43286 L 662.81421 429.38334000000003 L 645.36321 347.94558000000006 L 627.8943399999999 291.7616300000001 Z" stroke-linecap="round" />
</g>
<g transform="matrix(0.57 0 0 0.57 217.74 177.62)" id="ffAsMT2ptaF8l6Sk3e9Th"  >
<path style="stroke: none; stroke-width: 1; stroke-dasharray: none; stroke-linecap: butt; stroke-dashoffset: 0; stroke-linejoin: miter; stroke-miterlimit: 4; fill: rgb(14,20,30); fill-rule: nonzero; opacity: 1;" vector-effect="non-scaling-stroke"  transform=" translate(-6.03, -6.03)" d="M 0 6.0273 C 0 2.69851 2.69851 0 6.0273 0 C 9.35609 0 12.0546 2.69851 12.0546 6.0273 C 12.0546 9.35609 9.35609 12.0546 6.0273 12.0546 C 2.69851 12.0546 0 9.35609 0 6.0273 z" stroke-linecap="round" />
</g>
<g transform="matrix(0.57 0 0 0.57 113.46 397.45)" id="F_t3SoFivgAZ2_1bVMU72"  >
<path style="stroke: none; stroke-width: 1; stroke-dasharray: none; stroke-linecap: butt; stroke-dashoffset: 0; stroke-linejoin: miter; stroke-miterlimit: 4; fill: rgb(255,182,182); fill-rule: nonzero; opacity: 1;" vector-effect="non-scaling-stroke"  transform=" translate(-196.81, -553.78)" d="M 187.545 578.006 L 200.106 578.005 L 206.082 529.556 L 187.543 529.557 z" stroke-linecap="round" />
</g>
<g transform="matrix(0.57 0 0 0.57 117.9 411.97)" id="nob_tfEtBlSFGnIKhDrsB"  >
<path style="stroke: none; stroke-width: 1; stroke-dasharray: none; stroke-linecap: butt; stroke-dashoffset: 0; stroke-linejoin: miter; stroke-miterlimit: 4; fill: rgb(47,46,65); fill-rule: nonzero; opacity: 1;" vector-effect="non-scaling-stroke"  transform=" translate(-368.24, -734.15)" d="M 347.99177 728.81386 L 351.52731 728.81372 L 365.33062 723.20024 L 372.72878000000003 728.81286 L 372.72978 728.81286 C 381.4359136562024 728.8133293821445 388.4935446409681 735.8708663508229 388.49413 744.577 L 388.49413 745.08928 L 347.99252 745.09078 Z" stroke-linecap="round" />
</g>
<g transform="matrix(0.57 0 0 0.57 144.12 394.07)" id="bPM2q3IySR99l-wXDhwzv"  >
<path style="stroke: none; stroke-width: 1; stroke-dasharray: none; stroke-linecap: butt; stroke-dashoffset: 0; stroke-linejoin: miter; stroke-miterlimit: 4; fill: rgb(255,182,182); fill-rule: nonzero; opacity: 1;" vector-effect="non-scaling-stroke"  transform=" translate(-250.6, -547.84)" d="M 236.221 570.09 L 248.474 572.8570000000001 L 264.97499999999997 526.9140000000001 L 246.89099999999996 522.8310000000001 z" stroke-linecap="round" />
</g>
<g transform="matrix(0.57 0 0 0.57 144.02 410.66)" id="VGUhEwA2NHB74ojJilqBD"  >
<path style="stroke: none; stroke-width: 1; stroke-dasharray: none; stroke-linecap: butt; stroke-dashoffset: 0; stroke-linejoin: miter; stroke-miterlimit: 4; fill: rgb(47,46,65); fill-rule: nonzero; opacity: 1;" vector-effect="non-scaling-stroke"  transform=" translate(-414.07, -731.86)" d="M 397.6499 720.29336 L 401.09863 721.07202 L 415.79942 718.63702 L 421.77952 725.74144 L 421.78051999999997 725.74166 C 430.2726926638603 727.6598782695313 435.60235076709426 736.0986830509269 433.68516999999997 744.59109 L 433.57232999999997 745.09079 L 394.06523 736.1706399999999 Z" stroke-linecap="round" />
</g>
<g transform="matrix(0.57 0 0 0.57 133.83 328.87)" id="GR9UCYIoF1OZMUKqFCmib"  >
<path style="stroke: none; stroke-width: 1; stroke-dasharray: none; stroke-linecap: butt; stroke-dashoffset: 0; stroke-linejoin: miter; stroke-miterlimit: 4; fill: rgb(47,46,65); fill-rule: nonzero; opacity: 1;" vector-effect="non-scaling-stroke"  transform=" translate(-396.2, -588.36)" d="M 328.20043 483.69941 L 339.559 610.95923 C 339.559 610.95923 335.30308 687.36014 349.03614000000005 714.24508 L 368.95286000000004 714.24508 L 378.814 603.982 L 380.05229 529.97275 L 422.75167000000005 592.41159 L 395.55512 712.44236 L 420.0679 714.63373 L 464.2006 584.3724500000001 L 415.71519 462.0877 Z" stroke-linecap="round" />
</g>
<g transform="matrix(0.57 0 0 0.57 101.86 137)" id="xBXhICaR-n39kiyocBMOA"  >
<path style="stroke: none; stroke-width: 1; stroke-dasharray: none; stroke-linecap: butt; stroke-dashoffset: 0; stroke-linejoin: miter; stroke-miterlimit: 4; fill: rgb(255,184,184); fill-rule: nonzero; opacity: 1;" vector-effect="non-scaling-stroke"  transform=" translate(-29.29, -29.29)" d="M 0 29.29298 C 0 13.114909999999998 13.11491 0 29.29298 0 C 45.471050000000005 0 58.58596 13.11491 58.58596 29.29298 C 58.58596 45.471050000000005 45.47105 58.58596 29.29298 58.58596 C 13.114909999999998 58.58596 0 45.47105 0 29.29298 z" stroke-linecap="round" />
</g>
<g transform="matrix(0.57 0 0 0.57 112.29 215.13)" id="YeEUeDnB9P1CUGZRystqf"  >
<path style="stroke: none; stroke-width: 1; stroke-dasharray: none; stroke-linecap: butt; stroke-dashoffset: 0; stroke-linejoin: miter; stroke-miterlimit: 4; fill: rgb(63,61,86); fill-rule: nonzero; opacity: 1;" vector-effect="non-scaling-stroke"  transform=" translate(-358.4, -388.83)" d="M 391.59121 308.95558 L 367.55962999999997 298.64433 L 355.86085 286.2358 L 326.63570000000004 290.94915 L 318.88162000000005 304.24445 L 293.78047000000004 327.58475999999996 L 323.18935000000005 460.55809 L 322.29913000000005 489.60071 C 322.29913000000005 489.60071 341.12162000000006 498.07439999999997 422.75163000000003 478.56451 C 423.7305 478.33056 421.68138000000005 477.306 421.68138000000005 477.306 Z" stroke-linecap="round" />
</g>
<g transform="matrix(0.57 0 0 0.57 84.25 146.23)" id="ItRYAsO3KYF53KwnzpfXi"  >
<path style="stroke: none; stroke-width: 1; stroke-dasharray: none; stroke-linecap: butt; stroke-dashoffset: 0; stroke-linejoin: miter; stroke-miterlimit: 4; fill: rgb(47,46,65); fill-rule: nonzero; opacity: 1;" vector-effect="non-scaling-stroke"  transform=" translate(-309.21, -267.95)" d="M 309.63622 268.36932 Q 309.33006 267.95153 309.02988999999997 267.52667 C 308.94933999999995 267.69676000000004 308.88530999999995 267.87248 308.79326 268.03857000000005 Z" stroke-linecap="round" />
</g>
<g transform="matrix(0.57 0 0 0.57 101.62 131.37)" id="QIeyo_dDCIF44m53MTJZ2"  >
<path style="stroke: none; stroke-width: 1; stroke-dasharray: none; stroke-linecap: butt; stroke-dashoffset: 0; stroke-linejoin: miter; stroke-miterlimit: 4; fill: rgb(47,46,65); fill-rule: nonzero; opacity: 1;" vector-effect="non-scaling-stroke"  transform=" translate(-339.69, -241.88)" d="M 369.23525 230.32123 C 367.2771727836908 226.0556941495076 363.7859717119702 222.68295311022518 359.45541000000003 220.87323 C 355.1630500663099 219.14194299144685 350.3659352876385 219.14613815416027 346.07661 220.88493 C 342.204 218.43822 337.90115000000003 216.49853 333.36967000000004 216.25827999999998 C 328.83819000000005 216.01802999999998 324.04709 217.69919 321.25456 221.39982999999998 C 320.63094940447496 222.37668879130513 319.92267327275755 223.29683707870234 319.13791000000003 224.14964999999998 C 316.89318000000003 226.22840999999997 313.48182 225.92855999999998 310.49819 225.50350999999998 Q 312.50553 227.22391999999996 314.51388000000003 228.94432999999998 Q 312.08406 229.57908999999998 309.65373000000005 230.21389999999997 Q 312.48953000000006 231.93373999999997 315.32482000000005 233.65358999999998 C 309.83682000000005 236.94759 307.34247000000005 244.13717999999997 308.00133000000005 250.66687 C 308.62467000000004 256.84893999999997 311.60933000000006 262.50202 315.17724000000004 267.52664 C 316.60052 264.52312 316.29385 260.92922999999996 316.27034000000003 257.54643999999996 C 316.24583 253.97217999999995 316.87817 249.91343999999995 319.74224000000004 247.91586999999996 C 321.67429000000004 246.56838999999997 324.15865 246.50822999999997 326.48842 246.52097999999995 C 338.2402863559001 246.58548179848793 349.9789724140387 247.31833189820904 361.6476099999998 248.7159799999999 C 363.2309859680928 248.78449407782324 364.7747560140625 249.23224452641492 366.14907000000005 250.02156999999994 C 368.72948 251.78196999999994 369.2322500000001 255.41488999999993 369.49139 258.6020699999999 C 370.8547035001524 253.33954542215827 371.52192339566415 247.92094351670485 371.47598000000005 242.48488999999992 C 371.59073426179623 238.3180338963944 370.82727992086757 234.17367066272504 369.23525 230.32123 Z" stroke-linecap="round" />
</g>
<g transform="matrix(0.57 0 0 0.57 123.67 293.78)" id="_0kOHpISI3RBwCHjXOEUS"  >
<path style="stroke: none; stroke-width: 1; stroke-dasharray: none; stroke-linecap: butt; stroke-dashoffset: 0; stroke-linejoin: miter; stroke-miterlimit: 4; fill: rgb(255,255,255); fill-rule: nonzero; opacity: 1;" vector-effect="non-scaling-stroke"  transform=" translate(-46.11, -46.11)" d="M 0 46.10517 C 0 20.64199 20.64199 0 46.10517 0 C 71.56835000000001 0 92.21034 20.64199 92.21034 46.10517 C 92.21034 71.56835000000001 71.56835000000001 92.21034 46.10517 92.21034 C 20.64199 92.21034 0 71.56835000000001 0 46.10517 z" stroke-linecap="round" />
</g>
<g transform="matrix(0.57 0 0 0.57 123.67 293.77)" id="TWUWESFp_f9k-JIiuYSn2"  >
<path style="stroke: none; stroke-width: 1; stroke-dasharray: none; stroke-linecap: butt; stroke-dashoffset: 0; stroke-linejoin: miter; stroke-miterlimit: 4; fill: rgb(63,61,86); fill-rule: nonzero; opacity: 1;" vector-effect="non-scaling-stroke"  transform=" translate(-378.36, -526.79)" d="M 378.35518 479.67439 C 375.98522328648704 479.6746789320369 373.61862798488835 479.8527754354619 371.27532 480.20718 C 370.07666 480.38133999999997 368.90902 480.60671 367.75089 480.88336 C 350.4046911949877 484.8817536220009 336.79395334482246 498.3167641157734 332.5704960361171 515.609542171974 C 328.34703872741176 532.9023202281745 334.23231852937374 551.0988906041084 347.78249000000005 562.64318 C 348.57142000000005 563.3091800000001 349.37036000000006 563.95465 350.20031000000006 564.5693600000001 C 366.6239735598939 576.8146804122521 389.07788624126215 577.0450514139781 405.74933341936594 565.139277784558 C 422.42078059746973 553.2335041551379 429.4892808886123 531.9199505064602 423.2361872155991 512.4114032452255 C 416.98309354258595 492.90285598399095 398.84138456126135 479.66995529147937 378.3551800000001 479.6743600000001 Z M 378.35518 571.88473 C 368.76957720799084 571.8950362574568 359.43316254786083 568.8319636322117 351.71664000000004 563.14521 C 350.87664000000007 562.5305000000001 350.06724 561.8952800000001 349.27831000000003 561.21909 C 336.06912298517824 550.0763036983168 330.39747522060077 532.3598224814284 334.679674812646 515.617448850088 C 338.9618744046913 498.8750752187475 352.44325656569356 486.05736754136603 369.38031 482.62509000000006 C 370.52744 482.38946000000004 371.67506000000003 482.20498000000003 372.8432 482.0615900000001 C 374.67178542447255 481.835137314985 376.5126463654345 481.72221425595774 378.3552 481.7234700000001 C 403.2525334160696 481.7234700000001 423.43581 501.9067465839305 423.43581000000006 526.8040800000001 C 423.43581000000006 551.7014134160696 403.2525334160696 571.8846900000001 378.3552 571.8846900000001 Z" stroke-linecap="round" />
</g>
<g transform="matrix(0.57 0 0 0.57 123.67 286.77)" id="o_vTkc9s7TlXs-DxdeZGz"  >
<path style="stroke: none; stroke-width: 1; stroke-dasharray: none; stroke-linecap: butt; stroke-dashoffset: 0; stroke-linejoin: miter; stroke-miterlimit: 4; fill: rgb(14,20,30); fill-rule: nonzero; opacity: 1;" vector-effect="non-scaling-stroke"  transform=" translate(-25.61, -3.07)" d="M 0 6.14736 L 0 0 L 51.22797 0 L 51.22797 6.14736 z" stroke-linecap="round" />
</g>
<g transform="matrix(0.57 0 0 0.57 123.67 293.78)" id="KTU79l9bgiZFWs2cLqs3h"  >
<path style="stroke: none; stroke-width: 1; stroke-dasharray: none; stroke-linecap: butt; stroke-dashoffset: 0; stroke-linejoin: miter; stroke-miterlimit: 4; fill: rgb(14,20,30); fill-rule: nonzero; opacity: 1;" vector-effect="non-scaling-stroke"  transform=" translate(-25.61, -3.07)" d="M 0 6.14736 L 0 0 L 51.22797 0 L 51.22797 6.14736 z" stroke-linecap="round" />
</g>
<g transform="matrix(0.57 0 0 0.57 123.67 300.79)" id="98nNt3J5p_YmOi3VWRvCo"  >
<path style="stroke: none; stroke-width: 1; stroke-dasharray: none; stroke-linecap: butt; stroke-dashoffset: 0; stroke-linejoin: miter; stroke-miterlimit: 4; fill: rgb(14,20,30); fill-rule: nonzero; opacity: 1;" vector-effect="non-scaling-stroke"  transform=" translate(-25.61, -3.07)" d="M 0 6.14736 L 0 0 L 51.22797 0 L 51.22797 6.14736 z" stroke-linecap="round" />
</g>
<g transform="matrix(0.57 0 0 0.57 412.14 395.89)" id="hFThw0PHx6r2tOeHWhulX"  >
<path style="stroke: none; stroke-width: 1; stroke-dasharray: none; stroke-linecap: butt; stroke-dashoffset: 0; stroke-linejoin: miter; stroke-miterlimit: 4; fill: rgb(158,97,106); fill-rule: nonzero; opacity: 1;" vector-effect="non-scaling-stroke"  transform=" translate(-720.8, -551.04)" d="M 730.52 576.442 L 717.3489999999999 576.441 L 711.083 525.639 L 730.5219999999999 525.64 z" stroke-linecap="round" />
</g>
<g transform="matrix(0.57 0 0 0.57 376.62 395.89)" id="bX2B5YpCoA7mnC3T-xBeC"  >
<path style="stroke: none; stroke-width: 1; stroke-dasharray: none; stroke-linecap: butt; stroke-dashoffset: 0; stroke-linejoin: miter; stroke-miterlimit: 4; fill: rgb(158,97,106); fill-rule: nonzero; opacity: 1;" vector-effect="non-scaling-stroke"  transform=" translate(-658.49, -551.04)" d="M 668.209 576.442 L 655.039 576.441 L 648.773 525.639 L 668.212 525.64 z" stroke-linecap="round" />
</g>
<g transform="matrix(0.57 0 0 0.57 370.88 411.97)" id="dbkxxyvmxgQTw4R4rm-vT"  >
<path style="stroke: none; stroke-width: 1; stroke-dasharray: none; stroke-linecap: butt; stroke-dashoffset: 0; stroke-linejoin: miter; stroke-miterlimit: 4; fill: rgb(47,46,65); fill-rule: nonzero; opacity: 1;" vector-effect="non-scaling-stroke"  transform=" translate(-812.07, -734.15)" d="M 832.32388 745.09075 L 791.82227 745.08925 L 791.82227 744.577 C 791.8228719253452 735.8708780665862 798.8804980584313 728.8133593803833 807.58662 728.81289 L 807.58762 728.81289 L 814.98577 723.20027 L 828.78908 728.81375 L 832.32462 728.81389 Z" stroke-linecap="round" />
</g>
<g transform="matrix(0.57 0 0 0.57 407.36 411.97)" id="orAMw1x-k_8RG83o9kDxg"  >
<path style="stroke: none; stroke-width: 1; stroke-dasharray: none; stroke-linecap: butt; stroke-dashoffset: 0; stroke-linejoin: miter; stroke-miterlimit: 4; fill: rgb(47,46,65); fill-rule: nonzero; opacity: 1;" vector-effect="non-scaling-stroke"  transform=" translate(-876.07, -734.15)" d="M 896.32388 745.09075 L 855.82227 745.08925 L 855.82227 744.577 C 855.8228719253452 735.8708780665862 862.8804980584313 728.8133593803833 871.58662 728.81289 L 871.58762 728.81289 L 878.98577 723.20027 L 892.78908 728.81375 L 896.32462 728.81389 Z" stroke-linecap="round" />
</g>
<g transform="matrix(0.57 0 0 0.57 396.23 317.77)" id="QpeDj--OGK9eON15cmnOT"  >
<path style="stroke: none; stroke-width: 1; stroke-dasharray: none; stroke-linecap: butt; stroke-dashoffset: 0; stroke-linejoin: miter; stroke-miterlimit: 4; fill: rgb(47,46,65); fill-rule: nonzero; opacity: 1;" vector-effect="non-scaling-stroke"  transform=" translate(-856.54, -568.9)" d="M 818.94053 430.688 L 798.92384 552.57208 L 804.37134 570.7349300000001 L 797.22306 583.5984900000001 L 807.72041 696.5686800000001 L 803.45928 705.9499000000001 L 815.3647900000001 713.2923400000001 L 839.5907900000001 713.2923400000001 L 840.8766 611.0196 L 846.86085 596.0037599999999 L 846.86085 587.72817 L 859.0430600000001 525.36459 L 861.2860600000001 612.70078 L 864.8296400000002 627.74014 L 861.853 638.44826 L 865.7422799999999 645.95019 L 876.0734699999999 715.52083 L 903.2388 715.52083 L 901.1378 699.3353500000001 L 901.1378 699.3353500000001 C 906.0048670992318 696.8711937113211 908.5882248059838 691.4262779486504 907.41836 686.09788 L 905.86083 679.00377 L 909.4056499999999 658.0273900000001 L 915.86083 541.00377 L 914.0408299999999 446.58043000000004 L 882.26243 422.2799 Z" stroke-linecap="round" />
</g>
<g transform="matrix(0.57 0 0 0.57 400.95 135.4)" id="jk98xAwad4NN-eHeugMjw"  >
<path style="stroke: none; stroke-width: 1; stroke-dasharray: none; stroke-linecap: butt; stroke-dashoffset: 0; stroke-linejoin: miter; stroke-miterlimit: 4; fill: rgb(158,97,106); fill-rule: nonzero; opacity: 1;" vector-effect="non-scaling-stroke"  transform=" translate(-25.24, -25.24)" d="M 0 25.23879 C 0 11.299790000000002 11.29979 0 25.23879 0 C 39.17779 0 50.47758 11.29979 50.47758 25.23879 C 50.47758 39.17779 39.17779 50.47758 25.23879 50.47758 C 11.299790000000002 50.47758 0 39.17779 0 25.23879 z" stroke-linecap="round" />
</g>
<g transform="matrix(0.57 0 0 0.57 366.49 252.25)" id="DNsylgJgQAzMIaSV_p-aG"  >
<path style="stroke: none; stroke-width: 1; stroke-dasharray: none; stroke-linecap: butt; stroke-dashoffset: 0; stroke-linejoin: miter; stroke-miterlimit: 4; fill: rgb(158,97,106); fill-rule: nonzero; opacity: 1;" vector-effect="non-scaling-stroke"  transform=" translate(-804.37, -453.94)" d="M 809.68585 479.05516 C 811.9092921246012 476.75781038986895 813.0009534455664 473.59360992151943 812.6670902544714 470.41398015026425 C 812.3332270633764 467.2343503790091 810.6081346282165 464.3659108844844 807.956 462.5805 L 817.7704600000001 425.46572999999995 L 798.86174 431.82586 L 792.4406700000001 466.0956 C 789.6758841120732 470.8542958798462 790.9072910721397 476.928817921913 795.3069931952673 480.23515255571704 C 799.706695318395 483.54148718952104 805.8840081629852 483.0345481784786 809.6858100000001 479.05516 Z" stroke-linecap="round" />
</g>
<g transform="matrix(0.57 0 0 0.57 369.9 210.68)" id="GZ2K5t1baSQhyjy7ZTZb4"  >
<path style="stroke: none; stroke-width: 1; stroke-dasharray: none; stroke-linecap: butt; stroke-dashoffset: 0; stroke-linejoin: miter; stroke-miterlimit: 4; fill: rgb(230,230,230); fill-rule: nonzero; opacity: 1;" vector-effect="non-scaling-stroke"  transform=" translate(-810.35, -381.01)" d="M 820.01454 300.86037 L 815.95576 300.01812 L 812.4943300000001 301.93469 C 812.4943300000001 301.93469 802.8254900000001 314.82648 802.8254900000001 326.64394 C 802.8254900000001 338.46139999999997 791.008 452.33885 791.008 452.33885 L 812.49431 462.00768999999997 L 829.68336 372.83950999999996 Z" stroke-linecap="round" />
</g>
<g transform="matrix(0.57 0 0 0.57 400.89 127.48)" id="YrWR-sBksXn5-r8a77rra"  >
<path style="stroke: none; stroke-width: 1; stroke-dasharray: none; stroke-linecap: butt; stroke-dashoffset: 0; stroke-linejoin: miter; stroke-miterlimit: 4; fill: rgb(47,46,65); fill-rule: nonzero; opacity: 1;" vector-effect="non-scaling-stroke"  transform=" translate(-864.72, -235.06)" d="M 886.932 230.43073 C 886.932 230.43073 893.53312 217.81134 879.0104200000001 216.66412000000003 C 879.0104200000001 216.66412000000003 866.6296900000001 205.43321000000003 854.01029 214.61095000000003 C 854.01029 214.61095000000003 847.1269900000001 214.61095000000003 843.36293 222.40021000000004 C 843.36293 222.40021000000004 837.94924 220.34704000000005 836.75956 225.84186000000005 C 836.75956 225.84186000000005 832.79822 237.31406000000004 836.75956 247.63902000000004 C 840.7208999999999 257.96398000000005 842.03674 259.11120000000005 842.03674 259.11120000000005 C 842.03674 259.11120000000005 835.52741 237.46436000000006 851.37168 236.31714000000005 C 867.2159499999999 235.16992000000005 884.94614 225.26829000000006 886.26659 237.88767000000004 C 887.5870399999999 250.50705000000002 889.5740499999999 253.61636000000004 889.5740499999999 253.61636000000004 C 889.5740499999999 253.61636000000004 902.11538 235.59323 886.932 230.43073 Z" stroke-linecap="round" />
</g>
<g transform="matrix(0.57 0 0 0.57 458.28 286.67)" id="HA2aDf4HStbhVHq-rW-qZ"  >
<path style="stroke: none; stroke-width: 1; stroke-dasharray: none; stroke-linecap: butt; stroke-dashoffset: 0; stroke-linejoin: miter; stroke-miterlimit: 4; fill: rgb(255,255,255); fill-rule: nonzero; opacity: 1;" vector-effect="non-scaling-stroke"  transform=" translate(-965.41, -514.34)" d="M 979.12794 583.59849 C 977.2228827305541 583.6011448192812 975.3840554675943 582.8996282420629 973.96485 581.6287599999999 L 897.584 513.63755 C 894.3793343279559 510.77819831440866 894.0938443701431 505.8644105978978 896.9458099999999 502.65317000000005 L 945.876 447.6854 C 948.7351631216638 444.48007859114153 953.6494967422639 444.1943546535157 956.86086 447.04673 L 1033.24221 515.03892 C 1036.4513322601927 517.8957164217671 1036.7370508165093 522.8130770276301 1033.8803899999998 526.0223199999999 L 984.9497299999998 580.9900899999999 C 983.581454853537 582.5365328386947 981.6511010219006 583.4709395467571 979.5893799999998 583.5848199999999 C 979.43507 583.59458 979.28126 583.59849 979.12794 583.59849 Z" stroke-linecap="round" />
</g>
<g transform="matrix(0.57 0 0 0.57 458.28 286.67)" id="kW2wIgejRoyRvXfrLfCzt"  >
<path style="stroke: none; stroke-width: 1; stroke-dasharray: none; stroke-linecap: butt; stroke-dashoffset: 0; stroke-linejoin: miter; stroke-miterlimit: 4; fill: rgb(63,61,86); fill-rule: nonzero; opacity: 1;" vector-effect="non-scaling-stroke"  transform=" translate(-965.41, -514.34)" d="M 979.127 584.09849 C 977.0996813597095 584.1014558272605 975.1427871455767 583.355074317074 973.6323799999999 582.0027799999999 L 897.2515199999999 514.0115699999999 C 893.8409358859855 510.96799329111656 893.5371168348333 505.7382081694457 896.5723199999999 502.3201699999999 L 945.5024899999999 447.3523899999999 C 948.5460967363703 443.9424160428006 953.775149897939 443.6384123499471 957.1934099999999 446.6727099999999 L 1033.57476 514.6648899999999 C 1036.9898999355992 517.7058664580507 1037.2939566195053 522.9393078291287 1034.25396 526.3553199999999 L 985.32325 581.3231 C 983.8667361387251 582.9684200743843 981.8126592747875 583.9628447668993 979.61866 584.0848199999999 C 979.45411 584.0936 979.29054 584.09849 979.127 584.09849 Z M 951.6909999999999 446.58042 C 949.8974403373273 446.5767164667381 948.188332639161 447.3420274235351 946.9966599999999 448.68247 L 898.0664899999999 503.65024000000005 C 895.7640030297455 506.24244098974214 895.9944528166859 510.209288283165 898.5816199999999 512.5174300000001 L 974.9624799999999 580.5086400000001 C 976.2065031096864 581.6163889448728 977.8397155287433 582.1844233817235 979.5026495715695 582.0877197545384 C 981.1655836143955 581.9910161273533 982.7219446964547 581.2375002950968 983.82918 579.9930200000001 L 1032.75985 525.0252400000002 C 1035.0658554242882 522.4346243020885 1034.8352230976861 518.465150682408 1032.24471 516.1590300000001 L 955.86336 448.1668500000001 C 954.7150015182466 447.14286962838116 953.2295194357389 446.57806366635117 951.69093 446.58042 Z" stroke-linecap="round" />
</g>
<g transform="matrix(0.57 0 0 0.57 464.8 279.35)" id="_shzAD-eFTqTO1CwZK0Bl"  >
<path style="stroke: none; stroke-width: 1; stroke-dasharray: none; stroke-linecap: butt; stroke-dashoffset: 0; stroke-linejoin: miter; stroke-miterlimit: 4; fill: rgb(14,20,30); fill-rule: nonzero; opacity: 1;" vector-effect="non-scaling-stroke"  transform=" translate(-976.85, -501.49)" d="M 1006.82521 531.54087 C 1006.0003523388184 531.5421698327103 1005.2039673141112 531.2393304722945 1004.58839 530.69028 L 944.63239 477.31919000000005 C 943.7294348390014 476.52064557223457 943.3223078187765 475.3002866833646 943.5649519837217 474.1195559625365 C 943.8075961486669 472.93882524170834 944.6629809940741 471.9779168202192 945.8076680334486 471.60016980464235 C 946.9523550728231 471.22242278906543 948.2116508870571 471.4854860523583 949.10939 472.28989000000007 L 1009.06593 525.6609900000001 C 1010.1100828256018 526.5900552408468 1010.471363645905 528.0677720968778 1009.9736592965643 529.3737995566232 C 1009.4759549472236 530.6798270163688 1008.2228563099418 531.5423319398092 1006.82521 531.54087 Z" stroke-linecap="round" />
</g>
<g transform="matrix(0.57 0 0 0.57 458.28 286.67)" id="gyHXWDiufdmut8cGxLeYx"  >
<path style="stroke: none; stroke-width: 1; stroke-dasharray: none; stroke-linecap: butt; stroke-dashoffset: 0; stroke-linejoin: miter; stroke-miterlimit: 4; fill: rgb(14,20,30); fill-rule: nonzero; opacity: 1;" vector-effect="non-scaling-stroke"  transform=" translate(-965.41, -514.34)" d="M 995.38917 544.38755 C 994.5643130267653 544.3888460714489 993.767929299169 544.086007204282 993.1523500000001 543.53696 L 933.19635 490.16587000000004 C 931.8078177733655 488.9295667803851 931.6844117803851 486.80171722663465 932.920715 485.41318500000006 C 934.157018219615 484.02465277336546 936.2848677733655 483.90124678038507 937.6734 485.13755000000003 L 997.62994 538.50864 C 998.6741585934068 539.4375221714128 999.0354841836149 540.915184384616 998.5377339683829 542.2211167268226 C 998.039983753151 543.5270490690293 996.7867933734759 544.3893458107358 995.38922 544.38755 Z" stroke-linecap="round" />
</g>
<g transform="matrix(0.57 0 0 0.57 451.77 293.99)" id="YchXK51QlWVQC9FmmCu50"  >
<path style="stroke: none; stroke-width: 1; stroke-dasharray: none; stroke-linecap: butt; stroke-dashoffset: 0; stroke-linejoin: miter; stroke-miterlimit: 4; fill: rgb(14,20,30); fill-rule: nonzero; opacity: 1;" vector-effect="non-scaling-stroke"  transform=" translate(-953.98, -527.18)" d="M 983.95314 557.23618 C 983.1279424052158 557.237570925834 982.3312645314844 556.9343411498287 981.71583 556.38462 L 921.75929 503.0145 C 920.8593576984017 502.21506607721227 920.4546901896977 500.99599781625244 920.6979169514291 499.8170943058915 C 920.9411437131605 498.6381907955305 921.7952563639068 497.6788291341558 922.9381070542835 497.30085420923467 C 924.0809577446603 496.9228792843135 925.3386550247496 497.18380220231023 926.2368299999999 497.98521 L 986.19283 551.3563 C 987.2370980310718 552.2851466299539 987.598599120695 553.762748579884 987.1011059436639 555.068793112625 C 986.6036127666328 556.3748376453661 985.3506772444225 557.2374749604759 983.95309 557.23618 Z" stroke-linecap="round" />
</g>
<g transform="matrix(0.57 0 0 0.57 435.83 254.06)" id="sEGhBij3lVrjHmP5txktr"  >
<path style="stroke: none; stroke-width: 1; stroke-dasharray: none; stroke-linecap: butt; stroke-dashoffset: 0; stroke-linejoin: miter; stroke-miterlimit: 4; fill: rgb(158,97,106); fill-rule: nonzero; opacity: 1;" vector-effect="non-scaling-stroke"  transform=" translate(-926.01, -457.13)" d="M 915.38816 481.24574 C 913.8306372678514 478.4536809137374 913.589814248281 475.1151415609454 914.7304911498093 472.1284498780526 C 915.8711680513375 469.1417581951598 918.2761723577102 466.8137128727434 921.29837 465.77074 L 921.3632699999999 427.3803 L 937.99911 438.39119999999997 L 935.387 473.15931 C 936.8343437380829 478.46912806153927 934.0815204102621 484.02230221146584 928.9792893087009 486.0853605065894 C 923.8770582071396 488.148418801713 918.0381459653736 486.06926434699795 915.3881299999999 481.24574 Z" stroke-linecap="round" />
</g>
<g transform="matrix(0.57 0 0 0.57 435.48 211.2)" id="FWVggccyp0M0QIZlu8ec5"  >
<path style="stroke: none; stroke-width: 1; stroke-dasharray: none; stroke-linecap: butt; stroke-dashoffset: 0; stroke-linejoin: miter; stroke-miterlimit: 4; fill: rgb(230,230,230); fill-rule: nonzero; opacity: 1;" vector-effect="non-scaling-stroke"  transform=" translate(-925.4, -381.93)" d="M 916.92587 311.38058 L 924.358 304.217 L 929.81764 308.15758999999997 C 929.81764 308.15758999999997 935.18922 314.60348 939.48648 333.94115999999997 C 943.7837400000001 353.27883999999995 939.48648 459.63606 939.48648 459.63606 L 915.85154 456.41310999999996 L 919.07448 400.54870999999997 L 909.40565 353.27882999999997 Z" stroke-linecap="round" />
</g>
<g transform="matrix(0.57 0 0 0.57 405.6 201.09)" id="oyllr83dbqTyu_OulFi_T"  >
<path style="stroke: none; stroke-width: 1; stroke-dasharray: none; stroke-linecap: butt; stroke-dashoffset: 0; stroke-linejoin: miter; stroke-miterlimit: 4; fill: rgb(63,61,86); fill-rule: nonzero; opacity: 1;" vector-effect="non-scaling-stroke"  transform=" translate(-872.99, -364.19)" d="M 927.90022 305.96439 L 902.86085 294.00376 L 885.86085 278.23576 L 854.86085 278.00376 L 844.86085 291.00376 L 818.46073 299.97158 L 822.86085 391.00376 L 819.86085 398.00376 C 819.86085 398.00376 821.9509 399.89188 822.90585 400.94782 C 823.8607999999999 402.00375999999994 821.58631 410.84432999999996 821.58631 410.84432999999996 L 820.3039200000001 420.46232999999995 L 823.8608200000001 423.00377999999995 L 819.2368200000001 428.46577999999994 L 818.08882 437.07553999999993 C 818.08882 437.07553999999993 898.80389 417.01375999999993 914.0550300000001 450.24790999999993 C 914.8608100000001 452.00380999999993 912.8765600000002 434.84297999999995 912.8765600000002 434.84297999999995 L 910.8923100000002 422.27997999999997 L 912.8608100000001 411.00383999999997 L 915.8608100000001 408.00383999999997 L 910.8293100000001 402.97234 L 914.0550300000001 379.09833999999995 Z" stroke-linecap="round" />
</g>
<g transform="matrix(0.57 0 0 0.57 104.86 268.96)" id="BZho27Q0Dy10IKIFsWrbz"  >
<path style="stroke: none; stroke-width: 1; stroke-dasharray: none; stroke-linecap: butt; stroke-dashoffset: 0; stroke-linejoin: miter; stroke-miterlimit: 4; fill: rgb(255,184,184); fill-rule: nonzero; opacity: 1;" vector-effect="non-scaling-stroke"  transform=" translate(-345.37, -483.27)" d="M 360.06046 507.77535 C 361.3184025544936 504.58133018720207 361.09698159253463 500.99416902781644 359.45577718965313 497.9791018406854 C 357.8145727867716 494.96403465355445 354.92217432855426 492.8307780856044 351.55687 492.15335 L 345.99464 451.30966 L 329.86722 465.40722 L 337.62170999999995 502.03178 C 336.8412801831468 507.8892957139474 340.56526954737757 513.4047946606532 346.2899849950058 514.8701253679887 C 352.014700442634 516.3354560753244 357.93065286552655 513.2874514253789 360.0604599999999 507.77533000000005 Z" stroke-linecap="round" />
</g>
<g transform="matrix(0.57 0 0 0.57 91.52 226.22)" id="VZ-_p9KUr7ECCxnEph-Mp"  >
<path style="stroke: none; stroke-width: 1; stroke-dasharray: none; stroke-linecap: butt; stroke-dashoffset: 0; stroke-linejoin: miter; stroke-miterlimit: 4; fill: rgb(63,61,86); fill-rule: nonzero; opacity: 1;" vector-effect="non-scaling-stroke"  transform=" translate(-321.97, -408.28)" d="M 296.87532 326.83781 L 292.50395 327.67515 L 289.86165 331.00174999999996 C 289.86165 331.00174999999996 285.58705 347.76814999999993 290.4565 359.48526999999996 C 295.32595000000003 371.20239 330.53264 488.98220999999995 330.53264 488.98220999999995 L 355.82059000000004 489.71538999999996 L 336.12144 394.2216 Z" stroke-linecap="round" />
</g>
<g transform="matrix(0.57 0 0 0.57 137.52 264.15)" id="fiOZloiESJdoqoXJP9F8I"  >
<path style="stroke: none; stroke-width: 1; stroke-dasharray: none; stroke-linecap: butt; stroke-dashoffset: 0; stroke-linejoin: miter; stroke-miterlimit: 4; fill: rgb(255,184,184); fill-rule: nonzero; opacity: 1;" vector-effect="non-scaling-stroke"  transform=" translate(-402.66, -474.82)" d="M 396.56736 501.78391 C 394.20921702847863 499.2892490389974 393.07717555992934 495.8782040647064 393.47584713041465 492.46862453588284 C 393.87451870089996 489.0590450070593 395.7629504022377 486.0011746022622 398.633 484.11782999999997 L 388.56532 444.14549 L 408.78614 451.21326 L 415.24651 488.08811 C 418.154656646684 493.23224511822735 416.75569049218285 499.73851441324916 411.9901546956013 503.2326683315389 C 407.2246188990198 506.7268222498286 400.59881619320925 506.104419691626 396.56736 501.78391 Z" stroke-linecap="round" />
</g>
<g transform="matrix(0.57 0 0 0.57 134.12 219.48)" id="PmYWEUECFUSJTGnfl10nX"  >
<path style="stroke: none; stroke-width: 1; stroke-dasharray: none; stroke-linecap: butt; stroke-dashoffset: 0; stroke-linejoin: miter; stroke-miterlimit: 4; fill: rgb(63,61,86); fill-rule: nonzero; opacity: 1;" vector-effect="non-scaling-stroke"  transform=" translate(-396.7, -396.46)" d="M 387.73256 310.335 L 392.10091 309.48206999999996 L 395.79301 311.58358999999996 C 395.79301 311.58358999999996 406.01081999999997 325.54713999999996 405.86129999999997 338.23492999999996 C 405.71178 350.92271999999997 416.95876999999996 473.33637999999996 416.95876999999996 473.33637999999996 L 393.76777 483.44544999999994 L 376.44097999999997 387.49283999999994 Z" stroke-linecap="round" />
</g>
</svg>