<?xml version="1.0" encoding="UTF-8" standalone="no" ?>
<!DOCTYPE svg PUBLIC "-//W3C//DTD SVG 1.1//EN" "http://www.w3.org/Graphics/SVG/1.1/DTD/svg11.dtd">
<svg xmlns="http://www.w3.org/2000/svg" xmlns:xlink="http://www.w3.org/1999/xlink" version="1.1" width="500" height="500" viewBox="0 0 640 640" xml:space="preserve">
<desc>Created with Fabric.js 4.6.0</desc>
<defs>
</defs>
<g transform="matrix(0.82 0 0 0.82 71.19 438.18)" id="hOmWd8H_vdwCZTE9sCpkw"  >
<path style="stroke: none; stroke-width: 1; stroke-dasharray: none; stroke-linecap: butt; stroke-dashoffset: 0; stroke-linejoin: miter; stroke-miterlimit: 4; fill: rgb(140,142,145); fill-rule: nonzero; opacity: 1;" vector-effect="non-scaling-stroke"  transform=" translate(-295.57, -593.54)" d="M 384.646 608.21367 C 384.4949848671666 625.4285670320065 383.2339950339155 642.6158098249706 380.87088 659.66841 C 380.7882 660.2672699999999 380.69813 660.8661 380.6151 661.46491 L 219.39809999999997 660.56411 C 218.92474999999996 659.96937 218.45883999999998 659.36749 218.00742999999997 658.75841 C 216.50228999999996 656.74269 215.09160999999997 654.66968 213.79660999999996 652.52516 C 207.57224999999997 642.19376 204.72267999999997 630.09775 207.57822999999996 621.75216 L 207.62936999999997 621.62248 C 208.24577488208953 619.7949947192579 209.21709177924646 618.1072662766782 210.48754999999997 616.6562 C 216.99814999999998 609.32753 230.16191999999998 610.5492 242.10776999999996 616.46462 C 231.39313999999996 604.73623 222.86148999999995 589.93683 222.21323999999996 576.7266199999999 C 221.57762999999994 563.8414999999999 228.31518999999994 554.6367499999999 235.62288999999996 546.8143099999999 C 235.86267999999995 546.5557199999998 236.10241999999997 546.3043099999999 236.34215999999995 546.0529399999998 C 236.45851999999994 545.9236299999998 236.58189999999996 545.8015399999998 236.69790999999995 545.6722199999998 C 242.39947999999995 539.7109599999998 249.04652999999996 533.8344099999998 258.66770999999994 534.5452699999998 C 269.21962999999994 535.3262699999998 280.91856999999993 544.1646899999998 289.12137999999993 554.4638199999998 C 297.32422999999994 564.7557299999999 302.7752099999999 576.4474699999998 308.3003799999999 587.8580599999998 C 313.8326499999999 599.2614599999998 319.81810999999993 610.9562299999998 328.6956499999999 620.7031299999998 C 316.6716499999999 605.4943099999998 306.9770999999999 588.1900599999998 303.39594999999986 571.3604099999998 C 299.8147999999998 554.5307599999998 302.96646999999984 538.3669599999997 313.68268999999987 530.4408299999998 C 316.936031480164 528.1087145652964 320.7006184166853 526.5897214265128 324.6614299999999 526.0109599999997 C 325.1237299999999 525.9341299999998 325.5933399999999 525.8717499999997 326.0703299999999 525.8166399999998 C 335.9905399999999 524.6879199999997 347.8349899999999 528.1188899999997 357.9124899999999 536.3200399999998 C 369.01063999999985 545.3500999999999 376.70506999999986 558.7367999999998 380.53348999999986 571.4448399999999 C 384.36161 584.153 384.76957 596.387 384.646 608.21367 Z" stroke-linecap="round" />
</g>
<g transform="matrix(0.82 0 0 0.82 28.8 477.29)" id="T20TDH51GOzVdy876IcBI"  >
<path style="stroke: none; stroke-width: 1; stroke-dasharray: none; stroke-linecap: butt; stroke-dashoffset: 0; stroke-linejoin: miter; stroke-miterlimit: 4; fill: rgb(255,255,255); fill-rule: nonzero; opacity: 1;" vector-effect="non-scaling-stroke"  transform=" translate(-243.81, -641.28)" d="M 279.16848 660.89808 L 276.08571 660.88085 Q 274.61745 659.96285 273.13532 659.0664400000001 C 272.52365 658.6803500000001 271.90486 658.3086400000001 271.28575 657.92969 Q 255.94736 648.56186 240.41715 639.95835 Q 224.90107999999998 631.34771 209.22896 623.53049 C 208.65749122183882 623.2817018198443 208.3451005464329 622.6603946544305 208.48624 622.05331 C 208.49743198965163 622.0147771583349 208.5147790516229 621.9783067925009 208.53761 621.9453100000001 C 208.68334 621.6717400000001 209.00905 621.5580000000001 209.48441 621.79172 C 210.76594 622.4343 212.05487 623.0769200000001 213.33631 623.73396 Q 229.05122 631.68496 244.63125 640.42961 Q 260.20053 649.17051 275.59241 658.68304 C 275.80814999999996 658.81421 276.02421 658.95262 276.23994999999996 659.08379 C 277.21848 659.68858 278.19 660.29333 279.16848 660.89808 Z" stroke-linecap="round" />
</g>
<g transform="matrix(0.82 0 0 0.82 56.19 446.4)" id="Hh25tUSuPv1awgIpKCQ9B"  >
<path style="stroke: none; stroke-width: 1; stroke-dasharray: none; stroke-linecap: butt; stroke-dashoffset: 0; stroke-linejoin: miter; stroke-miterlimit: 4; fill: rgb(255,255,255); fill-rule: nonzero; opacity: 1;" vector-effect="non-scaling-stroke"  transform=" translate(-277.25, -603.58)" d="M 318.917 661.12017 L 317.01072 661.10952 C 316.58072 660.50784 316.15823 659.90615 315.72828 659.30443 Q 300.57579999999996 638.05614 285.42967999999996 616.80783 Q 260.62613999999996 582.0210599999999 235.83743999999996 547.2343999999999 C 235.7394779270458 547.1095736243283 235.666638115971 546.9669435686081 235.62294999999995 546.8144 C 235.48161999999994 546.30093 235.85878999999994 545.99978 236.34221999999994 546.0530299999999 C 236.75452546607 546.1119314492976 237.12151082123438 546.3454987198595 237.34944999999993 546.6940799999999 Q 251.25561999999994 566.2024899999999 265.1548199999999 585.6963999999998 Q 289.8292199999999 620.3091699999998 314.4966099999999 654.9146299999998 C 315.5426099999999 656.3790599999998 316.5886099999999 657.8506299999998 317.6346099999999 659.3150899999997 C 318.06451 659.91681 318.49446 660.51853 318.917 661.12017 Z" stroke-linecap="round" />
</g>
<g transform="matrix(0.82 0 0 0.82 110.09 438.08)" id="LXJ2pQS_IXNwXHTEf2t2r"  >
<path style="stroke: none; stroke-width: 1; stroke-dasharray: none; stroke-linecap: butt; stroke-dashoffset: 0; stroke-linejoin: miter; stroke-miterlimit: 4; fill: rgb(255,255,255); fill-rule: nonzero; opacity: 1;" vector-effect="non-scaling-stroke"  transform=" translate(-343.05, -593.42)" d="M 361.38558 650.05 C 361.2883 653.2626399999999 361.07567 656.42409 360.79797 659.55626 Q 360.71733 660.4548 360.63633000000004 661.35326 L 358.63626000000005 661.34209 C 358.69743000000005 660.74315 358.75860000000006 660.1441599999999 358.81236000000007 659.54509 C 359.2349900000001 655.02009 359.5348600000001 650.4439299999999 359.57558000000006 645.74352 C 359.62876966730926 632.7117931480831 358.35877128540903 619.7083333039045 355.78512000000006 606.93316 C 353.04944611478453 593.1777555140576 349.1214468478034 579.6866261599151 344.04561 566.6125699999999 C 338.71819726670236 552.8235232749026 332.2951495077181 539.4832216306979 324.8380500000002 526.7195700000001 C 324.6975644419491 526.5115421516147 324.63503626880885 526.2605936724166 324.6614900000001 526.0109699999999 C 324.7440000000001 525.4409699999999 325.50297000000006 525.2719699999999 326.0703900000001 525.81665 C 326.18245631620255 525.9235189676383 326.27897079226244 526.0455859474569 326.3571100000001 526.17928 Q 327.7410600000001 528.559 329.0744900000001 530.9528799999999 C 336.2566076147536 543.7873699045572 342.4040466255447 557.1740368182531 347.45838000000003 570.9856499999997 C 352.27263146444506 584.1025550300632 355.93464428747814 597.6140502412402 358.40286000000003 611.3668 C 360.71479110181406 624.1255994075907 361.71424307641485 637.0875940379544 361.38558 650.05 Z" stroke-linecap="round" />
</g>
<g transform="matrix(0.82 0 0 0.82 529.37 450.06)" id="1lGq0_lMf0tOoFQmdT-Yu"  >
<path style="stroke: none; stroke-width: 1; stroke-dasharray: none; stroke-linecap: butt; stroke-dashoffset: 0; stroke-linejoin: miter; stroke-miterlimit: 4; fill: rgb(140,142,145); fill-rule: nonzero; opacity: 1;" vector-effect="non-scaling-stroke"  transform=" translate(-854.86, -608.05)" d="M 919.86492 567.54652 C 919.86492 559.81452 890.76335 553.54652 854.86492 553.54652 C 818.96649 553.54652 789.86492 559.81452 789.86492 567.54652 C 789.86492 572.5019599999999 801.82927 576.85273 819.86492 579.34083 L 819.86492 656.04652 C 819.86492 659.6363708739001 822.7750691260999 662.54652 826.36492 662.54652 C 829.9547708739001 662.54652 832.86492 659.6363708739001 832.86492 656.04652 L 832.86492 580.72252 C 839.73699 581.2549300000001 847.14177 581.54652 854.86492 581.54652 C 862.58807 581.54652 869.99285 581.2548899999999 876.86492 580.72252 L 876.86492 656.04652 C 876.86492 659.6363708739001 879.7750691260999 662.54652 883.36492 662.54652 C 886.9547708739001 662.54652 889.86492 659.6363708739001 889.86492 656.04652 L 889.86492 579.34083 C 907.90056 576.85273 919.86492 572.502 919.86492 567.54652 Z" stroke-linecap="round" />
</g>
<g transform="matrix(0.82 0 0 0.82 535.26 288.97)" id="S05dYGAmDhcQmL9FSpY4F"  >
<path style="stroke: none; stroke-width: 1; stroke-dasharray: none; stroke-linecap: butt; stroke-dashoffset: 0; stroke-linejoin: miter; stroke-miterlimit: 4; fill: rgb(47,46,65); fill-rule: nonzero; opacity: 1;" vector-effect="non-scaling-stroke"  transform=" translate(-28, -28)" d="M 0 28 C 0 12.53603 12.53603 0 28 0 C 43.46397 0 56 12.53603 56 28 C 56 43.46397 43.46397 56 28 56 C 12.53603 56 0 43.46397 0 28 z" stroke-linecap="round" />
</g>
<g transform="matrix(0.82 0 0 0.82 470.77 465.86)" id="lCKqlcbtDvEjGe2lrCfYs"  >
<path style="stroke: none; stroke-width: 1; stroke-dasharray: none; stroke-linecap: butt; stroke-dashoffset: 0; stroke-linejoin: miter; stroke-miterlimit: 4; fill: rgb(160,97,106); fill-rule: nonzero; opacity: 1;" vector-effect="non-scaling-stroke"  transform=" translate(-576.86, -391.39)" d="M 585.905 415.034 L 573.645 415.034 L 567.813 367.746 L 585.907 367.746 z" stroke-linecap="round" />
</g>
<g transform="matrix(0.82 0 0 0.82 464.55 488.45)" id="HiQiZCL52mdlEbQS_DqWD"  >
<path style="stroke: none; stroke-width: 1; stroke-dasharray: none; stroke-linecap: butt; stroke-dashoffset: 0; stroke-linejoin: miter; stroke-miterlimit: 4; fill: rgb(47,46,65); fill-rule: nonzero; opacity: 1;" vector-effect="non-scaling-stroke"  transform=" translate(-569.27, -418.97)" d="M 564.88821 411.53062 L 588.53208 411.53062 L 588.53208 426.41749 L 550.00135 426.41749 L 550.00135 426.41749 C 550.001347347834 422.46924751345733 551.5697787095681 418.68271385264416 554.3616068078898 415.89088387895856 C 557.1534349062114 413.09905390527297 560.9399675134564 411.53061999999915 564.88821 411.53062 Z" stroke-linecap="round" />
</g>
<g transform="matrix(0.82 0 0 0.82 463.5 458.92)" id="BSZVmlpuvTpc1DPgbvvCt"  >
<path style="stroke: none; stroke-width: 1; stroke-dasharray: none; stroke-linecap: butt; stroke-dashoffset: 0; stroke-linejoin: miter; stroke-miterlimit: 4; fill: rgb(160,97,106); fill-rule: nonzero; opacity: 1;" vector-effect="non-scaling-stroke"  transform=" translate(-568, -382.92)" d="M 566.768 408.192 L 555.07 404.521 L 563.662 357.656 L 580.926 363.073 z" stroke-linecap="round" />
</g>
<g transform="matrix(0.78 0.24 -0.24 0.78 448.54 478.62)" id="ruHPGtoe27vnvot6hBXYy"  >
<path style="stroke: none; stroke-width: 1; stroke-dasharray: none; stroke-linecap: butt; stroke-dashoffset: 0; stroke-linejoin: miter; stroke-miterlimit: 4; fill: rgb(47,46,65); fill-rule: nonzero; opacity: 1;" vector-effect="non-scaling-stroke"  transform=" translate(-756.18, -642.91)" d="M 751.8009 635.4624 L 775.44477 635.4624 L 775.44477 650.34927 L 736.914 650.34927 L 736.914 650.34927 C 736.913997347815 646.4010205830065 738.4824342003928 642.614480860317 741.2742709500111 639.822649736793 C 744.0661076996294 637.0308186132689 747.8526505830198 635.4623893913163 751.8009 635.4624 Z" stroke-linecap="round" />
</g>
<g transform="matrix(0.82 0 0 0.82 498.13 423.67)" id="q_BwD5en7R1vJG_0D9bT0"  >
<path style="stroke: none; stroke-width: 1; stroke-dasharray: none; stroke-linecap: butt; stroke-dashoffset: 0; stroke-linejoin: miter; stroke-miterlimit: 4; fill: rgb(47,46,65); fill-rule: nonzero; opacity: 1;" vector-effect="non-scaling-stroke"  transform=" translate(-816.72, -575.83)" d="M 777.2227 625.26043 C 776.6857517203006 625.2604111183097 776.1532152966114 625.1634772937076 775.6507 624.97429 L 766.6314100000001 621.59246 C 764.5386995857364 620.8004075881531 763.3416061856971 618.5952713591396 763.8174100000001 616.40886 C 766.0881600000001 606.19886 773.8271700000001 571.43816 778.0647200000001 552.79363 C 783.0906000000001 530.6784 856.4075 526.56902 859.5259100000001 526.40496 L 859.7822500000001 526.3912899999999 L 868.0298100000001 536.7555399999999 C 871.0100400000001 546.3346499999999 870.0654600000001 553.8063299999999 865.2221900000001 558.9635399999999 C 851.08987 574.0104199999998 808.8948 564.6735399999999 803.8633100000001 563.4918599999999 L 781.43608 622.363 C 780.7670421361231 624.1080624708202 779.0916180401442 625.2602073137757 777.2227 625.26043 Z" stroke-linecap="round" />
</g>
<g transform="matrix(0.82 0 0 0.82 508.78 429.4)" id="gTrwgDueQt_jiakPssN69"  >
<path style="stroke: none; stroke-width: 1; stroke-dasharray: none; stroke-linecap: butt; stroke-dashoffset: 0; stroke-linejoin: miter; stroke-miterlimit: 4; fill: rgb(47,46,65); fill-rule: nonzero; opacity: 1;" vector-effect="non-scaling-stroke"  transform=" translate(-829.72, -582.83)" d="M 790.2227 632.26043 C 789.6857517203006 632.2604111183097 789.1532152966114 632.1634772937076 788.6507 631.97429 L 779.6314100000001 628.59246 C 777.5386995857364 627.8004075881531 776.3416061856971 625.5952713591396 776.8174100000001 623.40886 C 779.0881600000001 613.19886 786.8271700000001 578.43816 791.0647200000001 559.79363 C 796.0906000000001 537.6784 869.4075 533.56902 872.5259100000001 533.40496 L 872.7822500000001 533.3912899999999 L 881.0298100000001 543.7555399999999 C 884.0100400000001 553.3346499999999 883.0654600000001 560.8063299999999 878.2221900000001 565.9635399999999 C 864.08987 581.0094399999998 821.8950500000001 571.6735399999999 816.8633100000001 570.4918599999999 L 794.43608 629.363 C 793.7670421361231 631.1080624708202 792.0916180401442 632.2602073137757 790.2227 632.26043 Z" stroke-linecap="round" />
</g>
<g transform="matrix(0.82 0 0 0.82 477.39 362.2)" id="dwl9nXCUq7yXPGII7eHCP"  >
<path style="stroke: none; stroke-width: 1; stroke-dasharray: none; stroke-linecap: butt; stroke-dashoffset: 0; stroke-linejoin: miter; stroke-miterlimit: 4; fill: rgb(160,97,106); fill-rule: nonzero; opacity: 1;" vector-effect="non-scaling-stroke"  transform=" translate(-791.4, -500.8)" d="M 764.128 488.24044 C 764.4593387063503 488.683629214146 764.7552156653762 489.1522548759466 765.01288 489.64196 L 814.33314 494.83819 L 821.43273 485.10419 L 837.5234399999999 493.89868 L 823.57892 517.52 L 763.09153 502.09747999999996 C 759.9669401922441 505.1437266346704 755.2834509948681 505.9388325593951 751.3285894159328 504.09444921598896 C 747.3737278369974 502.25006587258275 744.9726678836931 498.15102017948436 745.2981440835669 493.79938310025904 C 745.6236202834407 489.4477460210337 748.6077226743524 485.7514779823189 752.7929449983922 484.51592380530667 C 756.9781673224319 483.28036962829447 761.4912712608417 484.76332523605237 764.12795 488.24047999999993 Z" stroke-linecap="round" />
</g>
<g transform="matrix(0.82 0 0 0.82 530.68 360.67)" id="md2dUIi_glsawnr0tSHc2"  >
<path style="stroke: none; stroke-width: 1; stroke-dasharray: none; stroke-linecap: butt; stroke-dashoffset: 0; stroke-linejoin: miter; stroke-miterlimit: 4; fill: rgb(14,20,30); fill-rule: nonzero; opacity: 1;" vector-effect="non-scaling-stroke"  transform=" translate(-856.46, -498.92)" d="M 878.741 547.72234 C 878.0277665585021 547.7201014686109 877.3252773329295 547.5483830988087 876.69144 547.22134 C 866.8291399999999 542.2067000000001 847.6250399999999 533.5221300000001 829.81693 531.70474 C 828.5845548313466 531.5838363169707 827.4604704241497 530.9483418468129 826.72147 529.95474 C 825.9680838462217 528.9510507381548 825.6660531435887 527.6792498542319 825.8877299999999 526.444 C 827.4946699999999 517.54849 831.18094 494.89712999999995 830.7060899999999 476.74282999999997 C 830.417965435183 465.2456145610852 838.1354693445985 455.0836238910991 849.2880899999999 452.27505999999994 L 849.2880899999999 452.27505999999994 C 852.5478398366924 451.4151409855511 855.8587667119713 450.76248200146796 859.201 450.321 C 866.9908150788617 449.33429520358806 874.7876178910221 452.09559645769167 880.2200890346802 457.76508167166355 C 885.6525601783381 463.43456688563543 888.0785915380454 471.34211331606156 886.7603300000001 479.08272000000005 C 883.58455 497.8962 880.38313 524.1725700000001 883.1656 542.51534 C 883.4261320499496 544.1916261686889 882.7233098330998 545.8722122111718 881.3470000000001 546.86397 C 880.5910996467458 547.4187432598217 879.6786296920967 547.719294616296 878.741 547.72234 Z" stroke-linecap="round" />
</g>
<g transform="matrix(0.82 0 0 0.82 509.38 344.35)" id="BaHxmB06PuiOtAWsYK49-"  >
<path style="stroke: none; stroke-width: 1; stroke-dasharray: none; stroke-linecap: butt; stroke-dashoffset: 0; stroke-linejoin: miter; stroke-miterlimit: 4; fill: rgb(14,20,30); fill-rule: nonzero; opacity: 1;" vector-effect="non-scaling-stroke"  transform=" translate(-830.45, -479)" d="M 831.61894 499.87078 C 831.0041585462794 499.86988554415194 830.3960920358121 499.74291998251607 829.83232 499.49773000000005 L 816.98442 493.9362100000001 C 814.7063009760442 492.94654088155147 813.6587472723252 490.29992462838936 814.64242 488.0192100000001 L 824.57406 465.0768200000001 C 826.2044187164498 461.30393555206575 829.7244199126231 458.6880050405378 833.8071996459313 458.215103093981 C 837.8899793792394 457.74220114742417 841.9147563635099 459.48423188455007 844.3643914957233 462.78453707055854 C 846.8140266279368 466.08484225656696 847.3160561095634 470.44161483059264 845.68124 474.2125700000001 L 835.7498 497.155 C 835.0357139314588 498.80142507992895 833.4135502628528 499.86791112265934 831.6189400000001 499.87082 Z" stroke-linecap="round" />
</g>
<g transform="matrix(0.82 0 0 0.82 534.43 294.35)" id="AyDS9O5CgW3bdBID7RuK-"  >
<path style="stroke: none; stroke-width: 1; stroke-dasharray: none; stroke-linecap: butt; stroke-dashoffset: 0; stroke-linejoin: miter; stroke-miterlimit: 4; fill: rgb(160,97,106); fill-rule: nonzero; opacity: 1;" vector-effect="non-scaling-stroke"  transform=" translate(-24.56, -24.56)" d="M 0 24.56103 C 0 10.99635 10.99635 0 24.56103 0 C 38.12571 0 49.12206 10.99635 49.12206 24.56103 C 49.12206 38.12571 38.12571 49.12206 24.56103 49.12206 C 10.99635 49.12206 0 38.12571 0 24.56103 z" stroke-linecap="round" />
</g>
<g transform="matrix(0.82 0 0 0.82 535.67 282.68)" id="7aX8sy39acZA77zAIpP5l"  >
<path style="stroke: none; stroke-width: 1; stroke-dasharray: none; stroke-linecap: butt; stroke-dashoffset: 0; stroke-linejoin: miter; stroke-miterlimit: 4; fill: rgb(47,46,65); fill-rule: nonzero; opacity: 1;" vector-effect="non-scaling-stroke"  transform=" translate(-862.55, -403.72)" d="M 836.02556 405.88808 C 847.6593676487659 412.989858655836 860.7749760001732 417.3114391819737 874.3517400000001 418.51652 L 870.3118300000001 413.6759 C 873.2533704832106 414.7634903211341 876.3486598651491 415.37813076256776 879.4825700000001 415.49696 C 882.6127700000001 415.44821 885.8924300000001 414.24296 887.6689800000001 411.66525 C 889.2772584368115 409.06438636125813 889.5108239126758 405.84106177594896 888.2943000000001 403.03551 C 887.0630905243132 400.27852684032376 885.1468501154951 397.88247327553455 882.7279300000001 396.07536 C 874.019263976316 389.18641588304064 862.4391776488878 387.11684300734015 851.8834600000001 390.56289 C 848.3185676274627 391.6282970353699 845.125864269155 393.6763069480906 842.6710900000002 396.47231 C 840.3427000000001 399.3447 835.8600900000001 401.90388 837.0522900000002 405.40398 Z" stroke-linecap="round" />
</g>
<g transform="matrix(0.82 0 0 0.82 501.29 292.19)" id="Uah0vyaP0C78cfz2M38Vj"  >
<path style="stroke: none; stroke-width: 1; stroke-dasharray: none; stroke-linecap: butt; stroke-dashoffset: 0; stroke-linejoin: miter; stroke-miterlimit: 4; fill: rgb(47,46,65); fill-rule: nonzero; opacity: 1;" vector-effect="non-scaling-stroke"  transform=" translate(-820.58, -415.33)" d="M 865.15845 386.06722 C 857.4119265367056 378.2116694927578 848.0375967100023 372.14967341591296 837.69545 368.30802 C 831.05673 365.8486 823.83086 364.32907 816.8903600000001 365.72576 C 809.9498600000002 367.12244999999996 803.3862500000001 371.92384 801.4499500000001 378.73354 C 799.8666300000001 384.3019 801.50153 390.29734 803.95866 395.53909 C 806.41579 400.78083999999996 809.69624 405.64157 811.68329 411.07894999999996 C 815.8024932503986 422.35082904131605 813.9423106596589 434.94121199248855 806.739498349481 444.5403050415481 C 799.536686039303 454.1393980906076 787.9682977731104 459.4450945623899 775.9942900000001 458.64120999999994 C 782.8136700000001 459.55558999999994 789.09945 462.76025999999996 795.7650500000001 464.46603999999996 C 802.4306500000001 466.17181999999997 810.2978600000001 466.05614999999995 815.25129 461.28085999999996 C 820.49221 456.22841999999997 820.5971400000001 448.01366999999993 820.34375 440.73837 Q 819.77875 424.51588999999996 819.21375 408.29337 C 819.02165 402.77794 818.8576 397.08572999999996 820.84663 391.93786 C 822.83566 386.78999000000005 827.5628 382.28217 833.08138 382.32901 C 837.26391 382.36451 840.9658099999999 384.89826 844.32004 387.39700999999997 C 847.67427 389.89575999999994 851.22449 392.56174999999996 855.39063 392.93341999999996 C 859.55677 393.30508999999995 864.3135599999999 390.22196999999994 864.00181 386.05091999999996" stroke-linecap="round" />
</g>
<g transform="matrix(0.82 0 0 0.82 525.11 373.67)" id="mFc9pL14xFqnKY54e1aLk"  >
<path style="stroke: none; stroke-width: 1; stroke-dasharray: none; stroke-linecap: butt; stroke-dashoffset: 0; stroke-linejoin: miter; stroke-miterlimit: 4; fill: rgb(160,97,106); fill-rule: nonzero; opacity: 1;" vector-effect="non-scaling-stroke"  transform=" translate(-849.66, -514.8)" d="M 819.73566 541.4132 C 815.2838932214272 541.408173119492 811.2736899750613 538.7214354173598 809.5756384893416 534.6062350732481 C 807.8775870036218 530.4910347291362 808.8262307244885 525.7581323798287 811.979067946113 522.6152244629034 C 815.1319051677376 519.4723165459782 819.8677762624636 518.5386064564111 823.9776 520.2496299999999 L 823.97784 520.2496299999999 C 824.4299155932505 520.4404276036669 824.8681527310471 520.6624816092349 825.28937 520.9141799999999 L 870.03009 500.8272699999999 L 871.28692 488.6929899999999 L 890.57281 488.17687999999987 L 890.44513 508.3785399999999 C 890.396449463356 513.1838733696616 887.2009865266023 517.388117081204 882.58404 518.7213099999999 L 830.26204 533.6143799999999 C 830.1603109308214 533.9601186990191 830.0404347443366 534.3002569053177 829.9029099999999 534.6333799999999 C 828.186540176013 538.7330517207987 824.1801328174239 541.4046309495183 819.7356799999999 541.4131599999998 Z" stroke-linecap="round" />
</g>
<g transform="matrix(0.82 0 0 0.82 549.26 344.12)" id="kRmuggY8TsoeTqXUGplk8"  >
<path style="stroke: none; stroke-width: 1; stroke-dasharray: none; stroke-linecap: butt; stroke-dashoffset: 0; stroke-linejoin: miter; stroke-miterlimit: 4; fill: rgb(14,20,30); fill-rule: nonzero; opacity: 1;" vector-effect="non-scaling-stroke"  transform=" translate(-879.14, -478.72)" d="M 888.93937 498.07985 C 888.3908234755424 498.3574370710044 887.7911776132206 498.5195805116864 887.17749 498.55626 L 873.2039100000001 499.41542 C 870.7245892049651 499.564631634199 868.5921264364534 497.67927012647897 868.4364 495.20034999999996 L 866.90264 470.24763999999993 C 866.6431113888483 466.14274572144905 868.5957080383597 462.2117911398432 872.0234537421875 459.93845184972906 C 875.4511994460152 457.6651125596149 879.8321112169141 457.39557656214737 883.5126843548401 459.2315758852582 C 887.1932574927662 461.0675752083691 889.6130080157357 464.7295207302085 889.85864 468.8352699999999 L 891.39264 493.7878799999999 C 891.5015154819639 495.57919788341593 890.5381203152567 497.26464561096026 888.93935 498.0798799999999 Z" stroke-linecap="round" />
</g>
<g transform="matrix(-0.82 0 0 -0.82 500.05 394.68)" id="N6zUNqCQW12eOuaFjOM2O"  >
<path style="stroke: none; stroke-width: 1; stroke-dasharray: none; stroke-linecap: butt; stroke-dashoffset: 0; stroke-linejoin: miter; stroke-miterlimit: 4; fill: rgb(63,61,86); fill-rule: nonzero; opacity: 1;" vector-effect="non-scaling-stroke"  transform=" translate(-819.07, -540.44)" d="M 779.56963 536.93615 L 858.56963 536.93615 C 860.5026266244078 536.93615 862.06963 538.5031533755922 862.06963 540.43615 L 862.06963 540.43615 C 862.06963 542.3691466244078 860.5026266244078 543.93615 858.56963 543.93615 L 779.56963 543.93615 C 777.6366333755922 543.93615 776.06963 542.3691466244078 776.06963 540.43615 L 776.06963 540.43615 C 776.06963 538.5031533755922 777.6366333755922 536.93615 779.56963 536.93615 Z" stroke-linecap="round" />
</g>
<g transform="matrix(0.82 0 0 0.82 481.2 372.15)" id="uJP5eoqhTwnzBvwi1qj3X"  >
<path style="stroke: none; stroke-width: 1; stroke-dasharray: none; stroke-linecap: butt; stroke-dashoffset: 0; stroke-linejoin: miter; stroke-miterlimit: 4; fill: rgb(63,61,86); fill-rule: nonzero; opacity: 1;" vector-effect="non-scaling-stroke"  transform=" translate(-796.07, -512.94)" d="M 745.06964 537.43615 L 745.06964 488.43615 C 745.0737015257558 484.84798281167843 747.9814728116785 481.94021152575584 751.56964 481.93615 L 840.56964 481.93615 C 844.1578071883216 481.94021152575584 847.0655784742443 484.84798281167843 847.06964 488.43615 L 847.06964 537.43615 C 847.0655839732215 541.0243194697172 844.1578094697172 543.9320939732214 840.56964 543.93615 L 751.56964 543.93615 C 747.9814705302829 543.9320939732214 745.0736960267786 541.0243194697172 745.06964 537.43615 Z" stroke-linecap="round" />
</g>
<g transform="matrix(0.82 0 0 0.82 481.2 372.15)" id="jbwi7LOlvhF95v2mDGEYx"  >
<path style="stroke: none; stroke-width: 1; stroke-dasharray: none; stroke-linecap: butt; stroke-dashoffset: 0; stroke-linejoin: miter; stroke-miterlimit: 4; fill: rgb(255,255,255); fill-rule: nonzero; opacity: 1;" vector-effect="non-scaling-stroke"  transform=" translate(-6, -6)" d="M 0 6 C 0 2.68629 2.68629 0 6 0 C 9.31371 0 12 2.68629 12 6 C 12 9.31371 9.31371 12 6 12 C 2.68629 12 0 9.31371 0 6 z" stroke-linecap="round" />
</g>
<g transform="matrix(0.82 0 0 0.82 206.36 323.93)" id="hy1VvAR4UjMhf35uJU34g"  >
<path style="stroke: none; stroke-width: 1; stroke-dasharray: none; stroke-linecap: butt; stroke-dashoffset: 0; stroke-linejoin: miter; stroke-miterlimit: 4; fill: rgb(255,184,184); fill-rule: nonzero; opacity: 1;" vector-effect="non-scaling-stroke"  transform=" translate(-460.57, -454.07)" d="M 483.24743 455.27334 C 481.60716069564336 452.7902349621195 478.9512734136366 451.16120646568663 475.994419055945 450.82459641330786 C 473.03756469825333 450.487986360929 470.0834816999879 451.4783725160596 467.92706 453.52926 L 436.17262999999997 437.13916 L 438.14662999999996 455.60364 L 467.99852999999996 468.33715 C 471.76672272981904 471.8076495641458 477.53511749803283 471.9112655748549 481.42551827817607 468.5783351159856 C 485.31591905831925 465.24540465711635 486.09862553416406 459.52941961057337 483.24740999999995 455.27334 Z" stroke-linecap="round" />
</g>
<g transform="matrix(0.82 0 0 0.82 172.72 293.22)" id="EtbsHPUxHPBtFxjSnRkTr"  >
<path style="stroke: none; stroke-width: 1; stroke-dasharray: none; stroke-linecap: butt; stroke-dashoffset: 0; stroke-linejoin: miter; stroke-miterlimit: 4; fill: rgb(204,204,204); fill-rule: nonzero; opacity: 1;" vector-effect="non-scaling-stroke"  transform=" translate(-419.5, -416.6)" d="M 455.02714 462.70552 C 453.8651125100088 463.2385748950369 452.5313248938873 463.2528036109624 451.35819 462.74465999999995 L 421.196 449.66058 C 410.8828430262044 445.1884148823367 402.5451987058868 437.1224209784942 397.734 426.963 L 381.87705 393.49184 C 378.6932390886365 389.4015630217088 377.9355791575719 383.92261364393823 379.88988137037904 379.12180948843746 C 381.8441835831862 374.3210053329367 386.2130364328385 370.9289470148357 391.34838270363593 370.2252166989738 C 396.4837289744334 369.5214863831118 401.60405643991874 371.61317983615635 404.77783 375.71125 L 432.65053 427.42481 L 458.38734 446.86634999999995 C 459.89627781976435 448.0114859923667 460.52989854130857 449.9768112371577 459.97397 451.78765999999996 L 457.44787 459.94688999999994 C 457.1765645363362 460.8217961366851 456.6450380411329 461.59322867286085 455.92414 462.15835999999996 C 455.6477722589428 462.37549436070265 455.34667829028547 462.55915832490615 455.02714 462.70552 Z" stroke-linecap="round" />
</g>
<g transform="matrix(0.82 0 0 0.82 141.34 221.94)" id="mFABxS7tI_1IMvCFPKk8Y"  >
<path style="stroke: none; stroke-width: 1; stroke-dasharray: none; stroke-linecap: butt; stroke-dashoffset: 0; stroke-linejoin: miter; stroke-miterlimit: 4; fill: rgb(255,184,184); fill-rule: nonzero; opacity: 1;" vector-effect="non-scaling-stroke"  transform=" translate(-24.56, -24.56)" d="M 0 24.56103 C 0 10.99635 10.99635 0 24.56103 0 C 38.12571 0 49.12206 10.99635 49.12206 24.56103 C 49.12206 38.12571 38.12571 49.12206 24.56103 49.12206 C 10.99635 49.12206 0 38.12571 0 24.56103 z" stroke-linecap="round" />
</g>
<g transform="matrix(0.82 0 0 0.82 156.89 466.51)" id="d1Y_8Q5HDfzgjV6J4EB_V"  >
<path style="stroke: none; stroke-width: 1; stroke-dasharray: none; stroke-linecap: butt; stroke-dashoffset: 0; stroke-linejoin: miter; stroke-miterlimit: 4; fill: rgb(255,184,184); fill-rule: nonzero; opacity: 1;" vector-effect="non-scaling-stroke"  transform=" translate(-193.71, -392.18)" d="M 184.661 415.827 L 196.92000000000002 415.827 L 202.75300000000001 368.539 L 184.65800000000002 368.539 z" stroke-linecap="round" />
</g>
<g transform="matrix(-0.82 0 0 -0.82 163.11 489.1)" id="R72Tg22HhVbNeXanfrap5"  >
<path style="stroke: none; stroke-width: 1; stroke-dasharray: none; stroke-linecap: butt; stroke-dashoffset: 0; stroke-linejoin: miter; stroke-miterlimit: 4; fill: rgb(47,46,65); fill-rule: nonzero; opacity: 1;" vector-effect="non-scaling-stroke"  transform=" translate(-407.77, -655.7)" d="M 388.50041 648.25979 L 427.03114 648.25979 L 427.03114 663.14666 L 403.38727 663.14666 C 395.16548424913395 663.14666 388.50041 656.4815857508661 388.50041 648.2598 L 388.50041 648.2598 Z" stroke-linecap="round" />
</g>
<g transform="matrix(0.82 0 0 0.82 124.12 466.51)" id="jAnQmKnl0E_pcPONZL-PZ"  >
<path style="stroke: none; stroke-width: 1; stroke-dasharray: none; stroke-linecap: butt; stroke-dashoffset: 0; stroke-linejoin: miter; stroke-miterlimit: 4; fill: rgb(255,184,184); fill-rule: nonzero; opacity: 1;" vector-effect="non-scaling-stroke"  transform=" translate(-153.71, -392.18)" d="M 144.661 415.827 L 156.92000000000002 415.827 L 162.75300000000001 368.539 L 144.65800000000002 368.539 z" stroke-linecap="round" />
</g>
<g transform="matrix(-0.82 0 0 -0.82 130.34 489.1)" id="W6XT2AsHBC3x2FWHVFwNH"  >
<path style="stroke: none; stroke-width: 1; stroke-dasharray: none; stroke-linecap: butt; stroke-dashoffset: 0; stroke-linejoin: miter; stroke-miterlimit: 4; fill: rgb(47,46,65); fill-rule: nonzero; opacity: 1;" vector-effect="non-scaling-stroke"  transform=" translate(-367.77, -655.7)" d="M 348.50041 648.25979 L 387.03114 648.25979 L 387.03114 663.14666 L 363.38727 663.14666 C 355.16548424913395 663.14666 348.50041 656.4815857508661 348.50041 648.2598 L 348.50041 648.2598 Z" stroke-linecap="round" />
</g>
<g transform="matrix(0.82 0 0 0.82 145.27 408.01)" id="WwXtYsaCogm664Vx0KcU5"  >
<path style="stroke: none; stroke-width: 1; stroke-dasharray: none; stroke-linecap: butt; stroke-dashoffset: 0; stroke-linejoin: miter; stroke-miterlimit: 4; fill: rgb(47,46,65); fill-rule: nonzero; opacity: 1;" vector-effect="non-scaling-stroke"  transform=" translate(-385.99, -556.72)" d="M 346.84652 638.2278 C 345.99191085801954 637.2520554681593 345.60006287833534 635.9549147220899 345.77152 634.66921 L 367.23612 473.68386 L 420.56473000000005 482.7405 L 426.2561400000001 479.3255 L 411.53866 632.0696 C 411.28627990485717 634.1952076859635 409.5752165405826 635.8509982468865 407.44247 636.0334700000001 L 391.29476 637.37917 C 389.99579914854 637.4877299798424 388.7136015254656 637.0276048493827 387.7800537989608 636.1178943431299 C 386.846506072456 635.2081838368771 386.3533773194693 633.9383137989299 386.42831 632.63698 L 390.60897 559.8947900000001 C 390.62421868711056 559.638816471332 390.44337304135166 559.4127917959407 390.19028972514224 559.3715146243593 C 389.93720640893275 559.3302374527779 389.6939151282497 559.4870865975614 389.62704 559.73464 L 368.94393 636.43483 C 368.41228079606685 638.3974216963663 366.63253467429905 639.7611350804226 364.59921 639.7639300000001 L 350.23221 639.7639300000001 C 348.9349452143745 639.7640230206275 347.7007950090878 639.2040735997275 346.84652 638.2278 Z" stroke-linecap="round" />
</g>
<g transform="matrix(0.82 0 0 0.82 146.18 303.41)" id="IBQhV89NXslMYA22b1Y55"  >
<path style="stroke: none; stroke-width: 1; stroke-dasharray: none; stroke-linecap: butt; stroke-dashoffset: 0; stroke-linejoin: miter; stroke-miterlimit: 4; fill: rgb(204,204,204); fill-rule: nonzero; opacity: 1;" vector-effect="non-scaling-stroke"  transform=" translate(-387.1, -429.03)" d="M 383.77889 484.95241 C 382.51592129380947 483.80879463762784 380.61664831533113 483.7295284171452 379.26277999999996 484.76392999999996 L 368.60090999999994 493.05692999999997 C 367.4227489663669 493.97589479340303 365.8650318221148 494.24953078797097 364.4442109994347 493.78711549570204 C 363.02339017675456 493.3247002034331 361.925114070913 492.18665409085344 361.51350999999994 490.75028999999995 C 356.2837799999999 472.43485999999996 344.43513999999993 426.33228999999994 347.3540899999999 393.8840799999999 C 349.0086299999999 375.4914999999999 364.8911999999999 361.51298999999995 382.7590899999999 362.6858399999999 C 394.9746599999999 363.50028999999995 403.0110899999999 370.54716999999994 406.6450899999999 383.63017999999994 C 415.56769999999995 415.75224999999995 425.3733699999999 474.67411999999996 427.2483699999999 486.16044999999997 C 427.55132578686545 487.9843856874274 426.7027144622648 489.8070880057829 425.1118899999999 490.74931999999995 C 420.0673169416093 493.7777772049533 414.3036279450412 495.3997249212005 408.42 495.44655 C 401.30087 495.44655 392.76473 492.968 383.77889 484.95241 Z" stroke-linecap="round" />
</g>
<g transform="matrix(0.82 0 0 0.82 132.15 344.68)" id="_QImAg0EEFKFbP7uTE0jh"  >
<path style="stroke: none; stroke-width: 1; stroke-dasharray: none; stroke-linecap: butt; stroke-dashoffset: 0; stroke-linejoin: miter; stroke-miterlimit: 4; fill: rgb(255,184,184); fill-rule: nonzero; opacity: 1;" vector-effect="non-scaling-stroke"  transform=" translate(-369.97, -479.4)" d="M 387.8018 496.379 C 388.04349458093486 493.4128796824233 386.9589682844157 490.4920477245664 384.8400455614655 488.40244189978506 C 382.7211228385153 486.31283607500376 379.78546530436006 485.2691064854849 376.82300000000004 485.5521 L 361.95116 453.05890999999997 L 352.10962 468.80622 L 367.741 497.24808 C 368.56435322965086 502.3043337650706 373.0393722512146 505.9456621250174 378.1574236786378 505.7239364751286 C 383.27547510606104 505.50221082523984 387.41881773217904 501.4875154008143 387.80181 496.379 Z" stroke-linecap="round" />
</g>
<g transform="matrix(0.82 0 0 0.82 120.71 302.44)" id="nhcGM2xk1rBFasC1o9wLp"  >
<path style="stroke: none; stroke-width: 1; stroke-dasharray: none; stroke-linecap: butt; stroke-dashoffset: 0; stroke-linejoin: miter; stroke-miterlimit: 4; fill: rgb(204,204,204); fill-rule: nonzero; opacity: 1;" vector-effect="non-scaling-stroke"  transform=" translate(-356, -427.85)" d="M 361.00961 484.81179 C 359.76628381464855 484.514121079278 358.70798519327985 483.70220404987896 358.09847 482.57838999999996 L 342.43929 453.66920999999996 C 337.08407404370035 443.78574528702666 335.5011444138127 432.2935476729952 337.98495 421.33034000000004 L 346.16341 385.20734 C 346.1835997100429 380.0248581804852 348.9688662999892 375.2473671106053 353.46881729023124 372.6765760807055 C 357.9687682804732 370.10578505080576 363.49881360825066 370.1327956520633 367.97343727837875 372.7474215229524 C 372.4480609485068 375.36204739384146 375.18652601389334 380.16651822687925 375.15609 385.34895 L 365.17464 443.24152 L 373.42831 474.42219 C 373.90895736414564 476.2544579445526 373.1946874513764 478.1919297590616 371.63973 479.27375 L 364.61678 484.13508 C 363.8633749230307 484.65608596333345 362.9690656675034 484.9350823211926 362.05306 484.93488 C 361.7016056861077 484.93515246022895 361.35135375844976 484.893835186018 361.00961 484.81179 Z" stroke-linecap="round" />
</g>
<g transform="matrix(0.82 0 0 0.82 132.71 316.3)" id="ZVG5iB4IWlTBoDZaepQfJ"  >
<path style="stroke: none; stroke-width: 1; stroke-dasharray: none; stroke-linecap: butt; stroke-dashoffset: 0; stroke-linejoin: miter; stroke-miterlimit: 4; fill: rgb(0,0,0); fill-rule: nonzero; opacity: 0.2;" vector-effect="non-scaling-stroke"  transform=" translate(-164.2, -208.83)" d="M 166.697 173.828 L 157.697 211.828 L 170.697 243.828 L 161.697 212.828 z" stroke-linecap="round" />
</g>
<g transform="matrix(0.82 0 0 0.82 136.17 216.77)" id="6o8FhYmRSilr5AYDkOgaD"  >
<path style="stroke: none; stroke-width: 1; stroke-dasharray: none; stroke-linecap: butt; stroke-dashoffset: 0; stroke-linejoin: miter; stroke-miterlimit: 4; fill: rgb(47,46,65); fill-rule: nonzero; opacity: 1;" vector-effect="non-scaling-stroke"  transform=" translate(-374.88, -323.27)" d="M 367.16341 349.76393 C 364.9786339651878 349.80447157792565 362.8074820904031 349.4116555511125 360.77541 348.60818 C 359.8813 348.26361 358.95315000000005 347.98039 358.0607 347.6356 C 350.179 344.59051 344.98703 336.19653 344.80108 327.7491 C 344.61513 319.30167 348.98975 311.10265 355.48571000000004 305.6993 C 361.98167000000007 300.29595 370.39557 297.52184 378.82066000000003 296.8803 C 387.89588000000003 296.1893 398.11488 298.49073 403.18601 306.04855999999995 C 404.53586 308.06032999999996 405.4799 310.50113999999996 404.68001000000004 312.93015999999994 C 404.44043823753236 313.66315772573574 404.0125712134003 314.32038787532116 403.43922000000003 314.83608999999996 C 401.17452000000003 316.85095999999993 398.91673000000003 315.33597999999995 396.60806 315.20208999999994 C 393.43482 315.0180899999999 390.58468000000005 317.58665999999994 389.56030000000004 320.59563999999995 C 388.53592000000003 323.60461999999995 388.98685000000006 326.91724999999997 389.81397000000004 329.9863199999999 C 390.4440746784381 331.8330944445135 390.8413059119334 333.7512689083626 390.99646 335.6963999999999 C 391.1321987748208 337.6794736162593 390.2324036214086 339.591644239601 388.6179 340.7511199999999 C 386.63502 341.9496999999999 384.03097 341.2560099999999 382.0469 340.0593599999999 C 380.06282999999996 338.86270999999994 378.34848999999997 337.1988899999999 376.20536 336.31830999999994 C 374.06223 335.43773 371.18291999999997 335.63305999999994 369.93552 337.58559999999994 C 369.5390960007232 338.2960663351658 369.27078470448146 339.0707489427047 369.14286 339.87420999999995 C 368.02457999999996 344.96905999999996 368.28159999999997 344.66900999999996 367.16332 349.76385999999997 Z" stroke-linecap="round" />
</g>
<g transform="matrix(0.82 0 0 0.82 324.16 284.26)" id="LH0tYVyJ5oePZv1tgSC-G"  >
<path style="stroke: none; stroke-width: 1; stroke-dasharray: none; stroke-linecap: butt; stroke-dashoffset: 0; stroke-linejoin: miter; stroke-miterlimit: 4; fill: rgb(140,142,145); fill-rule: nonzero; opacity: 1;" vector-effect="non-scaling-stroke"  transform=" translate(-604.36, -405.65)" d="M 580.11488 433.1146 C 579.2890776406751 432.0699959105113 578.991175660378 430.70292320637697 579.3074799999999 429.40944 C 583.0371013207451 413.78722793624553 583.0369985492255 397.50645497643427 579.3071799999999 381.8842900000001 C 578.9911305532302 380.5907585486829 579.2891278487945 379.22375637011027 580.1148799999999 378.17913000000004 C 580.9230266254667 377.1491568698987 582.1609590223738 376.54937073720873 583.4701299999998 376.55349000000007 L 623.3423499999998 376.55349000000007 C 625.4464576291055 376.55743572369175 627.2389461566714 378.08281295902833 627.5794499999998 380.1591900000001 C 630.1803500602715 397.0514446230324 630.1803500602715 414.2422853769676 627.5794499999998 431.13453999999996 C 627.2389461566714 433.2109170409718 625.4464576291055 434.7362942763084 623.3423499999998 434.7402400000001 L 583.47013 434.7402400000001 C 582.160959022374 434.7443592627914 580.9230266254668 434.1445731301014 580.11488 433.1146 Z" stroke-linecap="round" />
</g>
<g transform="matrix(0.82 0 0 0.82 273.64 169.06)" id="SV-hm0fvjuAOyA5szjo-9"  >
<path style="stroke: none; stroke-width: 1; stroke-dasharray: none; stroke-linecap: butt; stroke-dashoffset: 0; stroke-linejoin: miter; stroke-miterlimit: 4; fill: rgb(140,142,145); fill-rule: nonzero; opacity: 1;" vector-effect="non-scaling-stroke"  transform=" translate(-542.68, -265.03)" d="M 518.43373 292.49666 C 517.6080236283267 291.4522459190364 517.3102258598366 290.0853516157245 517.62664 288.79211000000004 C 521.3562100494985 273.1699038359954 521.3562100494985 256.8891661640047 517.62664 241.26696000000004 C 517.3102272356015 239.97371519205 517.6080247242678 238.6068184833639 518.43373 237.56240000000005 C 519.2416409134208 236.5320531760525 520.4796705694723 235.93199662956914 521.78899 235.93615000000005 L 561.66151 235.93615000000005 C 563.7655123092303 235.94039065045578 565.5578375611219 237.46563317104716 565.8986100000001 239.54186000000004 C 568.4995099765209 256.43411127658396 568.499509976521 273.6249487234161 565.8986100000001 290.5172 C 565.5578375611219 292.59342682895294 563.7655123092303 294.11866934954435 561.66151 294.12291000000005 L 521.789 294.12291000000005 C 520.4796760314955 294.1270709799983 519.2416401621198 293.5270132104082 518.43373 292.49666 Z" stroke-linecap="round" />
</g>
<g transform="matrix(0.82 0 0 0.82 353.17 209.22)" id="PrPqhkhRU0UcdE_6wlCOI"  >
<path style="stroke: none; stroke-width: 1; stroke-dasharray: none; stroke-linecap: butt; stroke-dashoffset: 0; stroke-linejoin: miter; stroke-miterlimit: 4; fill: rgb(14,20,30); fill-rule: nonzero; opacity: 1;" vector-effect="non-scaling-stroke"  transform=" translate(-639.77, -314.05)" d="M 616.54546 339.53454 C 613.9445499678026 322.64228949301935 613.9445499678026 305.4514505069807 616.54546 288.55920000000003 C 616.8858210225694 286.4828671149143 618.6782090977804 284.9574595288246 620.7822500000001 284.95349 L 660.6547700000001 284.95349 C 661.9640901176956 284.9493336143724 663.2021210276862 285.54939076862337 664.0100300000001 286.57974 C 664.8357485704313 287.6241506709578 665.1336514724273 288.9910062253528 664.8174300000002 290.28430000000003 C 661.0876114507746 305.9064649764342 661.0875086792549 322.18723793624554 664.8171300000001 337.80945 C 665.1336109344303 339.10269226667936 664.8358027661686 340.4696173685674 664.0100300000001 341.514 C 663.202123939393 342.54435284256726 661.9640911484555 343.1444109084883 660.6547700000001 343.14025000000004 L 620.78225 343.14025000000004 C 618.6782090977804 343.1362804711754 616.8858210225693 341.6108728850856 616.54546 339.53454 Z" stroke-linecap="round" />
</g>
<g transform="matrix(0.82 0 0 0.82 216.42 207.76)" id="_eMH9fO8S8hX48o0cDOFt"  >
<path style="stroke: none; stroke-width: 1; stroke-dasharray: none; stroke-linecap: butt; stroke-dashoffset: 0; stroke-linejoin: miter; stroke-miterlimit: 4; fill: rgb(237,218,64); fill-rule: nonzero; opacity: 1;" vector-effect="non-scaling-stroke"  transform=" translate(-472.85, -312.27)" d="M 449.62243 337.75466 C 447.02183000273374 320.8623824132547 447.0218300027337 303.6715875867453 449.62243 286.77931000000007 C 449.9632029667245 284.7030849729906 451.75552937346055 283.17784569972156 453.85953 283.17361 L 493.73205 283.17361 C 495.0413680618244 283.16945271578203 496.27939803339666 283.76950572537584 497.08731 284.79985 C 497.913025076347 285.8442623725144 498.2109242527207 287.2111177618886 497.8947 288.50441 C 494.16488145077443 304.12657497643426 494.16477867925477 320.4073479362455 497.8944 336.02956000000006 C 498.2108792455933 337.32280396145393 497.91307537975666 338.6897299414856 497.08731 339.73412 C 496.27939803339666 340.7644642746242 495.0413680618244 341.364517284218 493.73205 341.36036 L 453.85953 341.36036 C 451.75552937346055 341.35612430027845 449.9632029667245 339.8308850270094 449.62243 337.75466 Z" stroke-linecap="round" />
</g>
<g transform="matrix(0.82 0 0 0.82 225.67 302.17)" id="tcHdmgFrUaYIu1mNXvASz"  >
<path style="stroke: none; stroke-width: 1; stroke-dasharray: none; stroke-linecap: butt; stroke-dashoffset: 0; stroke-linejoin: miter; stroke-miterlimit: 4; fill: rgb(14,20,30); fill-rule: nonzero; opacity: 1;" vector-effect="non-scaling-stroke"  transform=" translate(-484.12, -427.51)" d="M 459.48435 455.42648 C 458.6449919270376 454.3647211559354 458.3421980012811 452.97520305538325 458.66369000000003 451.66048 C 462.454893025502 435.7816536325167 462.454786827795 419.2333377065934 458.66337999999996 403.35456 C 458.3421586467843 402.03978249783285 458.6450623451491 400.6503363004616 459.48438000000004 399.58856 C 460.30580780374015 398.54166668187054 461.56407906339643 397.93202654913074 462.89476 397.93620999999996 L 503.422 397.93620999999996 C 505.560676398705 397.940224796054 507.3826100334963 399.49066844776604 507.7287 401.60115999999994 C 510.3723399425656 418.7709253240686 510.37233994256565 436.2441846759312 507.7287 453.41394999999994 C 507.3826056608117 455.524437579036 505.56067318699854 457.07487601230895 503.422 457.07888999999994 L 462.89473 457.07888999999994 C 461.56403879437056 457.0830590093885 460.30576566808094 456.47339583501724 459.48435 455.42648 Z" stroke-linecap="round" />
</g>
<g transform="matrix(0.82 0 0 0.82 325.25 494.98)" id="Ir03xDbuZCBuBuikFXG9k"  >
<path style="stroke: none; stroke-width: 1; stroke-dasharray: none; stroke-linecap: butt; stroke-dashoffset: 0; stroke-linejoin: miter; stroke-miterlimit: 4; fill: rgb(63,61,86); fill-rule: nonzero; opacity: 1;" vector-effect="non-scaling-stroke"  transform=" translate(-605.69, -662.87)" d="M 219.04862 664.06385 L 992.34262 664.06385 C 993.0002171673523 664.06385 993.5333049999999 663.5307621673522 993.5333049999999 662.873165 C 993.5333049999999 662.2155678326478 993.0002171673523 661.68248 992.34262 661.68248 L 219.04862000000003 661.68248 C 218.622407255075 661.6812448251279 218.2280408981045 661.9079175847418 218.01457716546832 662.2768241643016 C 217.80111343283215 662.6457307438615 217.80111343283215 663.1005992561386 218.01457716546832 663.4695058356984 C 218.2280408981045 663.8384124152583 218.622407255075 664.0650851748721 219.04862000000003 664.06385 Z" stroke-linecap="round" />
</g>
<g transform="matrix(0.82 0 0 0.82 226.33 292.84)" id="PzeEqCgYfMX3MugvLn8Ym"  >
<path style="stroke: none; stroke-width: 1; stroke-dasharray: none; stroke-linecap: butt; stroke-dashoffset: 0; stroke-linejoin: miter; stroke-miterlimit: 4; fill: rgb(255,255,255); fill-rule: nonzero; opacity: 1;" vector-effect="non-scaling-stroke"  transform=" translate(-484.93, -416.12)" d="M 495.60138 419.75793 L 474.252 419.75793 C 472.59589510712715 419.7561222883468 471.2538077116532 418.41403489287285 471.252 416.75793 L 471.252 415.484 C 471.2538077116532 413.8278951071271 472.59589510712715 412.4858077116532 474.252 412.484 L 495.60137000000003 412.484 C 497.2574748928729 412.4858077116532 498.5995622883468 413.8278951071271 498.60137000000003 415.484 L 498.60137000000003 416.75791999999996 C 498.5995678087057 418.41402489890237 497.257484886851 419.75611676800634 495.60138 419.75793 Z" stroke-linecap="round" />
</g>
<g transform="matrix(0.82 0 0 0.82 226.33 303.12)" id="job3e3d1Md9Wz1ujCG9rE"  >
<path style="stroke: none; stroke-width: 1; stroke-dasharray: none; stroke-linecap: butt; stroke-dashoffset: 0; stroke-linejoin: miter; stroke-miterlimit: 4; fill: rgb(255,255,255); fill-rule: nonzero; opacity: 1;" vector-effect="non-scaling-stroke"  transform=" translate(-484.93, -428.67)" d="M 495.60138 432.30529 L 474.252 432.30529 C 472.59589510712715 432.3034822883468 471.2538077116532 430.9613948928729 471.252 429.30529 L 471.252 428.03137000000004 C 471.2538077116532 426.3752651071272 472.59589510712715 425.03317771165325 474.252 425.03137000000004 L 495.60137000000003 425.03137000000004 C 497.2574748928729 425.03317771165325 498.5995622883468 426.3752651071272 498.60137000000003 428.03137000000004 L 498.60137000000003 429.30529 C 498.5995622986313 430.9613909936645 497.2574809876296 432.30347677828547 495.60138 432.30529 Z" stroke-linecap="round" />
</g>
<g transform="matrix(0.82 0 0 0.82 214.91 201.2)" id="OXHFm1aV3SKZzcqPxCIvz"  >
<path style="stroke: none; stroke-width: 1; stroke-dasharray: none; stroke-linecap: butt; stroke-dashoffset: 0; stroke-linejoin: miter; stroke-miterlimit: 4; fill: rgb(255,255,255); fill-rule: nonzero; opacity: 1;" vector-effect="non-scaling-stroke"  transform=" translate(-471, -304.26)" d="M 481.462 307.85022 L 460.53839 307.85022 C 458.88228510712713 307.84841228834676 457.5401977116532 306.50632489287284 457.53839 304.85022 L 457.53839 303.67834 C 457.5401977116532 302.02223510712713 458.88228510712713 300.6801477116532 460.53839 300.67834 L 481.462 300.67834 C 483.11810489287285 300.6801477116532 484.4601922883468 302.02223510712713 484.462 303.67834 L 484.462 304.85022 C 484.4601922883468 306.50632489287284 483.11810489287285 307.84841228834676 481.462 307.85022 Z" stroke-linecap="round" />
</g>
<g transform="matrix(0.82 0 0 0.82 324.43 273.4)" id="ddsVmDtQK_UJMlZv7ethz"  >
<path style="stroke: none; stroke-width: 1; stroke-dasharray: none; stroke-linecap: butt; stroke-dashoffset: 0; stroke-linejoin: miter; stroke-miterlimit: 4; fill: rgb(255,255,255); fill-rule: nonzero; opacity: 1;" vector-effect="non-scaling-stroke"  transform=" translate(-604.68, -392.39)" d="M 615.14142 395.97961 L 594.21808 395.97961 C 592.5619751071271 395.97780228834677 591.2198877116532 394.63571489287284 591.21808 392.97961 L 591.21808 391.80724999999995 C 591.2198877116532 390.1511451071271 592.5619751071271 388.80905771165317 594.21808 388.80724999999995 L 615.14142 388.80724999999995 C 616.797524892873 388.80905771165317 618.1396122883468 390.1511451071271 618.14142 391.80724999999995 L 618.14142 392.97961 C 618.1396122883468 394.63571489287284 616.797524892873 395.97780228834677 615.14142 395.97961 Z" stroke-linecap="round" />
</g>
<g transform="matrix(0.82 0 0 0.82 324.43 285.54)" id="MNLN6Slw98XExXwgkxTVd"  >
<path style="stroke: none; stroke-width: 1; stroke-dasharray: none; stroke-linecap: butt; stroke-dashoffset: 0; stroke-linejoin: miter; stroke-miterlimit: 4; fill: rgb(255,255,255); fill-rule: nonzero; opacity: 1;" vector-effect="non-scaling-stroke"  transform=" translate(-604.68, -407.21)" d="M 615.14142 410.79309 L 594.21808 410.79309 C 592.5619751071271 410.7912822883468 591.2198877116532 409.44919489287287 591.21808 407.79309 L 591.21808 406.62072 C 591.2198877116532 404.96461510712714 592.5619751071271 403.6225277116532 594.21808 403.62072 L 615.14142 403.62072 C 616.797522611268 403.6225332114298 618.1396067885702 404.96461738873194 618.14142 406.62072 L 618.14142 407.79309 C 618.1396067885702 409.4491926112681 616.797522611268 410.7912767885702 615.14142 410.79309 Z" stroke-linecap="round" />
</g>
<g transform="matrix(0.82 0 0 0.82 324.43 297.67)" id="bMO87h6_0toRkYgPWVmkk"  >
<path style="stroke: none; stroke-width: 1; stroke-dasharray: none; stroke-linecap: butt; stroke-dashoffset: 0; stroke-linejoin: miter; stroke-miterlimit: 4; fill: rgb(255,255,255); fill-rule: nonzero; opacity: 1;" vector-effect="non-scaling-stroke"  transform=" translate(-604.68, -422.02)" d="M 615.14142 425.60656 L 594.21808 425.60656 C 592.5619751071271 425.6047522883468 591.2198877116532 424.26266489287286 591.21808 422.60656 L 591.21808 421.4342 C 591.2198877116532 419.7780951071271 592.5619751071271 418.4360077116532 594.21808 418.4342 L 615.14142 418.4342 C 616.797524892873 418.4360077116532 618.1396122883468 419.7780951071271 618.14142 421.4342 L 618.14142 422.60656 C 618.1396122883468 424.26266489287286 616.797524892873 425.6047522883468 615.14142 425.60656 Z" stroke-linecap="round" />
</g>
<g transform="matrix(0.82 0 0 0.82 214.91 211.32)" id="8P1tssZbG17BnlsYaRbXU"  >
<path style="stroke: none; stroke-width: 1; stroke-dasharray: none; stroke-linecap: butt; stroke-dashoffset: 0; stroke-linejoin: miter; stroke-miterlimit: 4; fill: rgb(255,255,255); fill-rule: nonzero; opacity: 1;" vector-effect="non-scaling-stroke"  transform=" translate(-471, -316.61)" d="M 481.462 320.19494 L 460.53839 320.19494 C 458.88228510712713 320.19313228834676 457.5401977116532 318.85104489287284 457.53839 317.19494 L 457.53839 316.02257999999995 C 457.5401977116532 314.3664751071271 458.88228510712713 313.02438771165316 460.53839 313.02257999999995 L 481.462 313.02257999999995 C 483.11810489287285 313.02438771165316 484.4601922883468 314.3664751071271 484.462 316.02257999999995 L 484.462 317.19494 C 484.4601922883468 318.85104489287284 483.11810489287285 320.19313228834676 481.462 320.19494 Z" stroke-linecap="round" />
</g>
<g transform="matrix(0.82 0 0 0.82 274.05 160.22)" id="P1me4RyWpKL-63Im2xmg9"  >
<path style="stroke: none; stroke-width: 1; stroke-dasharray: none; stroke-linecap: butt; stroke-dashoffset: 0; stroke-linejoin: miter; stroke-miterlimit: 4; fill: rgb(255,255,255); fill-rule: nonzero; opacity: 1;" vector-effect="non-scaling-stroke"  transform=" translate(-543.18, -254.24)" d="M 553.639 257.83117 L 532.71564 257.83117 C 531.0595351071271 257.8293622883468 529.7174477116532 256.48727489287285 529.71564 254.83117 L 529.71564 253.65881 C 529.7174477116532 252.0027051071271 531.0595351071271 250.66061771165317 532.71564 250.65881 L 553.639 250.65881 C 555.2951048928729 250.66061771165317 556.6371922883468 252.0027051071271 556.639 253.65881 L 556.639 254.83117 C 556.6371922883468 256.48727489287285 555.2951048928729 257.8293622883468 553.639 257.83117 Z" stroke-linecap="round" />
</g>
<g transform="matrix(0.82 0 0 0.82 352.26 203.67)" id="IRdJ7xGXv-zfjL9e4yZ3P"  >
<path style="stroke: none; stroke-width: 1; stroke-dasharray: none; stroke-linecap: butt; stroke-dashoffset: 0; stroke-linejoin: miter; stroke-miterlimit: 4; fill: rgb(255,255,255); fill-rule: nonzero; opacity: 1;" vector-effect="non-scaling-stroke"  transform=" translate(-638.65, -307.28)" d="M 649.11285 310.86486 L 628.18927 310.86486 C 626.533165107127 310.8630522883468 625.1910777116532 309.5209648928729 625.18927 307.86486 L 625.18927 306.6925 C 625.1910777116532 305.03639510712713 626.533165107127 303.6943077116532 628.18927 303.6925 L 649.11285 303.6925 C 650.7689548928729 303.6943077116532 652.1110422883468 305.03639510712713 652.11285 306.6925 L 652.11285 307.86486 C 652.1110422883468 309.5209648928729 650.7689548928729 310.8630522883468 649.11285 310.86486 Z" stroke-linecap="round" />
</g>
</svg>